<?xml version="1.0" encoding="utf-8"?>
<svg xmlns="http://www.w3.org/2000/svg" viewBox="0 0 24 24" fill="#f77e46"><path d="M22.171,11.281l-1.904-1.968l0.383-2.711c0.078-0.552-0.296-1.066-0.845-1.163l-2.697-0.473l-1.283-2.418 C15.565,2.057,14.96,1.86,14.46,2.105L12,3.307L9.54,2.105C9.04,1.86,8.435,2.057,8.174,2.549L6.891,4.968L4.194,5.441 C3.645,5.537,3.271,6.051,3.349,6.603l0.383,2.711l-1.904,1.968c-0.388,0.401-0.388,1.036,0,1.437l1.904,1.968l-0.383,2.711 c-0.078,0.552,0.296,1.066,0.845,1.163l2.697,0.473l1.283,2.418c0.261,0.492,0.866,0.689,1.367,0.444L12,20.693l2.46,1.202 c0.501,0.245,1.105,0.048,1.367-0.444l1.283-2.418l2.697-0.473c0.549-0.096,0.923-0.611,0.845-1.163l-0.383-2.711l1.904-1.968 C22.558,12.318,22.558,11.682,22.171,11.281z M11,16.414l-3.707-3.707l1.414-1.414L11,13.586l5.293-5.293l1.414,1.414L11,16.414z" fill="#f77e46"/></svg>
