<?xml version="1.0" encoding="UTF-8"?>
<svg width="24px" height="24px" viewBox="0 0 24 24" version="1.1" xmlns="http://www.w3.org/2000/svg" xmlns:xlink="http://www.w3.org/1999/xlink">
    <!-- Generator: Sketch 55.2 (78181) - https://sketchapp.com -->
    <title>Icons/arrow-left-white</title>
    <desc>Created with Sketch.</desc>
    <g id="Icons/arrow-left" stroke="none" stroke-width="1" fill="none" fill-rule="evenodd">
        <path d="M16.5857864,11 L13.2928932,7.70710678 C12.9023689,7.31658249 12.9023689,6.68341751 13.2928932,6.29289322 C13.6834175,5.90236893 14.3165825,5.90236893 14.7071068,6.29289322 L19.7071068,11.2928932 C20.0976311,11.6834175 20.0976311,12.3165825 19.7071068,12.7071068 L14.7071068,17.7071068 C14.3165825,18.0976311 13.6834175,18.0976311 13.2928932,17.7071068 C12.9023689,17.3165825 12.9023689,16.6834175 13.2928932,16.2928932 L16.5857864,13 L5,13 C4.44771525,13 4,12.5522847 4,12 C4,11.4477153 4.44771525,11 5,11 L16.5857864,11 Z" id="icon" fill="#FFFFFF" transform="translate(12.000000, 12.000000) scale(-1, 1) translate(-12.000000, -12.000000) "></path>
    </g>
</svg>