<?xml version="1.0" encoding="UTF-8"?>
<svg width="24px" height="24px" viewBox="0 0 24 24" version="1.1" xmlns="http://www.w3.org/2000/svg" xmlns:xlink="http://www.w3.org/1999/xlink">
    <!-- Generator: Sketch 61.2 (89653) - https://sketch.com -->
    <title>Icons/arrow-left-dark</title>
    <desc>Created with Sketch.</desc>
    <g id="Icons/arrow-left" stroke="none" stroke-width="1" fill="none" fill-rule="evenodd">
        <path d="M13.2928932,6.29289322 C13.6834175,5.90236893 14.3165825,5.90236893 14.7071068,6.29289322 L14.7071068,6.29289322 L19.7071068,11.2928932 C19.7355731,11.3213595 19.7623312,11.3515341 19.787214,11.3832499 C19.7927155,11.3901576 19.7982466,11.397397 19.8036654,11.4046934 C19.8215099,11.4288693 19.8382813,11.453725 19.8539326,11.4793398 C19.8613931,11.4913869 19.8685012,11.5036056 19.8753288,11.5159379 C19.8862061,11.5357061 19.8966234,11.5561086 19.9063462,11.5769009 C19.914321,11.5939015 19.9218036,11.6112044 19.9287745,11.628664 C19.9366843,11.6484208 19.9438775,11.6682023 19.9504533,11.6882636 C19.9552713,11.7031487 19.9599023,11.7185367 19.9641549,11.734007 C19.9701664,11.7555635 19.9753602,11.7772539 19.9798348,11.7992059 C19.9832978,11.8166247 19.9863719,11.834051 19.9889822,11.8515331 C19.9962388,11.8996379 20,11.9493797 20,12 L19.9962979,11.9137692 C19.9978436,11.9317345 19.9989053,11.9497336 19.9994829,11.9677454 L20,12 C20,12.0112225 19.9998151,12.0224019 19.9994483,12.0335352 C19.9988772,12.050591 19.997855,12.0679231 19.996384,12.0852242 C19.994564,12.1070574 19.9920941,12.1281144 19.9889807,12.1489612 C19.9863719,12.165949 19.9832978,12.1833753 19.9797599,12.2007258 C19.9753602,12.2227461 19.9701664,12.2444365 19.964279,12.2658396 C19.9599023,12.2814633 19.9552713,12.2968513 19.9502619,12.3121425 C19.9438775,12.3317977 19.9366843,12.3515792 19.928896,12.3710585 C19.9218036,12.3887956 19.914321,12.4060985 19.9063266,12.4232215 C19.8966234,12.4438914 19.8862061,12.4642939 19.8751242,12.484277 C19.8685012,12.4963944 19.8613931,12.5086131 19.8540045,12.5207088 C19.8382813,12.546275 19.8215099,12.5711307 19.8036865,12.5951593 C19.774687,12.6343256 19.7425008,12.6717127 19.7071068,12.7071068 L19.787214,12.6167501 C19.7849289,12.6196628 19.7826279,12.6225624 19.7803112,12.625449 L19.7071068,12.7071068 L14.7071068,17.7071068 C14.3165825,18.0976311 13.6834175,18.0976311 13.2928932,17.7071068 C12.9023689,17.3165825 12.9023689,16.6834175 13.2928932,16.2928932 L13.2928932,16.2928932 L16.585,13 L5,13 C4.48716416,13 4.06449284,12.6139598 4.00672773,12.1166211 L4,12 C4,11.4477153 4.44771525,11 5,11 L5,11 L16.585,11 L13.2928932,7.70710678 C12.9324093,7.34662282 12.9046797,6.77939176 13.2097046,6.38710056 Z" id="icon" fill="#574B8A" transform="translate(12.000000, 12.000000) scale(-1, 1) translate(-12.000000, -12.000000) "></path>
    </g>
</svg>