<svg width="90" height="86" viewBox="0 0 90 86" fill="none" xmlns="http://www.w3.org/2000/svg">
<path d="M23 66H67C67 56.0576 60.1405 47.7089 50.8181 45.1973C55.7012 42.96 59.107 38.0031 59.107 32.2378C59.107 24.3713 52.7873 18 45.0044 18C37.2145 18 30.9001 24.3767 30.9001 32.2378C30.9001 38.0085 34.3023 42.9582 39.189 45.1973C29.8595 47.7089 23 56.0576 23 66Z" fill="#642EFF"/>
<path d="M3.03357 26.6551C4.7081 26.6551 6.06714 25.296 6.06714 23.6215V6.76294H22.9257C24.6002 6.76294 25.9593 5.4039 25.9593 3.72937C25.9593 2.05484 24.6002 0.695801 22.9257 0.695801H5.61211C2.51584 0.695801 0 3.21164 0 6.30791V23.6215C0 25.296 1.355 26.6551 3.03357 26.6551Z" fill="#642EFF"/>
<path d="M84.3867 0.695801H67.0711C65.3986 0.695801 64.0375 2.05484 64.0375 3.72937C64.0375 5.4039 65.3986 6.76294 67.0711 6.76294H83.9297V23.6215C83.9297 25.296 85.2907 26.6551 86.9632 26.6551C88.6357 26.6551 89.9968 25.296 89.9968 23.6215V6.30993C89.9988 3.21569 87.4789 0.695801 84.3867 0.695801Z" fill="#642EFF"/>
<path d="M86.9642 59.345C85.2897 59.345 83.9306 60.704 83.9306 62.3785V79.2371H67.0721C65.3976 79.2371 64.0385 80.5962 64.0385 82.2707C64.0385 83.9452 65.3976 85.3043 67.0721 85.3043H84.3837C87.4779 85.3043 89.9978 82.7844 89.9978 79.6901V62.3785C89.9978 60.704 88.6387 59.345 86.9642 59.345Z" fill="#642EFF"/>
<path d="M22.9257 79.2371H6.06714V62.3785C6.06714 60.704 4.7081 59.345 3.03357 59.345C1.355 59.345 0 60.704 0 62.3785V79.6901C0 82.7844 2.51584 85.3043 5.61211 85.3043H22.9257C24.6002 85.3043 25.9593 83.9452 25.9593 82.2707C25.9593 80.5962 24.6023 79.2371 22.9257 79.2371Z" fill="#642EFF"/>
</svg>
