<?xml version="1.0" encoding="UTF-8"?>
<svg width="24px" height="24px" viewBox="0 0 24 24" version="1.1" xmlns="http://www.w3.org/2000/svg" xmlns:xlink="http://www.w3.org/1999/xlink">
    <!-- Generator: Sketch 61.2 (89653) - https://sketch.com -->
    <title>Icons/check-circle-dark</title>
    <desc>Created with Sketch.</desc>
    <g id="Icons/check-circle" stroke="none" stroke-width="1" fill="none" fill-rule="evenodd">
        <path d="M16.4769998,1.94657177 C16.9814723,2.17135157 17.208208,2.76252735 16.9834282,3.26699984 C16.7586484,3.77147232 16.1674726,3.99820803 15.6630002,3.77342823 C12.0222415,2.15120099 7.74811661,3.11688301 5.15844694,6.14679316 C2.56877726,9.17670331 2.28046513,13.5490667 4.44985974,16.8927879 C6.61925436,20.2365091 10.7295699,21.7550583 14.5518173,20.6249391 C18.2871955,19.5205044 20.877845,16.1435426 20.9957993,12.2709618 L21,12 L21,11.08 C21,10.5277153 21.4477153,10.08 22,10.08 C22.5128358,10.08 22.9355072,10.4660402 22.9932723,10.9633789 L23,11.08 L23,12.0005718 C22.9972144,16.8721262 19.7905232,21.161606 15.1188875,22.5428628 C10.4472518,23.9241196 5.42353274,22.0681151 2.77205043,17.9813447 C0.120568123,13.8945744 0.472949627,8.55057464 3.63810145,4.84735113 C6.80325327,1.14412761 12.0271837,-0.0361504183 16.4769998,1.94657177 Z M22.7067533,3.29253993 C23.0674174,3.6528437 23.0954304,4.22006082 22.7906016,4.61250442 L22.7074601,4.70675332 L12.7074601,14.7167533 C12.347029,15.0775448 11.7795698,15.1054329 11.3871346,14.800322 L11.2928932,14.7171068 L8.29289322,11.7171068 C7.90236893,11.3265825 7.90236893,10.6934175 8.29289322,10.3028932 C8.65337718,9.94240926 9.22060824,9.91467972 9.61289944,10.2197046 L9.70710678,10.3028932 L12,12.595 L21.2925399,3.29324668 C21.682869,2.90252728 22.3160339,2.90221085 22.7067533,3.29253993 Z" id="icon" fill="#574B8A"></path>
    </g>
</svg>