<?xml version="1.0" encoding="UTF-8"?>
<svg width="36px" height="27px" viewBox="0 0 36 27" version="1.1" xmlns="http://www.w3.org/2000/svg" xmlns:xlink="http://www.w3.org/1999/xlink">
    <!-- Generator: Sketch 61.2 (89653) - https://sketch.com -->
    <title>Objects/clip</title>
    <desc>Created with Sketch.</desc>
    <g id="Objects/clip" stroke="none" stroke-width="1" fill="none" fill-rule="evenodd">
        <g id="Clip" fill-rule="nonzero">
            <g id="XMLID_7_" opacity="0.3" transform="translate(3.000000, 0.000000)" fill="#2D2D2D">
                <path d="M31.909,23.184 C30.291,25.948 26.726,26.88 23.962,25.262 L4.345,13.777 C0.931,11.778 -0.221,7.374 1.778,3.96 C3.777,0.546 8.181,-0.606 11.595,1.393 L29.148,11.669 C29.531,11.893 29.66,12.386 29.436,12.769 C29.212,13.152 28.719,13.281 28.336,13.057 L10.783,2.781 C8.134,1.23 4.717,2.124 3.166,4.773 C1.615,7.422 2.509,10.839 5.158,12.39 L24.775,23.875 C26.774,25.045 29.352,24.371 30.522,22.372 C31.692,20.373 31.018,17.795 29.019,16.625 L11.431,6.328 C10.42,5.736 9.163,6.064 8.571,7.076 C7.979,8.088 8.307,9.344 9.319,9.936 L24.531,18.841 C24.914,19.065 25.043,19.558 24.819,19.941 C24.595,20.324 24.102,20.453 23.719,20.229 L8.507,11.324 C6.747,10.294 6.154,8.024 7.184,6.264 C8.214,4.504 10.484,3.911 12.244,4.941 L29.832,15.238 C32.595,16.855 33.528,20.42 31.909,23.184 Z" id="Path"></path>
            </g>
            <g id="XMLID_15_" fill="#FDFFFF">
                <path d="M32.108,23.594 C30.49,26.358 26.925,27.29 24.161,25.672 L4.526,14.177 C1.112,12.178 -0.04,7.774 1.959,4.36 C3.958,0.946 8.362,-0.206 11.776,1.793 L29.329,12.069 C29.712,12.293 29.841,12.786 29.617,13.169 C29.393,13.552 28.9,13.681 28.517,13.457 L10.964,3.181 C8.315,1.63 4.898,2.524 3.347,5.173 C1.796,7.822 2.69,11.239 5.339,12.79 L24.974,24.285 C26.973,25.455 29.551,24.781 30.721,22.782 C31.891,20.783 31.217,18.205 29.218,17.035 L11.63,6.738 C10.619,6.146 9.362,6.474 8.77,7.486 C8.178,8.497 8.506,9.754 9.518,10.346 L24.73,19.251 C25.113,19.475 25.242,19.968 25.018,20.351 C24.794,20.734 24.301,20.863 23.918,20.639 L8.706,11.734 C6.946,10.704 6.353,8.434 7.383,6.674 C8.413,4.914 10.683,4.321 12.443,5.351 L30.031,15.648 C32.794,17.264 33.726,20.83 32.108,23.594 Z" id="Path"></path>
            </g>
        </g>
    </g>
</svg>