<?xml version="1.0" encoding="UTF-8"?>
<svg width="24px" height="24px" viewBox="0 0 24 24" version="1.1" xmlns="http://www.w3.org/2000/svg" xmlns:xlink="http://www.w3.org/1999/xlink">
    <!-- Generator: Sketch 61.2 (89653) - https://sketch.com -->
    <title>Icons/clock-white</title>
    <desc>Created with Sketch.</desc>
    <g id="Icons/clock" stroke="none" stroke-width="1" fill="none" fill-rule="evenodd">
        <path d="M12,1 C18.0751322,1 23,5.92486775 23,12 C23,18.0751322 18.0751322,23 12,23 C5.92486775,23 1,18.0751322 1,12 C1,5.92486775 5.92486775,1 12,1 Z M12,3 C7.02943725,3 3,7.02943725 3,12 C3,16.9705627 7.02943725,21 12,21 C16.9705627,21 21,16.9705627 21,12 C21,7.02943725 16.9705627,3 12,3 Z M12,5 C12.5522847,5 13,5.44771525 13,6 L13,11.381966 L16.4472136,13.1055728 C16.9411921,13.3525621 17.1414164,13.9532351 16.8944272,14.4472136 C16.6474379,14.9411921 16.0467649,15.1414164 15.5527864,14.8944272 L11.5527864,12.8944272 C11.2140024,12.7250352 11,12.3787721 11,12 L11,6 C11,5.44771525 11.4477153,5 12,5 Z" id="icon" fill="#FFFFFF"></path>
    </g>
</svg>