<?xml version="1.0" encoding="UTF-8"?>
<svg width="80px" height="80px" viewBox="0 0 80 80" version="1.1" xmlns="http://www.w3.org/2000/svg" xmlns:xlink="http://www.w3.org/1999/xlink">
    <!-- Generator: Sketch 61.2 (89653) - https://sketch.com -->
    <title>Icons (Decorative)/commercial</title>
    <desc>Created with Sketch.</desc>
    <defs>
        <circle id="path-1" cx="66" cy="2" r="1"></circle>
        <circle id="path-2" cx="72" cy="4" r="4"></circle>
        <circle id="path-3" cx="70" cy="65" r="2"></circle>
        <circle id="path-4" cx="4" cy="52" r="4"></circle>
        <circle id="path-5" cx="10" cy="56" r="1"></circle>
    </defs>
    <g id="Icons-(Decorative)/commercial" stroke="none" stroke-width="1" fill="none" fill-rule="evenodd">
        <g id="icons8-commercial" transform="translate(1.000000, 1.000000)">
            <g id="Group">
                <circle id="Oval" fill="#EE3E54" fill-rule="nonzero" cx="2" cy="18" r="2"></circle>
                <g id="Oval">
                    <use fill="#F5684F" xlink:href="#path-1"></use>
                    <use fill="#FF7D54" xlink:href="#path-1"></use>
                    <use fill="#FF6755" xlink:href="#path-1"></use>
                    <use fill="#FFA949" xlink:href="#path-1"></use>
                </g>
                <circle id="Oval" fill="#FCE0A2" fill-rule="nonzero" cx="39" cy="39" r="37"></circle>
                <g id="Oval">
                    <use fill="#F5684F" xlink:href="#path-2"></use>
                    <use fill="#FF7D54" xlink:href="#path-2"></use>
                    <use fill="#FF6755" xlink:href="#path-2"></use>
                    <use fill="#FFA949" xlink:href="#path-2"></use>
                </g>
                <circle id="Oval" fill="#EE3E54" fill-rule="nonzero" cx="76" cy="13" r="2"></circle>
                <g id="Oval">
                    <use fill="#F5684F" xlink:href="#path-3"></use>
                    <use fill="#FF7D54" xlink:href="#path-3"></use>
                    <use fill="#FF6755" xlink:href="#path-3"></use>
                    <use fill="#FFA949" xlink:href="#path-3"></use>
                </g>
                <g id="Oval">
                    <use fill="#F5684F" xlink:href="#path-4"></use>
                    <use fill="#FF7D54" xlink:href="#path-4"></use>
                    <use fill="#FF6755" xlink:href="#path-4"></use>
                    <use fill="#FFA949" xlink:href="#path-4"></use>
                </g>
                <circle id="Oval" fill="#EE3E54" fill-rule="nonzero" cx="14" cy="76" r="2"></circle>
                <circle id="Oval" fill="#FFFFFF" fill-rule="nonzero" cx="7.5" cy="42.5" r="2.5"></circle>
                <g id="Oval">
                    <use fill="#F5684F" xlink:href="#path-5"></use>
                    <use fill="#FF7D54" xlink:href="#path-5"></use>
                    <use fill="#FF6755" xlink:href="#path-5"></use>
                    <use fill="#FFA949" xlink:href="#path-5"></use>
                </g>
                <circle id="Oval" fill="#FFFFFF" fill-rule="nonzero" cx="69" cy="23" r="1"></circle>
            </g>
            <g id="Group" transform="translate(20.000000, 42.000000)" fill-rule="nonzero">
                <path d="M8.5,2.373 L13.554,15.004 C14.232,16.618 13.662,18.353 12.288,18.859 L12.288,18.859 C10.914,19.365 9.236,18.459 8.558,16.845 L1.5,0.5" id="Path" fill="#58589C"></path>
                <path d="M11.495,19.699 C10.047,19.699 8.575,18.694 7.912,17.117 L0.857,0.777 L2.142,0.222 L9.2,16.568 C9.731,17.831 11.032,18.581 12.046,18.202 C12.56,18.014 12.826,17.611 12.958,17.307 C13.218,16.709 13.2,15.969 12.909,15.276 L7.85,2.633 L9.15,2.113 L14.204,14.745 C14.638,15.777 14.654,16.919 14.242,17.866 C13.901,18.649 13.293,19.235 12.53,19.516 C12.194,19.64 11.845,19.699 11.495,19.699 Z" id="Path" fill="#472B29"></path>
            </g>
            <g id="Group" transform="translate(57.000000, 26.000000)" fill-rule="nonzero">
                <path d="M0.19,1.369 C1.742,1.369 3,5.262 3,10.063 C3,14.864 1.742,18.757 0.19,18.757" id="Path" fill="#FDFCEE"></path>
                <path d="M0.19,19.257 L0.19,18.257 C1.154,18.257 2.5,15.14 2.5,10.064 C2.5,4.987 1.155,1.87 0.19,1.87 L0.19,0.87 C2.363,0.87 3.5,5.495 3.5,10.064 C3.5,14.632 2.363,19.257 0.19,19.257 Z" id="Path" fill="#472B29"></path>
            </g>
            <g id="Group" transform="translate(13.000000, 13.000000)" fill-rule="nonzero">
                <path d="M42.601,44.521 C41.664,44.521 40.902,43.806 40.902,42.927 L40.741,40.871 C40.721,40.622 40.57,40.402 40.344,40.295 L22.718,31.923 C22.623,31.877 22.52,31.855 22.418,31.855 C22.361,31.855 22.305,31.862 22.25,31.876 L4.05,30.268 C2.434,30.265 0.701,27.069 0.701,22.482 C0.701,17.952 2.362,14.806 3.914,14.71 C4.029,14.703 4.137,14.668 4.23,14.612 L22.291,13.077 C22.342,13.089 22.394,13.095 22.445,13.095 C22.543,13.095 22.64,13.074 22.731,13.029 L40.357,4.196 C40.566,4.091 40.71,3.888 40.738,3.656 L40.896,2.382 C40.901,1.417 41.664,0.702 42.601,0.702 C43.538,0.702 44.3,1.417 44.3,2.296 L44.3,42.93 C44.3,43.807 43.538,44.521 42.601,44.521 Z" id="Path" fill="#AFABD4"></path>
                <path d="M42.601,1.4 C43.143,1.4 43.6,1.809 43.6,2.294 L43.6,42.928 C43.6,43.413 43.142,43.822 42.601,43.822 C42.06,43.822 41.602,43.413 41.602,42.928 C41.602,42.891 41.601,42.854 41.598,42.818 L41.44,40.818 C41.401,40.319 41.097,39.879 40.645,39.664 L23.018,31.292 C22.836,31.206 22.641,31.164 22.446,31.164 C22.386,31.164 22.325,31.168 22.265,31.176 L4.11,29.57 C4.069,29.566 4.028,29.565 3.987,29.565 C3.109,29.565 1.4,27.065 1.4,22.481 C1.4,18.324 2.939,15.471 3.957,15.408 C4.121,15.398 4.277,15.36 4.42,15.299 L22.208,13.787 C22.277,13.797 22.347,13.802 22.416,13.802 C22.63,13.802 22.845,13.753 23.043,13.654 L40.67,4.82 C41.089,4.61 41.374,4.205 41.432,3.741 L41.59,2.467 C41.597,2.41 41.601,2.352 41.601,2.295 C41.601,1.809 42.059,1.4 42.601,1.4 M42.601,0 C41.282,0 40.202,1.032 40.202,2.294 L40.044,3.568 L22.417,12.401 L22.417,12.363 L3.87,13.94 L3.87,14.011 C1.722,14.144 0,17.88 0,22.481 C0,27.166 1.785,30.965 3.987,30.965 L22.416,32.594 L22.416,32.556 L40.043,40.928 L40.201,42.928 C40.201,44.189 41.281,45.222 42.6,45.222 C43.919,45.222 45,44.19 45,42.927 L45,2.294 C45,1.032 43.921,0 42.601,0 L42.601,0 Z" id="Shape" fill="#472B29"></path>
            </g>
            <path d="M17.775,28.417 L17.28,28.605 C15.711,28.714 14.338,31.852 14.338,35.607 C14.338,39.431 15.643,42.531 17.251,42.531 L17.775,42.583 L17.775,28.417 L17.775,28.417 Z" id="Path" fill="#7979B6" fill-rule="nonzero"></path>
            <path d="M55.52,14.191 C54.889,14.191 54.374,15.166 54.374,16.358 L54.333,17.011 L54.333,53.725 L54.374,54.749 C54.374,55.941 54.89,56.916 55.52,56.916 C56.15,56.916 56.6660015,55.941 56.6660015,54.749 L56.6660015,16.358 C56.667,15.166 56.151,14.191 55.52,14.191 Z" id="Path" fill="#7979B6" fill-rule="nonzero"></path>
            <path d="M17.5,42.75 C17.362,42.75 17.25,42.638 17.25,42.5 L17.25,35.5 C17.25,35.362 17.362,35.25 17.5,35.25 C17.638,35.25 17.75,35.362 17.75,35.5 L17.75,42.5 C17.75,42.638 17.638,42.75 17.5,42.75 Z" id="Path" fill="#472B29" fill-rule="nonzero"></path>
            <path d="M17.5,33.75 C17.362,33.75 17.25,33.638 17.25,33.5 L17.25,28.5 C17.25,28.362 17.362,28.25 17.5,28.25 C17.638,28.25 17.75,28.362 17.75,28.5 L17.75,33.5 C17.75,33.638 17.638,33.75 17.5,33.75 Z" id="Path" fill="#472B29" fill-rule="nonzero"></path>
            <path d="M35.499,30.25 C35.361,30.25 35.249,30.138 35.249,30 L35.249,26.5 C35.249,26.362 35.361,26.25 35.499,26.25 C35.637,26.25 35.749,26.362 35.749,26.5 L35.749,30 C35.749,30.138 35.637,30.25 35.499,30.25 Z" id="Path" fill="#472B29" fill-rule="nonzero"></path>
            <path d="M31.5,31 L20.5,31 C20.224,31 20,30.776 20,30.5 C20,30.224 20.224,30 20.5,30 L31.5,30 C31.776,30 32,30.224 32,30.5 C32,30.776 31.776,31 31.5,31 Z" id="Path" fill="#472B29" fill-rule="nonzero"></path>
            <path d="M31.5,34 L20.5,34 C20.224,34 20,33.776 20,33.5 C20,33.224 20.224,33 20.5,33 L31.5,33 C31.776,33 32,33.224 32,33.5 C32,33.776 31.776,34 31.5,34 Z" id="Path" fill="#472B29" fill-rule="nonzero"></path>
            <path d="M31.5,37 L20.5,37 C20.224,37 20,36.776 20,36.5 C20,36.224 20.224,36 20.5,36 L31.5,36 C31.776,36 32,36.224 32,36.5 C32,36.776 31.776,37 31.5,37 Z" id="Path" fill="#472B29" fill-rule="nonzero"></path>
            <path d="M31.5,40 L20.5,40 C20.224,40 20,39.776 20,39.5 C20,39.224 20.224,39 20.5,39 L31.5,39 C31.776,39 32,39.224 32,39.5 C32,39.776 31.776,40 31.5,40 Z" id="Path" fill="#472B29" fill-rule="nonzero"></path>
            <path d="M35.5,45.25 C35.362,45.25 35.25,45.138 35.25,45 L35.25,35.5 C35.25,35.362 35.362,35.25 35.5,35.25 C35.638,35.25 35.75,35.362 35.75,35.5 L35.75,45 C35.75,45.138 35.638,45.25 35.5,45.25 Z" id="Path" fill="#472B29" fill-rule="nonzero"></path>
            <path d="M53.501,38.5 C53.225,38.5 53.001,38.276 53.001,38 L53.001,17 C53.001,16.724 53.225,16.5 53.501,16.5 C53.777,16.5 54.001,16.724 54.001,17 L54.001,38 C54.001,38.276 53.777,38.5 53.501,38.5 Z" id="Path" fill="#472B29" fill-rule="nonzero"></path>
            <path d="M53.5,44.5 C53.224,44.5 53,44.276 53,44 L53,40.5 C53,40.224 53.224,40 53.5,40 C53.776,40 54,40.224 54,40.5 L54,44 C54,44.276 53.776,44.5 53.5,44.5 Z" id="Path" fill="#472B29" fill-rule="nonzero"></path>
            <path d="M53.502,54.5 C53.226,54.5 53.002,54.276 53.002,54 L53.002,46.5 C53.002,46.224 53.226,46 53.502,46 C53.778,46 54.002,46.224 54.002,46.5 L54.002,54 C54.002,54.276 53.779,54.5 53.502,54.5 Z" id="Path" fill="#472B29" fill-rule="nonzero"></path>
            <path d="M35.5,34.25 C35.362,34.25 35.25,34.138 35.25,34 L35.25,31.5 C35.25,31.362 35.362,31.25 35.5,31.25 C35.638,31.25 35.75,31.362 35.75,31.5 L35.75,34 C35.75,34.138 35.638,34.25 35.5,34.25 Z" id="Path" fill="#472B29" fill-rule="nonzero"></path>
            <path d="M30.057,49.5 C29.955,49.5 29.892,49.496 29.88,49.495 L29.951,48.497 C29.965,48.492 31.388,48.582 32.408,47.627 C33.133,46.948 33.5,45.897 33.5,44.5 L34.5,44.5 C34.5,46.19 34.022,47.491 33.081,48.367 C31.966,49.402 30.551,49.5 30.057,49.5 Z" id="Path" fill="#472B29" fill-rule="nonzero"></path>
        </g>
    </g>
</svg>