<?xml version="1.0" encoding="UTF-8"?>
<svg width="168px" height="206px" viewBox="0 0 168 206" version="1.1" xmlns="http://www.w3.org/2000/svg" xmlns:xlink="http://www.w3.org/1999/xlink">
    <!-- Generator: Sketch 61.2 (89653) - https://sketch.com -->
    <title>Objects/cup</title>
    <desc>Created with Sketch.</desc>
    <g id="Objects/cup" stroke="none" stroke-width="1" fill="none" fill-rule="evenodd">
        <g id="Cup" fill-rule="nonzero">
            <g id="XMLID_202_" opacity="0.3" transform="translate(11.000000, 84.000000)" fill="#2D2D2D">
                <path d="M41.793,17.599 C32.689,4.742 18.232,-0.61 9.435,5.603 C0.638,11.816 0.884,27.257 9.989,40.114 C17.925,51.31 29.982,56.847 38.717,53.894 L76.55,114.242 C79.749,119.286 84.793,120.086 88.546,117.441 C92.299,114.796 93.221,109.813 89.53,105.076 L45.177,49.342 C50.897,42.022 49.667,28.795 41.793,17.599 Z" id="Path"></path>
                <path d="M84.032,121.382 C84.032,121.382 84.032,121.382 84.032,121.382 C80.302,121.382 76.818,119.26 74.472,115.559 L37.601,56.746 C36.363,57.009 35.072,57.141 33.742,57.141 C24.674,57.141 14.803,51.162 7.981,41.538 C2.165,33.325 -0.484,23.62 0.896,15.577 C1.784,10.401 4.246,6.257 8.015,3.595 C10.83,1.607 14.283,0.556 18.001,0.556 C27.091,0.556 36.976,6.542 43.8,16.179 C51.759,27.496 53.45,40.743 48.237,49.239 L91.454,103.545 C93.696,106.423 94.675,109.662 94.226,112.686 C93.824,115.395 92.31,117.799 89.963,119.453 C88.172,120.715 86.121,121.382 84.032,121.382 Z M38.717,51.434 C39.546,51.434 40.343,51.855 40.802,52.587 L78.635,112.935 C80.074,115.205 81.994,116.461 84.032,116.461 L84.032,116.461 C85.1,116.461 86.17,116.104 87.128,115.43 C88.382,114.546 89.153,113.347 89.359,111.963 C89.612,110.259 89,108.401 87.589,106.59 L43.251,50.875 C42.542,49.984 42.537,48.724 43.237,47.827 C48.363,41.269 46.908,29.152 39.78,19.015 C33.958,10.793 25.407,5.476 18.002,5.476 C15.268,5.476 12.863,6.195 10.855,7.613 C8.175,9.506 6.409,12.547 5.747,16.408 C4.584,23.192 6.92,31.522 11.997,38.692 C17.821,46.909 26.357,52.219 33.742,52.219 C35.232,52.219 36.641,51.999 37.929,51.563 C38.189,51.476 38.454,51.434 38.717,51.434 Z" id="Shape"></path>
            </g>
            <g id="XMLID_201_" opacity="0.3" transform="translate(7.000000, 7.000000)" fill="#2D2D2D">
                <path d="M160.336,80.632 C160.336,124.729 124.458,160.607 80.368,160.607 C36.271,160.607 0.393,124.729 0.393,80.632 C0.393,36.543 36.271,0.664 80.368,0.664 C124.458,0.664 160.336,36.542 160.336,80.632 Z" id="Path"></path>
            </g>
            <circle id="XMLID_200_" fill="#FFFFFF" cx="79.983" cy="80.253" r="77.511"></circle>
            <g id="XMLID_199_" transform="translate(8.000000, 81.000000)" fill="#C0C0C0">
                <path d="M40.241,38.747 C45.901,31.427 44.732,18.262 36.796,7.066 C27.692,-5.791 -4.051,16.724 4.992,29.581 C12.928,40.777 24.985,46.314 33.72,43.361 L52.052,72.643 C57.588,74.242 63.371,75.165 69.338,75.473 L40.241,38.747 Z" id="Path"></path>
                <path d="M69.339,77.933 C69.297,77.933 69.254,77.932 69.212,77.93 C62.973,77.608 56.97,76.625 51.369,75.006 C50.787,74.838 50.288,74.461 49.966,73.947 L32.602,46.212 C31.364,46.475 30.073,46.607 28.745,46.607 C19.677,46.607 9.806,40.628 2.984,31.004 C0.305,27.196 0.252,22.369 2.83,17.405 C7.431,8.542 19.504,0.768 28.665,0.768 C33.039,0.768 36.545,2.454 38.804,5.644 C46.77,16.883 48.486,30.111 43.295,38.64 L71.267,73.944 C71.867,74.702 71.968,75.741 71.525,76.6 C71.102,77.422 70.256,77.933 69.339,77.933 Z M53.633,70.531 C56.91,71.428 60.334,72.097 63.867,72.53 L38.311,40.275 C37.608,39.388 37.601,38.137 38.293,37.242 C43.394,30.644 41.92,18.551 34.788,8.489 C33.472,6.631 31.412,5.69 28.664,5.69 C21.362,5.69 10.929,12.486 7.197,19.673 C5.459,23.02 5.394,25.877 7.004,28.165 C12.823,36.376 21.359,41.686 28.744,41.686 C30.234,41.686 31.643,41.466 32.931,41.03 C34.01,40.665 35.2,41.089 35.805,42.055 L53.633,70.531 Z" id="Shape"></path>
            </g>
            <g id="XMLID_198_" transform="translate(128.000000, 75.000000)" fill="#C0C0C0">
                <path d="M22.297,23.093 L2.612,23.093 L2.612,3.408 L22.297,3.408 C25.004,3.408 27.218,5.623 27.218,8.329 L27.218,18.172 C27.218,20.878 25.003,23.093 22.297,23.093 Z" id="Path"></path>
                <path d="M22.297,25.554 L2.612,25.554 C1.253,25.554 0.151,24.452 0.151,23.093 L0.151,3.408 C0.151,2.049 1.253,0.947 2.612,0.947 L22.297,0.947 C26.367,0.947 29.679,4.259 29.679,8.329 L29.679,18.172 C29.679,22.242 26.367,25.554 22.297,25.554 Z M5.072,20.632 L22.297,20.632 C23.654,20.632 24.758,19.528 24.758,18.171 L24.758,8.328 C24.758,6.971 23.654,5.867 22.297,5.867 L5.072,5.867 L5.072,20.632 Z" id="Shape"></path>
            </g>
            <g id="XMLID_197_" transform="translate(30.000000, 37.000000)" fill="#C0C0C0">
                <circle id="Oval" cx="51.829" cy="51.25" r="48.598"></circle>
                <path d="M51.829,102.309 C23.675,102.309 0.77,79.404 0.77,51.25 C0.77,23.096 23.675,0.191 51.829,0.191 C79.983,0.191 102.888,23.096 102.888,51.25 C102.888,79.404 79.982,102.309 51.829,102.309 Z M51.829,5.113 C26.389,5.113 5.692,25.81 5.692,51.25 C5.692,76.69 26.389,97.387 51.829,97.387 C77.269,97.387 97.966,76.69 97.966,51.25 C97.966,25.81 77.269,5.113 51.829,5.113 Z" id="Shape"></path>
            </g>
            <g id="XMLID_196_" fill="#472B29">
                <path d="M79.983,160.225 C35.887,160.225 0.011,124.35 0.011,80.253 C0.011,36.157 35.886,0.281 79.983,0.281 C124.08,0.281 159.955,36.156 159.955,80.253 C159.955,124.35 124.08,160.225 79.983,160.225 Z M79.983,5.203 C38.6,5.203 4.933,38.87 4.933,80.253 C4.933,121.636 38.6,155.303 79.983,155.303 C121.366,155.303 155.033,121.636 155.033,80.253 C155.033,38.87 121.366,5.203 79.983,5.203 Z" id="Shape"></path>
            </g>
            <g id="XMLID_191_" transform="translate(1.000000, 77.000000)">
                <path d="M41.95,17.217 C32.846,4.36 18.389,-0.992 9.592,5.221 C0.795,11.434 1.041,26.875 10.146,39.732 C18.082,50.928 30.139,56.465 38.874,53.512 L76.707,113.86 C79.906,118.904 84.95,119.704 88.703,117.059 C92.456,114.414 93.378,109.431 89.687,104.694 L45.334,48.96 C51.055,41.64 49.824,28.413 41.95,17.217 Z" id="XMLID_195_" fill="#FFFFFF"></path>
                <g id="XMLID_194_" transform="translate(25.000000, 4.000000)" fill="#C0C0C0">
                    <path d="M21.072,42.561 C22.856,34.564 19.165,24.967 13.567,15.617 C10.245,10.142 7.354,5.774 2.925,2.637 C2.924,18.569 10.245,32.472 21.072,42.561 Z" id="Path"></path>
                    <path d="M21.072,45.022 C20.458,45.022 19.856,44.792 19.394,44.362 C7.186,32.986 0.464,18.168 0.464,2.637 C0.464,1.717 0.977,0.874 1.794,0.451 C2.611,0.029 3.596,0.097 4.347,0.629 C9.219,4.08 12.358,8.88 15.671,14.34 C22.643,25.987 25.193,35.389 23.474,43.097 C23.282,43.958 22.644,44.651 21.801,44.911 C21.561,44.986 21.315,45.022 21.072,45.022 Z M5.749,8.571 C7.02,18.904 11.597,28.706 19.016,36.961 C18.657,31.411 16.128,24.684 11.456,16.88 C9.54,13.723 7.775,10.93 5.749,8.571 Z" id="Shape"></path>
                </g>
                <g id="XMLID_193_" transform="translate(9.000000, 17.000000)" fill="#472B29">
                    <path d="M9.82,23.963 C9.493,23.963 9.166,23.833 8.924,23.576 C8.025,22.621 7.115,21.51 6.061,20.079 C2.016,14.379 -0.23,7.56 0.04,1.821 C0.072,1.142 0.639,0.603 1.327,0.65 C2.006,0.682 2.53,1.258 2.498,1.937 C2.253,7.146 4.33,13.389 8.055,18.638 C9.036,19.97 9.886,21.009 10.716,21.89 C11.182,22.384 11.158,23.164 10.664,23.629 C10.426,23.851 10.123,23.963 9.82,23.963 Z" id="Path"></path>
                </g>
                <g id="XMLID_192_" fill="#472B29">
                    <path d="M84.19,121 C84.19,121 84.189,121 84.19,121 C80.46,121 76.976,118.878 74.63,115.177 L37.759,56.364 C36.521,56.627 35.23,56.759 33.9,56.759 C24.832,56.759 14.961,50.78 8.139,41.156 C2.323,32.943 -0.326,23.238 1.054,15.195 C1.942,10.019 4.404,5.875 8.173,3.213 C10.988,1.225 14.441,0.174 18.159,0.174 C27.249,0.174 37.134,6.16 43.958,15.797 C51.917,27.114 53.608,40.361 48.395,48.857 L91.612,103.163 C93.854,106.041 94.833,109.28 94.384,112.304 C93.982,115.013 92.468,117.417 90.121,119.071 C88.329,120.333 86.278,121 84.19,121 Z M38.874,51.052 C39.703,51.052 40.5,51.473 40.959,52.205 L78.792,112.553 C80.231,114.823 82.151,116.079 84.189,116.079 L84.189,116.079 C85.257,116.079 86.327,115.722 87.285,115.048 C88.539,114.164 89.31,112.965 89.516,111.581 C89.769,109.877 89.157,108.019 87.746,106.208 L43.408,50.493 C42.699,49.602 42.694,48.342 43.394,47.445 C48.52,40.887 47.065,28.77 39.937,18.633 C34.115,10.411 25.564,5.094 18.159,5.094 C15.425,5.094 13.02,5.813 11.012,7.231 C8.332,9.124 6.566,12.165 5.904,16.026 C4.741,22.81 7.077,31.14 12.154,38.31 C17.978,46.527 26.514,51.837 33.899,51.837 C35.389,51.837 36.798,51.617 38.086,51.181 C38.346,51.094 38.612,51.052 38.874,51.052 Z" id="Shape"></path>
                </g>
            </g>
            <path d="M148.451,90.096 L124.706,90.096 L124.706,70.41 L148.451,70.41 C151.158,70.41 153.372,72.625 153.372,75.331 L153.372,85.174 C153.373,87.881 151.158,90.096 148.451,90.096 Z" id="XMLID_190_" fill="#FFFFFF"></path>
            <g id="XMLID_189_" transform="translate(122.000000, 67.000000)" fill="#472B29">
                <path d="M26.451,25.556 L2.706,25.556 C1.347,25.556 0.245,24.454 0.245,23.095 L0.245,3.41 C0.245,2.051 1.347,0.949 2.706,0.949 L26.451,0.949 C30.521,0.949 33.833,4.261 33.833,8.331 L33.833,18.174 C33.833,22.245 30.522,25.556 26.451,25.556 Z M5.167,20.635 L26.452,20.635 C27.809,20.635 28.913,19.531 28.913,18.174 L28.913,8.331 C28.913,6.974 27.809,5.87 26.452,5.87 L5.167,5.87 L5.167,20.635 Z" id="Shape"></path>
            </g>
            <circle id="XMLID_188_" fill="#FFFFFF" cx="79.983" cy="80.253" r="48.598"></circle>
            <g id="XMLID_187_" transform="translate(28.000000, 29.000000)" fill="#472B29">
                <path d="M51.983,102.312 C23.829,102.312 0.924,79.407 0.924,51.253 C0.924,23.099 23.829,0.194 51.983,0.194 C80.137,0.194 103.042,23.099 103.042,51.253 C103.042,79.407 80.137,102.312 51.983,102.312 Z M51.983,5.116 C26.543,5.116 5.846,25.813 5.846,51.253 C5.846,76.693 26.543,97.39 51.983,97.39 C77.423,97.39 98.12,76.693 98.12,51.253 C98.12,25.813 77.423,5.116 51.983,5.116 Z" id="Shape"></path>
            </g>
            <circle id="XMLID_186_" fill="#472B29" cx="79.983" cy="80.253" r="38.94"></circle>
            <g id="XMLID_185_" transform="translate(50.000000, 48.000000)" fill="#FFFFFF">
                <path d="M30.106,66.026 C17.741,66.026 6.471,59.181 0.692,48.162 C0.297,47.41 0.587,46.48 1.34,46.086 C2.091,45.692 3.022,45.981 3.416,46.734 C8.661,56.737 18.888,62.951 30.106,62.951 C46.659,62.951 60.126,49.484 60.126,32.931 C60.126,17.752 48.78,4.921 33.734,3.084 C32.891,2.981 32.291,2.214 32.394,1.371 C32.497,0.528 33.267,-0.074 34.107,0.031 C50.694,2.055 63.203,16.199 63.203,32.931 C63.202,51.179 48.356,66.026 30.106,66.026 Z" id="Path"></path>
            </g>
            <g id="XMLID_184_" transform="translate(80.000000, 56.000000)" fill="#FFFFFF">
                <path d="M21.637,21.547 C20.981,21.547 20.374,21.124 20.169,20.465 C17.479,11.812 10.261,5.284 1.332,3.428 C0.501,3.255 -0.033,2.441 0.139,1.609 C0.312,0.778 1.124,0.242 1.958,0.416 C11.982,2.499 20.085,9.831 23.106,19.551 C23.358,20.362 22.905,21.224 22.094,21.476 C21.942,21.524 21.788,21.547 21.637,21.547 Z" id="Path"></path>
            </g>
        </g>
    </g>
</svg>