<?xml version="1.0" encoding="UTF-8"?>
<svg width="80px" height="80px" viewBox="0 0 80 80" version="1.1" xmlns="http://www.w3.org/2000/svg" xmlns:xlink="http://www.w3.org/1999/xlink">
    <!-- Generator: Sketch 61.2 (89653) - https://sketch.com -->
    <title>Icons (Decorative)/database</title>
    <desc>Created with Sketch.</desc>
    <defs>
        <circle id="path-1" cx="66" cy="2" r="1"></circle>
        <circle id="path-2" cx="72" cy="4" r="4"></circle>
        <circle id="path-3" cx="70" cy="65" r="2"></circle>
        <circle id="path-4" cx="4" cy="52" r="4"></circle>
        <circle id="path-5" cx="10" cy="56" r="1"></circle>
    </defs>
    <g id="Icons-(Decorative)/database" stroke="none" stroke-width="1" fill="none" fill-rule="evenodd">
        <g id="icons8-database" transform="translate(1.000000, 1.000000)">
            <g id="Group">
                <circle id="Oval" fill="#EE3E54" fill-rule="nonzero" cx="2" cy="18" r="2"></circle>
                <g id="Oval">
                    <use fill="#F5684F" xlink:href="#path-1"></use>
                    <use fill="#FF7D54" xlink:href="#path-1"></use>
                    <use fill="#FF6755" xlink:href="#path-1"></use>
                    <use fill="#FFA949" xlink:href="#path-1"></use>
                </g>
                <circle id="Oval" fill="#FCE0A2" fill-rule="nonzero" cx="39" cy="39" r="37"></circle>
                <g id="Oval">
                    <use fill="#F5684F" xlink:href="#path-2"></use>
                    <use fill="#FF7D54" xlink:href="#path-2"></use>
                    <use fill="#FF6755" xlink:href="#path-2"></use>
                    <use fill="#FFA949" xlink:href="#path-2"></use>
                </g>
                <circle id="Oval" fill="#EE3E54" fill-rule="nonzero" cx="76" cy="13" r="2"></circle>
                <g id="Oval">
                    <use fill="#F5684F" xlink:href="#path-3"></use>
                    <use fill="#FF7D54" xlink:href="#path-3"></use>
                    <use fill="#FF6755" xlink:href="#path-3"></use>
                    <use fill="#FFA949" xlink:href="#path-3"></use>
                </g>
                <g id="Oval">
                    <use fill="#F5684F" xlink:href="#path-4"></use>
                    <use fill="#FF7D54" xlink:href="#path-4"></use>
                    <use fill="#FF6755" xlink:href="#path-4"></use>
                    <use fill="#FFA949" xlink:href="#path-4"></use>
                </g>
                <circle id="Oval" fill="#EE3E54" fill-rule="nonzero" cx="14" cy="76" r="2"></circle>
                <circle id="Oval" fill="#FFFFFF" fill-rule="nonzero" cx="7.5" cy="42.5" r="2.5"></circle>
                <g id="Oval">
                    <use fill="#F5684F" xlink:href="#path-5"></use>
                    <use fill="#FF7D54" xlink:href="#path-5"></use>
                    <use fill="#FF6755" xlink:href="#path-5"></use>
                    <use fill="#FFA949" xlink:href="#path-5"></use>
                </g>
                <circle id="Oval" fill="#FFFFFF" fill-rule="nonzero" cx="69" cy="23" r="1"></circle>
            </g>
            <g id="Group" transform="translate(16.000000, 16.000000)" fill-rule="nonzero">
                <path d="M8,45.3 C3.975,45.3 0.7,42.026 0.7,38 L0.7,8 C0.7,3.975 3.974,0.7 8,0.7 L38,0.7 C42.025,0.7 45.3,3.974 45.3,8 L45.3,38 C45.3,42.025 42.026,45.3 38,45.3 L8,45.3 Z" id="Path" fill="#8889B9"></path>
                <path d="M38,1.4 C41.639,1.4 44.6,4.361 44.6,8 L44.6,38 C44.6,41.639 41.639,44.6 38,44.6 L8,44.6 C4.361,44.6 1.4,41.639 1.4,38 L1.4,8 C1.4,4.361 4.361,1.4 8,1.4 L38,1.4 M38,0 L8,0 C3.6,0 0,3.6 0,8 L0,38 C0,42.4 3.6,46 8,46 L38,46 C42.4,46 46,42.4 46,38 L46,8 C46,3.6 42.4,0 38,0 L38,0 Z" id="Shape" fill="#472B29"></path>
            </g>
            <path d="M57.5,36.875 L57.5,38.625 L57.5,53 C57.5,55.475 55.475,57.5 53,57.5 L25,57.5 C22.525,57.5 20.5,55.475 20.5,53 L20.5,25 C20.5,22.525 22.525,20.5 25,20.5 L50.375,20.5 L53,20.5 C55.475,20.5 57.5,22.525 57.5,25 L57.5,28.375 L57.5,30.375 L57.5,31.375 L57.5,32.5 L57.5,35.375 L57.5,36.875" id="Path" fill="#FFFEF4" fill-rule="nonzero"></path>
            <path d="M57.5,36.375 C57.224,36.375 57,36.151 57,35.875 L57,32 C57,31.724 57.224,31.5 57.5,31.5 C57.776,31.5 58,31.724 58,32 L58,35.875 C58,36.151 57.776,36.375 57.5,36.375 Z" id="Path" fill="#472B29" fill-rule="nonzero"></path>
            <path d="M57.5,29.5 C57.224,29.5 57,29.276 57,29 L57,27 C57,26.724 57.224,26.5 57.5,26.5 C57.776,26.5 58,26.724 58,27 L58,29 C58,29.276 57.776,29.5 57.5,29.5 Z" id="Path" fill="#472B29" fill-rule="nonzero"></path>
            <path d="M53,58 L25,58 C22.243,58 20,55.757 20,53 L20,25 C20,22.243 22.243,20 25,20 L50.375,20 C50.651,20 50.875,20.224 50.875,20.5 C50.875,20.776 50.651,21 50.375,21 L25,21 C22.794,21 21,22.794 21,25 L21,53 C21,55.206 22.794,57 25,57 L53,57 C55.206,57 57,55.206 57,53 L57,38.625 C57,38.349 57.224,38.125 57.5,38.125 C57.776,38.125 58,38.349 58,38.625 L58,53 C58,55.757 55.757,58 53,58 Z" id="Path" fill="#472B29" fill-rule="nonzero"></path>
            <path d="M47.611,43.334 C47.611,41.942 43.756,40.814 39.001,40.814 C34.246,40.814 30.391,41.942 30.391,43.334 L30.391,48.089 C30.391,49.481 34.246,50.609 39.001,50.609 C43.757,50.609 47.611,49.481 47.611,48.089 L47.611,43.334 L47.611,43.334 Z" id="Path" fill="#8889B9" fill-rule="nonzero"></path>
            <ellipse id="Oval" fill="#A1A1CA" fill-rule="nonzero" cx="38.999" cy="43.334" rx="8.61" ry="2.52"></ellipse>
            <path d="M47.611,36.406 C47.611,35.014 43.756,33.886 39.001,33.886 C34.246,33.886 30.391,35.014 30.391,36.406 L30.391,41.161 C30.391,42.553 34.246,43.681 39.001,43.681 C43.757,43.681 47.611,42.553 47.611,41.161 L47.611,36.406 L47.611,36.406 Z" id="Path" fill="#8889B9" fill-rule="nonzero"></path>
            <path d="M44,38.458 C42.591,38.753 40.865,38.926 39.001,38.926 C34.245,38.926 30.391,37.798 30.391,36.406 C30.391,35.014 34.246,33.886 39.001,33.886 C43.756,33.886 47.611,35.014 47.611,36.406 C47.611,36.928 47.069,37.413 46.14,37.814" id="Path" fill="#A1A1CA" fill-rule="nonzero"></path>
            <path d="M47.611,29.912 C47.611,28.52 43.756,27.392 39.001,27.392 C34.246,27.392 30.391,28.52 30.391,29.912 L30.391,34.667 C30.391,36.059 34.246,37.187 39.001,37.187 C43.757,37.187 47.611,36.059 47.611,34.667 L47.611,29.912 L47.611,29.912 Z" id="Path" fill="#8889B9" fill-rule="nonzero"></path>
            <path d="M31.501,31.151 C30.793,30.785 30.389,30.363 30.389,29.912 C30.389,28.52 34.244,27.392 38.999,27.392 C43.754,27.392 47.609,28.52 47.609,29.912 C47.609,31.304 43.754,32.432 38.999,32.432 C36.682,32.432 34.58,32.164 33.032,31.729" id="Path" fill="#A1A1CA" fill-rule="nonzero"></path>
            <g id="Group" transform="translate(30.000000, 27.000000)" fill="#472B29" fill-rule="nonzero">
                <path d="M14.794,11.531 C14.815,11.531 14.838,11.529 14.86,11.523 L15.073,11.464 C15.211,11.425 15.292,11.281 15.254,11.142 C15.214,11.004 15.072,10.923 14.933,10.961 L14.729,11.017 C14.59,11.054 14.507,11.197 14.543,11.337 C14.574,11.454 14.679,11.531 14.794,11.531 Z" id="Path"></path>
                <path d="M18,2.912 C18,1.001 13.473,0 9.001,0 C4.527,0 0,1.001 0,2.912 L0,7.666 C0,7.982 0.134,8.271 0.361,8.536 C0.131,8.802 0,9.091 0,9.407 L0,14.162 C0,14.566 0.213,14.928 0.575,15.25 C0.213,15.57 0,15.93 0,16.334 L0,21.088 C0,22.999 4.527,24 9.001,24 C13.472,24 17.999,23 18,21.088 L18,16.334 C18,15.93 17.787,15.571 17.424,15.249 C17.787,14.927 18,14.566 18,14.162 L18,9.407 C18,9.091 17.869,8.802 17.639,8.536 C17.866,8.271 18,7.982 18,7.666 L18,2.912 Z M0.779,3.994 C0.95,4.128 1.145,4.258 1.383,4.381 C1.51,4.444 1.667,4.397 1.733,4.268 C1.798,4.14 1.749,3.982 1.621,3.916 C1.206,3.702 0.928,3.473 0.779,3.248 L0.779,2.912 C0.779,2.023 3.907,0.784 9.001,0.784 C14.093,0.784 17.221,2.023 17.222,2.912 L17.222,3.269 C16.565,4.229 13.376,5.169 9.002,5.169 C6.788,5.169 4.694,4.924 3.105,4.476 C2.967,4.435 2.823,4.518 2.784,4.657 C2.746,4.796 2.827,4.94 2.965,4.979 C4.598,5.439 6.742,5.692 9.001,5.692 C12.332,5.692 15.818,5.103 17.222,3.998 L17.222,7.666 C17.222,8.555 14.094,9.794 9.001,9.794 C3.907,9.794 0.779,8.555 0.779,7.666 L0.779,3.994 Z M0.779,10.495 C2.183,11.599 5.668,12.187 9.001,12.187 C10.825,12.187 12.573,12.024 14.057,11.714 C14.197,11.686 14.286,11.547 14.258,11.406 C14.229,11.265 14.088,11.17 13.951,11.203 C12.504,11.505 10.793,11.665 9.003,11.665 C4.62,11.665 1.427,10.721 0.779,9.76 L0.779,9.407 C0.779,9.289 0.843,9.165 0.952,9.039 C2.511,10.052 5.765,10.578 9.001,10.578 C12.236,10.578 15.49,10.052 17.048,9.039 C17.157,9.165 17.221,9.29 17.222,9.407 L17.222,9.754 C17.033,10.034 16.637,10.316 16.04,10.575 C15.908,10.632 15.847,10.785 15.904,10.918 C15.96,11.052 16.112,11.113 16.244,11.055 C16.656,10.877 16.966,10.682 17.222,10.478 L17.222,14.162 C17.222,15.05 14.094,16.289 9.001,16.289 C3.907,16.289 0.779,15.051 0.779,14.162 L0.779,10.495 Z M0.779,16.334 C0.779,16.137 0.939,15.922 1.236,15.708 C2.885,16.608 5.955,17.073 9.001,17.073 C12.047,17.073 15.115,16.607 16.765,15.708 C17.062,15.922 17.222,16.137 17.222,16.334 L17.222,16.691 C16.568,17.651 13.378,18.593 9.001,18.593 C4.623,18.593 1.433,17.652 0.779,16.691 L0.779,16.334 Z M9.001,23.216 C3.907,23.216 0.779,21.977 0.779,21.088 L0.779,17.423 C2.183,18.527 5.668,19.115 9.001,19.115 C12.332,19.115 15.818,18.527 17.222,17.423 L17.222,21.088 C17.222,21.977 14.094,23.216 9.001,23.216 Z" id="Shape"></path>
                <path d="M2.254,4.754 L2.406,4.807 C2.433,4.817 2.461,4.821 2.488,4.821 C2.597,4.821 2.697,4.752 2.733,4.64 C2.779,4.504 2.705,4.356 2.569,4.31 L2.43,4.262 C2.294,4.213 2.148,4.283 2.098,4.419 C2.05,4.555 2.119,4.705 2.254,4.754 Z" id="Path"></path>
            </g>
        </g>
    </g>
</svg>