<?xml version="1.0" encoding="UTF-8"?>
<svg width="24px" height="24px" viewBox="0 0 24 24" version="1.1" xmlns="http://www.w3.org/2000/svg" xmlns:xlink="http://www.w3.org/1999/xlink">
    <!-- Generator: Sketch 62 (91390) - https://sketch.com -->
    <title>Icons/email</title>
    <desc>Created with Sketch.</desc>
    <g id="Icons/email" stroke="none" stroke-width="1" fill="none" fill-rule="evenodd">
        <g id="icons8-email" transform="translate(2.000000, 2.000000)" fill="#151515">
            <path d="M10,0 C4.4886661,0 0,4.4886661 0,10 C0,15.511334 4.4886661,20.0001004 10,20.0001004 L14,20.0001004 C14.3606359,20.0051003 14.6960814,19.8156247 14.8778877,19.5041272 C15.0596941,19.1926296 15.0596941,18.8073704 14.8778877,18.4958728 C14.6960814,18.1843753 14.3606359,17.9948997 14,18 L10,18 C5.5693339,18 2,14.430666 2,10 C2,5.5693339 5.5693339,2 10,2 C14.430666,2 18,5.5693339 18,10 L18,11.5 C18,12.340812 17.340812,13 16.5,13 C15.659188,13 15,12.340812 15,11.5 L15,10 C15.0001184,9.96281059 14.9981624,9.92564353 14.994141,9.888672 C14.933859,7.1903924 12.712044,5 10,5 C7.2504209,5 5,7.2504209 5,10 C5,12.749579 7.2504209,15 10,15 C11.413556,15 12.687859,14.398875 13.599609,13.447266 C14.230695,14.380863 15.297708,15 16.5,15 C18.421188,15 20,13.421188 20,11.5 L20,10 C20,4.4886661 15.511334,0 10,0 Z M10,7 C11.668699,7 13,8.331301 13,10 C13,11.668699 11.668699,13 10,13 C8.331301,13 7,11.668699 7,10 C7,8.331301 8.331301,7 10,7 Z" id="Shape"></path>
        </g>
    </g>
</svg>