<?xml version="1.0" encoding="UTF-8"?>
<svg width="80px" height="80px" viewBox="0 0 80 80" version="1.1" xmlns="http://www.w3.org/2000/svg" xmlns:xlink="http://www.w3.org/1999/xlink">
    <!-- Generator: Sketch 61.2 (89653) - https://sketch.com -->
    <title>Icons (Decorative)/home-address</title>
    <desc>Created with Sketch.</desc>
    <defs>
        <path d="M66,1 C65.4477153,1 65,1.44771525 65,2 C65,2.55228475 65.4477153,3 66,3 C66.5522847,3 67,2.55228475 67,2 C67,1.44771525 66.5522847,1 66,1 Z" id="path-1"></path>
        <path d="M72,0 C69.790861,0 68,1.790861 68,4 C68,6.209139 69.790861,8 72,8 C74.209139,8 76,6.209139 76,4 C76,1.790861 74.209139,0 72,0 Z" id="path-2"></path>
        <path d="M70,63 C68.8954305,63 68,63.8954305 68,65 C68,66.1045695 68.8954305,67 70,67 C71.1045695,67 72,66.1045695 72,65 C72,63.8954305 71.1045695,63 70,63 Z M4,48 C1.790861,48 0,49.790861 0,52 C0,54.209139 1.790861,56 4,56 C6.209139,56 8,54.209139 8,52 C8,49.790861 6.209139,48 4,48 Z" id="path-3"></path>
    </defs>
    <g id="Icons-(Decorative)/home-address" stroke="none" stroke-width="1" fill="none" fill-rule="evenodd">
        <g id="icons8-home_address" transform="translate(1.000000, 1.000000)">
            <g id="Path">
                <use fill="#F5684F" xlink:href="#path-1"></use>
                <use fill="#FF7D54" xlink:href="#path-1"></use>
                <use fill="#FF6755" xlink:href="#path-1"></use>
                <use fill="#FFA949" xlink:href="#path-1"></use>
            </g>
            <path d="M39,2 C18.5654643,2 2,18.5654643 2,39 C2,59.4345357 18.5654643,76 39,76 C59.4345357,76 76,59.4345357 76,39 C76,18.5654643 59.4345357,2 39,2 Z" id="Path" fill="#E6EDB7" fill-rule="nonzero"></path>
            <g id="Path">
                <use fill="#F5684F" xlink:href="#path-2"></use>
                <use fill="#FF7D54" xlink:href="#path-2"></use>
                <use fill="#FF6755" xlink:href="#path-2"></use>
                <use fill="#FFA949" xlink:href="#path-2"></use>
            </g>
            <path d="M76,11 C74.8954305,11 74,11.8954305 74,13 C74,14.1045695 74.8954305,15 76,15 C77.1045695,15 78,14.1045695 78,13 C78,11.8954305 77.1045695,11 76,11 Z" id="Path" fill="#88AE45" fill-rule="nonzero"></path>
            <g id="Shape">
                <use fill="#F5684F" xlink:href="#path-3"></use>
                <use fill="#FF7D54" xlink:href="#path-3"></use>
                <use fill="#FF6755" xlink:href="#path-3"></use>
                <use fill="#FFA949" xlink:href="#path-3"></use>
            </g>
            <path d="M14,74 C12.8954305,74 12,74.8954305 12,76 C12,77.1045695 12.8954305,78 14,78 C15.1045695,78 16,77.1045695 16,76 C16,74.8954305 15.1045695,74 14,74 Z" id="Path" fill="#88AE45" fill-rule="nonzero"></path>
            <path d="M7.5,38 C6.11928813,38 5,39.1192881 5,40.5 C5,41.8807119 6.11928813,43 7.5,43 C8.88071187,43 10,41.8807119 10,40.5 C10,39.1192881 8.88071187,38 7.5,38 Z M68.5,21 C67.6715729,21 67,21.6715729 67,22.5 C67,23.3284271 67.6715729,24 68.5,24 C69.3284271,24 70,23.3284271 70,22.5 C70,21.6715729 69.3284271,21 68.5,21 Z" id="Shape" fill="#FFFFFF" fill-rule="nonzero"></path>
            <g id="Group" transform="translate(17.000000, 10.000000)" fill-rule="nonzero">
                <path d="M22,57.708 C9.162,45.451 2.276,34.957 0.957,25.637 L0.905,25.255 C0.857,24.867 0.807,24.47 0.777,24.074 C0.725,23.428 0.7,22.858 0.7,22.326 C0.7,10.581 10.255,1.026 22,1.026 C33.745,1.026 43.3,10.581 43.3,22.326 C43.3,22.858 43.275,23.429 43.224,24.072 C43.193,24.469 43.143,24.867 43.094,25.263 L43.044,25.629 C41.724,34.957 34.838,45.451 22,57.708 Z" id="Path" fill="#F15B6C"></path>
                <path d="M22,1.726 C33.359,1.726 42.6,10.967 42.6,22.326 C42.6,22.84 42.575,23.392 42.524,24.023 C42.495,24.406 42.447,24.791 42.401,25.159 L42.38,25.316 C42.371,25.384 42.363,25.452 42.35,25.538 C41.07,34.579 34.41,44.793 22,56.738 C9.59,44.793 2.93,34.579 1.647,25.52 C1.637,25.453 1.628,25.385 1.619,25.316 L1.6,25.175 C1.552,24.79 1.503,24.405 1.474,24.014 C1.424,23.392 1.399,22.84 1.399,22.326 C1.4,10.967 10.641,1.726 22,1.726 M22,0.326 C9.85,0.326 0,10.176 0,22.326 C0,22.933 0.031,23.533 0.08,24.128 C0.11,24.534 0.161,24.942 0.213,25.351 C0.231,25.479 0.245,25.608 0.265,25.735 C1.748,36.208 9.965,47.273 22.001,58.674 L22.001,58.674 C34.037,47.273 42.254,36.208 43.737,25.735 C43.757,25.608 43.771,25.479 43.789,25.351 C43.84,24.943 43.891,24.535 43.922,24.128 C43.97,23.533 44.002,22.933 44.002,22.326 C44,10.176 34.15,0.326 22,0.326 L22,0.326 Z" id="Shape" fill="#472B29"></path>
            </g>
            <path d="M39,16 C30.163444,16 23,23.163444 23,32 C23,40.836556 30.163444,48 39,48 C47.836556,48 55,40.836556 55,32 C55,23.163444 47.836556,16 39,16 Z" id="Path" fill="#FFFFFF" fill-rule="nonzero"></path>
            <path d="M39,48.5 C29.902,48.5 22.5,41.098 22.5,32 C22.5,22.902 29.902,15.5 39,15.5 C41.146,15.5 43.233,15.906 45.204,16.707 C45.46,16.811 45.583,17.103 45.478,17.358 C45.374,17.614 45.082,17.738 44.827,17.632 C42.978,16.881 41.017,16.5 39,16.5 C30.453,16.5 23.5,23.453 23.5,32 C23.5,40.547 30.453,47.5 39,47.5 C47.547,47.5 54.5,40.547 54.5,32 C54.5,31.724 54.724,31.5 55,31.5 C55.276,31.5 55.5,31.724 55.5,32 C55.5,41.098 48.098,48.5 39,48.5 Z" id="Path" fill="#472B29" fill-rule="nonzero"></path>
            <path d="M54.635,29.09 C54.406,29.09 54.198,28.93 54.148,28.696 C53.6,26.171 52.409,23.799 50.704,21.836 C50.522,21.627 50.545,21.312 50.753,21.131 C50.962,20.948 51.277,20.973 51.458,21.18 C53.274,23.27 54.542,25.795 55.125,28.484 C55.184,28.755 55.013,29.02 54.743,29.079 C54.706,29.086 54.67,29.09 54.635,29.09 Z" id="Path" fill="#472B29" fill-rule="nonzero"></path>
            <path d="M49.354,20.302 C49.24,20.302 49.125,20.263 49.031,20.183 C48.355,19.61 47.629,19.092 46.872,18.645 C46.634,18.504 46.555,18.198 46.695,17.96 C46.837,17.723 47.145,17.645 47.38,17.783 C48.187,18.259 48.959,18.809 49.678,19.421 C49.889,19.6 49.914,19.915 49.736,20.125 C49.637,20.242 49.496,20.302 49.354,20.302 Z" id="Path" fill="#472B29" fill-rule="nonzero"></path>
            <g id="Group" transform="translate(29.000000, 20.000000)" fill-rule="nonzero">
                <polygon id="Path" fill="#78A2D2" points="20.5 9.563 16.521 5.937 16.521 1.563 14.532 1.563 14.532 4.124 10.625 0.563 0.75 9.563 2.596 9.563 2.596 20.563 8.564 20.563 8.564 14.563 12.543 14.563 12.543 20.563 18.511 20.563 18.511 9.563"></polygon>
                <path d="M2.5,15.75 C2.362,15.75 2.25,15.638 2.25,15.5 L2.25,9.75 L0.644,9.75 C0.54,9.75 0.448,9.687 0.411,9.59 C0.374,9.493 0.4,9.384 0.476,9.315 L10.405,0.315 C10.501,0.229 10.645,0.229 10.741,0.315 L14.251,3.497 L14.251,1.5 C14.251,1.362 14.363,1.25 14.501,1.25 L16.501,1.25 C16.639,1.25 16.751,1.362 16.751,1.5 L16.751,5.764 L20.669,9.315 C20.745,9.384 20.772,9.494 20.734,9.59 C20.696,9.686 20.604,9.75 20.501,9.75 L18.751,9.75 L18.751,10.5 C18.751,10.638 18.639,10.75 18.501,10.75 C18.363,10.75 18.251,10.638 18.251,10.5 L18.251,9.5 C18.251,9.362 18.363,9.25 18.501,9.25 L19.853,9.25 L16.333,6.06 C16.281,6.012 16.251,5.945 16.251,5.874 L16.251,1.75 L14.751,1.75 L14.751,4.061 C14.751,4.16 14.692,4.249 14.603,4.29 C14.51,4.331 14.407,4.312 14.333,4.247 L10.573,0.839 L1.293,9.251 L2.5,9.251 C2.638,9.251 2.75,9.363 2.75,9.501 L2.75,15.501 C2.75,15.638 2.638,15.75 2.5,15.75 Z M18.5,16.75 C18.362,16.75 18.25,16.638 18.25,16.5 L18.25,12.5 C18.25,12.362 18.362,12.25 18.5,12.25 C18.638,12.25 18.75,12.362 18.75,12.5 L18.75,16.5 C18.75,16.638 18.638,16.75 18.5,16.75 Z M18.5,20.75 L12.5,20.75 C12.362,20.75 12.25,20.638 12.25,20.5 L12.25,14.75 L8.75,14.75 L8.75,20.5 C8.75,20.638 8.638,20.75 8.5,20.75 L2.5,20.75 C2.362,20.75 2.25,20.638 2.25,20.5 L2.25,17.5 C2.25,17.362 2.362,17.25 2.5,17.25 C2.638,17.25 2.75,17.362 2.75,17.5 L2.75,20.25 L8.25,20.25 L8.25,14.5 C8.25,14.362 8.362,14.25 8.5,14.25 L12.5,14.25 C12.638,14.25 12.75,14.362 12.75,14.5 L12.75,20.25 L18.25,20.25 L18.25,17.5 C18.25,17.362 18.362,17.25 18.5,17.25 C18.638,17.25 18.75,17.362 18.75,17.5 L18.75,20.5 C18.75,20.638 18.638,20.75 18.5,20.75 Z" id="Shape" fill="#472B29"></path>
            </g>
        </g>
    </g>
</svg>