<?xml version="1.0" encoding="UTF-8"?>
<svg width="24px" height="24px" viewBox="0 0 24 24" version="1.1" xmlns="http://www.w3.org/2000/svg" xmlns:xlink="http://www.w3.org/1999/xlink">
    <!-- Generator: Sketch 61.2 (89653) - https://sketch.com -->
    <title>Icons/info-dark</title>
    <desc>Created with Sketch.</desc>
    <defs>
        <path d="M12,0 C5.37301638,0 0,5.37301638 0,12 C0,18.6269846 5.37301638,24 12,24 C18.6269846,24 24,18.6269846 24,12 C24,5.37301638 18.6269846,0 12,0 Z M14.5000005,18.5992066 C13.8809529,18.8412698 13.3888894,19.027778 13.019841,19.1547622 C12.6507937,19.2817463 12.2261902,19.3452383 11.7380957,19.3452383 C10.992064,19.3452383 10.4087304,19.1626982 9.992064,18.7976188 C9.57936559,18.4365084 9.37301638,17.972222 9.37301638,17.4087304 C9.37301638,17.1904762 9.3888894,16.968254 9.42063543,16.7420637 C9.44841244,16.5119045 9.50000051,16.2579363 9.56746057,15.968254 L10.3412703,13.2380952 C10.4087304,12.976191 10.4682545,12.7301587 10.5158735,12.4960315 C10.5634926,12.2619053 10.5833336,12.047619 10.5833336,11.8531749 C10.5833336,11.5079365 10.5119045,11.2619053 10.3690474,11.1269841 C10.2222222,10.988095 9.94841295,10.9206349 9.54365054,10.9206349 C9.34523835,10.9206349 9.13888914,10.952381 8.92857194,11.011905 C8.71825371,11.0753971 8.53968254,11.1349211 8.3888894,11.1904762 L8.5952386,10.3492063 C9.0992061,10.1428571 9.58333359,9.96825397 10.047619,9.82142883 C10.5079365,9.67460368 10.948413,9.5992066 11.3571434,9.5992066 C12.0992061,9.5992066 12.6746037,9.78174578 13.0753971,10.1388891 C13.4761905,10.4960315 13.6785717,10.964286 13.6785717,11.5357145 C13.6785717,11.6547617 13.6666667,11.8650799 13.6388886,12.1626982 C13.6111116,12.4603175 13.5595236,12.7341267 13.4841275,12.988095 L12.7142857,15.7103177 C12.6507937,15.9285719 12.5952386,16.1785712 12.5436505,16.4563495 C12.4960315,16.7341267 12.4722225,16.948413 12.4722225,17.0912701 C12.4722225,17.4523815 12.5515876,17.7023807 12.7142857,17.8333338 C12.8730159,17.964286 13.1547622,18.027778 13.5555556,18.027778 C13.7420637,18.027778 13.952381,17.996032 14.1904762,17.9325399 C14.4246034,17.8650799 14.5952386,17.8095238 14.7023807,17.7579368 L14.5000005,18.5992066 Z M14.3611114,7.54761956 C14.003968,7.88095289 13.5714286,8.04761905 13.0674601,8.04761905 C12.5634926,8.04761905 12.1269841,7.88095289 11.7658728,7.54761956 C11.4047624,7.21428622 11.2261902,6.80952381 11.2261902,6.33730133 C11.2261902,5.86507987 11.4087304,5.45634946 11.7658728,5.11904813 C12.1269841,4.78174578 12.5634926,4.61507962 13.0674601,4.61507962 C13.5714286,4.61507962 14.003968,4.78174578 14.3611114,5.11904813 C14.7222227,5.45634946 14.9007939,5.86507987 14.9007939,6.33730133 C14.9007939,6.80952381 14.7222227,7.21428622 14.3611114,7.54761956 Z" id="path-1"></path>
    </defs>
    <g id="Icons/info" stroke="none" stroke-width="1" fill="none" fill-rule="evenodd">
        <mask id="mask-2" fill="white">
            <use xlink:href="#path-1"></use>
        </mask>
        <use id="icon" fill="#574B8A" xlink:href="#path-1"></use>
    </g>
</svg>