<svg width="200" height="192" viewBox="0 0 200 192" fill="none" xmlns="http://www.w3.org/2000/svg">
<path d="M3.53411 32.6871L3.24244 31.2236C2.65911 29.4683 2.36223 27.7079 2.36223 27.7079C2.36223 25.9579 1.19556 23.6142 1.19556 23.6142C-0.267979 22.4423 0.0236887 20.9788 0.0236887 20.9788C1.19556 19.5152 2.65911 16.5881 2.65911 16.5881L0.607022 15.1246C1.19556 14.2496 1.7789 12.4944 1.7789 12.4944C2.36223 11.3225 2.36223 11.3225 2.36223 11.3225C2.36223 11.3225 3.82577 13.0777 2.36223 11.3225C0.898688 9.5673 0.898689 7.81209 0.898689 7.81209C0.315355 6.34855 0.0236887 4.30168 0.0236887 4.30168C1.19556 3.71314 2.65911 4.0048 2.65911 4.0048C3.82577 3.71314 4.99765 0.202719 4.99765 0.202719C6.16952 -0.385823 7.3414 0.494385 7.3414 0.494385C8.2164 1.95793 9.97161 6.05689 9.97161 6.05689L11.4351 7.81209L13.1956 9.27564C14.9508 10.4475 16.706 11.0308 16.706 11.0308L18.7529 11.9111C20.5081 12.4944 23.1435 12.4944 23.1435 12.4944L26.3622 9.85897L30.7529 6.34855L34.8466 3.6298H39.5289L41.2893 5.76001C40.9924 6.93189 40.1174 8.39543 40.1174 8.39543C40.4091 9.85897 40.4091 9.85897 40.4091 9.85897L40.7008 11.9111L38.357 12.7861L38.9456 14.5413L40.4091 16.885C41.2893 18.3486 43.0445 19.2236 43.0445 19.2236L44.7997 19.8121C45.3831 20.6871 45.9664 26.5413 45.9664 26.5413L48.6018 30.9319L51.5289 32.0986L53.8674 33.2704C55.6279 33.2704 56.7997 34.4423 56.7997 34.4423L59.1383 36.7808L60.6018 38.8329L62.0654 40.5881L73.7737 44.0986L76.1122 44.3902L79.9143 43.5152L83.1383 42.635L85.7685 42.9267L88.4039 42.0517H90.4508C92.4977 42.9267 93.9612 42.9267 93.9612 42.9267C95.7216 41.76 96.5966 39.9996 96.5966 39.9996V37.6611L95.7216 35.609L99.8154 35.3173L103.331 34.1506L104.795 31.5152L105.378 29.1715L107.133 28.8798L111.232 25.6611H114.446L119.425 25.9527L120.597 24.1975L123.815 23.9058C124.69 23.3225 126.446 23.9058 126.446 23.9058C127.617 25.3694 129.373 23.6142 129.373 23.6142L130.836 25.6611L131.128 28.0048L135.518 28.8798L138.154 30.0517C139.617 30.3433 140.789 31.2236 140.789 31.2236C143.128 31.8069 144.3 31.2236 144.3 31.2236C146.347 31.8069 148.393 32.0986 148.393 32.0986C149.565 32.3954 152.201 35.9006 152.201 35.9006L153.373 37.9527L156.591 37.6611L160.982 42.0517L162.446 44.0986L169.175 43.8069L170.638 47.3173L170.05 50.5361V52.8798L172.393 55.51C172.393 55.51 172.102 56.0986 171.81 56.9736C171.518 57.8538 170.638 60.484 170.638 60.484L170.347 62.8277V65.4631L170.05 67.8017C168.586 69.2652 167.128 70.1454 167.128 70.1454L168.295 72.1923C167.42 73.3642 165.664 74.2392 165.664 74.2392L164.784 78.0465L165.373 80.0933L165.664 82.1402H168.295L169.466 83.8954L167.711 87.7027C166.539 89.1663 170.347 102.041 170.347 102.041L169.175 106.724L170.05 109.651L180.003 110.239L180.878 116.088L179.711 119.307C179.711 119.307 172.102 128.38 172.102 129.26C172.102 130.135 173.857 133.651 173.857 133.651L177.951 137.744L179.42 141.843L180.586 143.89L183.222 145.645L185.268 146.817L187.612 147.401L190.242 149.156L192.295 149.744L193.461 149.156L194.633 162.036H198.44L199.904 163.5L199.024 167.302L198.44 169.057L193.758 169.937L189.659 170.817L189.076 174.031C187.904 175.203 185.857 174.911 185.857 174.911C184.393 176.083 184.393 178.421 184.393 178.421V180.177L184.097 182.52L182.347 183.401V188.958L179.711 191.01L177.367 190.713L175.321 189.838C172.393 188.078 169.466 186.911 169.466 186.911L165.076 187.203L161.565 188.375L158.638 188.958L156.3 188.375L153.664 188.666L151.617 188.078C151.617 188.078 150.154 188.375 148.69 187.786C147.227 187.203 146.055 186.328 146.055 186.328L142.836 185.448L140.201 185.156C140.201 185.156 137.571 184.864 136.69 183.984C135.815 183.104 134.352 182.52 134.352 182.52L132.008 181.057L129.081 173.448L127.617 169.062L124.987 165.546L121.18 164.375L118.55 166.135L116.789 167.51C116.789 167.51 114.154 166.843 113.279 167.51C112.404 168.182 111.815 169.645 111.815 169.645C109.18 171.692 105.966 172.276 105.966 172.276C103.914 173.744 102.451 174.036 102.451 174.036L100.107 173.744L97.4768 171.984L94.8414 171.109L90.1591 171.692L87.8206 168.765L86.357 167.51L84.0133 165.838L81.6747 164.375L79.6226 163.5L77.8674 160.573C75.8206 159.401 72.6018 157.937 72.6018 157.937L70.2581 157.062L67.9195 156.765L64.9924 154.718L62.9456 151.5C62.9456 151.5 61.1851 147.114 61.1851 145.942C61.1851 144.77 60.6018 143.307 60.6018 143.307C59.1383 141.26 59.1383 141.26 59.1383 141.26C59.1383 141.26 60.3101 143.015 59.1383 141.26C57.9716 139.505 57.0914 138.041 57.0914 138.041L56.5081 135.989L55.6279 133.359C54.456 131.307 54.456 131.307 54.456 131.307L52.4091 128.088C50.6539 125.75 50.6539 125.75 50.6539 125.75C50.6539 125.75 53.2893 124.286 50.6539 125.75C48.0185 127.208 46.8466 128.968 45.9716 127.796C45.0914 126.625 43.6279 126.625 43.6279 126.625L42.7529 124.869L42.1643 121.942C40.7008 121.651 41.2893 124.286 41.2893 124.286C40.1174 125.75 38.9456 123.703 38.9456 123.703L38.6539 122.234V125.166C36.8987 126.916 35.4351 127.213 35.4351 127.213C33.3883 126.916 31.9247 123.703 31.9247 123.703L30.1695 120.479L29.8779 119.307L29.581 114.63L26.0706 112.578L26.9508 107.02L28.706 103.213L26.9508 98.8225C25.1956 97.359 24.8987 95.3121 24.8987 95.3121L22.2685 94.1454L19.9247 92.9736L16.9976 90.0465L14.6591 87.4111C12.607 86.8277 12.607 86.8277 12.607 86.8277C12.607 86.8277 14.3674 89.4579 12.607 86.8277C10.8518 84.1923 12.0237 83.0204 12.0237 83.0204L10.8518 80.6819L9.38827 78.9267C7.63306 77.1715 7.63306 77.1715 7.63306 77.1715L6.4664 74.5361L6.16952 72.1923L7.04973 70.1454L6.16952 67.51L7.3414 66.0465C8.80494 66.0465 8.80494 66.0465 8.80494 66.0465L9.09661 63.7079L12.0237 60.7808C13.4872 59.9006 13.4872 59.9006 13.4872 59.9006L14.6591 57.5621V55.2183L14.0758 53.4631C14.0758 52.5881 16.706 50.8277 16.706 50.8277C15.2424 49.0777 12.9039 49.0777 12.9039 49.0777C11.732 49.0777 11.732 49.0777 11.732 49.0777L9.09661 47.6142C7.63827 46.4423 7.63827 46.4423 7.63827 46.4423L6.4664 43.5152V41.4683L5.00286 40.0048C4.12265 37.9527 4.41431 36.7808 4.41431 36.7808L4.12265 35.0308C3.24244 33.5673 3.53411 32.6871 3.53411 32.6871Z" fill="#EBEFF1"/>
</svg>
