<?xml version="1.0" encoding="UTF-8"?>
<svg width="80px" height="80px" viewBox="0 0 80 80" version="1.1" xmlns="http://www.w3.org/2000/svg" xmlns:xlink="http://www.w3.org/1999/xlink">
    <!-- Generator: Sketch 61.2 (89653) - https://sketch.com -->
    <title>Icons (Decorative)/letter</title>
    <desc>Created with Sketch.</desc>
    <defs>
        <path d="M66,1 C65.4477153,1 65,1.44771525 65,2 C65,2.55228475 65.4477153,3 66,3 C66.5522847,3 67,2.55228475 67,2 C67,1.44771525 66.5522847,1 66,1 Z" id="path-1"></path>
        <path d="M72,0 C69.790861,0 68,1.790861 68,4 C68,6.209139 69.790861,8 72,8 C74.209139,8 76,6.209139 76,4 C76,1.790861 74.209139,0 72,0 Z" id="path-2"></path>
        <path d="M70,63 C68.8954305,63 68,63.8954305 68,65 C68,66.1045695 68.8954305,67 70,67 C71.1045695,67 72,66.1045695 72,65 C72,63.8954305 71.1045695,63 70,63 Z M4,48 C1.790861,48 0,49.790861 0,52 C0,54.209139 1.790861,56 4,56 C6.209139,56 8,54.209139 8,52 C8,49.790861 6.209139,48 4,48 Z" id="path-3"></path>
        <path d="M10,55 C9.44771525,55 9,55.4477153 9,56 C9,56.5522847 9.44771525,57 10,57 C10.5522847,57 11,56.5522847 11,56 C11,55.4477153 10.5522847,55 10,55 Z" id="path-4"></path>
    </defs>
    <g id="Icons-(Decorative)/letter" stroke="none" stroke-width="1" fill="none" fill-rule="evenodd">
        <g id="icons8-secured_letter" transform="translate(1.000000, 1.000000)">
            <path d="M2,16 C0.8954305,16 0,16.8954305 0,18 C0,19.1045695 0.8954305,20 2,20 C3.1045695,20 4,19.1045695 4,18 C4,16.8954305 3.1045695,16 2,16 Z" id="Path" fill="#78A0CF" fill-rule="nonzero"></path>
            <g id="Path">
                <use fill="#F5684F" xlink:href="#path-1"></use>
                <use fill="#FF7D54" xlink:href="#path-1"></use>
                <use fill="#FF6755" xlink:href="#path-1"></use>
                <use fill="#FFA949" xlink:href="#path-1"></use>
            </g>
            <path d="M39,2 C18.5654643,2 2,18.5654643 2,39 C2,59.4345357 18.5654643,76 39,76 C59.4345357,76 76,59.4345357 76,39 C76,18.5654643 59.4345357,2 39,2 Z" id="Path" fill="#CEE1F4" fill-rule="nonzero"></path>
            <g id="Path">
                <use fill="#F5684F" xlink:href="#path-2"></use>
                <use fill="#FF7D54" xlink:href="#path-2"></use>
                <use fill="#FF6755" xlink:href="#path-2"></use>
                <use fill="#FFA949" xlink:href="#path-2"></use>
            </g>
            <path d="M76,11 C74.8954305,11 74,11.8954305 74,13 C74,14.1045695 74.8954305,15 76,15 C77.1045695,15 78,14.1045695 78,13 C78,11.8954305 77.1045695,11 76,11 Z" id="Path" fill="#78A0CF" fill-rule="nonzero"></path>
            <g id="Shape">
                <use fill="#F5684F" xlink:href="#path-3"></use>
                <use fill="#FF7D54" xlink:href="#path-3"></use>
                <use fill="#FF6755" xlink:href="#path-3"></use>
                <use fill="#FFA949" xlink:href="#path-3"></use>
            </g>
            <path d="M14,74 C12.8954305,74 12,74.8954305 12,76 C12,77.1045695 12.8954305,78 14,78 C15.1045695,78 16,77.1045695 16,76 C16,74.8954305 15.1045695,74 14,74 Z" id="Path" fill="#78A0CF" fill-rule="nonzero"></path>
            <path d="M7.5,40 C6.11928813,40 5,41.1192881 5,42.5 C5,43.8807119 6.11928813,45 7.5,45 C8.88071187,45 10,43.8807119 10,42.5 C10,41.1192881 8.88071187,40 7.5,40 Z" id="Path" fill="#FFFFFF" fill-rule="nonzero"></path>
            <g id="Path">
                <use fill="#F5684F" xlink:href="#path-4"></use>
                <use fill="#FF7D54" xlink:href="#path-4"></use>
                <use fill="#FF6755" xlink:href="#path-4"></use>
                <use fill="#FFA949" xlink:href="#path-4"></use>
            </g>
            <path d="M69,22 C68.4477153,22 68,22.4477153 68,23 C68,23.5522847 68.4477153,24 69,24 C69.5522847,24 70,23.5522847 70,23 C70,22.4477153 69.5522847,22 69,22 Z" id="Path" fill="#FFFFFF" fill-rule="nonzero"></path>
            <path d="M63,29 L63,49 C63,50.91 62.11,52.61 60.72,53.71 C59.7,54.52 58.41,55 57,55 L21,55 C19.59,55 18.29,54.52 17.27,53.69 C15.89,52.6 15,50.9 15,49 L15,29 C15,26.94 16.05,25.11 17.64,24.05 C17.69,24 17.75,23.96 17.8,23.93 C18.72,23.34 19.82,23 21,23 L57,23 C58.18,23 59.28,23.34 60.2,23.93 C60.25,23.96 60.31,24 60.36,24.05 C61.95,25.11 63,26.94 63,29 Z" id="Path" fill="#78A0CF" fill-rule="nonzero"></path>
            <path d="M60.72,53.71 C59.7,54.52 58.41,55 57,55 L21,55 C19.59,55 18.29,54.52 17.27,53.69 L39,34.95 L60.72,53.71 Z" id="Path" fill="#457FAF" fill-rule="nonzero"></path>
            <path d="M60.36,24.05 L39,41.62 L17.64,24.05 C17.69,24 17.75,23.96 17.8,23.93 C18.72,23.34 19.82,23 21,23 L57,23 C58.18,23 59.28,23.34 60.2,23.93 C60.25,23.96 60.31,24 60.36,24.05 Z" id="Path" fill="#C5DEF0" fill-rule="nonzero"></path>
            <path d="M39,42 C38.916,42 38.831,41.972 38.762,41.915 L17.546,24.467 C17.386,24.336 17.363,24.099 17.495,23.939 C17.627,23.779 17.864,23.756 18.023,23.888 L39,41.14 L59.978,23.889 C60.137,23.757 60.373,23.78 60.506,23.94 C60.638,24.1 60.614,24.336 60.455,24.468 L39.238,41.915 C39.169,41.972 39.084,42 39,42 Z M17.226,54.131 C17.121,54.131 17.017,54.087 16.942,54.001 C16.807,53.844 16.824,53.607 16.981,53.472 L31.277,41.084 C31.432,40.947 31.671,40.963 31.806,41.12 C31.942,41.276 31.927,41.513 31.77,41.649 L28.043,44.904 L17.471,54.04 C17.4,54.102 17.313,54.131 17.226,54.131 Z" id="Shape" fill="#472B29" fill-rule="nonzero"></path>
            <path d="M57,23.4 C60.088,23.4 62.6,25.912 62.6,29 L62.6,49 C62.6,52.088 60.088,54.6 57,54.6 L21,54.6 C17.912,54.6 15.4,52.088 15.4,49 L15.4,29 C15.4,25.912 17.912,23.4 21,23.4 L57,23.4 L57,23.4 Z M57,22 L21,22 C17.134,22 14,25.134 14,29 L14,49 C14,52.866 17.134,56 21,56 L57,56 C60.866,56 64,52.866 64,49 L64,29 C64,25.134 60.866,22 57,22 L57,22 Z" id="Shape" fill="#472B29" fill-rule="nonzero"></path>
            <path d="M60.774,54.131 C60.687,54.131 60.599,54.101 60.528,54.039 L46.239,41.65 C46.082,41.514 46.066,41.277 46.201,41.121 C46.336,40.965 46.574,40.949 46.73,41.083 L61.02,53.472 C61.177,53.608 61.193,53.845 61.058,54.001 C60.983,54.087 60.879,54.131 60.774,54.131 Z" id="Path" fill="#472B29" fill-rule="nonzero"></path>
            <path d="M59.5,10.5 C66.668,10.5 72.5,14.986 72.5,20.5 C72.5,26.014 66.668,30.5 59.5,30.5 C59.032,30.5 58.535,30.476 57.98,30.426 L57.778,30.408 L57.62,30.536 C55.231,32.475 52.941,33.5 51,33.5 C50.724,33.5 50.5,33.276 50.5,33 C50.5,32.934 50.516,32.868 50.542,32.81 L50.716,32.452 C51.304,31.331 51.678,30.138 51.827,28.905 L51.866,28.581 L51.585,28.415 C48.353,26.498 46.5,23.613 46.5,20.5 C46.5,14.986 52.332,10.5 59.5,10.5 L59.5,10.5 Z" id="Path" fill="#E1E0D8" fill-rule="nonzero"></path>
            <path d="M59.5,11 C66.393,11 72,15.262 72,20.5 C72,25.738 66.393,30 59.5,30 C59.047,30 58.565,29.976 58.025,29.928 L57.621,29.892 L57.306,30.148 C55.006,32.014 52.826,33.001 50.992,33.029 L51.159,32.685 C51.775,31.511 52.167,30.259 52.324,28.966 L52.403,28.318 L51.842,27.985 C48.764,26.16 47,23.432 47,20.5 C47,15.262 52.607,11 59.5,11 M59.5,10 C52.044,10 46,14.701 46,20.5 C46,23.907 48.096,26.927 51.33,28.845 C51.223,29.731 50.947,30.934 50.273,32.22 L50.092,32.592 C50.035,32.717 50,32.853 50,33 C50,33.552 50.448,34 51,34 C52.268,34 54.624,33.612 57.936,30.924 C58.45,30.97 58.97,31 59.5,31 C66.956,31 73,26.299 73,20.5 C73,14.701 66.956,10 59.5,10 L59.5,10 Z" id="Shape" fill="#472B29" fill-rule="nonzero"></path>
            <path d="M60.75,16.5 L52.25,16.5 C52.112,16.5 52,16.388 52,16.25 C52,16.112 52.112,16 52.25,16 L60.75,16 C60.888,16 61,16.112 61,16.25 C61,16.388 60.888,16.5 60.75,16.5 Z M65.75,16.5 L62.25,16.5 C62.112,16.5 62,16.388 62,16.25 C62,16.112 62.112,16 62.25,16 L65.75,16 C65.888,16 66,16.112 66,16.25 C66,16.388 65.888,16.5 65.75,16.5 Z M55.75,19 L51.25,19 C51.112,19 51,18.888 51,18.75 C51,18.612 51.112,18.5 51.25,18.5 L55.75,18.5 C55.888,18.5 56,18.612 56,18.75 C56,18.888 55.888,19 55.75,19 Z M67.75,19 L57.25,19 C57.112,19 57,18.888 57,18.75 C57,18.612 57.112,18.5 57.25,18.5 L67.75,18.5 C67.888,18.5 68,18.612 68,18.75 C68,18.888 67.888,19 67.75,19 Z M63.75,21.5 L51.25,21.5 C51.112,21.5 51,21.388 51,21.25 C51,21.112 51.112,21 51.25,21 L63.75,21 C63.888,21 64,21.112 64,21.25 C64,21.388 63.888,21.5 63.75,21.5 Z M59.75,24 L52.25,24 C52.112,24 52,23.888 52,23.75 C52,23.612 52.112,23.5 52.25,23.5 L59.75,23.5 C59.888,23.5 60,23.612 60,23.75 C60,23.888 59.888,24 59.75,24 Z" id="Shape" fill="#472B29" fill-rule="nonzero"></path>
            <path d="M66.5,22.5 C63.7385763,22.5 61.5,24.7385763 61.5,27.5 C61.5,30.2614237 63.7385763,32.5 66.5,32.5 C68.286328,32.5 69.9369631,31.5470054 70.8301271,30 C71.7232912,28.4529946 71.7232912,26.5470054 70.8301271,25 C69.9369631,23.4529946 68.286328,22.5 66.5,22.5 L66.5,22.5 Z" id="Path" fill="#C0D078" fill-rule="nonzero"></path>
            <path d="M66.5,23 C68.981,23 71,25.019 71,27.5 C71,29.981 68.981,32 66.5,32 C64.019,32 62,29.981 62,27.5 C62,25.019 64.019,23 66.5,23 M66.5,22 C63.462,22 61,24.462 61,27.5 C61,30.538 63.462,33 66.5,33 C69.538,33 72,30.538 72,27.5 C72,24.462 69.538,22 66.5,22 L66.5,22 Z" id="Shape" fill="#472B29" fill-rule="nonzero"></path>
        </g>
    </g>
</svg>