<?xml version="1.0" encoding="UTF-8"?>
<svg width="24px" height="24px" viewBox="0 0 24 24" version="1.1" xmlns="http://www.w3.org/2000/svg" xmlns:xlink="http://www.w3.org/1999/xlink">
    <!-- Generator: Sketch 62 (91390) - https://sketch.com -->
    <title>Icons/like-white</title>
    <desc>Created with Sketch.</desc>
    <g id="Icons/like" stroke="none" stroke-width="1" fill="none" fill-rule="evenodd">
        <g id="icons8-facebook_like" transform="translate(2.000000, 1.000000)" fill="#FFFFFF">
            <path d="M9,0 L8.224609,3.4179688 L5.5136719,6.4296875 C5.1826719,6.7966875 5,7.2735781 5,7.7675781 L5,17 C5,18.105 5.895,19 7,19 L15.03125,19 C15.77225,19 16.443141,18.563719 16.744141,17.886719 L19.746094,11.130859 C19.913094,10.756859 20,10.351406 20,9.941406 L20,9 C20,7.9 19.1,7 18,7 L11,7 C11,7 12,4.6292813 12,2.8632812 C12,0.1212813 9,0 9,0 Z M0,7 L0,19 L3,19 L3,7 L0,7 Z" id="Shape"></path>
        </g>
    </g>
</svg>