<?xml version="1.0" encoding="UTF-8"?>
<svg width="80px" height="80px" viewBox="0 0 80 80" version="1.1" xmlns="http://www.w3.org/2000/svg" xmlns:xlink="http://www.w3.org/1999/xlink">
    <!-- Generator: Sketch 61.2 (89653) - https://sketch.com -->
    <title>Icons (Decorative)/like</title>
    <desc>Created with Sketch.</desc>
    <defs>
        <path d="M66,1 C65.4477153,1 65,1.44771525 65,2 C65,2.55228475 65.4477153,3 66,3 C66.5522847,3 67,2.55228475 67,2 C67,1.44771525 66.5522847,1 66,1 Z" id="path-1"></path>
        <path d="M72,0 C69.790861,0 68,1.790861 68,4 C68,6.209139 69.790861,8 72,8 C74.209139,8 76,6.209139 76,4 C76,1.790861 74.209139,0 72,0 Z" id="path-2"></path>
        <path d="M70,63 C68.8954305,63 68,63.8954305 68,65 C68,66.1045695 68.8954305,67 70,67 C71.1045695,67 72,66.1045695 72,65 C72,63.8954305 71.1045695,63 70,63 Z M4,48 C1.790861,48 0,49.790861 0,52 C0,54.209139 1.790861,56 4,56 C6.209139,56 8,54.209139 8,52 C8,49.790861 6.209139,48 4,48 Z" id="path-3"></path>
        <path d="M10,55 C9.44771525,55 9,55.4477153 9,56 C9,56.5522847 9.44771525,57 10,57 C10.5522847,57 11,56.5522847 11,56 C11,55.4477153 10.5522847,55 10,55 Z" id="path-4"></path>
    </defs>
    <g id="Icons-(Decorative)/like" stroke="none" stroke-width="1" fill="none" fill-rule="evenodd">
        <g id="icons8-facebook_like" transform="translate(1.000000, 1.000000)">
            <path d="M2,16 C0.8954305,16 0,16.8954305 0,18 C0,19.1045695 0.8954305,20 2,20 C3.1045695,20 4,19.1045695 4,18 C4,16.8954305 3.1045695,16 2,16 Z" id="Path" fill="#78A0CF" fill-rule="nonzero"></path>
            <g id="Path">
                <use fill="#F5684F" xlink:href="#path-1"></use>
                <use fill="#FF7D54" xlink:href="#path-1"></use>
                <use fill="#FF6755" xlink:href="#path-1"></use>
                <use fill="#FFA949" xlink:href="#path-1"></use>
            </g>
            <path d="M39,2 C18.5654643,2 2,18.5654643 2,39 C2,59.4345357 18.5654643,76 39,76 C59.4345357,76 76,59.4345357 76,39 C76,18.5654643 59.4345357,2 39,2 Z" id="Path" fill="#CEE1F4" fill-rule="nonzero"></path>
            <g id="Path">
                <use fill="#F5684F" xlink:href="#path-2"></use>
                <use fill="#FF7D54" xlink:href="#path-2"></use>
                <use fill="#FF6755" xlink:href="#path-2"></use>
                <use fill="#FFA949" xlink:href="#path-2"></use>
            </g>
            <path d="M76,11 C74.8954305,11 74,11.8954305 74,13 C74,14.1045695 74.8954305,15 76,15 C77.1045695,15 78,14.1045695 78,13 C78,11.8954305 77.1045695,11 76,11 Z" id="Path" fill="#78A0CF" fill-rule="nonzero"></path>
            <g id="Shape">
                <use fill="#F5684F" xlink:href="#path-3"></use>
                <use fill="#FF7D54" xlink:href="#path-3"></use>
                <use fill="#FF6755" xlink:href="#path-3"></use>
                <use fill="#FFA949" xlink:href="#path-3"></use>
            </g>
            <path d="M14,74 C12.8954305,74 12,74.8954305 12,76 C12,77.1045695 12.8954305,78 14,78 C15.1045695,78 16,77.1045695 16,76 C16,74.8954305 15.1045695,74 14,74 Z" id="Path" fill="#78A0CF" fill-rule="nonzero"></path>
            <path d="M7.5,40 C6.11928813,40 5,41.1192881 5,42.5 C5,43.8807119 6.11928813,45 7.5,45 C8.88071187,45 10,43.8807119 10,42.5 C10,41.1192881 8.88071187,40 7.5,40 Z" id="Path" fill="#FFFFFF" fill-rule="nonzero"></path>
            <g id="Path">
                <use fill="#F5684F" xlink:href="#path-4"></use>
                <use fill="#FF7D54" xlink:href="#path-4"></use>
                <use fill="#FF6755" xlink:href="#path-4"></use>
                <use fill="#FFA949" xlink:href="#path-4"></use>
            </g>
            <path d="M69,22 C68.4477153,22 68,22.4477153 68,23 C68,23.5522847 68.4477153,24 69,24 C69.5522847,24 70,23.5522847 70,23 C70,22.4477153 69.5522847,22 69,22 Z" id="Path" fill="#FFFFFF" fill-rule="nonzero"></path>
            <path d="M27.505,9.972 C21.4331815,9.972 16.511,14.8941815 16.511,20.966 C16.511,27.0378185 21.4331815,31.96 27.505,31.96 C33.5768185,31.96 38.499,27.0378185 38.499,20.966 C38.499,14.8941815 33.5768185,9.972 27.505,9.972 Z" id="Path" fill="#FFCE00" fill-rule="nonzero"></path>
            <path d="M27.505,32.46 C21.167,32.46 16.011,27.303 16.011,20.966 C16.011,14.628 21.168,9.471 27.505,9.471 C33.843,9.471 39,14.628 39,20.966 C39,27.304 33.844,32.46 27.505,32.46 Z M27.505,10.474 C21.719,10.474 17.014,15.181 17.014,20.966 C17.014,26.751 21.721,31.457 27.505,31.457 C33.291,31.457 37.997,26.75 37.997,20.966 C37.997,15.18 33.291,10.474 27.505,10.474 Z" id="Shape" fill="#472B29" fill-rule="nonzero"></path>
            <path d="M34.231,14.661 C32.438,11.243 29.12,13.666 29.701,16.221 C30.159,18.228 32.363,21.077 32.363,21.077 C32.681,20.966 35.75,19.858 37.215,18.41 C39.077,16.567 37.581,12.741 34.231,14.661 Z" id="Path" fill="#EE3E54" fill-rule="nonzero"></path>
            <path d="M32.363,21.477 C32.241,21.477 32.123,21.422 32.046,21.322 C31.954,21.203 29.784,18.38 29.31,16.31 C28.975,14.833 29.81,13.224 31.171,12.721 C32.38,12.277 33.56,12.799 34.387,14.125 C36.033,13.339 37.246,13.868 37.854,14.668 C38.732,15.823 38.572,17.629 37.496,18.693 C35.969,20.203 32.846,21.33 32.496,21.453 C32.452,21.47 32.407,21.477 32.363,21.477 Z M31.999,13.373 C31.818,13.373 31.634,13.407 31.449,13.475 C30.579,13.796 29.813,14.903 30.092,16.132 C30.452,17.706 31.983,19.886 32.505,20.597 C33.324,20.287 35.734,19.31 36.933,18.124 C37.829,17.239 37.777,15.893 37.217,15.155 C36.63,14.383 35.615,14.33 34.431,15.009 C34.336,15.062 34.222,15.075 34.119,15.046 C34.015,15.016 33.926,14.944 33.876,14.847 C33.372,13.886 32.708,13.373 31.999,13.373 Z" id="Shape" fill="#472B29" fill-rule="nonzero"></path>
            <path d="M20.78,14.661 C22.574,11.243 25.892,13.666 25.309,16.221 C24.852,18.228 22.648,21.077 22.648,21.077 C22.33,20.966 19.261,19.858 17.797,18.41 C15.934,16.567 17.431,12.741 20.78,14.661 Z" id="Path" fill="#EE3E54" fill-rule="nonzero"></path>
            <path d="M22.648,21.477 C22.604,21.477 22.559,21.47 22.515,21.455 C22.164,21.332 19.045,20.208 17.515,18.696 C16.439,17.631 16.279,15.825 17.158,14.67 C17.768,13.87 18.981,13.341 20.625,14.127 C21.588,12.582 22.896,12.373 23.842,12.723 C25.204,13.225 26.038,14.835 25.702,16.311 C25.231,18.381 23.059,21.203 22.967,21.323 C22.888,21.422 22.769,21.477 22.648,21.477 Z M19.063,14.536 C18.545,14.536 18.108,14.744 17.796,15.155 C17.234,15.893 17.183,17.239 18.079,18.125 C19.28,19.312 21.688,20.288 22.507,20.598 C23.029,19.887 24.561,17.707 24.919,16.133 C25.199,14.904 24.434,13.797 23.563,13.476 C22.652,13.139 21.769,13.641 21.135,14.849 C21.085,14.945 20.997,15.016 20.892,15.048 C20.789,15.079 20.675,15.065 20.58,15.011 C20.029,14.693 19.515,14.536 19.063,14.536 Z" id="Shape" fill="#472B29" fill-rule="nonzero"></path>
            <g id="Group" transform="translate(22.000000, 22.000000)" fill-rule="nonzero">
                <path d="M1.512,1.175 C1.237,1.084 0.979,1.382 1.059,1.7 C1.531,3.577 3.35,4.977 5.527,4.977 C7.704,4.977 9.523,3.577 9.995,1.7 C10.075,1.381 9.817,1.083 9.542,1.175 C8.335,1.575 6.972,1.801 5.528,1.801 C4.083,1.801 2.719,1.575 1.512,1.175 Z" id="Path" fill="#961B30"></path>
                <path d="M5.526,5.178 C3.289,5.178 1.372,3.768 0.864,1.75 C0.804,1.512 0.874,1.266 1.046,1.106 C1.194,0.969 1.39,0.925 1.575,0.985 L1.575,0.985 C2.806,1.393 4.136,1.601 5.526,1.601 C6.917,1.601 8.245,1.393 9.477,0.985 C9.66,0.924 9.859,0.969 10.006,1.106 C10.177,1.265 10.248,1.512 10.187,1.75 C9.681,3.768 7.763,5.178 5.526,5.178 Z M1.411,1.358 C1.372,1.358 1.341,1.379 1.319,1.398 C1.271,1.443 1.224,1.536 1.253,1.65 C1.716,3.49 3.473,4.775 5.527,4.775 C7.581,4.775 9.337,3.491 9.801,1.65 C9.829,1.537 9.783,1.443 9.735,1.398 C9.707,1.372 9.663,1.344 9.605,1.364 C8.332,1.787 6.96,2 5.526,2 C4.093,2 2.721,1.786 1.449,1.364 L1.449,1.364 C1.436,1.36 1.423,1.358 1.411,1.358 Z" id="Shape" fill="#472B29"></path>
            </g>
            <g id="Group" transform="translate(24.000000, 24.000000)" fill-rule="nonzero">
                <path d="M3.526,0.705 C2.497,0.705 1.612,1.398 1.223,2.39 C1.911,2.763 2.694,2.977 3.526,2.977 C4.359,2.977 5.142,2.763 5.829,2.39 C5.44,1.398 4.556,0.705 3.526,0.705 Z" id="Path" fill="#EE3E54"></path>
                <path d="M3.526,3.178 C2.694,3.178 1.865,2.966 1.128,2.566 L0.972,2.482 L1.037,2.317 C1.469,1.216 2.446,0.505 3.527,0.505 C4.608,0.505 5.585,1.216 6.017,2.317 L6.082,2.482 L5.926,2.566 C5.189,2.966 4.359,3.178 3.526,3.178 Z M1.481,2.297 C2.766,2.933 4.289,2.933 5.571,2.297 C5.172,1.446 4.386,0.905 3.525,0.905 C2.665,0.906 1.881,1.446 1.481,2.297 Z" id="Shape" fill="#472B29"></path>
            </g>
            <g id="Group" transform="translate(24.000000, 18.000000)" fill-rule="nonzero">
                <path d="M41.782,28.667 C41.782,26.836 40.268,25.339 38.417,25.339 L37.197,25.339 C38.842,25.125 40.127,23.737 40.127,22.055 C40.127,20.224 38.613,18.727 36.762,18.727 L26.138,18.727 C26.161,16.517 26.842,15.575 27.537,13.444 C28.524,10.418 29.547,7.18 28.729,4.103 C28.311,2.533 27.098,0.921 25.499,1.019 C23.967,1.112 22.735,4.29 22.735,4.29 C22.735,4.29 14.958,19.857 12.145,20.43 L0.699,20.51 L0.699,45.308 L12.145,45.308 L12.613,45.308 L13.44,45.308 L33.85,45.308 C35.701,45.308 37.711,43.742 37.711,41.911 C37.711,40.08 37.08,38.674 35.229,38.674 L36.938,38.65 C38.789,38.65 40.303,37.152 40.303,35.322 C40.303,33.491 38.789,31.994 36.938,31.994 L38.415,31.994 C40.268,31.995 41.782,30.498 41.782,28.667 Z" id="Path" fill="#FDFCEE"></path>
                <path d="M33.851,46 L0.699,46 C0.313,46 0,45.691 0,45.308 L0,20.509 C0,20.129 0.311,19.82 0.694,19.817 L12.058,19.736 C13.663,19.254 18.403,11.399 22.108,3.981 C22.315,3.44 23.569,0.441 25.456,0.326 C27.481,0.195 28.921,2.105 29.405,3.925 C30.291,7.256 29.181,10.655 28.202,13.655 C28.004,14.263 27.807,14.775 27.626,15.248 C27.252,16.219 26.966,16.967 26.87,18.033 L36.762,18.033 C39.003,18.033 40.826,19.837 40.826,22.053 C40.826,23.126 40.389,24.115 39.67,24.841 C41.299,25.366 42.48,26.881 42.48,28.665 C42.48,30.408 41.352,31.896 39.781,32.452 C40.534,33.182 41.003,34.199 41.003,35.322 C41.003,37.254 39.618,38.873 37.778,39.255 C38.158,39.843 38.41,40.693 38.41,41.91 C38.412,44.214 35.96,46 33.851,46 Z M1.398,44.617 L33.851,44.617 C35.274,44.617 37.013,43.369 37.013,41.912 C37.013,39.367 35.719,39.367 35.231,39.367 C34.846,39.367 34.535,39.06 34.532,38.68 C34.53,38.3 34.838,37.989 35.221,37.983 L36.93,37.959 C38.409,37.959 39.605,36.776 39.605,35.322 C39.605,33.868 38.409,32.686 36.94,32.686 C36.553,32.686 36.241,32.377 36.241,31.994 C36.241,31.611 36.554,31.302 36.94,31.302 L38.417,31.302 C39.887,31.302 41.082,30.119 41.082,28.665 C41.082,27.211 39.886,26.029 38.417,26.029 L37.198,26.029 C36.829,26.029 36.525,25.746 36.5,25.383 C36.476,25.019 36.742,24.7 37.106,24.652 C38.429,24.479 39.427,23.362 39.427,22.054 C39.427,20.6 38.231,19.417 36.762,19.417 L26.138,19.417 C25.951,19.417 25.772,19.343 25.641,19.212 C25.51,19.081 25.437,18.904 25.438,18.718 C25.456,17.002 25.856,15.962 26.319,14.757 C26.493,14.305 26.682,13.812 26.872,13.231 C27.792,10.412 28.834,7.218 28.053,4.278 C27.698,2.945 26.724,1.642 25.541,1.707 C24.834,1.749 23.836,3.377 23.388,4.535 C21.502,8.317 15.207,20.51 12.286,21.104 C12.241,21.113 12.196,21.118 12.15,21.119 L1.399,21.195 L1.399,44.617 L1.398,44.617 Z" id="Shape" fill="#472B29"></path>
            </g>
            <polygon id="Path" fill="#78A1D1" fill-rule="nonzero" points="25.365 39.033 36.504 39.033 36.504 62.595 25.365 62.595"></polygon>
            <path d="M36.503,57.459 C36.296,57.459 36.128,57.293 36.128,57.089 L36.128,38.439 C36.128,38.234 36.296,38.069 36.503,38.069 C36.71,38.069 36.878,38.235 36.878,38.439 L36.878,57.088 C36.878,57.293 36.71,57.459 36.503,57.459 Z" id="Path" fill="#472B29" fill-rule="nonzero"></path>
            <path d="M54.679,42.963 L41.079,42.963 C40.872,42.963 40.704,42.797 40.704,42.593 C40.704,42.388 40.872,42.223 41.079,42.223 L54.679,42.223 C54.886,42.223 55.054,42.389 55.054,42.593 C55.053,42.797 54.886,42.963 54.679,42.963 Z" id="Path" fill="#472B29" fill-rule="nonzero"></path>
            <path d="M54.741,49.817 L44.619,49.817 C44.412,49.817 44.244,49.651 44.244,49.447 C44.244,49.242 44.412,49.077 44.619,49.077 L54.741,49.077 C54.948,49.077 55.116,49.243 55.116,49.447 C55.116,49.651 54.948,49.817 54.741,49.817 Z" id="Path" fill="#472B29" fill-rule="nonzero"></path>
            <path d="M54.366,55.909 L47.566,55.909 C47.359,55.909 47.191,55.743 47.191,55.539 C47.191,55.335 47.359,55.169 47.566,55.169 L54.366,55.169 C54.573,55.169 54.741,55.335 54.741,55.539 C54.741,55.743 54.573,55.909 54.366,55.909 Z" id="Path" fill="#472B29" fill-rule="nonzero"></path>
            <path d="M36.503,59.75 C36.296,59.75 36.128,59.584 36.128,59.38 L36.128,58.153 C36.128,57.948 36.296,57.783 36.503,57.783 C36.71,57.783 36.878,57.949 36.878,58.153 L36.878,59.38 C36.878,59.584 36.71,59.75 36.503,59.75 Z" id="Path" fill="#472B29" fill-rule="nonzero"></path>
            <path d="M36.503,61.101 C36.296,61.101 36.128,60.935 36.128,60.731 L36.128,60.499 C36.128,60.294 36.296,60.129 36.503,60.129 C36.71,60.129 36.878,60.295 36.878,60.499 L36.878,60.731 C36.878,60.935 36.71,61.101 36.503,61.101 Z" id="Path" fill="#472B29" fill-rule="nonzero"></path>
            <path d="M43.572,49.817 L42.386,49.817 C42.179,49.817 42.011,49.651 42.011,49.447 C42.011,49.242 42.179,49.077 42.386,49.077 L43.572,49.077 C43.779,49.077 43.947,49.243 43.947,49.447 C43.946,49.651 43.778,49.817 43.572,49.817 Z" id="Path" fill="#472B29" fill-rule="nonzero"></path>
            <path d="M41.42,49.817 L41.034,49.817 C40.827,49.817 40.659,49.651 40.659,49.447 C40.659,49.242 40.827,49.077 41.034,49.077 L41.42,49.077 C41.627,49.077 41.795,49.243 41.795,49.447 C41.795,49.651 41.627,49.817 41.42,49.817 Z" id="Path" fill="#472B29" fill-rule="nonzero"></path>
            <g id="Group" transform="translate(28.000000, 56.000000)" fill-rule="nonzero">
                <path d="M2.477,0.474 C1.54032506,0.474 0.781,1.22526619 0.781,2.152 C0.781,3.07873381 1.54032506,3.83 2.477,3.83 C3.41367494,3.83 4.173,3.07873381 4.173,2.152 C4.173,1.22526619 3.41367494,0.474 2.477,0.474 L2.477,0.474 Z" id="Path" fill="#657FBE"></path>
                <path d="M2.477,4.176 C1.349,4.176 0.431,3.268 0.431,2.153 C0.431,1.038 1.349,0.13 2.477,0.13 C3.605,0.13 4.523,1.038 4.523,2.153 C4.523,3.268 3.605,4.176 2.477,4.176 Z M2.477,0.82 C1.734,0.82 1.131,1.417 1.131,2.152 C1.131,2.887 1.734,3.484 2.477,3.484 C3.22,3.484 3.82300124,2.887 3.82300124,2.152 C3.824,1.417 3.221,0.82 2.477,0.82 Z" id="Shape" fill="#472B29"></path>
            </g>
            <path d="M24.471,43.216 C24.435,43.216 24.4,43.201 24.375,43.172 C24.331,43.12 24.338,43.042 24.391,42.998 L29.573,38.741 C29.626,38.698 29.704,38.703 29.749,38.757 C29.793,38.809 29.786,38.887 29.733,38.931 L24.551,43.188 C24.527,43.207 24.499,43.216 24.471,43.216 Z" id="Path" fill="#472B29" fill-rule="nonzero"></path>
            <path d="M25.151,45.455 C25.115,45.455 25.08,45.44 25.055,45.411 C25.011,45.359 25.018,45.281 25.071,45.237 L32.936,38.776 C32.988,38.732 33.067,38.738 33.112,38.792 C33.156,38.844 33.149,38.922 33.096,38.966 L25.231,45.427 C25.208,45.446 25.179,45.455 25.151,45.455 Z" id="Path" fill="#472B29" fill-rule="nonzero"></path>
            <path d="M31.123,43.486 C31.087,43.486 31.052,43.471 31.027,43.442 C30.983,43.39 30.99,43.312 31.043,43.268 L36.313,38.939 C36.366,38.896 36.444,38.901 36.489,38.955 C36.533,39.007 36.526,39.085 36.473,39.129 L31.203,43.458 C31.18,43.477 31.152,43.486 31.123,43.486 Z" id="Path" fill="#472B29" fill-rule="nonzero"></path>
            <path d="M34.682,43.874 C34.646,43.874 34.611,43.859 34.586,43.83 C34.542,43.778 34.549,43.7 34.602,43.656 L36.551,42.054 C36.604,42.01 36.682,42.016 36.727,42.07 C36.771,42.122 36.764,42.2 36.711,42.244 L34.762,43.846 C34.739,43.864 34.71,43.874 34.682,43.874 Z" id="Path" fill="#472B29" fill-rule="nonzero"></path>
        </g>
    </g>
</svg>