<?xml version="1.0" encoding="UTF-8"?>
<svg width="80px" height="80px" viewBox="0 0 80 80" version="1.1" xmlns="http://www.w3.org/2000/svg" xmlns:xlink="http://www.w3.org/1999/xlink">
    <!-- Generator: Sketch 61.2 (89653) - https://sketch.com -->
    <title>Icons (Decorative)/lock</title>
    <desc>Created with Sketch.</desc>
    <defs>
        <path d="M66,1 C65.4477153,1 65,1.44771525 65,2 C65,2.55228475 65.4477153,3 66,3 C66.5522847,3 67,2.55228475 67,2 C67,1.44771525 66.5522847,1 66,1 Z" id="path-1"></path>
        <path d="M72,0 C69.790861,0 68,1.790861 68,4 C68,6.209139 69.790861,8 72,8 C74.209139,8 76,6.209139 76,4 C76,1.790861 74.209139,0 72,0 Z" id="path-2"></path>
        <path d="M66,63 C64.8954305,63 64,63.8954305 64,65 C64,66.1045695 64.8954305,67 66,67 C67.1045695,67 68,66.1045695 68,65 C68,63.8954305 67.1045695,63 66,63 Z M5,62 C2.790861,62 1,63.790861 1,66 C1,68.209139 2.790861,70 5,70 C7.209139,70 9,68.209139 9,66 C9,63.790861 7.209139,62 5,62 Z" id="path-3"></path>
        <path d="M74,18 C73.4477153,18 73,18.4477153 73,19 C73,19.5522847 73.4477153,20 74,20 C74.5522847,20 75,19.5522847 75,19 C75,18.4477153 74.5522847,18 74,18 Z" id="path-4"></path>
        <polygon id="path-5" points="1 26 39 26 39 32.5 1 32.5"></polygon>
    </defs>
    <g id="Icons-(Decorative)/lock" stroke="none" stroke-width="1" fill="none" fill-rule="evenodd">
        <g id="icons8-lock" transform="translate(2.000000, 2.000000)">
            <g id="Path">
                <use fill="#F5684F" xlink:href="#path-1"></use>
                <use fill="#FF7D54" xlink:href="#path-1"></use>
                <use fill="#FF6755" xlink:href="#path-1"></use>
                <use fill="#FFA949" xlink:href="#path-1"></use>
            </g>
            <path d="M38,0 C17.0131795,0 -7.10542736e-15,17.0131795 -7.10542736e-15,38 C-7.10542736e-15,58.9868205 17.0131795,76 38,76 C58.9868205,76 76,58.9868205 76,38 C76,17.0131795 58.9868205,0 38,0 L38,0 Z" id="Path" fill="#FCE0A2" fill-rule="nonzero"></path>
            <g id="Path">
                <use fill="#F5684F" xlink:href="#path-2"></use>
                <use fill="#FF7D54" xlink:href="#path-2"></use>
                <use fill="#FF6755" xlink:href="#path-2"></use>
                <use fill="#FFA949" xlink:href="#path-2"></use>
            </g>
            <path d="M2,12 C0.8954305,12 0,12.8954305 0,14 C0,15.1045695 0.8954305,16 2,16 C3.1045695,16 4,15.1045695 4,14 C4,12.8954305 3.1045695,12 2,12 Z" id="Path" fill="#EE3E54" fill-rule="nonzero"></path>
            <g id="Shape">
                <use fill="#F5684F" xlink:href="#path-3"></use>
                <use fill="#FF7D54" xlink:href="#path-3"></use>
                <use fill="#FF6755" xlink:href="#path-3"></use>
                <use fill="#FFA949" xlink:href="#path-3"></use>
            </g>
            <path d="M12,69 C10.8954305,69 10,69.8954305 10,71 C10,72.1045695 10.8954305,73 12,73 C13.1045695,73 14,72.1045695 14,71 C14,69.8954305 13.1045695,69 12,69 Z" id="Path" fill="#EE3E54" fill-rule="nonzero"></path>
            <path d="M54.483,64.034 C53.5959095,64.034 52.7762041,64.5072571 52.3326588,65.2755 C51.8891135,66.0437429 51.8891135,66.9902571 52.3326588,67.7585 C52.7762041,68.5267429 53.5959095,69 54.483,69 C55.3700905,69 56.1897959,68.5267429 56.6333412,67.7585 C57.0768865,66.9902571 57.0768865,66.0437429 56.6333412,65.2755 C56.1897959,64.5072571 55.3700905,64.034 54.483,64.034 L54.483,64.034 Z M4,35 C3.44771525,35 3,35.4477153 3,36 C3,36.5522847 3.44771525,37 4,37 C4.55228475,37 5,36.5522847 5,36 C5,35.4477153 4.55228475,35 4,35 Z" id="Shape" fill="#FFFFFF" fill-rule="nonzero"></path>
            <g id="Path">
                <use fill="#F5684F" xlink:href="#path-4"></use>
                <use fill="#FF7D54" xlink:href="#path-4"></use>
                <use fill="#FF6755" xlink:href="#path-4"></use>
                <use fill="#FFA949" xlink:href="#path-4"></use>
            </g>
            <path d="M68,52 C66.8954305,52 66,52.8954305 66,54 C66,55.1045695 66.8954305,56 68,56 C69.1045695,56 70,55.1045695 70,54 C70,52.8954305 69.1045695,52 68,52 Z" id="Path" fill="#FFFFFF" fill-rule="nonzero"></path>
            <g id="Group" transform="translate(18.000000, 11.000000)">
                <path d="M19.275,0.017 C11.207,0.397 5,7.347 5,15.424 L5,23 L11,23 L11,15.308 C11,10.514 14.617,6.329 19.401,6.019 C24.643,5.68 29,9.831 29,15 C29,16.657 30.343,18 32,18 C33.657,18 35,16.657 35,15 C35,6.475 27.889,-0.389 19.275,0.017 Z" id="Path" fill="#508ECC" fill-rule="nonzero"></path>
                <path d="M20,1.4 C27.499,1.4 33.6,7.501 33.6,15 C33.6,15.882 32.882,16.6 32,16.6 C31.118,16.6 30.4,15.882 30.4,15 C30.4,9.265 25.735,4.6 20,4.6 C19.772,4.6 19.542,4.607 19.31,4.622 C13.865,4.975 9.599,9.668 9.599,15.308 L9.599,21.6 L6.399,21.6 L6.399,15.424 C6.399,7.911 12.083,1.758 19.34,1.416 C19.562,1.405 19.781,1.4 20,1.4 M20,0 C19.759,0 19.518,0.006 19.275,0.017 C11.207,0.397 5,7.347 5,15.424 L5,23 L11,23 L11,15.308 C11,10.514 14.617,6.329 19.401,6.019 C19.602,6.006 19.802,6 20,6 C24.971,6 29,10.029 29,15 C29,16.657 30.343,18 32,18 C33.657,18 35,16.657 35,15 C35,6.716 28.284,0 20,0 L20,0 Z" id="Shape" fill="#472B29" fill-rule="nonzero"></path>
                <path d="M30,49 L10,49 C4.477,49 0,44.523 0,39 L0,25 C0,22.791 1.791,21 4,21 L36,21 C38.209,21 40,22.791 40,25 L40,39 C40,44.523 35.523,49 30,49 Z" id="Path" fill="#7DAFE2" fill-rule="nonzero"></path>
                <path d="M30,49 L10,49 C4.477,49 0,44.523 0,39 L0,25 C0,22.791 1.791,21 4,21 L36,21 C38.209,21 40,22.791 40,25 L40,39 C40,44.523 35.523,49 30,49 Z" id="Path" fill="#7DAFE2" fill-rule="nonzero"></path>
                <g id="Path">
                    <use fill="#F5684F" xlink:href="#path-5"></use>
                    <use fill="#FF7D54" xlink:href="#path-5"></use>
                    <use fill="#FF6755" xlink:href="#path-5"></use>
                    <use fill="#FFA949" xlink:href="#path-5"></use>
                </g>
                <path d="M22,38 C22,36.895 21.105,36 20,36 C18.895,36 18,36.895 18,38 C18,38.653 18.318,39.227 18.801,39.592 L18,44 L22,44 L21.199,39.592 C21.682,39.227 22,38.653 22,38 Z" id="Path" fill="#508ECC" fill-rule="nonzero"></path>
                <path d="M36,22.4 C37.434,22.4 38.6,23.566 38.6,25 L38.6,39 C38.6,43.742 34.742,47.6 30,47.6 L10,47.6 C5.258,47.6 1.4,43.742 1.4,39 L1.4,25 C1.4,23.566 2.566,22.4 4,22.4 L36,22.4 M36,21 L4,21 C1.791,21 0,22.791 0,25 L0,39 C0,44.523 4.477,49 10,49 L30,49 C35.523,49 40,44.523 40,39 L40,25 C40,22.791 38.209,21 36,21 L36,21 Z" id="Shape" fill="#472B29" fill-rule="nonzero"></path>
                <path d="M39,27 L35.5,27 C35.224,27 35,26.776 35,26.5 C35,26.224 35.224,26 35.5,26 L39,26 C39.276,26 39.5,26.224 39.5,26.5 C39.5,26.776 39.276,27 39,27 Z M32.5,27 L30.5,27 C30.224,27 30,26.776 30,26.5 C30,26.224 30.224,26 30.5,26 L32.5,26 C32.776,26 33,26.224 33,26.5 C33,26.776 32.776,27 32.5,27 Z M27.5,27 L1,27 C0.724,27 0.5,26.776 0.5,26.5 C0.5,26.224 0.724,26 1,26 L27.5,26 C27.776,26 28,26.224 28,26.5 C28,26.776 27.776,27 27.5,27 Z M39,33 L1,33 C0.724,33 0.5,32.776 0.5,32.5 C0.5,32.224 0.724,32 1,32 L39,32 C39.276,32 39.5,32.224 39.5,32.5 C39.5,32.776 39.276,33 39,33 Z M20,36.35 C20.91,36.35 21.65,37.09 21.65,38 C21.65,38.517 21.409,38.995 20.988,39.313 C20.882,39.393 20.831,39.525 20.854,39.655 L21.58,43.65 L18.419,43.65 L19.145,39.655 C19.169,39.525 19.117,39.393 19.011,39.313 C18.591,38.995 18.35,38.517 18.35,38 C18.35,37.09 19.09,36.35 20,36.35 M20,36 C18.895,36 18,36.895 18,38 C18,38.653 18.318,39.227 18.801,39.592 L18,44 L22,44 L21.199,39.592 C21.682,39.227 22,38.653 22,38 C22,36.895 21.105,36 20,36 L20,36 Z" id="Shape" fill="#472B29" fill-rule="nonzero"></path>
                <polygon id="Path" fill="#472B29" fill-rule="nonzero" transform="translate(3.105769, 29.496978) rotate(-54.984000) translate(-3.105769, -29.496978) " points="-0.559231105 29.3214775 6.7707689 29.3214775 6.7707689 29.6724775 -0.559231105 29.6724775"></polygon>
                <polygon id="Path" fill="#472B29" fill-rule="nonzero" transform="translate(6.895769, 29.496978) rotate(-54.984000) translate(-6.895769, -29.496978) " points="3.2307689 29.3214775 10.5607689 29.3214775 10.5607689 29.6724775 3.2307689 29.6724775"></polygon>
                <polygon id="Path" fill="#472B29" fill-rule="nonzero" transform="translate(10.605769, 29.496978) rotate(-54.984000) translate(-10.605769, -29.496978) " points="6.9407689 29.3214775 14.2707689 29.3214775 14.2707689 29.6724775 6.9407689 29.6724775"></polygon>
                <polygon id="Path" fill="#472B29" fill-rule="nonzero" transform="translate(14.395769, 29.496978) rotate(-54.984000) translate(-14.395769, -29.496978) " points="10.7307689 29.3214775 18.0607689 29.3214775 18.0607689 29.6724775 10.7307689 29.6724775"></polygon>
                <polygon id="Path" fill="#472B29" fill-rule="nonzero" transform="translate(18.105769, 29.496978) rotate(-54.984000) translate(-18.105769, -29.496978) " points="14.4407689 29.3214775 21.7707689 29.3214775 21.7707689 29.6724775 14.4407689 29.6724775"></polygon>
                <polygon id="Path" fill="#472B29" fill-rule="nonzero" transform="translate(21.894950, 29.497404) rotate(-54.984000) translate(-21.894950, -29.497404) " points="18.2299499 29.3219037 25.5599499 29.3219037 25.5599499 29.6729037 18.2299499 29.6729037"></polygon>
                <polygon id="Path" fill="#472B29" fill-rule="nonzero" transform="translate(25.604524, 29.496585) rotate(-54.984000) translate(-25.604524, -29.496585) " points="21.9395237 29.3210847 29.2695237 29.3210847 29.2695237 29.6720847 21.9395237 29.6720847"></polygon>
                <polygon id="Path" fill="#472B29" fill-rule="nonzero" transform="translate(29.394524, 29.496585) rotate(-54.984000) translate(-29.394524, -29.496585) " points="25.7295237 29.3210847 33.0595237 29.3210847 33.0595237 29.6720847 25.7295237 29.6720847"></polygon>
                <polygon id="Path" fill="#472B29" fill-rule="nonzero" transform="translate(33.104524, 29.496585) rotate(-54.984000) translate(-33.104524, -29.496585) " points="29.4395237 29.3210847 36.7695237 29.3210847 36.7695237 29.6720847 29.4395237 29.6720847"></polygon>
                <polygon id="Path" fill="#472B29" fill-rule="nonzero" transform="translate(36.894098, 29.495766) rotate(-54.984000) translate(-36.894098, -29.495766) " points="33.2290975 29.3202657 40.5590975 29.3202657 40.5590975 29.6712657 33.2290975 29.6712657"></polygon>
            </g>
        </g>
    </g>
</svg>