<?xml version="1.0" encoding="UTF-8"?>
<svg width="80px" height="80px" viewBox="0 0 80 80" version="1.1" xmlns="http://www.w3.org/2000/svg" xmlns:xlink="http://www.w3.org/1999/xlink">
    <!-- Generator: Sketch 61.2 (89653) - https://sketch.com -->
    <title>Icons (Decorative)/man-messaging</title>
    <desc>Created with Sketch.</desc>
    <defs>
        <circle id="path-1" cx="67.4" cy="2.6" r="1"></circle>
        <circle id="path-2" cx="72.8" cy="4.7" r="4"></circle>
        <circle id="path-3" cx="67.8" cy="66.2" r="1.9"></circle>
        <circle id="path-4" cx="4.7" cy="53.3" r="4"></circle>
    </defs>
    <g id="Icons-(Decorative)/man-messaging" stroke="none" stroke-width="1" fill="none" fill-rule="evenodd">
        <g id="icons8-man_in_red_shirt_messaging">
            <circle id="Oval" fill="#FFFFFF" fill-rule="nonzero" cx="11" cy="46.5" r="1"></circle>
            <circle id="Oval" fill="#FFFFFF" fill-rule="nonzero" cx="70" cy="21.6" r="1"></circle>
            <g id="Oval">
                <use fill="#F5684F" xlink:href="#path-1"></use>
                <use fill="#FF7D54" xlink:href="#path-1"></use>
                <use fill="#FF6755" xlink:href="#path-1"></use>
                <use fill="#FFA949" xlink:href="#path-1"></use>
            </g>
            <circle id="Oval" fill="#F1BC19" fill-rule="nonzero" cx="11.5" cy="54.2" r="1"></circle>
            <circle id="Oval" fill="#F9DBD2" fill-rule="nonzero" cx="40.3" cy="39.8" r="37.5"></circle>
            <g id="Oval">
                <use fill="#F5684F" xlink:href="#path-2"></use>
                <use fill="#FF7D54" xlink:href="#path-2"></use>
                <use fill="#FF6755" xlink:href="#path-2"></use>
                <use fill="#FFA949" xlink:href="#path-2"></use>
            </g>
            <circle id="Oval" fill="#EE3E54" fill-rule="nonzero" cx="76.8" cy="13.8" r="1.9"></circle>
            <g id="Oval">
                <use fill="#F5684F" xlink:href="#path-3"></use>
                <use fill="#FF7D54" xlink:href="#path-3"></use>
                <use fill="#FF6755" xlink:href="#path-3"></use>
                <use fill="#FFA949" xlink:href="#path-3"></use>
            </g>
            <g id="Oval">
                <use fill="#F5684F" xlink:href="#path-4"></use>
                <use fill="#FF7D54" xlink:href="#path-4"></use>
                <use fill="#FF6755" xlink:href="#path-4"></use>
                <use fill="#FFA949" xlink:href="#path-4"></use>
            </g>
            <circle id="Oval" fill="#EE3E54" fill-rule="nonzero" cx="14.9" cy="77.4" r="1.9"></circle>
            <circle id="Oval" fill="#FFFFFF" fill-rule="nonzero" cx="13" cy="57.3" r="2.5"></circle>
            <g id="Group" transform="translate(54.000000, 17.000000)" fill-rule="nonzero">
                <path d="M3.6,1.7 L3.6,5.7 C3.6,6.1 3.3,6.5 2.8,6.5 L2,6.5 C1.6,6.5 1.2,6.2 1.2,5.7 L1.2,1.7 C1.2,1.3 1.5,0.9 2,0.9 L2.9,0.9 C3.2,0.9 3.6,1.3 3.6,1.7 Z" id="Path" fill="#CBC9BC"></path>
                <path d="M2.8,6.8 L2,6.8 C1.4,6.8 0.9,6.3 0.9,5.7 L0.9,1.7 C0.9,1.1 1.4,0.6 2,0.6 L2.8,0.6 C3.4,0.6 3.9,1.1 3.9,1.7 L3.9,5.7 C4,6.3 3.5,6.8 2.8,6.8 Z M2,1.3 C1.8,1.3 1.6,1.5 1.6,1.7 L1.6,5.7 C1.6,5.9 1.8,6.1 2,6.1 L2.8,6.1 C3,6.1 3.2,5.9 3.2,5.7 L3.2,1.7 C3.2,1.5 3,1.3 2.8,1.3 L2,1.3 L2,1.3 Z" id="Shape" fill="#472B29"></path>
            </g>
            <g id="Group" transform="translate(24.000000, 11.000000)" fill-rule="nonzero">
                <path d="M6.1,1 L26.6,1 C29.4,1 31.6,3.2 31.6,6 L31.6,51.5 C31.6,54.3 29.4,56.5 26.6,56.5 L6.1,56.5 C3.3,56.5 1.1,54.3 1.1,51.5 L1.1,6 C1.1,3.3 3.4,1 6.1,1 Z" id="Path" fill="#E1E0D8"></path>
                <path d="M26.6,57.3 L6.1,57.3 C3,57.3 0.4,54.7 0.4,51.6 L0.4,6 C0.4,2.9 3,0.3 6.1,0.3 L26.6,0.3 C29.7,0.3 32.3,2.9 32.3,6 L32.3,51.5 C32.3,54.7 29.8,57.3 26.6,57.3 Z M6.1,1.8 C3.7,1.8 1.8,3.7 1.8,6.1 L1.8,51.6 C1.8,54 3.7,55.9 6.1,55.9 L26.6,55.9 C29,55.9 30.9,54 30.9,51.6 L30.9,6 C30.9,3.6 29,1.7 26.6,1.7 L6.1,1.7 L6.1,1.8 Z" id="Shape" fill="#472B29"></path>
            </g>
            <polygon id="Path" fill="#C0E5E4" fill-rule="nonzero" points="52.5 26.1 52.5 58.2 29 58.2 29 51.2 29 43.3 29 19.1 49.4 19.1 52.5 19.1"></polygon>
            <g id="Group" transform="translate(37.000000, 59.000000)" fill-rule="nonzero">
                <circle id="Oval" fill="#CBC9BC" cx="3" cy="3.1" r="2"></circle>
                <path d="M3,5.4 C1.7,5.4 0.7,4.4 0.7,3.1 C0.7,1.8 1.7,0.8 3,0.8 C4.3,0.8 5.3,1.8 5.3,3.1 C5.3,4.4 4.3,5.4 3,5.4 Z M3,1.5 C2.1,1.5 1.4,2.2 1.4,3.1 C1.4,4 2.1,4.7 3,4.7 C3.9,4.7 4.6,4 4.6,3.1 C4.6,2.2 3.9,1.5 3,1.5 Z" id="Shape" fill="#472B29"></path>
            </g>
            <path d="M37.2,15.2 L43.5,15.2 C43.7,15.2 43.9,15.4 43.9,15.6 L43.9,15.6 C43.9,15.8 43.7,16 43.5,16 L37.2,16 C37,16 36.8,15.8 36.8,15.6 L36.8,15.6 C36.8,15.3 37,15.2 37.2,15.2 Z" id="Path" fill="#472B29" fill-rule="nonzero"></path>
            <path d="M52.1,21.4 C51.9,21.4 51.7,21.2 51.7,21 L51.7,18.7 C51.7,18.5 51.9,18.3 52.1,18.3 C52.3,18.3 52.5,18.5 52.5,18.7 L52.5,21 C52.5,21.3 52.3,21.4 52.1,21.4 Z" id="Path" fill="#472B29" fill-rule="nonzero"></path>
            <path d="M52.1,23 C52,23 51.9,23 51.8,22.9 C51.7,22.8 51.7,22.7 51.7,22.6 C51.7,22.5 51.7,22.4 51.8,22.3 C51.9,22.2 52.2,22.2 52.3,22.3 C52.4,22.4 52.4,22.5 52.4,22.6 C52.4,22.7 52.4,22.8 52.3,22.9 C52.3,22.9 52.2,23 52.1,23 Z" id="Path" fill="#472B29" fill-rule="nonzero"></path>
            <path d="M28.6,49.6 C28.4,49.6 28.2,49.4 28.2,49.2 L28.2,47.6 C28.2,47.4 28.4,47.2 28.6,47.2 C28.8,47.2 29,47.4 29,47.6 L29,49.2 C29,49.4 28.8,49.6 28.6,49.6 Z" id="Path" fill="#472B29" fill-rule="nonzero"></path>
            <g id="Group" transform="translate(26.000000, 19.000000)" fill-rule="nonzero">
                <path d="M27.7,32.3 C27.6,31 26.7,29.9 25.4,29.6 L25.2,29.5 L24.8,29.3 C24,28.9 19,27.1 19,27.1 C18.6,27 18.3,26.7 18.2,26.4 C18,25.7 18,25.1 18,24.4 C16.9,24.8 15.7,25.1 14.6,25.4 C13.3,25.5 10.6,23.9 10.6,23.9 C10.6,23.9 10.5,26 10.4,26.4 C10.3,26.8 9.9,27.1 9.5,27.2 L4.7,28.9 C4.2,29 3.7,29.2 3.2,29.5 C2.2,30.2 1.4,31.1 1.1,32.3 C1.1,32.3 0.8,34.5 0.8,34.6 C0.8,34.9 0.8,35.3 0.7,35.6 C5.9,39.2 10.2,40.2 17.4,39.8 C21.1,39.4 24.8,38.4 28.1,36.8 C28,33.9 27.7,32.3 27.7,32.3 Z" id="Path" fill="#E5AC80"></path>
                <path d="M25.5,29.6 L25.3,29.5 L24.9,29.3 C24.4,29.1 22.3,28.3 20.7,27.7 L20.6,27.7 C18.9,28.6 16.5,29.9 14.3,29.9 C12.1,29.9 9.8,28.7 8,27.7 L7.8,27.7 L4.8,28.8 C4.3,28.9 3.8,29.1 3.3,29.4 C2.3,30.1 1.5,31 1.2,32.2 C1.2,32.2 0.9,34.4 0.9,34.5 C0.9,34.8 0.8,38.2 0.8,38.5 C6,42.1 10.3,43.1 17.5,42.7 C21.2,42.3 24.9,41.3 28.2,39.6 C28.1,36.8 27.8,32.1 27.8,32.1 C27.6,31 26.7,29.9 25.5,29.6 Z" id="Path" fill="#EE3E54"></path>
                <path d="M5.3,41.6 C5.1,41.6 5,41.5 5,41.3 L5,38.6 C5,38.4 5.1,38.3 5.3,38.3 C5.5,38.3 5.6,38.4 5.6,38.6 L5.6,41.3 C5.6,41.5 5.4,41.6 5.3,41.6 Z" id="Path" fill="#BA1531"></path>
                <path d="M23.1,42.1 C22.9,42.1 22.8,42 22.8,41.8 L22.8,38.7 C22.8,38.5 22.9,38.4 23.1,38.4 C23.3,38.4 23.4,38.5 23.4,38.7 L23.4,41.8 C23.4,41.9 23.2,42.1 23.1,42.1 Z" id="Path" fill="#BA1531"></path>
                <path d="M22.5,14.5 L22.2,14.5 C21.5,14.5 21.4,14.7 21.4,14.3 C21.5,13.6 21.4,10.7 21.4,10.6 C21.4,7.6 18.2,5.2 14.3,5.1 L14.1,5.1 C10.2,5.2 7,7.7 7,10.6 C7,10.8 6.9,13.6 7,14.3 C7,14.7 6.8,14.4 6.2,14.5 L6,14.5 C5.4,14.5 4.8,14.9 4.6,15.5 C4.8,16.7 5.1,17.9 5.5,19 C5.8,19.5 6.3,19.6 6.7,20 C6.9,20.2 7.1,20.4 7.1,20.7 C7.4,21.8 8.1,22.7 8.9,23.4 C9.3,23.8 11.9,26.6 14.2,26.4 C16.5,26.2 19.1,23.8 19.5,23.4 C20.3,22.7 21,21.7 21.3,20.7 C21.3,20.4 21.5,20.2 21.7,20 C22.2,19.7 22.6,19.6 22.9,19 C23.3,17.9 23.6,16.7 23.8,15.5 C23.7,14.9 23.2,14.5 22.5,14.5 Z" id="Path" fill="#EDBC94"></path>
                <path d="M14.3,19.8 C14.8,19.8 15.2,19.6 15.5,19.3 C15.5,19.3 15.5,19.2 15.5,19.2 C15.5,19.2 15.5,19.2 15.5,19.2 L15.5,19.2 C15.5,19.2 15.4,19.2 15.4,19.2 C14.8,19.8 13.9,19.8 13.2,19.2 L13.1,19.2 L13.1,19.2 C13.1,19.2 13.1,19.3 13.1,19.3 C13.1,19.3 13.1,19.3 13.1,19.3 C13.5,19.6 13.9,19.8 14.3,19.8 Z" id="Path" fill="#512C2B"></path>
                <path d="M12.8,12.9 L13.1,12.3 C11.8,12 10.5,12.1 9.3,12.4 L9.7,12.9 C10.7,12.7 11.8,12.6 12.8,12.9 Z" id="Path" fill="#512C2B"></path>
                <path d="M19,12.9 L19.3,12.3 C18,12 16.7,12 15.5,12.4 L15.9,12.9 C16.9,12.7 17.9,12.6 19,12.9 Z" id="Path" fill="#512C2B"></path>
                <path d="M11,13.7 C10.7,13.7 10.4,13.9 10.3,14.2 C10.3,14.2 10.4,14.2 10.4,14.2 C10.7,14.2 10.9,14.4 10.9,14.7 C10.9,15 10.7,15.2 10.4,15.2 C10.3,15.2 10.2,15.2 10.2,15.1 C10.3,15.5 10.6,15.8 11,15.9 C11.6,15.7 12,15.1 11.8,14.5 C11.7,14.1 11.4,13.8 11,13.7 L11,13.7 Z" id="Path" fill="#512C2B"></path>
                <path d="M17.5,13.7 C17.2,13.7 17,13.8 16.9,14.1 C16.9,14.1 17,14.1 17,14.1 C17.3,14.1 17.5,14.3 17.4,14.6 C17.4,14.6 17.4,14.6 17.4,14.6 C17.4,14.9 17.2,15.1 17,15.1 C17,15.1 17,15.1 17,15.1 C16.8,15.1 16.7,15 16.6,14.9 C16.6,15.4 16.9,15.9 17.4,16 C18,15.8 18.4,15.2 18.2,14.6 C18.2,14.1 17.9,13.8 17.5,13.7 L17.5,13.7 Z" id="Path" fill="#512C2B"></path>
                <path d="M17.9,21 C17.9,21 17.9,20.9 17.9,21 C17.9,20.9 17.9,20.9 17.9,20.9 L17.9,20.9 C17.9,20.9 17.8,20.9 17.8,20.9 C16.8,21.6 15.6,22 14.3,21.9 C13.1,22 11.8,21.6 10.8,20.9 L10.8,20.9 C10.8,20.9 10.7,20.9 10.7,21 C10.7,21 10.7,21 10.7,21.1 C12.9,22.5 15.8,22.5 17.9,21 L17.9,21 Z" id="Path" fill="#512C2B"></path>
                <path d="M15.1,43.4 C9,43.4 5.1,42.2 0.4,39.1 C0.3,39 0.2,38.9 0.2,38.8 C0.2,36.7 0.3,34.5 0.6,32.4 C0.9,31 1.7,29.9 2.9,29.3 C3.4,29 3.9,28.8 4.5,28.7 L9.3,26.9 C9.6,26.8 9.8,26.6 9.9,26.4 C9.9,26.2 10,25.6 10,25.1 C9.3,24.6 8.8,24.2 8.6,24 C7.7,23.2 7,22.2 6.7,21 C6.7,20.7 6.6,20.6 6.4,20.5 C6.3,20.4 6.1,20.3 6,20.2 C5.7,20 5.3,19.8 5.1,19.4 C4.6,18.2 4.2,17 4.1,15.7 C4.1,15.7 4.1,15.6 4.1,15.6 C4.3,14.8 5,14.3 5.9,14.2 L6.3,14.2 C6.5,14.2 6.6,14.2 6.7,14.2 C6.7,13.5 6.7,11.9 6.7,10.8 L6.7,10.6 C6.7,7.4 10,4.7 14.1,4.6 L14.3,4.6 C18.4,4.7 21.8,7.5 21.8,10.6 L21.8,10.8 C21.8,11.9 21.8,13.5 21.8,14.2 C21.9,14.2 22.1,14.2 22.2,14.2 L22.5,14.2 C23.3,14.2 24,14.8 24.3,15.6 C24.3,15.6 24.3,15.7 24.3,15.7 C24.2,17 23.9,18.2 23.3,19.4 C23,19.9 22.7,20.1 22.4,20.3 C22.3,20.4 22.1,20.4 22,20.5 C21.9,20.6 21.8,20.8 21.8,20.9 C21.4,22.1 20.8,23.2 19.9,23.9 C19.4,24.3 18.9,24.7 18.4,25.1 C18.4,25.5 18.4,25.9 18.6,26.4 C18.7,26.6 18.9,26.8 19.2,26.9 C19.4,27 24.2,28.8 25.1,29.1 L25.7,29.3 C27.1,29.7 28.1,30.9 28.2,32.4 L28.2,32.4 C28.2,32.4 28.5,37.1 28.6,40 C28.6,40.1 28.5,40.3 28.4,40.3 C25,42 21.3,43 17.5,43.4 C16.6,43.4 15.9,43.4 15.1,43.4 Z M1,38.6 C6,41.9 10.1,42.9 17.3,42.6 C20.9,42.2 24.4,41.2 27.7,39.7 C27.6,36.8 27.3,32.5 27.3,32.4 L27.3,32.4 C27.2,31.3 26.4,30.3 25.3,30 L24.6,29.7 C23.8,29.3 18.8,27.5 18.8,27.5 C18.3,27.4 18,27 17.7,26.6 C17.5,26 17.5,25.4 17.5,24.9 C17.5,24.8 17.6,24.7 17.7,24.6 C18.3,24.2 18.8,23.8 19.3,23.4 C20.1,22.7 20.7,21.8 21,20.8 C21,20.5 21.2,20.1 21.5,19.9 C21.7,19.8 21.8,19.7 22,19.6 C22.3,19.4 22.5,19.3 22.6,19 C23.1,18 23.4,16.8 23.5,15.7 C23.3,15.3 22.9,15 22.5,15 L22.3,15 C22.1,15 22,15 21.9,15 C21.7,15 21.5,15.1 21.3,14.9 C21.1,14.7 21.1,14.5 21.1,14.4 C21.2,13.8 21.1,11.6 21.1,10.9 L21.1,10.7 C21.1,7.9 18.1,5.5 14.4,5.4 L14.3,5.4 C10.5,5.5 7.6,7.9 7.6,10.7 L7.6,10.9 C7.5,12.8 7.5,14 7.6,14.4 C7.6,14.6 7.6,14.8 7.4,14.9 C7.2,15 7,15 6.9,14.9 C6.8,14.9 6.6,14.9 6.4,14.9 L6,14.9 C5.5,14.9 5.1,15.2 5,15.6 C5.1,16.8 5.4,17.9 5.9,18.9 C6,19.2 6.2,19.3 6.5,19.4 C6.7,19.5 6.8,19.6 7,19.7 C7.3,19.9 7.5,20.3 7.5,20.7 C7.8,21.6 8.4,22.5 9.2,23.3 C9.3,23.4 9.9,23.9 10.7,24.4 C10.8,24.5 10.9,24.6 10.9,24.7 C10.9,25.3 10.8,26.1 10.8,26.4 C10.6,27 10.2,27.4 9.6,27.5 L4.8,29.3 C4.3,29.4 3.8,29.6 3.4,29.9 C2.4,30.4 1.7,31.4 1.4,32.5 C1.2,34.5 1,36.6 1,38.6 Z" id="Shape" fill="#472B29"></path>
                <path d="M22.6,17.6 L22,17.5 L22.1,16.5 L21.6,16.7 L21.4,16.1 L22.4,15.7 C22.5,15.7 22.6,15.7 22.7,15.7 C22.8,15.8 22.8,15.9 22.8,16 L22.6,17.6 Z" id="Path" fill="#D3A47D"></path>
                <path d="M6.1,17.4 L5.9,15.9 C5.9,15.8 5.9,15.7 6,15.6 C6.1,15.5 6.2,15.5 6.3,15.6 L7.3,16 L7.1,16.6 L6.6,16.4 L6.7,17.4 L6.1,17.4 Z" id="Path" fill="#D3A47D"></path>
                <path d="M7.1,20.5 C7.1,20.5 7.1,20.5 7.1,20.5 C7,20.5 6.9,20.4 6.9,20.3 L7,14.4 C7,14.3 7.1,14.2 7.2,14.2 C7.2,14.2 7.2,14.2 7.2,14.2 C7.3,14.2 7.4,14.3 7.4,14.4 L7.3,20.3 C7.3,20.4 7.2,20.5 7.1,20.5 Z" id="Path" fill="#472B29"></path>
                <path d="M21.5,20.5 C21.4,20.5 21.3,20.4 21.3,20.3 L21.2,14.4 C21.2,14.3 21.3,14.2 21.4,14.2 C21.4,14.2 21.4,14.2 21.4,14.2 C21.5,14.2 21.6,14.3 21.6,14.4 L21.7,20.3 C21.7,20.4 21.7,20.5 21.5,20.5 C21.5,20.5 21.5,20.5 21.5,20.5 Z" id="Path" fill="#472B29"></path>
                <path d="M18.7,24.1 C17.5,24.9 15.2,25.4 14.8,24.7 C14.7,24.4 14.4,24.2 14,24.3 C13.8,24.4 13.7,24.5 13.6,24.7 C13.1,25.5 10.7,24.7 9.4,23.8 C9,23.8 9.4,23.9 9.1,24.2 C10.6,25.5 12.3,26.6 14.1,27.5 L14.1,27.5 C15.7,26.6 17.3,25.6 18.7,24.5 C18.6,24.1 19,24.1 18.7,24.1 Z" id="Path" fill="#472B29"></path>
                <path d="M20.1,5.5 C20.1,5.1 19.9,4.7 19.7,4.4 C18.6,2.8 17.1,1.5 15.2,0.7 C15.1,1.7 14.5,2.5 13.5,2.8 C9.1,4 6.5,5.8 6.5,11.2 C6.6,12.4 6.8,13.7 7.2,14.9 C7.4,13.8 7.4,11.3 7.6,10.3 C7.8,9.5 8.1,8.7 8.5,8 C10.3,6.3 18,6.4 20,8 C20.4,8.7 20.7,9.5 20.9,10.3 C21.2,11.4 21.1,13.9 21.3,14.9 C21.6,13.7 21.9,12.5 22,11.2 C22.5,7.4 20.5,5.9 20.1,5.5 Z" id="Path" fill="#472B29"></path>
                <path d="M13.4,14 C12,12.3 7,13.5 7,13.5 C7.1,13.9 7.2,14.2 7.3,14.6 C7.7,14.6 7.7,15.5 7.7,15.8 C7.9,17.3 8.9,18.4 11,18.3 C12.5,18.3 13.7,17.2 13.7,15.7 C13.7,15.7 13.7,15.7 13.7,15.7 C13.7,15.1 13.6,14.6 13.4,14 Z M13.1,15.8 C13.1,17 12.1,18 10.9,18 C10.9,18 10.9,18 10.8,18 L10.4,18 C8.3,18 7.9,16.2 7.9,15 C7.9,14.3 8.4,13.8 9,13.7 C9.4,13.7 9.8,13.7 10.3,13.7 C11.9,13.7 12.6,14.1 12.7,14.4 C13.1,14.8 13.2,15.3 13.1,15.8 L13.1,15.8 Z" id="Shape" fill="#EE3E54"></path>
                <path d="M14.8,15.7 C14.8,17.2 16,18.3 17.5,18.3 C17.5,18.3 17.5,18.3 17.5,18.3 C19.6,18.3 20.6,17.3 20.8,15.8 C20.8,15.5 20.9,14.6 21.2,14.6 C21.3,14.2 21.4,13.9 21.4,13.5 C21.4,13.5 16.3,12.3 15,14 C14.9,14.5 14.8,15.1 14.8,15.7 Z M15.6,14.4 C15.8,14.1 16.5,13.7 18,13.7 C18.5,13.7 18.9,13.7 19.3,13.7 C20,13.8 20.5,14.4 20.4,15 C20.4,16.2 20,18 17.9,18 L17.5,18 C16.3,18 15.3,17.1 15.2,15.9 C15.2,15.9 15.2,15.9 15.2,15.8 C15.3,15.3 15.4,14.8 15.6,14.4 Z" id="Shape" fill="#EE3E54"></path>
                <path d="M15.1,15.3 C14.8,15.1 14.5,15 14.1,15 C13.8,15 13.5,15.1 13.2,15.3 C13.1,15 13,14.8 12.9,14.5 L15.3,14.5 L15.1,15.3 Z" id="Path" fill="#EE3E54"></path>
            </g>
            <path d="M28.6,43.3 C28.4,43.3 28.2,43.1 28.2,42.9 L28.2,18.7 C28.2,18.5 28.4,18.3 28.6,18.3 L49,18.3 C49.2,18.3 49.4,18.5 49.4,18.7 C49.4,18.9 49.2,19.1 49,19.1 L29,19.1 L29,43 C29,43.1 28.8,43.3 28.6,43.3 Z" id="Path" fill="#472B29" fill-rule="nonzero"></path>
            <path d="M52.1,58.2 L28.6,58.2 C28.4,58.2 28.2,58 28.2,57.8 L28.2,42.6 C28.2,42.4 28.4,42.2 28.6,42.2 C28.8,42.2 29,42.4 29,42.6 L29,57.5 L51.7,57.5 L51.7,25.7 C51.7,25.5 51.9,25.3 52.1,25.3 C52.3,25.3 52.5,25.5 52.5,25.7 L52.5,57.8 C52.5,58 52.3,58.2 52.1,58.2 Z" id="Path" fill="#472B29" fill-rule="nonzero"></path>
            <g id="Group" transform="translate(12.000000, 29.000000)" fill-rule="nonzero">
                <path d="M21.5,8.4 C21.5,10.7 20,13 17.6,14.4 L17.6,14.4 C17.6,15.6 17.9,16.8 18.4,17.9 C18.5,18.1 18.4,18.4 18.2,18.5 C18.1,18.5 18,18.6 17.9,18.5 C15.8,18.3 13.9,17.4 12.3,16 L11,16 C5.2,16 0.5,12.5 0.5,8.3 C0.5,4.1 5.2,0.6 11,0.6 C16.8,0.6 21.5,4.1 21.5,8.4" id="Path" fill="#FDFCEF"></path>
                <path d="M18,19.1 C17.9,19.1 17.9,19.1 18,19.1 C15.8,18.9 13.8,18 12.2,16.6 L11,16.6 C5,16.6 0,12.9 0,8.4 C0,3.9 4.9,0.2 11,0.2 C17,0.2 21.9,3.8 22,8.3 C22,8.3 22,8.4 22,8.4 C22,10.8 20.5,13.2 18.1,14.7 C18.2,15.8 18.4,16.8 18.9,17.8 C19.1,18.3 18.9,18.8 18.5,19.1 C18.3,19 18.1,19.1 18,19.1 Z M11,1.1 C5.5,1.1 1,4.3 1,8.3 C1,12.3 5.5,15.5 11,15.5 L12.3,15.5 C12.4,15.5 12.5,15.5 12.6,15.6 C14.1,16.9 15.9,17.8 17.9,18 C17.3,16.9 17,15.6 17,14.3 C17,14.1 17.1,14 17.2,13.9 C19.5,12.6 20.8,10.5 20.9,8.4 C20.9,8.4 20.9,8.3 20.9,8.3 C21,4.4 16.5,1.1 11,1.1 Z" id="Shape" fill="#472B29"></path>
            </g>
        </g>
    </g>
</svg>