<svg width="89" height="27" viewBox="0 0 89 27" fill="none" xmlns="http://www.w3.org/2000/svg">
<path d="M33 26L37.2927 1H44L39.8415 26H33Z" fill="#3C58BF"/>
<path d="M33 26L38.5 1H44L39.8415 26H33Z" fill="#293688"/>
<path d="M65 1.13684C63.6275 0.56842 61.4314 0 58.6863 0C51.8235 0 46.8824 3.55263 46.8824 8.66842C46.8824 12.5053 50.3137 14.4947 53.0588 15.7737C55.8039 17.0526 56.6275 17.9053 56.6275 19.0421C56.6275 20.7474 54.4314 21.6 52.5098 21.6C49.7647 21.6 48.2549 21.1737 45.9216 20.1789L44.9608 19.7526L44 25.5789C45.6471 26.2895 48.6667 27 51.8235 27C59.098 27 63.902 23.4474 63.902 18.0474C63.902 15.0632 62.1176 12.7895 58 10.9421C55.5294 9.66316 54.0196 8.95263 54.0196 7.67368C54.0196 6.53684 55.2549 5.4 58 5.4C60.3333 5.4 61.9804 5.82632 63.2157 6.39474L63.902 6.67895L65 1.13684Z" fill="#3C58BF"/>
<path d="M65 1.13684C63.6275 0.56842 61.4314 0 58.6863 0C51.8235 0 48.1176 3.55263 48.1176 8.66842C48.1176 12.5053 50.3137 14.4947 53.0588 15.7737C55.8039 17.0526 56.6275 17.9053 56.6275 19.0421C56.6275 20.7474 54.4314 21.6 52.5098 21.6C49.7647 21.6 48.2549 21.1737 45.9216 20.1789L44.9608 19.7526L44 25.5789C45.6471 26.2895 48.6667 27 51.8235 27C59.098 27 63.902 23.4474 63.902 18.0474C63.902 15.0632 62.1176 12.7895 58 10.9421C55.5294 9.66316 54.0196 8.95263 54.0196 7.67368C54.0196 6.53684 55.2549 5.4 58 5.4C60.3333 5.4 61.9804 5.82632 63.2157 6.39474L63.902 6.67895L65 1.13684Z" fill="#293688"/>
<path d="M77.8736 1C76.2253 1 74.989 1.13889 74.3022 2.80556L64 26H71.4176L72.7912 21.8333H81.5824L82.4066 26H89L83.2308 1H77.8736ZM74.7143 17.6667C75.1264 16.4167 77.4615 10.3056 77.4615 10.3056C77.4615 10.3056 78.011 8.77778 78.4231 7.80556L78.8352 10.1667C78.8352 10.1667 80.2088 16.4167 80.4835 17.8056H74.7143V17.6667Z" fill="#3C58BF"/>
<path d="M79.522 1C77.8736 1 76.6374 1.13889 75.9506 2.80556L64 26H71.4176L72.7912 21.8333H81.5824L82.4066 26H89L83.2308 1H79.522ZM74.7143 17.6667C75.2637 16.2778 77.4615 10.3056 77.4615 10.3056C77.4615 10.3056 78.011 8.77778 78.4231 7.80556L78.8352 10.1667C78.8352 10.1667 80.2088 16.4167 80.4835 17.8056H74.7143V17.6667Z" fill="#293688"/>
<path d="M20.4167 18.3611L19.7222 14.75C18.4722 10.5833 14.4444 6 10 3.77778L16.25 26H23.75L35 1H27.5L20.4167 18.3611Z" fill="#3C58BF"/>
<path d="M20.4167 18.3611L19.7222 14.75C18.4722 10.5833 14.4444 6 10 3.77778L16.25 26H23.75L35 1H28.8889L20.4167 18.3611Z" fill="#293688"/>
<path d="M0 1L1.27612 1.28C10.3507 3.38 16.5896 8.7 19 15L16.4478 3.1C16.0224 1.42 14.7463 1 13.1866 1H0Z" fill="#FFBC00"/>
<path d="M0 1C9.07463 3.12121 16.5896 8.63636 19 15L16.5896 4.9596C16.1642 3.26263 14.7463 2.27273 13.1866 2.27273L0 1Z" fill="#F7981D"/>
<path d="M0 1C9.07463 3.12121 16.5896 8.63636 19 15L17.2985 9.48485C16.8731 7.78788 16.306 6.09091 14.3209 5.38384L0 1Z" fill="#ED7C00"/>
<path d="M26.9492 17.7285L22.1653 12.9446L19.914 18.2914L19.3512 14.7738C18.0849 10.5527 14.0045 5.90946 9.50195 3.6582L15.8336 26.1707H23.4316L26.9492 17.7285Z" fill="#051244"/>
<path d="M40.0352 26.1704L33.985 19.9795L32.8594 26.1704H40.0352Z" fill="#051244"/>
<path d="M56.2158 17.4473C56.7786 18.0101 57.06 18.4322 56.9193 18.995C56.9193 20.6834 54.6681 21.5277 52.6982 21.5277C49.8842 21.5277 48.3364 21.1056 45.9445 20.1206L44.9595 19.6985L43.9746 25.4674C45.6631 26.1709 48.7585 26.8744 51.9947 26.8744C56.4972 26.8744 60.1555 25.6081 62.266 23.3568L56.2158 17.4473Z" fill="#051244"/>
<path d="M64.377 26.1704H70.99L72.397 21.9493H81.4021L82.2463 26.1704H89L86.6081 15.8991L78.1659 7.73828L78.588 9.98953C78.588 9.98953 79.995 16.3212 80.2764 17.7282H74.3669C74.9297 16.3212 77.181 10.2709 77.181 10.2709C77.181 10.2709 77.7438 8.7232 78.1659 7.73828" fill="#051244"/>
</svg>
