<?xml version="1.0" encoding="UTF-8"?>
<svg width="66px" height="94px" viewBox="0 0 66 94" version="1.1" xmlns="http://www.w3.org/2000/svg" xmlns:xlink="http://www.w3.org/1999/xlink">
    <!-- Generator: Sketch 61.2 (89653) - https://sketch.com -->
    <title>Objects/mouse</title>
    <desc>Created with Sketch.</desc>
    <g id="Objects/mouse" stroke="none" stroke-width="1" fill="none" fill-rule="evenodd">
        <g id="Mouse" fill-rule="nonzero">
            <g id="XMLID_251_" opacity="0.5" transform="translate(6.000000, 6.000000)" fill="#232323">
                <path d="M41.342,84.241 L32.815,85.638 C22.145,87.386 12.062,80.143 10.314,69.473 L2.106,23.668 C0.984,14.534 8.163,6.054 18.103,4.425 L29.32,2.587 C39.26,0.958 48.77,6.704 50.622,15.718 L57.462,61.747 C59.256,72.409 52.012,82.492 41.342,84.241 Z" id="Path"></path>
                <path d="M41.641,86.064 L33.114,87.461 C21.448,89.373 10.402,81.437 8.49,69.771 L0.286,23.994 C0.28,23.961 0.275,23.927 0.271,23.894 C-0.973,13.769 6.728,4.416 17.803,2.601 L29.02,0.763 C40.095,-1.052 50.379,5.354 52.431,15.346 C52.438,15.379 52.444,15.413 52.449,15.446 L59.289,61.475 C60.231,67.073 58.921,72.737 55.594,77.39 C52.257,82.056 47.302,85.137 41.641,86.064 Z M3.934,23.394 L12.133,69.147 C13.72,78.829 22.862,85.396 32.516,83.814 L41.043,82.417 C45.727,81.649 49.826,79.101 52.588,75.24 C55.339,71.393 56.423,66.71 55.639,62.054 L48.801,16.042 C47.152,8.16 38.559,2.946 29.618,4.411 L18.401,6.249 C9.461,7.714 2.981,15.399 3.934,23.394 Z" id="Shape"></path>
            </g>
            <path d="M41.699,84.376 L33.172,85.773 C22.502,87.521 12.419,80.278 10.671,69.608 L2.463,23.803 C1.341,14.669 8.52,6.189 18.46,4.56 L29.677,2.722 C39.617,1.093 49.127,6.839 50.979,15.853 L57.819,61.882 C59.612,72.545 52.369,82.628 41.699,84.376 Z" id="XMLID_250_" fill="#E2E9F2"></path>
            <path d="M31.424,2.53 L37.682,44.721 C39.43,55.391 32.187,65.474 21.517,67.222 L12.99,68.619 C12.169,68.754 11.341,68.842 10.498,68.84 L10.625,69.615 C12.373,80.285 22.457,87.529 33.127,85.78 L41.654,84.383 C52.324,82.635 59.568,72.551 57.819,61.882 L51.024,15.846 C49.261,7.379 40.716,1.803 31.424,2.53 Z" id="XMLID_249_" fill="#B4C7E7" opacity="0.8"></path>
            <g id="XMLID_248_" fill="#202454">
                <path d="M41.998,86.2 L33.471,87.597 C21.805,89.509 10.759,81.573 8.847,69.907 L0.643,24.129 C0.637,24.096 0.632,24.062 0.628,24.029 C-0.616,13.904 7.085,4.551 18.16,2.736 L29.377,0.898 C40.452,-0.917 50.736,5.489 52.788,15.481 C52.795,15.514 52.801,15.547 52.806,15.581 L59.646,61.61 C60.588,67.208 59.278,72.872 55.951,77.525 C52.614,82.192 47.659,85.272 41.998,86.2 Z M4.291,23.53 L12.49,69.283 C14.077,78.965 23.219,85.532 32.873,83.95 L41.4,82.553 C46.084,81.785 50.183,79.237 52.945,75.376 C55.696,71.529 56.78,66.846 55.996,62.19 L49.158,16.178 C47.509,8.296 38.916,3.082 29.975,4.547 L18.758,6.385 C9.817,7.85 3.338,15.534 4.291,23.53 Z" id="Shape"></path>
            </g>
            <g id="XMLID_247_" transform="translate(22.000000, 1.000000)" fill="#202454">
                <path d="M6.715,31.003 C5.708,31.168 4.757,30.485 4.592,29.478 L0.243,2.94 C0.078,1.933 0.761,0.982 1.768,0.817 C2.775,0.652 3.726,1.335 3.891,2.342 L8.24,28.88 C8.405,29.888 7.722,30.838 6.715,31.003 Z" id="Path"></path>
            </g>
        </g>
    </g>
</svg>