<svg width="594" height="594" viewBox="0 0 594 594" fill="none" xmlns="http://www.w3.org/2000/svg">
<circle cx="297" cy="297" r="297" fill="#4CAF50" fill-opacity="0.29"/>
<circle cx="296.5" cy="296.5" r="238.5" fill="#4CAF50" fill-opacity="0.4"/>
<circle cx="297" cy="297" r="178" fill="#13A519"/>
<path d="M215.682 408V377.545L296.477 298.341C304.205 290.538 310.644 283.606 315.795 277.545C320.947 271.485 324.811 265.614 327.386 259.932C329.962 254.25 331.25 248.189 331.25 241.75C331.25 234.402 329.583 228.114 326.25 222.886C322.917 217.583 318.333 213.492 312.5 210.614C306.667 207.735 300.038 206.295 292.614 206.295C284.962 206.295 278.258 207.886 272.5 211.068C266.742 214.174 262.273 218.606 259.091 224.364C255.985 230.121 254.432 236.977 254.432 244.932H214.318C214.318 230.159 217.689 217.318 224.432 206.409C231.174 195.5 240.455 187.053 252.273 181.068C264.167 175.083 277.803 172.091 293.182 172.091C308.788 172.091 322.5 175.008 334.318 180.841C346.136 186.674 355.303 194.667 361.818 204.818C368.409 214.97 371.705 226.561 371.705 239.591C371.705 248.303 370.038 256.864 366.705 265.273C363.371 273.682 357.5 283 349.091 293.227C340.758 303.455 329.053 315.841 313.977 330.386L273.864 371.182V372.773H375.227V408H215.682Z" fill="white"/>
</svg>
