<svg width="594" height="594" viewBox="0 0 594 594" fill="none" xmlns="http://www.w3.org/2000/svg">
<circle cx="297" cy="297" r="297" fill="#4CAF50" fill-opacity="0.29"/>
<circle cx="296.5" cy="296.5" r="238.5" fill="#4CAF50" fill-opacity="0.4"/>
<circle cx="297" cy="297" r="178" fill="#13A519"/>
<path d="M299.205 411.182C282.841 411.182 268.295 408.379 255.568 402.773C242.917 397.167 232.917 389.364 225.568 379.364C218.22 369.364 214.318 357.811 213.864 344.705H256.591C256.97 350.992 259.053 356.485 262.841 361.182C266.629 365.803 271.667 369.402 277.955 371.977C284.242 374.553 291.288 375.841 299.091 375.841C307.424 375.841 314.811 374.402 321.25 371.523C327.689 368.568 332.727 364.477 336.364 359.25C340 354.023 341.78 348 341.705 341.182C341.78 334.136 339.962 327.924 336.25 322.545C332.538 317.167 327.159 312.962 320.114 309.932C313.144 306.902 304.735 305.386 294.886 305.386H274.318V272.886H294.886C302.992 272.886 310.076 271.485 316.136 268.682C322.273 265.879 327.083 261.939 330.568 256.864C334.053 251.712 335.758 245.765 335.682 239.023C335.758 232.432 334.28 226.712 331.25 221.864C328.295 216.939 324.091 213.114 318.636 210.386C313.258 207.659 306.932 206.295 299.659 206.295C292.538 206.295 285.947 207.583 279.886 210.159C273.826 212.735 268.939 216.409 265.227 221.182C261.515 225.879 259.545 231.485 259.318 238H218.75C219.053 224.97 222.803 213.53 230 203.682C237.273 193.758 246.97 186.03 259.091 180.5C271.212 174.894 284.811 172.091 299.886 172.091C315.417 172.091 328.902 175.008 340.341 180.841C351.856 186.598 360.758 194.364 367.045 204.136C373.333 213.909 376.477 224.705 376.477 236.523C376.553 249.629 372.689 260.614 364.886 269.477C357.159 278.341 347.008 284.136 334.432 286.864V288.682C350.795 290.955 363.333 297.015 372.045 306.864C380.833 316.636 385.189 328.795 385.114 343.341C385.114 356.371 381.402 368.038 373.977 378.341C366.629 388.568 356.477 396.598 343.523 402.432C330.644 408.265 315.871 411.182 299.205 411.182Z" fill="white"/>
</svg>
