<?xml version="1.0" encoding="UTF-8"?>
<svg width="255px" height="264px" viewBox="0 0 255 264" version="1.1" xmlns="http://www.w3.org/2000/svg" xmlns:xlink="http://www.w3.org/1999/xlink">
    <!-- Generator: Sketch 61.2 (89653) - https://sketch.com -->
    <title>Objects/notebook</title>
    <desc>Created with Sketch.</desc>
    <defs>
        <path d="M153.166,244.306 L0.628,219.625 L36.04,0.766 L188.578,25.447 C194.049,26.332 197.829,31.367 196.943,36.839 L164.75,235.802 C163.856,241.329 158.637,245.192 153.166,244.306 Z" id="path-1"></path>
    </defs>
    <g id="Objects/notebook" stroke="none" stroke-width="1" fill="none" fill-rule="evenodd">
        <g id="Notebook">
            <g id="XMLID_445_" opacity="0.5" transform="translate(33.000000, 49.000000)" fill="#2D2D2D" fill-rule="nonzero">
                <rect id="Rectangle" transform="translate(6.339076, 6.723428) rotate(-80.810831) translate(-6.339076, -6.723428) " x="1.29740462" y="1.1277377" width="10.0833425" height="11.1913801"></rect>
            </g>
            <g id="XMLID_443_" transform="translate(32.000000, 145.000000)" fill="#2D2D2D" fill-rule="nonzero" opacity="0.5">
                <path d="M0.792,0.715 C0.83,0.917 0.85,1.133 0.831,1.349 C0.829,1.411 0.825,1.482 0.822,1.552 C0.868,1.269 0.859,0.985 0.792,0.715 Z" id="Path"></path>
            </g>
            <g id="XMLID_438_" transform="translate(33.000000, 14.000000)" fill="#2D2D2D" fill-rule="nonzero">
                <path d="M12.108,2.567 L10.167,14.563 L4.636,13.668 L6.577,1.672 C6.682,1.022 7.509,0.52 8.274,0.643 L11.044,1.091 C11.755,1.206 12.223,1.855 12.108,2.567 Z" id="Path"></path>
                <polygon id="Path" opacity="0.5" points="1.618 35.861 0.008 45.814 11.055 47.601 12.665 37.648"></polygon>
            </g>
            <g id="XMLID_437_" opacity="0.5" transform="translate(33.000000, 49.000000)" fill="#2D2D2D" fill-rule="nonzero">
                <rect id="Rectangle" transform="translate(6.339076, 6.723428) rotate(-80.810831) translate(-6.339076, -6.723428) " x="1.29740462" y="1.1277377" width="10.0833425" height="11.1913801"></rect>
            </g>
            <g id="XMLID_436_" opacity="0.3" transform="translate(3.000000, 10.000000)" fill="#2D2D2D" fill-rule="nonzero">
                <path d="M49.105,40.421 L45.234,39.795 L46.128,34.271 C46.325,33.055 45.499,31.9 44.275,31.702 L45.884,21.756 C46.051,20.723 45.494,19.754 44.577,19.354 L46.53,7.281 C47.038,4.144 44.896,1.176 41.759,0.668 L38.989,0.22 C35.783,-0.299 32.653,1.872 32.154,4.955 L30.201,17.028 C29.205,17.118 28.37,17.862 28.203,18.895 L26.594,28.841 C25.37,28.643 24.222,29.478 24.025,30.694 L10.6,113.666 C10.381,114.196 10.379,114.792 10.603,115.347 C12.985,121.197 11.983,127.488 7.994,131.765 C7.928,131.833 7.877,131.903 7.827,131.974 C7.797,132.016 7.767,132.051 7.745,132.094 C7.653,132.228 7.582,132.374 7.534,132.523 C7.508,132.589 7.488,132.665 7.469,132.732 C7.45,132.8 7.433,132.86 7.421,132.928 C4.188,145.532 2.142,158.225 1.326,170.647 C1.322,170.67 1.32,170.685 1.324,170.709 C1.315,170.715 1.315,170.715 1.322,170.724 C0.221,178.303 1.551,185.615 2.959,193.356 C3.231,194.876 3.51,196.405 3.771,197.947 L3.296,200.885 C3.098,202.109 3.925,203.256 5.149,203.454 L4.254,208.985 C4.057,210.201 4.883,211.356 6.107,211.554 C7.323,211.751 8.479,210.917 8.676,209.701 L9.571,204.17 C10.787,204.367 11.934,203.54 12.132,202.316 L12.534,199.83 C12.563,199.795 12.586,199.752 12.607,199.716 C13.389,198.233 14.2,196.763 14.993,195.305 C18.764,188.402 22.338,181.883 23.684,174.344 C23.693,174.338 23.693,174.338 23.686,174.329 C23.697,174.307 23.7,174.292 23.704,174.269 C26.844,162.239 28.9,149.579 29.811,136.623 L29.813,136.608 C29.814,136.6 29.814,136.6 29.815,136.593 L29.821,136.555 C29.825,136.485 29.828,136.415 29.83,136.352 C29.849,136.135 29.829,135.92 29.791,135.718 C29.77,135.652 29.757,135.587 29.737,135.521 C29.716,135.455 29.688,135.387 29.666,135.329 C29.639,135.254 29.596,135.176 29.554,135.099 C27.222,129.815 28.28,123.611 32.337,118.866 C32.832,118.279 32.998,117.497 32.777,116.778 L38.017,84.393 L39.678,87.519 C40.016,88.147 40.616,88.566 41.297,88.676 C41.534,88.714 41.778,88.714 42.019,88.675 C42.971,88.515 43.712,87.771 43.865,86.823 L50.957,42.993 C51.155,41.774 50.329,40.619 49.105,40.421 Z M36.576,5.672 C36.681,5.022 37.508,4.52 38.273,4.643 L41.043,5.091 C41.755,5.206 42.223,5.855 42.108,6.567 L40.167,18.563 L34.636,17.668 L36.576,5.672 Z M41.055,51.602 L30.008,49.815 L31.618,39.862 L42.665,41.649 L41.055,51.602 Z" id="Shape"></path>
            </g>
            <path d="M27.176,142.806 C21.207,141.84 15.183,140.866 9.214,139.9 C13.811,134.972 14.974,127.788 12.254,121.109 C18.223,122.075 24.247,123.049 30.216,124.015 C25.53,129.495 24.367,136.68 27.176,142.806 Z" id="XMLID_435_" fill="#102D3B" fill-rule="nonzero"></path>
            <g id="XMLID_433_" opacity="0.5" transform="translate(209.000000, 25.000000)" fill="#2D2D2D" fill-rule="nonzero">
                <path d="M18.51,6.736 L0.883,3.884 C1.559,1.403 3.94,-0.159 6.541,0.262 L14.283,1.515 C16.884,1.935 18.651,4.168 18.51,6.736 Z" id="Path"></path>
            </g>
            <g id="XMLID_432_" opacity="0.3" transform="translate(53.000000, 9.000000)" fill="#2D2D2D" fill-rule="nonzero">
                <path d="M201.336,39.379 L169.144,238.34 C168.044,245.141 161.695,249.783 154.993,248.698 L138.384,246.011 C137.708,248.492 135.327,250.054 132.726,249.633 L124.984,248.38 C122.383,247.959 120.616,245.726 120.757,243.158 L38.383,229.83 L34.653,252.881 C34.527,253.661 33.988,254.32 33.251,254.609 C32.875,254.752 32.467,254.796 32.084,254.734 C31.709,254.673 31.357,254.522 31.051,254.276 L15.965,242.367 C15.324,241.863 15.008,241.05 15.138,240.247 L17.374,226.43 L2.455,224.016 C1.231,223.818 0.404,222.671 0.602,221.447 L36.013,2.594 C36.211,1.37 37.358,0.543 38.582,0.741 L191.119,25.422 C197.821,26.508 202.406,32.769 201.336,39.379 Z" id="Path" opacity="0.5"></path>
            </g>
            <path d="M204.166,246.306 L51.628,221.625 L87.04,2.766 L239.578,27.447 C245.049,28.332 248.829,33.367 247.943,38.839 L215.75,237.802 C214.856,243.329 209.637,247.192 204.166,246.306 Z" id="XMLID_431_" fill="#4C5B60" fill-rule="nonzero"></path>
            <rect id="XMLID_430_" fill="#3E4B4F" fill-rule="nonzero" transform="translate(202.511861, 133.744660) rotate(-170.810831) translate(-202.511861, -133.744660) " x="195.793133" y="22.8878951" width="13.4374564" height="221.71353"></rect>
            <rect id="XMLID_429_" fill="#CCDDE5" fill-rule="nonzero" opacity="0.3" transform="translate(74.020670, 112.951586) rotate(-170.810831) translate(-74.020670, -112.951586) " x="69.2615084" y="2.09482104" width="9.51832327" height="221.71353"></rect>
            <g id="XMLID_428_-Clipped" transform="translate(51.000000, 2.000000)">
                <mask id="mask-2" fill="white">
                    <use xlink:href="#path-1"></use>
                </mask>
                <g id="SVGID_1_"></g>
                <g id="XMLID_428_" opacity="0.11" mask="url(#mask-2)">
                    <g transform="translate(-44.000000, -125.000000)" id="Group">
                        <g transform="translate(0.000000, 349.000000)">
                            <path d="M1.582,161.413 C1.361,161.377 1.149,161.286 1.01,161.094 C0.732,160.709 0.813,160.211 1.198,159.933 L222.328,0.444 C222.713,0.166 223.211,0.247 223.489,0.632 C223.767,1.017 223.686,1.515 223.301,1.793 L2.226,161.29 C2.034,161.428687 1.804,161.449 1.582,161.413 Z" id="Path" fill="#102D3B" fill-rule="nonzero"></path>
                        </g>
                        <g transform="translate(2.000000, 341.000000)">
                            <path d="M0.834,161.675 C0.613,161.639 0.401,161.548 0.262,161.356 C-0.016,160.971 0.065,160.473 0.45,160.195 L221.58,0.706 C221.965,0.428 222.463,0.509 222.741,0.894 C223.019,1.279 222.938,1.777 222.553,2.055 L1.478,161.553 C1.285,161.690877 1.055,161.711 0.834,161.675 Z" id="Path" fill="#102D3B" fill-rule="nonzero"></path>
                        </g>
                        <g transform="translate(3.000000, 333.000000)">
                            <path d="M1.086,161.938 C0.865,161.902 0.653,161.811 0.514,161.619 C0.236,161.234 0.317,160.736 0.702,160.458 L221.832,0.969 C222.217,0.691 222.715,0.772 222.993,1.157 C223.271,1.542 223.19,2.04 222.805,2.318 L1.73,161.815 C1.537,161.953687 1.307,161.974 1.086,161.938 Z" id="Path" fill="#102D3B" fill-rule="nonzero"></path>
                        </g>
                        <g transform="translate(4.000000, 326.000000)">
                            <path d="M1.338,161.201 C1.117,161.165 0.905,161.074 0.766,160.882 C0.488,160.497 0.569,159.999 0.954,159.721 L222.084,0.232 C222.469,-0.046 222.967,0.035 223.245,0.42 C223.523,0.805 223.442,1.303 223.057,1.581 L1.982,161.078 C1.789,161.216252 1.559,161.236 1.338,161.201 Z" id="Path" fill="#102D3B" fill-rule="nonzero"></path>
                        </g>
                        <g transform="translate(5.000000, 318.000000)">
                            <path d="M1.59,161.463 C1.369,161.427 1.157,161.336 1.018,161.144 C0.74,160.759 0.821,160.261 1.206,159.983 L222.336,0.494 C222.721,0.216 223.219,0.297 223.497,0.682 C223.775,1.067 223.694,1.565 223.309,1.843 L2.234,161.34 C2.041,161.478687 1.811,161.499 1.59,161.463 Z" id="Path" fill="#102D3B" fill-rule="nonzero"></path>
                        </g>
                        <g transform="translate(7.000000, 310.000000)">
                            <path d="M0.842,161.726 C0.621,161.69 0.409,161.599 0.27,161.407 C-0.008,161.022 0.073,160.524 0.458,160.246 L221.588,0.757 C221.973,0.479 222.471,0.56 222.749,0.945 C223.027,1.33 222.946,1.828 222.561,2.106 L1.486,161.603 C1.293,161.741252 1.063,161.761 0.842,161.726 Z" id="Path" fill="#102D3B" fill-rule="nonzero"></path>
                        </g>
                        <g transform="translate(8.000000, 302.000000)">
                            <path d="M1.094,161.988 C0.873,161.952 0.661,161.861 0.522,161.669 C0.244,161.284 0.325,160.786 0.71,160.508 L221.84,1.019 C222.225,0.741 222.723,0.822 223.001,1.207 C223.279,1.592 223.198,2.09 222.813,2.368 L1.738,161.865 C1.545,162.003687 1.315,162.024 1.094,161.988 Z" id="Path" fill="#102D3B" fill-rule="nonzero"></path>
                        </g>
                        <g transform="translate(9.000000, 295.000000)">
                            <path d="M1.346,161.251 C1.125,161.215 0.913,161.124 0.774,160.932 C0.496,160.547 0.577,160.049 0.962,159.771 L222.092,0.282 C222.477,0.004 222.975,0.085 223.253,0.47 C223.531,0.855 223.45,1.353 223.065,1.631 L1.99,161.128 C1.797,161.266252 1.567,161.286 1.346,161.251 Z" id="Path" fill="#102D3B" fill-rule="nonzero"></path>
                        </g>
                        <g transform="translate(10.000000, 287.000000)">
                            <path d="M1.598,161.513 C1.377,161.477 1.165,161.386 1.026,161.194 C0.748,160.809 0.829,160.311 1.214,160.033 L222.344,0.544 C222.729,0.266 223.227,0.347 223.505,0.732 C223.783,1.117 223.702,1.615 223.317,1.893 L2.242,161.391 C2.049,161.528877 1.819,161.549 1.598,161.513 Z" id="Path" fill="#102D3B" fill-rule="nonzero"></path>
                        </g>
                        <g transform="translate(12.000000, 279.000000)">
                            <path d="M0.85,161.776 C0.629,161.74 0.417,161.649 0.278,161.457 C-1.42108547e-14,161.072 0.081,160.574 0.466,160.296 L221.596,0.807 C221.981,0.529 222.479,0.61 222.757,0.995 C223.035,1.38 222.954,1.878 222.569,2.156 L1.493,161.653 C1.301,161.791687 1.071,161.812 0.85,161.776 Z" id="Path" fill="#102D3B" fill-rule="nonzero"></path>
                        </g>
                        <g transform="translate(13.000000, 271.000000)">
                            <path d="M1.102,162.038 C0.881,162.002 0.669,161.911 0.53,161.719 C0.252,161.334 0.333,160.836 0.718,160.558 L221.848,1.069 C222.233,0.791 222.731,0.872 223.009,1.257 C223.287,1.642 223.206,2.14 222.821,2.418 L1.745,161.916 C1.553,162.053877 1.323,162.074 1.102,162.038 Z" id="Path" fill="#102D3B" fill-rule="nonzero"></path>
                        </g>
                        <g transform="translate(14.000000, 264.000000)">
                            <path d="M1.354,161.301 C1.133,161.265 0.921,161.174 0.782,160.982 C0.504,160.597 0.585,160.099 0.97,159.821 L222.1,0.332 C222.485,0.054 222.983,0.135 223.261,0.52 C223.539,0.905 223.458,1.403 223.073,1.681 L1.997,161.178 C1.805,161.316687 1.575,161.337 1.354,161.301 Z" id="Path" fill="#102D3B" fill-rule="nonzero"></path>
                        </g>
                        <g transform="translate(15.000000, 256.000000)">
                            <path d="M1.606,161.563 C1.385,161.527 1.173,161.436 1.034,161.244 C0.756,160.859 0.837,160.361 1.222,160.083 L222.352,0.594 C222.737,0.316 223.235,0.397 223.513,0.782 C223.791,1.167 223.71,1.665 223.325,1.943 L2.249,161.441 C2.057,161.578877 1.827,161.599 1.606,161.563 Z" id="Path" fill="#102D3B" fill-rule="nonzero"></path>
                        </g>
                        <g transform="translate(17.000000, 248.000000)">
                            <path d="M0.857,161.826 C0.636,161.79 0.424,161.699 0.285,161.507 C0.007,161.122 0.088,160.624 0.473,160.346 L221.603,0.857 C221.988,0.579 222.486,0.66 222.764,1.045 C223.042,1.43 222.961,1.928 222.576,2.206 L1.501,161.703 C1.309,161.841687 1.079,161.862 0.857,161.826 Z" id="Path" fill="#102D3B" fill-rule="nonzero"></path>
                        </g>
                        <g transform="translate(18.000000, 240.000000)">
                            <path d="M1.109,162.089 C0.888,162.053 0.676,161.962 0.537,161.77 C0.259,161.385 0.34,160.887 0.725,160.609 L221.855,1.12 C222.24,0.842 222.738,0.923 223.016,1.308 C223.294,1.693 223.213,2.191 222.828,2.469 L1.753,161.966 C1.561,162.104252 1.33,162.124 1.109,162.089 Z" id="Path" fill="#102D3B" fill-rule="nonzero"></path>
                        </g>
                        <g transform="translate(19.000000, 233.000000)">
                            <path d="M1.361,161.351 C1.14,161.315 0.928,161.224 0.789,161.032 C0.511,160.647 0.592,160.149 0.977,159.871 L222.107,0.382 C222.492,0.104 222.99,0.185 223.268,0.57 C223.546,0.955 223.465,1.453 223.08,1.731 L2.005,161.228 C1.812,161.366687 1.582,161.387 1.361,161.351 Z" id="Path" fill="#102D3B" fill-rule="nonzero"></path>
                        </g>
                        <g transform="translate(20.000000, 225.000000)">
                            <path d="M1.613,161.614 C1.392,161.578 1.18,161.487 1.041,161.295 C0.763,160.91 0.844,160.412 1.229,160.134 L222.359,0.645 C222.744,0.367 223.242,0.448 223.52,0.833 C223.798,1.218 223.717,1.716 223.332,1.994 L2.257,161.491 C2.064,161.629252 1.834,161.649 1.613,161.614 Z" id="Path" fill="#102D3B" fill-rule="nonzero"></path>
                        </g>
                        <g transform="translate(22.000000, 217.000000)">
                            <path d="M0.865,161.876 C0.644,161.84 0.432,161.749 0.293,161.557 C0.015,161.172 0.096,160.674 0.481,160.396 L221.611,0.907 C221.996,0.629 222.494,0.71 222.772,1.095 C223.05,1.48 222.969,1.978 222.584,2.256 L1.509,161.753 C1.316,161.891687 1.086,161.912 0.865,161.876 Z" id="Path" fill="#102D3B" fill-rule="nonzero"></path>
                        </g>
                        <g transform="translate(23.000000, 210.000000)">
                            <path d="M1.117,161.139 C0.896,161.103 0.684,161.012 0.545,160.82 C0.267,160.435 0.348,159.937 0.733,159.659 L221.863,0.17 C222.248,-0.108 222.746,-0.027 223.024,0.358 C223.302,0.743 223.221,1.241 222.836,1.519 L1.761,161.016 C1.568,161.154252 1.338,161.174 1.117,161.139 Z" id="Path" fill="#102D3B" fill-rule="nonzero"></path>
                        </g>
                        <g transform="translate(24.000000, 202.000000)">
                            <path d="M1.369,161.401 C1.148,161.365 0.936,161.274 0.797,161.082 C0.519,160.697 0.6,160.199 0.985,159.921 L222.115,0.432 C222.5,0.154 222.998,0.235 223.276,0.62 C223.554,1.005 223.473,1.503 223.088,1.781 L2.013,161.279 C1.82,161.416877 1.59,161.437 1.369,161.401 Z" id="Path" fill="#102D3B" fill-rule="nonzero"></path>
                        </g>
                        <g transform="translate(25.000000, 194.000000)">
                            <path d="M1.621,161.664 C1.4,161.628 1.188,161.537 1.049,161.345 C0.771,160.96 0.852,160.462 1.237,160.184 L222.367,0.695 C222.752,0.417 223.25,0.498 223.528,0.883 C223.806,1.268 223.725,1.766 223.34,2.044 L2.265,161.541 C2.072,161.679687 1.842,161.7 1.621,161.664 Z" id="Path" fill="#102D3B" fill-rule="nonzero"></path>
                        </g>
                        <g transform="translate(27.000000, 186.000000)">
                            <path d="M0.873,161.926 C0.652,161.89 0.44,161.799 0.301,161.607 C0.023,161.222 0.104,160.724 0.489,160.446 L221.619,0.957 C222.004,0.679 222.502,0.76 222.78,1.145 C223.058,1.53 222.977,2.028 222.592,2.306 L1.517,161.804 C1.324,161.941877 1.094,161.962 0.873,161.926 Z" id="Path" fill="#102D3B" fill-rule="nonzero"></path>
                        </g>
                        <g transform="translate(28.000000, 179.000000)">
                            <path d="M1.125,161.189 C0.904,161.153 0.692,161.062 0.553,160.87 C0.275,160.485 0.356,159.987 0.741,159.709 L221.87,0.22 C222.255,-0.058 222.753,0.023 223.031,0.408 C223.309,0.793 223.228,1.291 222.843,1.569 L1.769,161.066 C1.576,161.204687 1.346,161.225 1.125,161.189 Z" id="Path" fill="#102D3B" fill-rule="nonzero"></path>
                        </g>
                        <g transform="translate(29.000000, 171.000000)">
                            <path d="M1.377,161.451 C1.156,161.415 0.944,161.324 0.805,161.132 C0.527,160.747 0.608,160.249 0.993,159.971 L222.123,0.482 C222.508,0.204 223.006,0.285 223.284,0.67 C223.562,1.055 223.481,1.553 223.096,1.831 L2.02,161.329 C1.828,161.466877 1.598,161.487 1.377,161.451 Z" id="Path" fill="#102D3B" fill-rule="nonzero"></path>
                        </g>
                        <g transform="translate(30.000000, 163.000000)">
                            <path d="M1.629,161.714 C1.408,161.678 1.196,161.587 1.057,161.395 C0.779,161.01 0.86,160.512 1.245,160.234 L222.375,0.745 C222.76,0.467 223.258,0.548 223.536,0.933 C223.814,1.318 223.733,1.816 223.348,2.094 L2.272,161.591 C2.08,161.729687 1.85,161.75 1.629,161.714 Z" id="Path" fill="#102D3B" fill-rule="nonzero"></path>
                        </g>
                        <g transform="translate(32.000000, 155.000000)">
                            <path d="M0.881,161.976 C0.66,161.94 0.448,161.849 0.309,161.657 C0.031,161.272 0.112,160.774 0.497,160.496 L221.627,1.007 C222.012,0.729 222.51,0.81 222.788,1.195 C223.066,1.58 222.985,2.078 222.6,2.356 L1.524,161.854 C1.332,161.991877 1.102,162.012 0.881,161.976 Z" id="Path" fill="#102D3B" fill-rule="nonzero"></path>
                        </g>
                        <g transform="translate(33.000000, 148.000000)">
                            <path d="M1.133,161.239 C0.912,161.203 0.7,161.112 0.561,160.92 C0.283,160.535 0.364,160.037 0.749,159.759 L221.879,0.27 C222.264,-0.008 222.762,0.073 223.04,0.458 C223.318,0.843 223.237,1.341 222.852,1.619 L1.776,161.116 C1.584,161.254687 1.354,161.275 1.133,161.239 Z" id="Path" fill="#102D3B" fill-rule="nonzero"></path>
                        </g>
                        <g transform="translate(34.000000, 140.000000)">
                            <path d="M1.384,161.502 C1.163,161.466 0.951,161.375 0.812,161.183 C0.534,160.798 0.615,160.3 1,160.022 L222.13,0.533 C222.515,0.255 223.013,0.336 223.291,0.721 C223.569,1.106 223.488,1.604 223.103,1.882 L2.028,161.379 C1.836,161.517252 1.606,161.537 1.384,161.502 Z" id="Path" fill="#102D3B" fill-rule="nonzero"></path>
                        </g>
                        <g transform="translate(35.000000, 132.000000)">
                            <path d="M1.636,161.764 C1.415,161.728 1.203,161.637 1.064,161.445 C0.786,161.06 0.867,160.562 1.252,160.284 L222.382,0.795 C222.767,0.517 223.265,0.598 223.543,0.983 C223.821,1.368 223.74,1.866 223.355,2.144 L2.28,161.641 C2.088,161.779687 1.857,161.8 1.636,161.764 Z" id="Path" fill="#102D3B" fill-rule="nonzero"></path>
                        </g>
                        <g transform="translate(37.000000, 124.000000)">
                            <path d="M0.888,162.027 C0.667,161.991 0.455,161.9 0.316,161.708 C0.038,161.323 0.119,160.825 0.504,160.547 L221.634,1.058 C222.019,0.78 222.517,0.861 222.795,1.246 C223.073,1.631 222.992,2.129 222.607,2.407 L1.532,161.904 C1.339,162.042252 1.109,162.062 0.888,162.027 Z" id="Path" fill="#102D3B" fill-rule="nonzero"></path>
                        </g>
                        <g transform="translate(38.000000, 117.000000)">
                            <path d="M1.14,161.289 C0.919,161.253 0.707,161.162 0.568,160.97 C0.29,160.585 0.371,160.087 0.756,159.809 L221.886,0.32 C222.271,0.042 222.769,0.123 223.047,0.508 C223.325,0.893 223.244,1.391 222.859,1.669 L1.784,161.167 C1.591,161.304708 1.361,161.325 1.14,161.289 Z" id="Path" fill="#102D3B" fill-rule="nonzero"></path>
                        </g>
                        <g transform="translate(39.000000, 109.000000)">
                            <path d="M1.392,161.552 C1.171,161.516 0.959,161.425 0.82,161.233 C0.542,160.848 0.623,160.35 1.008,160.072 L222.138,0.583 C222.523,0.305 223.021,0.386 223.299,0.771 C223.577,1.156 223.496,1.654 223.111,1.932 L2.036,161.429 C1.843,161.567687 1.613,161.588 1.392,161.552 Z" id="Path" fill="#102D3B" fill-rule="nonzero"></path>
                        </g>
                        <g transform="translate(40.000000, 101.000000)">
                            <path d="M1.644,161.814 C1.423,161.778 1.211,161.687 1.072,161.495 C0.794,161.11 0.875,160.612 1.26,160.334 L222.39,0.845 C222.775,0.567 223.273,0.648 223.551,1.033 C223.829,1.418 223.748,1.916 223.363,2.194 L2.288,161.692 C2.095,161.829877 1.865,161.85 1.644,161.814 Z" id="Path" fill="#102D3B" fill-rule="nonzero"></path>
                        </g>
                        <g transform="translate(42.000000, 93.000000)">
                            <path d="M0.896,162.077 C0.675,162.041 0.463,161.95 0.324,161.758 C0.046,161.373 0.127,160.875 0.512,160.597 L221.642,1.108 C222.027,0.83 222.525,0.911 222.803,1.296 C223.081,1.681 223,2.179 222.615,2.457 L1.54,161.954 C1.347,162.092687 1.117,162.113 0.896,162.077 Z" id="Path" fill="#102D3B" fill-rule="nonzero"></path>
                        </g>
                        <g transform="translate(43.000000, 86.000000)">
                            <path d="M1.148,161.339 C0.927,161.303 0.715,161.212 0.576,161.02 C0.298,160.635 0.379,160.137 0.764,159.859 L221.894,0.37 C222.279,0.092 222.777,0.173 223.055,0.558 C223.333,0.943 223.252,1.441 222.867,1.719 L1.792,161.217 C1.599,161.354877 1.369,161.375 1.148,161.339 Z" id="Path" fill="#102D3B" fill-rule="nonzero"></path>
                        </g>
                        <g transform="translate(44.000000, 78.000000)">
                            <path d="M1.4,161.602 C1.179,161.566 0.967,161.475 0.828,161.283 C0.55,160.898 0.631,160.4 1.016,160.122 L222.146,0.633 C222.531,0.355 223.029,0.436 223.307,0.821 C223.585,1.206 223.504,1.704 223.119,1.982 L2.044,161.479 C1.851,161.617687 1.621,161.638 1.4,161.602 Z" id="Path" fill="#102D3B" fill-rule="nonzero"></path>
                        </g>
                        <g transform="translate(45.000000, 70.000000)">
                            <path d="M1.652,161.864 C1.431,161.828 1.219,161.737 1.08,161.545 C0.802,161.16 0.883,160.662 1.268,160.384 L222.398,0.895 C222.783,0.617 223.281,0.698 223.559,1.083 C223.837,1.468 223.756,1.966 223.371,2.244 L2.296,161.742 C2.103,161.879877 1.873,161.9 1.652,161.864 Z" id="Path" fill="#102D3B" fill-rule="nonzero"></path>
                        </g>
                        <g transform="translate(47.000000, 62.000000)">
                            <path d="M0.904,162.127 C0.683,162.091 0.471,162 0.332,161.808 C0.054,161.423 0.135,160.925 0.52,160.647 L221.658,1.103 C222.043,0.825 222.541,0.906 222.819,1.291 C223.097,1.676 223.016,2.174 222.631,2.452 L1.547,162.004 C1.355,162.142687 1.125,162.163 0.904,162.127 Z" id="Path" fill="#102D3B" fill-rule="nonzero"></path>
                        </g>
                        <g transform="translate(48.000000, 55.000000)">
                            <path d="M1.156,161.39 C0.935,161.354 0.723,161.263 0.584,161.071 C0.306,160.686 0.387,160.188 0.772,159.91 L221.91,0.365 C222.295,0.087 222.793,0.168 223.071,0.553 C223.349,0.938 223.268,1.436 222.883,1.714 L1.799,161.267 C1.607,161.405252 1.377,161.425 1.156,161.39 Z" id="Path" fill="#102D3B" fill-rule="nonzero"></path>
                        </g>
                        <g transform="translate(49.000000, 47.000000)">
                            <path d="M1.408,161.652 C1.187,161.616 0.975,161.525 0.836,161.333 C0.558,160.948 0.639,160.45 1.024,160.172 L222.171,0.573 C222.556,0.295 223.054,0.376 223.332,0.761 C223.61,1.146 223.529,1.644 223.144,1.922 L2.051,161.529 C1.859,161.667687 1.629,161.688 1.408,161.652 Z" id="Path" fill="#102D3B" fill-rule="nonzero"></path>
                        </g>
                        <g transform="translate(50.000000, 39.000000)">
                            <path d="M1.66,161.915 C1.439,161.879 1.227,161.788 1.088,161.596 C0.81,161.211 0.891,160.713 1.276,160.435 L222.423,0.835 C222.808,0.557 223.306,0.638 223.584,1.023 C223.862,1.408 223.781,1.906 223.396,2.184 L2.303,161.792 C2.111,161.930252 1.881,161.95 1.66,161.915 Z" id="Path" fill="#102D3B" fill-rule="nonzero"></path>
                        </g>
                        <g transform="translate(52.000000, 31.000000)">
                            <path d="M0.911,162.177 C0.69,162.141 0.478,162.05 0.339,161.858 C0.061,161.473 0.142,160.975 0.527,160.697 L221.675,1.098 C222.06,0.82 222.558,0.901 222.836,1.286 C223.114,1.671 223.033,2.169 222.648,2.447 L1.555,162.054 C1.363,162.192687 1.133,162.213 0.911,162.177 Z" id="Path" fill="#102D3B" fill-rule="nonzero"></path>
                        </g>
                        <g transform="translate(53.000000, 24.000000)">
                            <path d="M1.163,161.44 C0.942,161.404 0.73,161.313 0.591,161.121 C0.313,160.736 0.394,160.238 0.779,159.96 L221.927,0.36 C222.312,0.082 222.81,0.163 223.088,0.548 C223.366,0.933 223.285,1.431 222.9,1.709 L1.807,161.317 C1.614,161.455687 1.384,161.476 1.163,161.44 Z" id="Path" fill="#102D3B" fill-rule="nonzero"></path>
                        </g>
                        <g transform="translate(54.000000, 16.000000)">
                            <path d="M1.415,161.702 C1.194,161.666 0.982,161.575 0.843,161.383 C0.565,160.998 0.646,160.5 1.031,160.222 L222.179,0.623 C222.564,0.345 223.062,0.426 223.34,0.811 C223.618,1.196 223.537,1.694 223.152,1.972 L2.059,161.58 C1.866,161.717877 1.636,161.738 1.415,161.702 Z" id="Path" fill="#102D3B" fill-rule="nonzero"></path>
                        </g>
                        <g transform="translate(55.000000, 8.000000)">
                            <path d="M1.667,161.965 C1.446,161.929 1.234,161.838 1.095,161.646 C0.817,161.261 0.898,160.763 1.283,160.485 L222.431,0.885 C222.816,0.607 223.314,0.688 223.592,1.073 C223.87,1.458 223.789,1.956 223.404,2.234 L2.311,161.842 C2.118,161.980687 1.888,162.001 1.667,161.965 Z" id="Path" fill="#102D3B" fill-rule="nonzero"></path>
                        </g>
                        <g transform="translate(57.000000, 0.000000)">
                            <path d="M0.919,162.227 C0.698,162.191 0.486,162.1 0.347,161.908 C0.069,161.523 0.15,161.025 0.535,160.747 L221.683,1.148 C222.068,0.87 222.566,0.951 222.844,1.336 C223.122,1.721 223.041,2.219 222.656,2.497 L1.563,162.105 C1.37,162.242877 1.14,162.263 0.919,162.227 Z" id="Path" fill="#102D3B" fill-rule="nonzero"></path>
                        </g>
                        <g transform="translate(58.000000, 7.000000)">
                            <path d="M1.171,147.49 C0.95,147.454 0.738,147.363 0.599,147.171 C0.321,146.786 0.402,146.288 0.787,146.01 L201.653,0.994 C202.038,0.716 202.536,0.797 202.814,1.182 C203.092,1.567 203.011,2.065 202.626,2.343 L1.815,147.367 C1.622,147.505687 1.392,147.526 1.171,147.49 Z" id="Path" fill="#102D3B" fill-rule="nonzero"></path>
                        </g>
                        <g transform="translate(59.000000, 9.000000)">
                            <path d="M1.423,137.752 C1.202,137.716 0.99,137.625 0.851,137.433 C0.573,137.048 0.654,136.55 1.039,136.272 L189.439,0.299 C189.824,0.021 190.322,0.102 190.6,0.487 C190.878,0.872 190.797,1.37 190.412,1.648 L2.067,137.63 C1.874,137.767877 1.644,137.788 1.423,137.752 Z" id="Path" fill="#102D3B" fill-rule="nonzero"></path>
                        </g>
                    </g>
                </g>
            </g>
            <g id="XMLID_427_" transform="translate(49.000000, 0.000000)" fill="#102D3B" fill-rule="nonzero">
                <path d="M154.808,248.517 L2.27,223.836 C1.049,223.638 0.219,222.488 0.417,221.268 L35.829,2.409 C36.027,1.188 37.177,0.358 38.397,0.556 L190.935,25.237 C197.639,26.322 202.223,32.584 201.153,39.197 L168.961,238.16 C167.862,244.955 161.512,249.602 154.808,248.517 Z M5.196,219.772 L155.524,244.095 C159.791,244.785 163.835,241.801 164.54,237.444 L196.732,38.481 C197.408,34.306 194.486,30.348 190.22,29.657 L39.892,5.334 L5.196,219.772 Z" id="Shape"></path>
            </g>
            <g id="XMLID_426_" transform="translate(49.000000, 0.000000)" fill="#102D3B" fill-rule="nonzero">
                <path d="M21.061,226.877 L2.27,223.837 C1.049,223.639 0.219,222.489 0.417,221.269 L35.829,2.41 C36.027,1.189 37.177,0.359 38.397,0.557 L57.188,3.597 C58.409,3.795 59.239,4.945 59.041,6.165 L23.629,225.024 C23.431,226.244 22.281,227.074 21.061,226.877 Z M5.196,219.772 L19.566,222.097 L54.262,7.659 L39.892,5.334 L5.196,219.772 Z" id="Shape"></path>
            </g>
            <rect id="XMLID_425_" fill="#FFA949" fill-rule="nonzero" transform="translate(153.067604, 109.863515) rotate(-170.810831) translate(-153.067604, -109.863515) " x="70.7648088" y="78.5099503" width="164.605591" height="62.7071297"></rect>
            <g id="Group" transform="translate(129.000000, 88.000000)" fill="#D85639" fill-rule="nonzero">
                <path d="M17.28,8.515 C17.092,9.676 16.719,10.579 16.161,11.226 C15.603,11.873 15.016,12.345 14.392,12.698 C13.456,13.227 12.306,13.325 10.813,13.083 L4.678,12.09 L6.52,0.705 L11.273,1.474 C11.991,1.59 12.59,1.744 13.079,1.88 C13.567,2.016 13.992,2.198 14.407,2.435 C14.822,2.672 15.136,2.837 15.386,3.047 C15.636,3.257 15.885,3.468 16.07,3.725 C16.403,4.119 16.672,4.56 16.886,4.991 C17.1,5.423 17.287,6.02 17.363,6.599 C17.43,7.235 17.387,7.852 17.28,8.515 Z M13.816,7.841 C13.968,6.901 13.918,6.156 13.612,5.596 C13.361,5.045 12.981,4.587 12.511,4.34 C12.04,4.094 11.561,3.903 11.063,3.822 L9.626,3.59 L8.535,10.333 L9.972,10.565 C10.856,10.708 11.666,10.612 12.401,10.277 C13.136,9.942 13.601,9.168 13.816,7.841 Z" id="Shape"></path>
                <path d="M31.63,10.61 C31.46,11.66 31.078,12.619 30.438,13.423 C29.797,14.227 28.963,14.829 27.887,15.165 C26.811,15.501 25.606,15.59 24.225,15.366 C22.843,15.142 21.672,14.669 20.767,13.956 C19.862,13.242 19.259,12.408 18.96,11.452 C18.606,10.487 18.537,9.512 18.707,8.462 C18.877,7.412 19.25,6.508 19.89,5.704 C20.531,4.9 21.365,4.298 22.394,3.897 C23.478,3.505 24.684,3.417 26.121,3.649 C27.171,3.819 28.084,4.137 28.868,4.547 C29.652,4.957 30.244,5.507 30.707,6.149 C31.17,6.791 31.459,7.462 31.619,8.225 C31.778,8.99 31.755,9.837 31.63,10.61 Z M28.148,10.047 C28.22,9.605 28.227,9.209 28.17,8.86 C28.113,8.511 27.946,8.143 27.769,7.831 C27.537,7.51 27.288,7.299 26.928,7.071 C26.568,6.843 26.19,6.725 25.693,6.644 C24.753,6.492 23.99,6.652 23.403,7.124 C22.816,7.596 22.433,8.215 22.289,9.099 C22.146,9.983 22.315,10.691 22.723,11.324 C23.186,11.966 23.86,12.359 24.744,12.502 C25.352,12.6 25.922,12.579 26.409,12.374 C26.896,12.169 27.281,11.891 27.574,11.485 C27.803,11.126 28.049,10.655 28.148,10.047 Z" id="Shape"></path>
                <polygon id="Path" points="44.143 9.686 39.998 9.015 38.603 17.637 35.176 17.083 36.571 8.461 32.426 7.79 32.873 5.027 44.645 6.932"></polygon>
                <path d="M13.389,26.602 C13.15,26.677 12.92,26.696 12.745,26.725 C12.57,26.753 12.396,26.782 12.221,26.81 C12.046,26.838 11.816,26.858 11.476,26.86 C10.961,26.89 10.39,26.911 9.884,26.886 C9.378,26.861 8.816,26.827 8.208,26.728 C7.047,26.54 6.033,26.149 5.101,25.601 C4.178,24.998 3.502,24.265 3.037,23.282 C2.572,22.299 2.475,21.149 2.68,19.878 C2.814,19.049 3.114,18.247 3.516,17.518 C3.918,16.789 4.522,16.206 5.211,15.807 C5.771,15.501 6.377,15.258 6.911,15.118 C7.499,14.986 8.015,14.956 8.53,14.926 C9.036,14.951 9.598,14.985 10.206,15.084 C11.201,15.245 12.021,15.434 12.657,15.707 C13.293,15.98 13.985,16.262 14.714,16.664 L14.276,19.372 C13.823,19.015 13.315,18.649 12.743,18.33 C12.226,18.02 11.517,17.848 10.632,17.705 C9.637,17.544 8.837,17.585 8.166,17.873 C7.495,18.161 7.037,18.541 6.736,19.003 C6.435,19.465 6.234,19.999 6.163,20.442 C6.074,20.995 6.095,21.565 6.291,22.107 C6.487,22.649 6.811,23.099 7.319,23.464 C7.827,23.83 8.463,24.103 9.182,24.219 C9.624,24.291 10.075,24.307 10.591,24.277 L10.806,22.951 L9.259,22.701 L9.626,20.435 L14.158,21.168 L13.282,26.584 L13.389,26.602 L13.389,26.602 Z" id="Path"></path>
                <path d="M26.961,29.648 L23.258,29.049 L22.705,26.861 C22.49,26.089 22.303,25.491 22.08,25.115 C21.857,24.739 21.672,24.482 21.414,24.327 C21.156,24.172 20.888,24.072 20.501,24.009 L20.114,23.946 L19.399,28.367 L15.972,27.813 L17.814,16.428 L23.672,17.376 C24.612,17.528 25.358,17.819 25.904,18.304 C26.449,18.789 26.82,19.303 27.007,19.9 C27.194,20.497 27.224,21.013 27.143,21.51 C27.054,22.063 26.863,22.542 26.579,22.893 C26.295,23.244 26.03,23.485 25.717,23.661 C25.469,23.791 25.166,23.912 24.807,24.024 C25.158,24.308 25.399,24.573 25.566,24.941 C25.733,25.308 25.976,25.915 26.275,26.871 L26.961,29.648 Z M23.58,21.104 C23.669,20.551 23.557,20.193 23.261,19.918 C22.965,19.643 22.43,19.443 21.657,19.318 L20.939,19.202 L20.492,21.965 L21.21,22.081 C22.039,22.215 22.665,22.203 22.968,22.082 C23.271,21.962 23.499,21.602 23.58,21.104 Z" id="Shape"></path>
                <polygon id="Path" points="31.935 30.453 28.508 29.899 30.35 18.514 33.777 19.068"></polygon>
                <path d="M47.42,27.287 C47.232,28.448 46.859,29.351 46.301,29.998 C45.743,30.645 45.156,31.117 44.532,31.47 C43.596,31.999 42.446,32.097 40.953,31.855 L34.818,30.862 L36.66,19.477 L41.413,20.246 C42.131,20.362 42.73,20.516 43.219,20.652 C43.707,20.788 44.132,20.97 44.547,21.207 C44.962,21.444 45.276,21.609 45.526,21.819 C45.776,22.029 46.025,22.24 46.21,22.497 C46.543,22.891 46.812,23.332 47.026,23.763 C47.24,24.195 47.427,24.792 47.503,25.371 C47.515,25.998 47.528,26.624 47.42,27.287 Z M43.956,26.613 C44.108,25.673 44.058,24.928 43.752,24.368 C43.501,23.817 43.121,23.359 42.651,23.112 C42.18,22.866 41.701,22.675 41.203,22.594 L39.766,22.361 L38.675,29.104 L40.112,29.336 C40.996,29.479 41.806,29.383 42.541,29.048 C43.276,28.713 43.742,27.94 43.956,26.613 Z" id="Shape"></path>
                <path d="M11.26,37.657 C11.099,38.652 10.642,39.372 9.89,39.817 C9.128,40.318 8.144,40.442 6.928,40.245 L0.351,39.181 L2.193,27.796 L7.664,28.681 C8.382,28.797 8.981,28.951 9.507,29.206 C10.042,29.406 10.393,29.69 10.689,29.964 C10.985,30.239 11.161,30.551 11.273,30.909 C11.385,31.267 11.387,31.608 11.324,31.995 C11.252,32.437 11.144,32.76 10.915,33.12 C10.686,33.48 10.421,33.721 10.164,33.906 C9.907,34.091 9.604,34.212 9.365,34.287 C10.085,34.744 10.63,35.229 10.946,35.734 C11.262,36.239 11.376,36.938 11.26,37.657 Z M8.012,32.14 C8.101,31.587 7.989,31.229 7.638,30.945 C7.287,30.661 6.743,30.517 5.969,30.391 L5.251,30.275 L4.813,32.983 L5.531,33.099 C6.305,33.224 6.875,33.203 7.289,33.1 C7.695,33.053 7.923,32.693 8.012,32.14 Z M7.796,36.983 C7.957,35.988 7.31,35.43 5.928,35.206 L4.546,34.982 L4.072,37.911 L5.454,38.135 C6.9,38.312 7.644,37.922 7.796,36.983 Z" id="Shape"></path>
                <path d="M26.023,37.55 C25.853,38.6 25.471,39.559 24.831,40.363 C24.19,41.167 23.356,41.769 22.28,42.105 C21.204,42.441 19.999,42.53 18.618,42.306 C17.236,42.082 16.065,41.609 15.16,40.896 C14.255,40.182 13.652,39.348 13.353,38.392 C12.999,37.427 12.93,36.452 13.1,35.402 C13.27,34.352 13.643,33.448 14.283,32.644 C14.923,31.84 15.758,31.238 16.787,30.837 C17.871,30.445 19.077,30.357 20.514,30.589 C21.564,30.759 22.477,31.077 23.261,31.487 C24.045,31.897 24.637,32.447 25.1,33.089 C25.563,33.731 25.852,34.402 26.012,35.165 C26.172,35.929 26.157,36.721 26.023,37.55 Z M22.486,36.978 C22.558,36.536 22.565,36.14 22.508,35.791 C22.451,35.442 22.284,35.074 22.107,34.762 C21.875,34.441 21.626,34.23 21.266,34.002 C20.906,33.774 20.528,33.656 20.031,33.575 C19.091,33.423 18.328,33.583 17.741,34.055 C17.154,34.527 16.77,35.146 16.627,36.03 C16.484,36.914 16.653,37.622 17.061,38.255 C17.524,38.897 18.198,39.29 19.082,39.433 C19.69,39.531 20.26,39.51 20.747,39.305 C21.234,39.1 21.619,38.822 21.912,38.416 C22.205,38.01 22.397,37.53 22.486,36.978 Z" id="Shape"></path>
                <path d="M40.282,39.857 C40.112,40.907 39.73,41.866 39.09,42.67 C38.45,43.474 37.615,44.076 36.539,44.412 C35.464,44.748 34.258,44.837 32.877,44.613 C31.495,44.389 30.324,43.916 29.419,43.203 C28.514,42.489 27.911,41.655 27.612,40.699 C27.258,39.734 27.189,38.759 27.359,37.709 C27.529,36.659 27.902,35.755 28.542,34.951 C29.182,34.147 30.017,33.545 31.046,33.144 C32.13,32.752 33.336,32.664 34.773,32.896 C35.823,33.066 36.736,33.384 37.52,33.794 C38.304,34.204 38.896,34.754 39.359,35.396 C39.822,36.038 40.111,36.709 40.271,37.472 C40.431,38.236 40.416,39.028 40.282,39.857 Z M36.8,39.294 C36.872,38.852 36.879,38.456 36.822,38.107 C36.765,37.758 36.598,37.39 36.421,37.078 C36.189,36.757 35.94,36.546 35.58,36.318 C35.22,36.09 34.842,35.972 34.345,35.891 C33.405,35.739 32.642,35.899 32.055,36.371 C31.468,36.843 31.085,37.462 30.941,38.346 C30.798,39.23 30.967,39.938 31.375,40.571 C31.838,41.213 32.512,41.606 33.396,41.749 C34.004,41.847 34.574,41.826 35.061,41.621 C35.548,41.416 35.933,41.138 36.226,40.732 C36.52,40.326 36.711,39.846 36.8,39.294 Z" id="Shape"></path>
                <polygon id="Path" points="53.454 47.83 49.254 47.15 45.746 41.138 44.888 46.444 41.461 45.89 43.303 34.505 46.73 35.059 45.907 40.144 50.875 35.73 54.578 36.329 49.464 40.946"></polygon>
            </g>
            <g id="XMLID_424_" opacity="0.6" transform="translate(83.000000, 68.000000)" fill="#D85639" fill-rule="nonzero">
                <rect id="Rectangle" transform="translate(7.638944, 31.764724) rotate(9.189169) translate(-7.638944, -31.764724) " x="5.39936759" y="0.41115938" width="4.47915213" height="62.7071297"></rect>
            </g>
            <rect id="XMLID_423_" fill="#FDBA5D" fill-rule="nonzero" transform="translate(76.524644, 97.476824) rotate(-170.810831) translate(-76.524644, -97.476824) " x="71.7654819" y="66.1232588" width="9.51832327" height="62.7071297"></rect>
            <rect id="XMLID_422_" fill="#D85639" fill-rule="nonzero" opacity="0.61" transform="translate(206.950809, 118.584011) rotate(-170.810831) translate(-206.950809, -118.584011) " x="202.191648" y="87.2304465" width="9.51832327" height="62.7071297"></rect>
            <g id="XMLID_421_" transform="translate(64.000000, 63.000000)" fill="#102D3B" fill-rule="nonzero">
                <path d="M164.958,93.172 L2.471,66.882 C1.25,66.684 0.42,65.534 0.618,64.314 L10.633,2.414 C10.831,1.193 11.981,0.363 13.201,0.561 L175.688,26.851 C176.909,27.049 177.739,28.199 177.541,29.419 L167.526,91.319 C167.329,92.54 166.179,93.369 164.958,93.172 Z M5.398,62.818 L163.463,88.393 L172.763,30.915 L14.698,5.34 L5.398,62.818 Z" id="Shape"></path>
            </g>
            <path d="M181.454,247.169 L174.656,246.069 C172.887,245.783 171.683,244.113 171.969,242.345 L207.774,21.054 C208.06,19.285 209.73,18.081 211.498,18.367 L218.296,19.467 C220.065,19.753 221.269,21.423 220.983,23.191 L185.187,244.427 C184.892,246.25 183.222,247.455 181.454,247.169 Z" id="XMLID_420_" fill="#B7C8CE" fill-rule="nonzero"></path>
            <g id="XMLID_419_" transform="translate(169.000000, 16.000000)" fill="#102D3B" fill-rule="nonzero">
                <path d="M12.096,233.379 L5.298,232.279 C2.311,231.796 0.275,228.973 0.758,225.986 L36.563,4.695 C37.046,1.709 39.869,-0.328 42.856,0.155 L49.654,1.255 C52.64,1.738 54.677,4.561 54.194,7.547 L18.398,228.783 C17.91,231.801 15.083,233.863 12.096,233.379 Z M42.141,4.577 C41.592,4.488 41.074,4.862 40.985,5.411 L5.18,226.702 C5.091,227.25 5.465,227.769 6.014,227.858 L12.812,228.958 C13.37,229.048 13.881,228.657 13.977,228.069 L49.773,6.833 C49.862,6.285 49.488,5.766 48.939,5.677 L42.141,4.577 Z" id="Shape"></path>
            </g>
            <polygon id="XMLID_418_" fill="#EE3249" fill-rule="nonzero" points="81.254 252.338 66.167 240.425 68.76 224.398 85.341 227.08"></polygon>
            <rect id="XMLID_417_" fill="#EA3939" fill-rule="nonzero" opacity="0.62" transform="translate(76.532178, 228.853584) rotate(-170.810831) translate(-76.532178, -228.853584) " x="68.1338925" y="225.690477" width="16.7965705" height="6.32621486"></rect>
            <g id="XMLID_416_" transform="translate(63.000000, 222.000000)" fill="#102D3B" fill-rule="nonzero">
                <path d="M17.896,32.548 C17.526,32.488 17.171,32.335 16.866,32.095 L1.779,20.183 C1.141,19.679 0.826,18.87 0.956,18.068 L3.549,2.04 C3.747,0.819 4.897,-0.011 6.117,0.187 L22.697,2.87 C23.918,3.068 24.748,4.218 24.55,5.438 L20.463,30.695 C20.336,31.479 19.804,32.136 19.064,32.424 C18.688,32.572 18.284,32.611 17.896,32.548 Z M5.588,17.483 L16.652,26.219 L19.772,6.933 L7.613,4.966 L5.588,17.483 Z" id="Shape"></path>
            </g>
            <rect id="XMLID_415_" fill="#526066" fill-rule="nonzero" transform="translate(27.895665, 80.817746) rotate(-170.810831) translate(-27.895665, -80.817746) " x="18.9373605" y="38.5468107" width="17.9166085" height="84.5418713"></rect>
            <rect id="XMLID_414_" fill="#526066" fill-rule="nonzero" transform="translate(27.895665, 80.817746) rotate(-170.810831) translate(-27.895665, -80.817746) " x="18.9373605" y="38.5468107" width="17.9166085" height="84.5418713"></rect>
            <rect id="XMLID_413_" fill="#526066" fill-rule="nonzero" opacity="0.64" transform="translate(21.816502, 79.834347) rotate(-170.810831) translate(-21.816502, -79.834347) " x="19.0169073" y="37.5634117" width="5.59919017" height="84.5418713"></rect>
            <rect id="XMLID_412_" fill="#526066" fill-rule="nonzero" opacity="0.3" transform="translate(34.251387, 81.846631) rotate(-170.810831) translate(-34.251387, -81.846631) " x="31.7318012" y="39.5756958" width="5.03917115" height="84.5418713"></rect>
            <g id="XMLID_411_" transform="translate(10.000000, 35.000000)" fill="#102D3B" fill-rule="nonzero">
                <path d="M19.637,91.19 L1.951,88.328 C0.73,88.13 -0.1,86.98 0.098,85.76 L13.601,2.306 C13.799,1.085 14.949,0.255 16.169,0.453 L33.855,3.315 C35.076,3.513 35.906,4.663 35.708,5.883 L22.205,89.337 C22.008,90.558 20.858,91.388 19.637,91.19 Z M4.878,84.265 L18.142,86.411 L30.93,7.378 L17.666,5.232 L4.878,84.265 Z" id="Shape"></path>
            </g>
            <path d="M21.095,180.388 C15.126,179.422 9.102,178.448 3.133,177.482 C3.94,165.135 5.996,152.424 9.214,139.9 C15.183,140.866 21.207,141.84 27.176,142.806 C26.28,155.705 24.223,168.417 21.095,180.388 Z" id="XMLID_410_" fill="#42708A" fill-rule="nonzero"></path>
            <path d="M21.095,180.388 C15.126,179.422 9.102,178.448 3.133,177.482 C3.94,165.135 5.996,152.424 9.214,139.9 C15.183,140.866 21.207,141.84 27.176,142.806 C26.28,155.705 24.223,168.417 21.095,180.388 Z" id="XMLID_409_" fill="#526066" fill-rule="nonzero"></path>
            <path d="M27.176,142.806 C25.739,142.574 24.302,142.341 22.865,142.109 C21.969,155.008 19.912,167.72 16.784,179.691 C18.221,179.924 19.658,180.156 21.095,180.389 C24.223,168.417 26.28,155.705 27.176,142.806 Z" id="XMLID_408_" fill="#526066" fill-rule="nonzero" opacity="0.3"></path>
            <path d="M9.578,177.957 C8.694,177.814 7.865,177.68 6.98,177.537 C7.76,165.356 9.781,152.866 12.916,140.499 C13.8,140.642 14.685,140.785 15.569,140.928 C12.434,153.295 10.413,165.786 9.578,177.957 Z" id="XMLID_407_" fill="#CCDDE5" fill-rule="nonzero" opacity="0.73"></path>
            <g id="XMLID_406_" transform="translate(0.000000, 137.000000)" fill="#102D3B" fill-rule="nonzero">
                <path d="M20.737,45.599 L2.775,42.693 C1.636,42.509 0.823,41.488 0.898,40.336 C1.716,27.818 3.783,15.035 7.044,2.343 C7.332,1.222 8.428,0.505 9.571,0.69 L27.533,3.596 C28.676,3.781 29.49,4.807 29.409,5.962 C28.501,19.034 26.432,31.817 23.261,43.954 C22.97,45.071 21.877,45.783 20.737,45.599 Z M5.512,38.598 L19.433,40.85 C22.092,30.205 23.891,19.069 24.791,7.688 L10.885,5.438 C8.149,16.523 6.345,27.658 5.512,38.598 Z" id="Shape"></path>
            </g>
            <g id="XMLID_405_" transform="translate(1.000000, 150.000000)" fill="#102D3B" fill-rule="nonzero">
                <path d="M22.678,20.03 L2.782,16.811 C1.561,16.613 0.731,15.463 0.929,14.243 L2.807,2.637 C3.005,1.416 4.155,0.586 5.375,0.784 L25.271,4.003 C26.492,4.201 27.322,5.351 27.124,6.571 L25.246,18.177 C25.049,19.398 23.899,20.228 22.678,20.03 Z M5.708,12.747 L21.183,15.251 L22.345,8.066 L6.87,5.562 L5.708,12.747 Z" id="Shape"></path>
            </g>
            <g id="XMLID_404_" transform="translate(6.000000, 118.000000)" fill="#102D3B" fill-rule="nonzero">
                <path d="M20.829,27.019 C20.827,27.019 20.822,27.018 20.818,27.017 L2.856,24.111 C2.04,23.979 1.363,23.408 1.095,22.626 C0.827,21.844 1.012,20.978 1.576,20.373 C5.564,16.097 6.562,9.806 4.18,3.954 C3.875,3.204 3.998,2.348 4.502,1.715 C5.006,1.082 5.813,0.769 6.612,0.899 L24.574,3.805 C25.373,3.934 26.04,4.485 26.319,5.245 C26.598,6.005 26.444,6.856 25.918,7.471 C21.855,12.222 20.796,18.425 23.135,23.704 C23.378,24.132 23.482,24.642 23.397,25.166 C23.2,26.386 22.05,27.216 20.829,27.019 Z M7.225,20.28 L17.88,22.004 C16.803,17.192 17.657,12.098 20.297,7.649 L9.458,5.895 C10.56,10.949 9.765,16.053 7.225,20.28 Z" id="Shape"></path>
            </g>
            <path d="M10.205,205.282 C14.62,196.922 19.554,189.213 21.095,180.388 L3.133,177.482 C1.813,186.343 4.064,195.214 5.617,204.54 L10.205,205.282 Z" id="XMLID_403_" fill="#CCDDE5" fill-rule="nonzero"></path>
            <path d="M21.095,180.388 C21.068,180.554 21.032,180.775 21.006,180.941 L9.179,179.027 C7.83,187.713 8.036,196.253 8.492,205.005 L5.618,204.54 C4.064,195.214 1.813,186.343 3.134,177.482 L21.095,180.388 Z" id="XMLID_402_" fill="#FFFFFF" fill-rule="nonzero"></path>
            <g id="XMLID_401_" transform="translate(0.000000, 175.000000)" fill="#102D3B" fill-rule="nonzero">
                <path d="M9.847,32.492 L5.26,31.75 C4.312,31.597 3.567,30.855 3.409,29.907 C3.132,28.246 2.833,26.6 2.537,24.965 C1.12,17.161 -0.219,9.789 0.919,2.151 C1.008,1.559 1.329,1.027 1.813,0.673 C2.296,0.32 2.901,0.174 3.492,0.27 L21.454,3.176 C22.045,3.272 22.573,3.6 22.92,4.088 C23.268,4.576 23.405,5.182 23.302,5.772 C21.973,13.38 18.378,19.953 14.572,26.911 C13.775,28.369 12.971,29.837 12.185,31.326 C11.736,32.177 10.795,32.646 9.847,32.492 Z M7.555,27.585 L8.981,27.816 C9.532,26.791 10.088,25.775 10.641,24.764 C13.871,18.859 16.94,13.246 18.42,7.224 L5.09,5.067 C4.595,11.248 5.738,17.543 6.941,24.165 C7.149,25.299 7.355,26.438 7.555,27.585 Z" id="Shape"></path>
            </g>
            <g id="XMLID_400_" transform="translate(2.000000, 202.000000)" fill="#102D3B" fill-rule="nonzero">
                <path d="M7.145,8.782 L2.724,8.067 C1.503,7.869 0.673,6.719 0.871,5.499 L1.408,2.183 C1.606,0.962 2.756,0.132 3.976,0.33 L8.397,1.045 C9.618,1.243 10.448,2.393 10.25,3.613 L9.713,6.929 C9.515,8.15 8.365,8.979 7.145,8.782 Z" id="Path"></path>
            </g>
            <g id="XMLID_399_" transform="translate(3.000000, 206.000000)" fill="#102D3B" fill-rule="nonzero">
                <path d="M2.682,12.161 C1.461,11.963 0.631,10.813 0.829,9.593 L1.992,2.408 C2.19,1.187 3.34,0.357 4.56,0.555 C5.781,0.753 6.611,1.903 6.413,3.123 L5.25,10.308 C5.053,11.529 3.903,12.359 2.682,12.161 Z" id="Path"></path>
            </g>
            <g id="XMLID_398_" transform="translate(25.000000, 23.000000)" fill="#102D3B" fill-rule="nonzero">
                <path d="M15.93,19.378 L2.666,17.232 C1.445,17.034 0.615,15.884 0.813,14.664 L2.78,2.505 C2.978,1.284 4.128,0.454 5.348,0.652 L18.612,2.798 C19.833,2.996 20.663,4.146 20.465,5.366 L18.498,17.525 C18.3,18.746 17.15,19.576 15.93,19.378 Z M5.591,13.169 L14.434,14.6 L15.686,6.863 L6.843,5.432 L5.591,13.169 Z" id="Shape"></path>
            </g>
            <rect id="XMLID_397_" fill="#102D3B" fill-rule="nonzero" transform="translate(35.632348, 33.013030) rotate(-170.810831) translate(-35.632348, -33.013030) " x="28.91362" y="26.8543208" width="13.4374564" height="12.3174183"></rect>
            <path d="M41.597,27.741 L31.649,26.131 L33.947,11.927 C34.26,9.993 36.279,8.731 38.213,9.044 L40.976,9.491 C42.91,9.804 44.207,11.602 43.894,13.536 L41.597,27.741 Z" id="XMLID_396_" fill="#CCDDE5" fill-rule="nonzero"></path>
            <g id="XMLID_395_" transform="translate(29.000000, 6.000000)" fill="#102D3B" fill-rule="nonzero">
                <path d="M12.239,23.951 L2.291,22.341 C1.07,22.143 0.24,20.993 0.438,19.773 L2.736,5.569 C3.235,2.483 6.365,0.315 9.571,0.833 L12.334,1.28 C15.473,1.788 17.613,4.754 17.105,7.893 L14.807,22.097 C14.61,23.319 13.46,24.149 12.239,23.951 Z M5.217,18.278 L10.744,19.172 L12.685,7.179 C12.8,6.466 12.333,5.818 11.62,5.702 L8.857,5.255 C8.09,5.131 7.265,5.631 7.159,6.285 L5.217,18.278 Z" id="Shape"></path>
            </g>
            <rect id="XMLID_394_" fill="#CCDDE5" fill-rule="nonzero" transform="translate(38.947061, 52.831534) rotate(-170.810831) translate(-38.947061, -52.831534) " x="30.268766" y="47.7923631" width="17.3565895" height="10.0783423"></rect>
            <g id="XMLID_393_" transform="translate(27.000000, 44.000000)" fill="#102D3B" fill-rule="nonzero">
                <path d="M19.358,17.405 L2.225,14.633 C1.004,14.435 0.174,13.285 0.372,12.065 L1.982,2.117 C2.18,0.896 3.33,0.066 4.55,0.264 L21.683,3.036 C22.904,3.234 23.734,4.384 23.536,5.604 L21.926,15.552 C21.729,16.773 20.579,17.603 19.358,17.405 Z M5.151,10.57 L17.863,12.627 L18.757,7.1 L6.045,5.043 L5.151,10.57 Z" id="Shape"></path>
            </g>
            <polygon id="XMLID_392_" fill="#CCDDE5" fill-rule="nonzero" points="41.234 93.074 36.451 84.076 40.636 58.211 46.716 59.195"></polygon>
            <g id="XMLID_391_" transform="translate(34.000000, 55.000000)" fill="#102D3B" fill-rule="nonzero">
                <path d="M6.877,40.284 C6.199,40.174 5.592,39.755 5.257,39.125 L0.474,30.128 C0.244,29.696 0.163,29.201 0.241,28.719 L4.426,2.854 C4.624,1.633 5.774,0.803 6.994,1.001 L13.073,1.985 C14.294,2.183 15.124,3.333 14.926,4.553 L9.444,38.432 C9.29,39.381 8.548,40.126 7.599,40.284 C7.356,40.324 7.112,40.322 6.877,40.284 Z M4.782,28.69 L6.086,31.144 L10.147,6.047 L8.489,5.779 L4.782,28.69 Z" id="Shape"></path>
            </g>
        </g>
    </g>
</svg>