<?xml version="1.0" encoding="UTF-8"?>
<svg width="132px" height="133px" viewBox="0 0 132 133" version="1.1" xmlns="http://www.w3.org/2000/svg" xmlns:xlink="http://www.w3.org/1999/xlink">
    <!-- Generator: Sketch 61.2 (89653) - https://sketch.com -->
    <title>Objects/pantone</title>
    <desc>Created with Sketch.</desc>
    <g id="Objects/pantone" stroke="none" stroke-width="1" fill="none" fill-rule="evenodd">
        <g id="Pantone" fill-rule="nonzero">
            <g id="XMLID_163_" opacity="0.3" transform="translate(6.000000, 2.000000)" fill="#2D2D2D">
                <g id="XMLID_166_" transform="translate(54.000000, 0.000000)">
                    <path d="M65.137,121.278 L42.059,127.992 C38.26,129.105 34.237,126.905 33.124,123.105 L2.582,18.468 C1.469,14.669 3.669,10.646 7.469,9.533 L30.547,2.819 C34.346,1.706 38.369,3.906 39.482,7.706 L70.024,112.343 C71.137,116.143 68.936,120.165 65.137,121.278 Z" id="Path"></path>
                    <path d="M70.06,119.762 C68.919,121.237 67.372,122.293 65.588,122.816 L42.507,129.531 C37.852,130.895 32.952,128.215 31.587,123.556 L1.045,18.918 C0.257,16.227 0.818,13.285 2.547,11.05 C3.688,9.575 5.235,8.519 7.019,7.996 L30.1,1.281 C32.346,0.623 34.723,0.883 36.791,2.015 C38.859,3.146 40.361,5.008 41.02,7.256 L71.562,111.894 C72.35,114.586 71.789,117.527 70.06,119.762 Z M5.082,13.011 C3.979,14.436 3.62,16.308 4.121,18.018 L34.663,122.656 C35.531,125.617 38.647,127.321 41.609,126.454 L64.69,119.739 C65.819,119.408 66.8,118.738 67.526,117.801 C68.629,116.376 68.988,114.504 68.487,112.794 L37.945,8.156 C37.528,6.731 36.572,5.548 35.255,4.828 C33.938,4.108 32.427,3.941 31,4.359 L7.919,11.074 C6.789,11.403 5.807,12.074 5.082,13.011 Z" id="Shape"></path>
                </g>
                <g id="XMLID_165_" transform="translate(0.000000, 27.000000)">
                    <path d="M115.746,80.458 L101.035,99.471 C98.608,102.608 94.055,103.189 90.918,100.762 L4.724,34.071 C1.587,31.644 1.006,27.091 3.433,23.954 L18.144,4.941 C20.571,1.804 25.124,1.223 28.261,3.65 L114.455,70.341 C117.624,72.793 118.198,77.289 115.746,80.458 Z" id="Path"></path>
                    <path d="M117.013,81.439 L102.302,100.452 C99.328,104.296 93.78,105.004 89.936,102.029 L3.742,35.338 C-0.102,32.364 -0.81,26.816 2.165,22.972 L16.876,3.959 C19.85,0.115 25.398,-0.593 29.242,2.382 L115.436,69.073 C119.28,72.048 119.988,77.595 117.013,81.439 Z M4.7,24.934 C2.807,27.38 3.257,30.91 5.704,32.803 L91.898,99.494 C94.344,101.387 97.874,100.937 99.767,98.49 L114.478,79.477 C116.403,76.989 115.962,73.533 113.474,71.608 L27.28,4.917 C24.834,3.024 21.304,3.474 19.411,5.921 L4.7,24.934 Z" id="Shape"></path>
                </g>
                <g id="XMLID_164_" transform="translate(21.000000, 10.000000)">
                    <path d="M97.773,103.498 L78.397,117.737 C75.188,120.117 70.67,119.408 68.315,116.167 L3.838,28.283 C1.458,25.074 2.167,20.556 5.408,18.201 L24.784,3.962 C27.993,1.582 32.511,2.291 34.866,5.532 L99.343,93.416 C101.667,96.633 100.982,101.118 97.773,103.498 Z" id="Path"></path>
                    <path d="M100.471,103.079 C99.973,103.722 99.387,104.296 98.727,104.786 L79.345,119.029 C77.459,120.428 75.136,121.004 72.811,120.648 C70.472,120.29 68.414,119.033 67.017,117.11 L2.544,29.232 C0.221,26.1 0.267,21.746 2.662,18.652 C3.174,17.99 3.781,17.402 4.464,16.905 L23.833,2.671 C25.719,1.272 28.042,0.696 30.367,1.052 C32.706,1.411 34.764,2.667 36.161,4.59 L100.634,92.468 C102.926,95.639 102.856,99.998 100.471,103.079 Z M5.198,20.613 C3.679,22.577 3.648,25.338 5.125,27.329 L69.607,115.219 C70.502,116.45 71.811,117.251 73.298,117.479 C74.771,117.705 76.243,117.339 77.443,116.45 L96.825,102.207 C97.243,101.896 97.62,101.529 97.938,101.118 C99.458,99.153 99.503,96.372 98.045,94.355 L33.575,6.481 C32.68,5.25 31.371,4.449 29.884,4.221 C28.411,3.995 26.939,4.361 25.74,5.25 L6.358,19.493 C5.911,19.816 5.524,20.191 5.198,20.613 Z" id="Shape"></path>
                </g>
            </g>
            <g id="XMLID_110_">
                <g id="XMLID_135_" transform="translate(54.000000, 0.000000)">
                    <path d="M64.841,120.939 L41.763,127.653 C37.964,128.766 33.941,126.566 32.828,122.766 L2.287,18.13 C1.174,14.331 3.374,10.308 7.174,9.195 L30.252,2.481 C34.051,1.368 38.074,3.568 39.187,7.368 L69.729,112.005 C70.84,115.804 68.64,119.826 64.841,120.939 Z" id="XMLID_162_" fill="#FFFFFF"></path>
                    <g id="XMLID_161_" fill="#472B29">
                        <path d="M69.764,119.424 C68.623,120.899 67.076,121.955 65.292,122.478 L42.211,129.193 C37.555,130.557 32.656,127.877 31.291,123.218 L0.749,18.58 C-0.039,15.889 0.522,12.947 2.251,10.712 C3.392,9.237 4.939,8.181 6.723,7.658 L29.804,0.943 C32.05,0.285 34.427,0.545 36.495,1.677 C38.563,2.808 40.065,4.67 40.724,6.918 L71.266,111.556 C72.054,114.247 71.493,117.189 69.764,119.424 Z M4.786,12.672 C3.683,14.097 3.324,15.969 3.825,17.679 L34.367,122.317 C35.235,125.278 38.351,126.982 41.313,126.115 L64.394,119.4 C65.523,119.069 66.504,118.399 67.23,117.462 C68.333,116.037 68.692,114.165 68.191,112.455 L37.649,7.817 C37.232,6.392 36.276,5.209 34.958,4.489 C33.641,3.769 32.13,3.602 30.703,4.02 L7.622,10.735 C6.492,11.065 5.511,11.735 4.786,12.672 Z" id="Shape"></path>
                    </g>
                    <g id="XMLID_159_" fill="#472B29">
                        <path d="M60.651,77.576 C60.451,77.834 60.171,78.034 59.834,78.133 L22.91,88.927 C22.502,89.046 22.063,88.999 21.69,88.794 C21.317,88.59 21.041,88.246 20.921,87.838 L0.723,18.612 C-0.065,15.921 0.496,12.979 2.226,10.744 C3.367,9.269 4.914,8.213 6.698,7.69 L29.779,0.975 C34.434,-0.389 39.334,2.291 40.699,6.95 L60.922,76.146 C61.072,76.657 60.954,77.184 60.651,77.576 Z M23.55,85.4 L57.396,75.506 L37.623,7.85 C36.756,4.888 33.64,3.184 30.678,4.052 L7.597,10.767 C6.468,11.098 5.487,11.768 4.762,12.706 C3.659,14.131 3.3,16.003 3.801,17.713 L23.55,85.4 Z" id="Shape"></path>
                    </g>
                    <path d="M44.599,25.842 L7.675,36.636 L2.294,18.186 C1.181,14.387 3.381,10.364 7.181,9.251 L30.259,2.537 C34.058,1.424 38.081,3.624 39.194,7.424 L44.599,25.842 Z" id="XMLID_155_" fill="#7666D5"></path>
                    <g id="XMLID_154_" fill="#472B29">
                        <path d="M45.866,26.823 C45.66,27.089 45.375,27.285 45.048,27.381 L8.124,38.175 C7.716,38.294 7.277,38.246 6.904,38.042 C6.531,37.838 6.255,37.494 6.136,37.085 L0.755,18.635 C-0.033,15.944 0.528,13.003 2.258,10.767 C3.399,9.292 4.946,8.236 6.73,7.713 L29.811,0.998 C34.467,-0.366 39.367,2.314 40.731,6.973 L46.136,25.391 C46.256,25.799 46.209,26.238 46.005,26.611 C45.964,26.686 45.917,26.757 45.866,26.823 Z M8.764,34.647 L42.609,24.753 L37.655,7.874 C36.787,4.911 33.671,3.206 30.709,4.074 L7.628,10.789 C6.499,11.12 5.518,11.79 4.793,12.728 C3.69,14.153 3.331,16.025 3.832,17.735 L8.764,34.647 Z" id="Shape"></path>
                    </g>
                    <rect id="XMLID_144_" fill="#322B4F" transform="translate(37.189649, 69.258780) rotate(163.734295) translate(-37.189649, -69.258780) " x="17.9571109" y="56.0364099" width="38.4650772" height="26.4447406"></rect>
                    <rect id="XMLID_143_" fill="#574B8A" transform="translate(29.782608, 43.872180) rotate(163.734295) translate(-29.782608, -43.872180) " x="10.5500696" y="30.6498093" width="38.4650772" height="26.4447406"></rect>
                    <g id="XMLID_141_" transform="translate(6.000000, 24.000000)" fill="#472B29">
                        <path d="M47.229,28.204 C47.029,28.462 46.749,28.662 46.411,28.761 L9.487,39.536 C9.079,39.655 8.64,39.607 8.268,39.403 C7.896,39.198 7.619,38.854 7.5,38.447 L0.092,13.062 C-0.155,12.212 0.333,11.322 1.182,11.074 L38.106,0.299 C38.514,0.18 38.953,0.228 39.325,0.432 C39.698,0.637 39.974,0.981 40.093,1.388 L47.501,26.773 C47.65,27.286 47.532,27.813 47.229,28.204 Z M10.128,36.011 L43.975,26.134 L37.465,3.826 L3.618,13.703 L10.128,36.011 Z" id="Shape"></path>
                    </g>
                    <g id="XMLID_138_" transform="translate(13.000000, 49.000000)" fill="#472B29">
                        <path d="M47.636,28.591 C47.43,28.857 47.144,29.053 46.817,29.149 L9.893,39.924 C9.485,40.043 9.046,39.995 8.674,39.791 C8.302,39.586 8.025,39.242 7.906,38.834 L0.498,13.449 C0.25,12.599 0.739,11.709 1.588,11.461 L38.512,0.686 C38.92,0.567 39.359,0.615 39.731,0.819 C40.103,1.024 40.38,1.368 40.499,1.776 L47.907,27.161 C48.026,27.569 47.978,28.008 47.774,28.38 C47.733,28.455 47.687,28.525 47.636,28.591 Z M10.534,36.398 L44.381,26.521 L37.871,4.212 L4.024,14.09 L10.534,36.398 Z" id="Shape"></path>
                    </g>
                    <g id="XMLID_136_" transform="translate(36.000000, 113.000000)" fill="#472B29">
                        <path d="M9.018,8.154 C7.396,10.251 4.37,10.637 2.273,9.014 C0.176,7.392 -0.21,4.366 1.413,2.269 C3.035,0.172 6.061,-0.214 8.158,1.409 C10.254,3.032 10.64,6.057 9.018,8.154 Z M3.948,4.231 C3.407,4.93 3.536,5.938 4.235,6.479 C4.934,7.02 5.942,6.891 6.483,6.192 C7.024,5.493 6.895,4.485 6.196,3.944 C5.497,3.404 4.489,3.532 3.948,4.231 Z" id="Shape"></path>
                    </g>
                </g>
                <g id="XMLID_134_" opacity="0.3" transform="translate(24.000000, 9.000000)" fill="#2D2D2D">
                    <path d="M24.446,3.418 L5.07,17.657 C1.861,20.037 1.176,24.523 3.5,27.739 L67.977,115.623 C70.357,118.832 74.843,119.517 78.059,117.193 L90.005,99.789 C90.159,99.655 91.302,98.31 91.456,98.176 L92.633,96.655 L94.267,94.019 C95.992,91.2 95.853,87.647 93.858,84.989 L34.552,4.957 C32.173,1.747 27.687,1.062 24.446,3.418 Z" id="Path"></path>
                    <path d="M79.328,118.174 C79.234,118.295 79.123,118.403 78.999,118.492 C75.09,121.316 69.568,120.458 66.691,116.578 L2.209,28.688 C-0.082,25.518 -0.012,21.158 2.372,18.077 C2.87,17.434 3.457,16.86 4.116,16.371 L23.498,2.128 C27.425,-0.726 32.959,0.117 35.841,4.003 L95.147,84.035 C97.524,87.202 97.719,91.453 95.636,94.857 L93.996,97.501 C93.967,97.548 93.935,97.594 93.902,97.637 L92.725,99.158 C92.673,99.226 92.616,99.289 92.553,99.347 C92.458,99.447 92.146,99.802 91.937,100.04 C91.573,100.455 91.377,100.677 91.246,100.816 L79.381,118.1 C79.364,118.125 79.346,118.15 79.328,118.174 Z M4.907,20.038 C3.387,22.003 3.343,24.784 4.8,26.801 L69.27,114.675 C71.051,117.076 74.428,117.663 76.907,116.042 L88.686,98.882 C88.751,98.786 88.827,98.699 88.911,98.619 C89.006,98.52 89.318,98.164 89.527,97.926 C89.926,97.47 90.124,97.247 90.255,97.111 L91.316,95.739 L92.907,93.173 C94.294,90.906 94.167,88.067 92.578,85.949 L33.266,5.909 C31.396,3.387 27.936,2.862 25.389,4.713 L6.02,18.947 C5.601,19.259 5.225,19.626 4.907,20.038 Z" id="Shape"></path>
                </g>
                <g id="XMLID_123_" transform="translate(21.000000, 10.000000)">
                    <path d="M97.477,103.16 L78.101,117.399 C74.892,119.779 70.374,119.07 68.019,115.829 L3.542,27.945 C1.162,24.736 1.871,20.218 5.112,17.863 L24.488,3.624 C27.697,1.244 32.215,1.953 34.57,5.194 L99.047,93.078 C101.371,96.294 100.686,100.78 97.477,103.16 Z" id="XMLID_132_" fill="#FFFFFF"></path>
                    <g id="XMLID_131_" fill="#472B29">
                        <path d="M100.175,102.741 C99.677,103.384 99.09,103.958 98.431,104.448 L79.049,118.691 C77.163,120.09 74.841,120.666 72.515,120.31 C70.176,119.952 68.118,118.695 66.721,116.772 L2.248,28.894 C-0.075,25.762 -0.029,21.408 2.366,18.314 C2.878,17.652 3.485,17.064 4.168,16.567 L23.537,2.333 C25.423,0.934 27.746,0.358 30.071,0.714 C32.41,1.073 34.468,2.329 35.865,4.252 L100.338,92.13 C102.629,95.3 102.559,99.659 100.175,102.741 Z M4.901,20.274 C3.381,22.238 3.351,24.999 4.828,26.99 L69.31,114.88 C70.205,116.111 71.514,116.912 73.001,117.14 C74.474,117.366 75.946,117 77.146,116.111 L96.528,101.868 C96.946,101.558 97.323,101.19 97.64,100.779 C99.161,98.814 99.205,96.033 97.747,94.016 L33.277,6.142 C32.382,4.911 31.073,4.11 29.586,3.882 C28.113,3.656 26.641,4.022 25.442,4.911 L6.06,19.154 C5.615,19.477 5.228,19.853 4.901,20.274 Z" id="Shape"></path>
                    </g>
                    <path d="M45.917,20.712 L14.888,43.463 L3.516,27.977 C1.136,24.768 1.845,20.25 5.086,17.895 L24.462,3.656 C27.671,1.276 32.189,1.985 34.544,5.226 L45.917,20.712 Z" id="XMLID_130_" fill="#FFA949"></path>
                    <g id="XMLID_129_" fill="#472B29">
                        <path d="M78.473,64.341 C78.382,64.458 78.275,64.563 78.153,64.653 L47.124,87.405 C46.41,87.928 45.408,87.774 44.884,87.061 L2.224,28.925 C-0.099,25.793 -0.053,21.439 2.342,18.345 C2.854,17.683 3.461,17.095 4.144,16.598 L23.513,2.364 C25.399,0.965 27.721,0.389 30.046,0.745 C32.385,1.104 34.443,2.36 35.84,4.283 L78.496,62.412 C78.747,62.754 78.853,63.183 78.788,63.604 C78.748,63.875 78.638,64.129 78.473,64.341 Z M46.521,83.872 L74.965,63.016 L33.253,6.173 C32.358,4.942 31.048,4.141 29.561,3.913 C28.088,3.687 26.616,4.053 25.417,4.942 L6.035,19.185 C5.59,19.508 5.203,19.883 4.877,20.305 C3.357,22.269 3.328,25.03 4.804,27.021 L46.521,83.872 Z" id="Shape"></path>
                    </g>
                    <rect id="XMLID_128_" fill="#B53B00" transform="translate(38.277876, 42.712480) rotate(143.728296) translate(-38.277876, -42.712480) " x="19.0458669" y="29.4903177" width="38.4640191" height="26.4443256"></rect>
                    <g id="XMLID_127_" transform="translate(13.000000, 19.000000)" fill="#472B29">
                        <path d="M49.852,23.984 C49.761,24.101 49.654,24.206 49.533,24.295 L18.522,47.052 C17.808,47.575 16.805,47.422 16.282,46.708 L0.637,25.388 C0.386,25.046 0.28,24.617 0.345,24.197 C0.41,23.777 0.639,23.4 0.981,23.148 L31.992,0.391 C32.706,-0.132 33.709,0.021 34.232,0.735 L49.877,22.055 C50.129,22.398 50.234,22.826 50.169,23.246 C50.127,23.517 50.017,23.77 49.852,23.984 Z M17.917,43.52 L46.344,22.659 L32.595,3.923 L4.168,24.784 L17.917,43.52 Z" id="Shape"></path>
                    </g>
                    <rect id="XMLID_126_" fill="#6D2300" transform="translate(53.935074, 64.053056) rotate(143.728296) translate(-53.935074, -64.053056) " x="34.7030641" y="50.8308931" width="38.4640191" height="26.4443256"></rect>
                    <g id="XMLID_125_" transform="translate(28.000000, 40.000000)" fill="#472B29">
                        <path d="M50.509,24.324 C50.419,24.44 50.313,24.545 50.189,24.636 L19.178,47.393 C18.836,47.644 18.407,47.75 17.987,47.685 C17.567,47.621 17.189,47.392 16.938,47.049 L1.292,25.729 C1.04,25.387 0.935,24.958 1,24.538 C1.065,24.118 1.294,23.741 1.636,23.489 L32.648,0.732 C33.361,0.209 34.365,0.362 34.888,1.076 L50.533,22.396 C50.965,22.985 50.935,23.773 50.509,24.324 Z M18.573,43.861 L47,23 L33.251,4.264 L4.824,25.124 L18.573,43.861 Z" id="Shape"></path>
                    </g>
                    <g id="XMLID_124_" transform="translate(69.000000, 103.000000)" fill="#472B29">
                        <path d="M9.163,8.621 C7.541,10.718 4.515,11.104 2.418,9.481 C0.321,7.859 -0.065,4.833 1.558,2.736 C3.18,0.639 6.206,0.253 8.303,1.876 C10.4,3.499 10.786,6.524 9.163,8.621 Z M4.093,4.698 C3.552,5.397 3.681,6.405 4.38,6.946 C5.079,7.487 6.087,7.358 6.628,6.659 C7.169,5.96 7.04,4.952 6.341,4.411 C5.642,3.87 4.634,3.999 4.093,4.698 Z" id="Shape"></path>
                    </g>
                </g>
                <g id="XMLID_122_" opacity="0.3" transform="translate(3.000000, 25.000000)" fill="#2D2D2D">
                    <path d="M115.679,80.565 L100.968,99.578 C98.541,102.715 93.988,103.296 90.851,100.869 L4.657,34.178 C1.52,31.751 0.939,27.198 3.366,24.061 L18.077,5.048 C20.504,1.911 25.057,1.33 28.194,3.757 L114.388,70.448 C117.557,72.9 118.131,77.396 115.679,80.565 Z" id="Path"></path>
                    <path d="M116.946,81.546 L102.235,100.559 C99.261,104.403 93.713,105.111 89.869,102.136 L3.675,35.445 C-0.169,32.471 -0.877,26.923 2.098,23.079 L16.809,4.066 C19.783,0.222 25.331,-0.486 29.175,2.489 L115.369,69.18 C119.213,72.155 119.921,77.702 116.946,81.546 Z M4.633,25.041 C2.74,27.487 3.19,31.017 5.637,32.91 L91.831,99.601 C94.277,101.494 97.807,101.044 99.7,98.597 L114.411,79.584 C116.336,77.096 115.895,73.64 113.407,71.715 L27.213,5.024 C24.767,3.131 21.237,3.581 19.344,6.028 L4.633,25.041 Z" id="Shape"></path>
                </g>
                <g id="XMLID_111_" transform="translate(0.000000, 27.000000)">
                    <path d="M115.45,80.12 L100.739,99.133 C98.312,102.27 93.759,102.851 90.622,100.424 L4.428,33.733 C1.291,31.306 0.71,26.753 3.137,23.616 L17.848,4.603 C20.275,1.466 24.828,0.885 27.965,3.312 L114.159,70.003 C117.328,72.454 117.902,76.951 115.45,80.12 Z" id="XMLID_121_" fill="#FFFFFF"></path>
                    <g id="XMLID_120_" fill="#472B29">
                        <path d="M116.717,81.1 L102.006,100.113 C99.032,103.957 93.484,104.665 89.64,101.69 L3.446,35 C-0.398,32.026 -1.106,26.478 1.869,22.634 L16.58,3.621 C19.554,-0.223 25.102,-0.931 28.946,2.044 L115.14,68.735 C118.984,71.709 119.692,77.256 116.717,81.1 Z M4.404,24.596 C2.511,27.042 2.961,30.572 5.408,32.465 L91.602,99.156 C94.048,101.049 97.578,100.599 99.471,98.152 L114.182,79.139 C116.107,76.651 115.666,73.195 113.178,71.27 L26.984,4.579 C24.538,2.686 21.008,3.137 19.115,5.583 L4.404,24.596 Z" id="Shape"></path>
                    </g>
                    <g id="XMLID_119_" fill="#472B29">
                        <path d="M86.273,48.426 L62.735,78.847 C62.193,79.547 61.187,79.675 60.487,79.134 L3.446,35 C-0.398,32.026 -1.106,26.478 1.869,22.634 L16.58,3.621 C19.554,-0.223 25.102,-0.931 28.946,2.044 L85.986,46.178 C86.686,46.719 86.814,47.726 86.273,48.426 Z M61.18,75.618 L82.757,47.732 L26.985,4.579 C24.539,2.686 21.009,3.137 19.116,5.583 L4.405,24.596 C2.512,27.042 2.962,30.572 5.409,32.465 L61.18,75.618 Z" id="Shape"></path>
                    </g>
                    <path d="M43.176,15.08 L19.638,45.501 L4.427,33.732 C1.29,31.305 0.709,26.752 3.136,23.615 L17.847,4.602 C20.274,1.465 24.827,0.884 27.964,3.311 L43.176,15.08 Z" id="XMLID_118_" fill="#FF9999"></path>
                    <g id="XMLID_117_" fill="#472B29">
                        <path d="M44.444,16.061 L20.906,46.482 C20.364,47.182 19.358,47.31 18.658,46.769 L3.446,35 C-0.398,32.026 -1.106,26.478 1.869,22.634 L16.58,3.621 C19.554,-0.223 25.102,-0.931 28.946,2.044 L44.157,13.813 C44.857,14.354 44.985,15.361 44.444,16.061 Z M19.351,43.253 L40.928,15.367 L26.985,4.579 C24.539,2.686 21.009,3.137 19.116,5.583 L4.405,24.596 C2.512,27.042 2.962,30.572 5.409,32.465 L19.351,43.253 Z" id="Shape"></path>
                    </g>
                    <rect id="XMLID_116_" fill="#FF0000" transform="translate(41.898195, 38.406892) rotate(127.728244) translate(-41.898195, -38.406892) " x="22.6667291" y="25.1852592" width="38.4629311" height="26.4432651"></rect>
                    <g id="XMLID_115_" transform="translate(18.000000, 13.000000)">
                        <rect id="Rectangle" fill="#EE3E54" transform="translate(23.898195, 25.406892) rotate(127.728244) translate(-23.898195, -25.406892) " x="4.66672906" y="12.1852592" width="38.4629311" height="26.4432651"></rect>
                        <path d="M47.358,19.243 L23.82,49.664 C23.278,50.364 22.272,50.492 21.572,49.951 L0.657,33.768 C-0.043,33.226 -0.171,32.22 0.37,31.52 L23.908,1.099 C24.45,0.399 25.456,0.271 26.156,0.812 L47.071,16.994 C47.771,17.537 47.9,18.543 47.358,19.243 Z M22.266,46.436 L43.843,18.55 L25.463,4.329 L3.886,32.215 L22.266,46.436 Z" id="Shape" fill="#472B29"></path>
                    </g>
                    <rect id="XMLID_114_" fill="#CF3649" transform="translate(62.813862, 54.590800) rotate(127.728244) translate(-62.813862, -54.590800) " x="43.5823968" y="41.3691669" width="38.4629311" height="26.4432651"></rect>
                    <g id="XMLID_113_" transform="translate(38.000000, 29.000000)" fill="#472B29">
                        <path d="M48.273,19.426 L24.735,49.847 C24.193,50.547 23.187,50.675 22.487,50.134 L1.573,33.952 C0.873,33.41 0.745,32.404 1.286,31.704 L24.824,1.283 C25.366,0.583 26.372,0.455 27.072,0.996 L47.986,17.178 C48.686,17.719 48.814,18.726 48.273,19.426 Z M23.18,46.618 L44.757,18.732 L26.378,4.511 L4.801,32.397 L23.18,46.618 Z" id="Shape"></path>
                    </g>
                    <g id="XMLID_112_" transform="translate(89.000000, 86.000000)" fill="#472B29">
                        <path d="M9.577,8.725 C7.955,10.822 4.929,11.208 2.832,9.585 C0.735,7.963 0.349,4.937 1.972,2.84 C3.594,0.743 6.62,0.357 8.717,1.98 C10.813,3.602 11.199,6.628 9.577,8.725 Z M4.506,4.802 C3.965,5.501 4.094,6.509 4.793,7.05 C5.492,7.591 6.5,7.462 7.041,6.763 C7.582,6.064 7.453,5.056 6.754,4.515 C6.056,3.974 5.047,4.103 4.506,4.802 Z" id="Shape"></path>
                    </g>
                    <g id="Group" transform="translate(68.000000, 60.000000)" fill="#472B29">
                        <path d="M2.209,17.437 L1.792,17.976 L2.711,18.687 L2.515,18.94 L0.36,17.273 L0.973,16.481 C1.463,15.847 1.913,15.79 2.293,16.084 C2.642,16.353 2.7,16.803 2.209,17.437 Z M2.019,17.289 C2.362,16.845 2.351,16.533 2.066,16.312 C1.781,16.091 1.475,16.159 1.132,16.603 L0.715,17.142 L1.602,17.829 L2.019,17.289 L2.019,17.289 Z" id="Shape"></path>
                        <path d="M4.902,14.808 L3.97,16.012 L4.305,16.626 L4.084,16.911 L2.721,14.286 L2.966,13.969 L5.849,14.629 L5.628,14.914 L4.902,14.808 Z M3.105,14.38 L3.861,15.826 L4.67,14.78 L3.105,14.38 Z" id="Shape"></path>
                        <polygon id="Path" points="5.583 10.523 7.738 12.19 7.542 12.444 4.583 12.536 6.389 13.934 6.193 14.187 4.038 12.52 4.234 12.267 7.193 12.175 5.387 10.777"></polygon>
                        <polygon id="Path" points="5.951 10.047 7.3 8.304 7.49 8.451 6.926 9.18 8.891 10.7 8.695 10.954 6.73 9.434 6.142 10.195"></polygon>
                        <path d="M10.785,8.317 C10.196,9.078 9.312,9.305 8.646,8.79 C8.012,8.3 7.978,7.361 8.567,6.601 C9.156,5.84 10.04,5.613 10.706,6.128 C11.372,6.643 11.374,7.556 10.785,8.317 Z M10.595,8.17 C11.061,7.568 11.056,6.855 10.485,6.413 C9.915,5.972 9.223,6.146 8.757,6.748 C8.291,7.35 8.296,8.063 8.867,8.505 C9.438,8.946 10.154,8.74 10.595,8.17 Z" id="Shape"></path>
                        <polygon id="Path" points="11.615 2.727 13.77 4.394 13.574 4.648 10.615 4.74 12.421 6.138 12.225 6.391 10.07 4.724 10.266 4.471 13.225 4.379 11.419 2.981"></polygon>
                        <polygon id="Path" points="13.399 0.815 12.516 1.956 13.308 2.569 14.093 1.555 14.283 1.702 13.498 2.716 14.322 3.354 15.205 2.213 15.395 2.36 14.316 3.754 12.161 2.087 13.24 0.693"></polygon>
                    </g>
                    <g id="Group" transform="translate(81.000000, 58.000000)" fill="#472B29">
                        <polygon id="Path" points="0.716 1.946 1.108 1.439 1.171 1.488 1.024 1.678 1.658 2.168 1.56 2.295 0.926 1.805 0.779 1.995"></polygon>
                        <polygon id="Path" points="1.207 1.312 1.281 1.217 2.048 1.405 1.674 0.71 1.748 0.615 2.445 1.154 2.371 1.249 1.832 0.832 2.175 1.502 2.126 1.565 1.391 1.402 1.93 1.819 1.856 1.914 1.159 1.375"></polygon>
                    </g>
                </g>
            </g>
        </g>
    </g>
</svg>