<?xml version="1.0" encoding="UTF-8"?>
<svg width="62px" height="62px" viewBox="0 0 62 62" version="1.1" xmlns="http://www.w3.org/2000/svg" xmlns:xlink="http://www.w3.org/1999/xlink">
    <!-- Generator: Sketch 61.2 (89653) - https://sketch.com -->
    <title>Objects/paper-clip</title>
    <desc>Created with Sketch.</desc>
    <g id="Objects/paper-clip" stroke="none" stroke-width="1" fill="none" fill-rule="evenodd">
        <g id="Paper-Clip" fill-rule="nonzero">
            <g id="XMLID_28_" opacity="0.18" transform="translate(15.000000, 49.000000)" fill="#351915">
                <path d="M10.565,4.945 C10.564,4.946 10.562,4.946 10.561,4.947 L2.487,9.496 C2.256,9.626 1.979,9.647 1.731,9.552 C1.483,9.457 1.291,9.257 1.206,9.006 L0.552,7.073 C-0.027,5.393 0.69,3.529 2.259,2.645 L4.841,1.191 C6.384,0.322 8.346,0.67 9.506,2.019 L10.756,3.536 C10.813,3.593 10.864,3.658 10.906,3.732 C11.146,4.16 10.994,4.703 10.565,4.945 Z M2.549,7.415 L8.76,3.916 L8.141,3.165 C7.535,2.461 6.532,2.282 5.714,2.742 L3.132,4.196 C2.313,4.657 1.937,5.624 2.237,6.495 L2.549,7.415 Z" id="Shape"></path>
            </g>
            <path d="M25.178,54.265 L17.104,58.814 L16.45,56.881 C16.007,55.596 16.566,54.182 17.75,53.515 L20.331,52.061 C21.515,51.394 22.994,51.66 23.883,52.693 L25.178,54.265 Z" id="XMLID_29_" fill="#FFC943"></path>
            <g id="XMLID_8_" transform="translate(15.000000, 50.000000)" fill="#102D3B">
                <path d="M10.62,5.04 C10.619,5.041 10.617,5.041 10.616,5.042 L2.542,9.591 C2.311,9.721 2.034,9.742 1.786,9.647 C1.538,9.552 1.346,9.352 1.261,9.101 L0.607,7.168 C0.028,5.488 0.745,3.624 2.314,2.74 L4.895,1.286 C6.438,0.417 8.4,0.765 9.56,2.114 L10.81,3.631 C10.867,3.688 10.918,3.753 10.96,3.827 C11.2,4.255 11.048,4.798 10.62,5.04 Z M2.603,7.51 L8.814,4.011 L8.195,3.26 C7.589,2.556 6.586,2.376 5.768,2.837 L3.187,4.291 C2.368,4.752 1.992,5.719 2.292,6.59 L2.603,7.51 Z" id="Shape"></path>
            </g>
            <g id="Group">
                <g id="XMLID_27_" opacity="0.2" transform="translate(4.000000, 1.000000)" fill="#2D2D2D">
                    <g id="XMLID_25_">
                        <path d="M57.844,36.315 L49.068,13.059 C48.976,12.817 48.785,12.626 48.535,12.534 C48.294,12.451 48.027,12.467 47.794,12.601 L31.724,21.652 C29.909,19.121 28.102,16.473 26.278,13.708 C25.312,12.218 25.087,10.361 25.662,8.621 C26.253,6.847 26.153,5.049 25.396,3.692 C23.931,1.094 20.025,-0.022 16.861,1.244 C16.853,1.244 16.844,1.252 16.836,1.252 C13.58,2.676 10.458,4.433 7.552,6.481 C7.552,6.489 7.544,6.489 7.535,6.498 C4.812,8.546 3.746,12.468 5.204,15.066 C5.953,16.398 7.444,17.406 9.284,17.847 C11.074,18.255 12.548,19.412 13.314,21.011 C14.746,24 16.07,26.915 17.302,29.779 L1.173,38.863 C0.948,38.988 0.79,39.213 0.74,39.462 C0.69,39.72 0.748,39.978 0.907,40.186 L16.211,59.77 C16.486,60.12 16.969,60.211 17.352,59.995 L26.744,54.708 C28.234,57.214 29.908,56.781 30.782,56.29 L47.318,46.973 C49.308,45.857 48.684,43.884 48.051,42.701 L57.452,37.405 C57.835,37.19 58.002,36.732 57.844,36.315 Z M18.867,28.896 C17.643,26.065 16.336,23.184 14.92,20.236 C13.913,18.146 12.006,16.639 9.683,16.106 C8.351,15.79 7.26,15.074 6.76,14.191 C5.844,12.567 6.444,9.553 8.592,7.929 C11.39,5.956 14.396,4.257 17.535,2.891 C20.041,1.892 22.931,2.949 23.838,4.565 C24.346,5.473 24.396,6.772 23.971,8.062 C23.222,10.318 23.521,12.733 24.787,14.69 C26.586,17.421 28.367,20.027 30.158,22.534 L18.867,28.896 Z" id="Shape"></path>
                    </g>
                </g>
                <path d="M48.163,13.14 L1.541,39.403 L16.843,58.986 L26.334,53.639 L26.684,54.26 C27.406,55.541 29.014,55.99 30.295,55.269 L46.832,45.953 C48.113,45.231 48.562,43.623 47.841,42.342 L47.491,41.721 L56.982,36.374 L48.163,13.14 Z" id="XMLID_18_" fill="#FFA949"></path>
                <g id="XMLID_35_" opacity="0.18" transform="translate(20.000000, 20.000000)" fill="#351915">
                    <g id="XMLID_38_" transform="translate(0.000000, 7.000000)">
                        <path d="M10.991,28.005 C10.93,28.039 10.865,28.067 10.794,28.087 C10.32,28.22 9.828,27.944 9.695,27.471 C7.302,18.973 4.244,10.546 0.349,1.709 C0.15,1.259 0.356,0.732 0.805,0.534 C1.255,0.335 1.781,0.54 1.98,0.99 C5.91,9.904 8.994,18.408 11.411,26.988 C11.524,27.391 11.341,27.808 10.991,28.005 Z" id="Path"></path>
                    </g>
                    <g id="XMLID_44_" transform="translate(12.000000, 0.000000)">
                        <path d="M17.64,21.636 C17.286,21.836 16.829,21.772 16.544,21.458 C11.07,15.434 5.97,9.006 0.952,1.806 C0.671,1.402 0.77,0.847 1.174,0.565 C1.578,0.285 2.133,0.383 2.415,0.787 C7.388,7.923 12.442,14.292 17.863,20.259 C18.194,20.623 18.167,21.187 17.803,21.518 C17.752,21.565 17.698,21.604 17.64,21.636 Z" id="Path"></path>
                    </g>
                </g>
                <g id="XMLID_33_" opacity="0.18" transform="translate(29.000000, 41.000000)" fill="#351915">
                    <path d="M17.871,4.242 C17.869,4.243 17.868,4.244 17.867,4.244 L2.009,13.177 C1.697,13.353 1.309,13.325 1.026,13.105 C0.742,12.885 0.618,12.518 0.711,12.171 C0.968,11.206 1.02,10.208 0.87,9.121 C0.663,7.746 1.272,6.432 2.422,5.785 L11.35,0.755 C12.483,0.117 13.919,0.274 15.008,1.157 C15.014,1.162 15.021,1.167 15.027,1.173 C15.821,1.854 16.665,2.318 17.604,2.591 C17.851,2.639 18.076,2.792 18.21,3.028 C18.451,3.457 18.299,4 17.871,4.242 Z M2.726,10.728 L15.396,3.591 C14.865,3.298 14.358,2.946 13.878,2.535 C13.355,2.116 12.723,2.029 12.226,2.309 L3.298,7.339 C2.806,7.616 2.54,8.231 2.635,8.869 C2.722,9.51 2.753,10.127 2.726,10.728 Z" id="Shape"></path>
                </g>
                <g id="XMLID_31_" opacity="0.18" transform="translate(46.000000, 32.000000)" fill="#351915">
                    <path d="M10.912,4.287 C10.911,4.288 10.909,4.288 10.908,4.289 L2.834,8.838 C2.603,8.968 2.326,8.989 2.078,8.894 C1.83,8.799 1.638,8.599 1.553,8.347 L0.899,6.414 C0.32,4.734 1.037,2.87 2.606,1.986 L5.168,0.543 C6.711,-0.326 8.673,0.022 9.833,1.371 L11.095,2.87 C11.155,2.928 11.208,2.996 11.251,3.073 C11.492,3.502 11.341,4.045 10.912,4.287 Z M2.896,6.757 L9.097,3.264 L8.475,2.526 C7.863,1.815 6.86,1.635 6.042,2.096 L3.48,3.539 C2.661,4 2.285,4.967 2.585,5.838 L2.896,6.757 Z" id="Shape"></path>
                </g>
                <g id="XMLID_24_" transform="translate(4.000000, 0.000000)" fill="#102D3B">
                    <path d="M22.948,53.729 C22.887,53.763 22.821,53.791 22.751,53.811 C22.277,53.944 21.785,53.668 21.652,53.194 C18.634,42.45 14.688,32.143 9.234,20.758 C8.463,19.159 6.992,18.003 5.198,17.59 C3.358,17.155 1.875,16.141 1.124,14.808 C-0.339,12.21 0.727,8.288 3.453,6.243 C3.46,6.238 3.467,6.233 3.473,6.228 C6.374,4.178 9.497,2.419 12.754,1 C12.762,0.996 12.77,0.993 12.778,0.99 C15.941,-0.279 19.848,0.842 21.309,3.437 C22.073,4.793 22.17,6.59 21.576,8.367 C21.001,10.111 21.227,11.968 22.196,13.458 C29.147,24.03 35.917,32.747 43.502,40.887 C43.837,41.247 43.818,41.811 43.457,42.146 C43.098,42.483 42.533,42.462 42.198,42.102 C34.544,33.887 27.714,25.095 20.704,14.434 C19.436,12.484 19.138,10.07 19.884,7.806 C20.314,6.522 20.265,5.217 19.756,4.313 C18.846,2.698 15.96,1.642 13.453,2.641 C10.316,4.009 7.308,5.703 4.512,7.678 C2.358,9.302 1.765,12.319 2.676,13.935 C3.176,14.823 4.27,15.541 5.602,15.856 C7.92,16.39 9.83,17.896 10.839,19.987 C16.34,31.469 20.32,41.868 23.367,52.713 C23.481,53.115 23.298,53.532 22.948,53.729 Z" id="Path"></path>
                </g>
                <path d="M56.913,36.388 L48.839,40.937 L48.185,39.004 C47.742,37.719 48.301,36.305 49.485,35.638 L52.066,34.184 C53.25,33.517 54.729,33.783 55.618,34.816 L56.913,36.388 Z" id="XMLID_30_" fill="#FFA949"></path>
                <g id="XMLID_6_" transform="translate(47.000000, 32.000000)" fill="#102D3B">
                    <path d="M10.354,5.163 C10.353,5.164 10.351,5.164 10.35,5.165 L2.276,9.714 C2.045,9.844 1.768,9.865 1.52,9.77 C1.272,9.675 1.08,9.475 0.995,9.224 L0.341,7.291 C-0.238,5.611 0.479,3.747 2.048,2.863 L4.629,1.409 C6.172,0.54 8.134,0.888 9.294,2.237 L10.544,3.754 C10.601,3.811 10.652,3.876 10.694,3.95 C10.935,4.378 10.783,4.921 10.354,5.163 Z M2.338,7.633 L8.549,4.134 L7.93,3.383 C7.324,2.679 6.321,2.499 5.503,2.96 L2.922,4.414 C2.103,4.875 1.727,5.842 2.027,6.713 L2.338,7.633 Z" id="Shape"></path>
                </g>
                <g id="XMLID_13_" transform="translate(0.000000, 12.000000)" fill="#102D3B">
                    <path d="M47.25,34.741 L30.713,44.057 C29.839,44.549 28.167,44.984 26.676,42.47 L17.28,47.763 C16.896,47.979 16.412,47.883 16.14,47.535 L0.838,27.952 C0.678,27.747 0.616,27.483 0.666,27.229 C0.717,26.974 0.876,26.755 1.102,26.627 L47.724,0.364 C47.95,0.236 48.221,0.214 48.466,0.303 C48.71,0.392 48.904,0.583 48.995,0.826 L57.775,24.082 C57.93,24.494 57.762,24.957 57.379,25.173 L47.983,30.466 C48.611,31.645 49.237,33.622 47.25,34.741 Z M17.073,45.834 L26.576,40.481 C27.005,40.239 27.548,40.391 27.79,40.82 L28.14,41.441 C29.004,42.974 29.526,42.68 29.839,42.504 L46.376,33.188 C46.708,33.001 47.211,32.718 46.347,31.184 L45.997,30.563 C45.755,30.134 45.907,29.591 46.336,29.349 L55.84,23.995 L47.697,2.425 L2.883,27.67 L17.073,45.834 Z" id="Shape"></path>
                </g>
                <path d="M46.308,46.249 L30.45,55.182 C30.778,53.949 30.771,52.802 30.631,51.782 C30.482,50.792 30.903,49.813 31.737,49.343 L40.665,44.313 C41.5,43.843 42.524,43.982 43.324,44.63 C44.106,45.29 45.083,45.891 46.308,46.249 Z" id="XMLID_34_" fill="#FFA949"></path>
                <g id="XMLID_2_" transform="translate(29.000000, 43.000000)" fill="#102D3B">
                    <path d="M17.749,4.023 C17.747,4.024 17.746,4.024 17.745,4.025 L1.888,12.958 C1.576,13.134 1.188,13.106 0.905,12.886 C0.622,12.667 0.497,12.299 0.589,11.952 C0.846,10.987 0.898,9.989 0.748,8.902 C0.541,7.527 1.15,6.213 2.3,5.566 L11.228,0.536 C12.361,-0.102 13.797,0.055 14.886,0.938 C15.681,1.61 16.553,2.089 17.492,2.374 C17.735,2.425 17.956,2.576 18.087,2.809 C18.33,3.238 18.178,3.782 17.749,4.023 Z M2.604,10.509 L15.283,3.367 C14.746,3.072 14.233,2.72 13.75,2.311 C13.239,1.897 12.603,1.808 12.104,2.089 L3.176,7.119 C2.684,7.396 2.418,8.011 2.513,8.649 C2.601,9.292 2.632,9.909 2.604,10.509 Z" id="Shape"></path>
                </g>
            </g>
        </g>
    </g>
</svg>