<svg width="460" height="601" viewBox="0 0 460 601" fill="none" xmlns="http://www.w3.org/2000/svg">
<path d="M421.267 13H13V587.645H421.267C435.017 587.645 446.319 576.341 446.319 562.596V38.0493C446.319 24.303 435.017 13 421.267 13Z" stroke="white" stroke-width="26"/>
<path fill-rule="evenodd" clip-rule="evenodd" d="M226.924 123.612V188.633C245.795 188.189 263.663 185.785 279.847 181.795L280.372 181.663C277.753 174.808 274.809 168.401 271.583 162.521C259.677 140.832 244.048 126.505 226.924 123.612ZM160.64 181.657C176.972 185.728 195.025 188.183 214.084 188.633V123.612C196.963 126.505 181.329 140.832 169.425 162.521C166.201 168.401 163.257 174.805 160.64 181.657ZM146.827 256.315H214.084V201.479C193.952 201.02 174.813 198.415 157.44 194.075L156.473 193.832C150.809 212.441 147.372 233.668 146.827 256.315ZM156.476 331.644L157.576 331.365C174.917 327.043 194.012 324.449 214.084 323.991V269.153H146.827C147.375 291.804 150.809 313.035 156.476 331.644ZM214.084 401.857C196.963 398.965 181.329 384.637 169.425 362.948C166.199 357.067 163.255 350.661 160.636 343.805C176.964 339.737 195.016 337.287 214.084 336.835V401.857ZM280.375 343.805L280.103 343.739C263.847 339.709 245.889 337.281 226.924 336.835V401.857C244.048 398.965 259.677 384.639 271.583 362.948C274.809 357.067 277.753 350.661 280.375 343.805ZM294.184 269.153H226.924V323.991C246.891 324.447 265.888 327.017 283.163 331.299L284.535 331.644C290.199 313.035 293.639 291.804 294.184 269.153ZM284.535 193.825C283.993 193.964 283.452 194.099 282.908 194.235C265.701 198.476 246.789 201.024 226.924 201.479V256.315H294.184C293.636 233.667 290.199 212.435 284.535 193.825ZM220.505 110.231C262.615 110.231 300.743 127.3 328.341 154.9C355.939 182.496 373.008 220.621 373.008 262.733C373.008 304.847 355.939 342.973 328.341 370.572C300.743 398.168 262.615 415.239 220.505 415.239C178.392 415.239 140.265 398.168 112.669 370.572C85.0707 342.973 68 304.847 68 262.733C68 220.621 85.0707 182.496 112.669 154.9C140.265 127.3 178.392 110.231 220.505 110.231ZM263.229 129.728C284.613 136.593 303.755 148.468 319.264 163.977C319.983 164.696 320.693 165.424 321.396 166.157C312.896 170.785 303.271 174.828 292.749 178.168C289.816 170.345 286.488 163.04 282.819 156.353C277.083 145.907 270.492 136.921 263.229 129.728ZM119.604 166.171C120.308 165.432 121.023 164.699 121.747 163.977C137.256 148.468 156.393 136.593 177.78 129.728C170.516 136.921 163.928 145.907 158.192 156.353C154.523 163.04 151.193 170.343 148.261 178.165C137.717 174.824 128.088 170.785 119.604 166.171ZM80.9893 256.315H133.98C134.537 232.493 138.16 210.069 144.155 190.311C131.929 186.409 120.775 181.592 111.012 176.023C93.3667 198.28 82.356 226.04 80.9893 256.315ZM110.999 349.429C93.3573 327.176 82.356 299.421 80.9893 269.153H133.98C134.537 292.979 138.16 315.405 144.156 335.163C131.901 339.067 120.744 343.879 110.999 349.429ZM177.78 395.743C170.516 388.549 163.928 379.565 158.192 369.116C154.523 362.428 151.193 355.124 148.259 347.301C137.744 350.64 128.119 354.684 119.616 359.315C120.32 360.048 121.027 360.773 121.747 361.492C137.256 377.001 156.393 388.876 177.78 395.743ZM321.403 359.305C320.697 360.043 319.985 360.771 319.264 361.492C303.755 377.001 284.613 388.876 263.229 395.743C270.492 388.549 277.083 379.565 282.819 369.116C286.491 362.428 289.816 355.123 292.749 347.3C303.279 350.637 312.907 354.683 321.403 359.305ZM360.02 269.153H307.028C306.473 292.979 302.849 315.403 296.853 335.163C309.095 339.064 320.248 343.881 330.001 349.44C347.648 327.185 358.652 299.428 360.02 269.153ZM330.007 176.036C320.26 181.589 309.104 186.404 296.853 190.307C302.849 210.067 306.473 232.492 307.028 256.315H360.02C358.652 226.047 347.648 198.291 330.007 176.036Z" fill="white"/>
<path fill-rule="evenodd" clip-rule="evenodd" d="M220.505 479.927C212.22 479.927 205.5 486.645 205.5 494.931C205.5 503.217 212.22 509.935 220.505 509.935C228.791 509.935 235.509 503.217 235.509 494.931C235.509 486.645 228.791 479.927 220.505 479.927ZM271.272 498.611V518.145C271.272 520.871 269.044 523.099 266.319 523.099H174.689C171.965 523.099 169.736 520.871 169.736 518.145V498.611H200.307C202.041 508.191 210.424 515.456 220.505 515.456C230.584 515.456 238.967 508.191 240.701 498.611H271.272ZM174.689 466.761H266.319C269.045 466.761 271.272 468.989 271.272 471.714V491.251H240.701C238.967 481.671 230.584 474.405 220.505 474.405C210.424 474.405 202.041 481.671 200.307 491.251H169.736V471.714C169.736 468.989 171.965 466.761 174.689 466.761Z" fill="white"/>
</svg>
