<?xml version="1.0" encoding="UTF-8"?>
<svg width="24px" height="24px" viewBox="0 0 24 24" version="1.1" xmlns="http://www.w3.org/2000/svg" xmlns:xlink="http://www.w3.org/1999/xlink">
    <!-- Generator: Sketch 61.2 (89653) - https://sketch.com -->
    <title>Icons/pen-white</title>
    <desc>Created with Sketch.</desc>
    <g id="Icons/pen" stroke="none" stroke-width="1" fill="none" fill-rule="evenodd">
        <path d="M12,2 C12.5522847,2 13,2.44771525 13,3 C13,3.55228475 12.5522847,4 12,4 L12,4 L5,4 C4.44771525,4 4,4.44771525 4,5 L4,5 L4,19 C4,19.5522847 4.44771525,20 5,20 L5,20 L19,20 C19.5522847,20 20,19.5522847 20,19 L20,19 L20,12 C20,11.4477153 20.4477153,11 21,11 C21.5522847,11 22,11.4477153 22,12 L22,12 L22,19 C22,20.6568542 20.6568542,22 19,22 L19,22 L5,22 C3.34314575,22 2,20.6568542 2,19 L2,19 L2,5 C2,3.34314575 3.34314575,2 5,2 L5,2 Z M23.2071068,0.792893264 C24.4260582,2.01184467 24.4260582,3.98815535 23.2071068,5.20710678 L13.7071068,14.7071068 C13.578948,14.8352656 13.4183681,14.9261844 13.2425356,14.9701425 L9.24253563,15.9701425 C8.51015516,16.1532376 7.84676238,15.4898448 8.0298575,14.7574644 L9.0298575,10.7574644 C9.07381561,10.5816319 9.1647344,10.421052 9.29289322,10.2928932 L18.7928932,0.792893219 C20.0118447,-0.426058166 21.9881553,-0.426058146 23.2071068,0.792893264 Z M20.2071068,2.2071068 L10.902964,11.5112495 L10.3743685,13.6256315 L12.4887505,13.097036 L21.7928932,3.79289323 C22.230796,3.3549904 22.230796,2.64500963 21.7928932,2.20710683 C21.3549904,1.76920398 20.6450096,1.76920398 20.2071068,2.2071068 Z" id="icon" fill="#FFFFFF"></path>
    </g>
</svg>