<?xml version="1.0" encoding="UTF-8"?>
<svg width="137px" height="87px" viewBox="0 0 137 87" version="1.1" xmlns="http://www.w3.org/2000/svg" xmlns:xlink="http://www.w3.org/1999/xlink">
    <!-- Generator: Sketch 61.2 (89653) - https://sketch.com -->
    <title>Objects/pen</title>
    <desc>Created with Sketch.</desc>
    <g id="Objects/pen" stroke="none" stroke-width="1" fill="none" fill-rule="evenodd">
        <g id="Pen" fill-rule="nonzero">
            <g id="XMLID_182_" transform="translate(12.000000, 53.000000)" fill="#472B29">
                <path d="M0.938,16.424 C0.645,15.873 0.854,15.189 1.404,14.896 L28.26,0.601 C28.811,0.308 29.495,0.517 29.788,1.067 C30.081,1.618 29.872,2.302 29.322,2.595 L2.466,16.89 C1.915,17.183 1.231,16.974 0.938,16.424 Z" id="Path"></path>
            </g>
            <g id="Group">
                <g id="XMLID_235_" opacity="0.3" transform="translate(0.000000, 5.000000)" fill="#2D2D2D">
                    <g id="XMLID_241_" transform="translate(2.000000, 28.000000)">
                        <rect id="Rectangle" transform="translate(40.200722, 26.709019) rotate(-118.028335) translate(-40.200722, -26.709019) " x="33.178844" y="-13.2017881" width="14.0437563" height="79.8216151"></rect>
                        <path d="M6.983,52.392 L0.384,39.995 C-0.007,39.261 0.272,38.349 1.006,37.958 L71.469,0.452 C72.203,0.061 73.115,0.34 73.506,1.074 L80.105,13.471 C80.496,14.205 80.217,15.117 79.483,15.508 L9.02,53.014 C8.286,53.404 7.373,53.126 6.983,52.392 Z M3.75,39.908 L8.934,49.646 L76.738,13.555 L71.554,3.817 L3.75,39.908 Z" id="Shape"></path>
                    </g>
                    <g id="XMLID_240_" transform="translate(71.000000, 1.000000)">
                        <rect id="Rectangle" transform="translate(30.204515, 22.326246) rotate(-118.028335) translate(-30.204515, -22.326246) " x="21.1681723" y="-4.59478691" width="18.0726864" height="53.8420658"></rect>
                        <path d="M9.401,43.68 L0.909,27.726 C0.518,26.992 0.797,26.08 1.531,25.689 L49.06,0.39 C49.794,-0.001 50.706,0.278 51.097,1.012 L59.589,16.966 C59.98,17.7 59.701,18.612 58.967,19.003 L11.438,44.302 C10.704,44.693 9.792,44.414 9.401,43.68 Z M4.276,27.641 L11.353,40.936 L56.223,17.052 L49.146,3.757 L4.276,27.641 Z" id="Shape"></path>
                    </g>
                    <g id="XMLID_239_" transform="translate(120.000000, 1.000000)">
                        <path d="M8.305,15.879 L1.706,3.481 L2.47,3.074 C5.893,1.252 10.171,2.558 11.994,5.981 L11.994,5.981 C13.816,9.404 12.51,13.682 9.087,15.505 L8.323,15.912 L8.305,15.879 Z" id="Path"></path>
                        <path d="M6.993,16.62 L0.376,4.189 C-0.015,3.455 0.264,2.543 0.998,2.152 L1.762,1.745 C5.922,-0.469 11.108,1.113 13.323,5.274 C15.537,9.434 13.954,14.62 9.794,16.835 L9.03,17.242 C8.296,17.633 7.383,17.354 6.993,16.62 Z M3.76,4.136 L8.927,13.843 C11.206,12.269 11.997,9.193 10.664,6.69 C9.332,4.186 6.339,3.124 3.76,4.136 Z" id="Shape"></path>
                    </g>
                    <g id="XMLID_238_" transform="translate(79.000000, 0.000000)">
                        <path d="M0.853,18.569 C0.462,17.835 0.741,16.923 1.475,16.532 L31.156,0.733 C31.89,0.342 32.802,0.621 33.193,1.355 C33.584,2.089 33.305,3.001 32.571,3.392 L2.89,19.191 C2.156,19.582 1.244,19.303 0.853,18.569 Z" id="Path"></path>
                    </g>
                    <g id="XMLID_237_" transform="translate(104.000000, 3.000000)">
                        <path d="M3.207,6.938 L0.748,2.318 C0.357,1.584 0.636,0.672 1.37,0.281 C2.104,-0.11 3.016,0.169 3.407,0.903 L5.866,5.523 C6.257,6.257 5.978,7.169 5.244,7.56 C4.51,7.951 3.598,7.672 3.207,6.938 Z" id="Path"></path>
                    </g>
                    <g id="XMLID_236_" transform="translate(0.000000, 67.000000)">
                        <path d="M9.534,11.221 C6.908,12.619 3.649,11.624 2.251,8.998 C0.853,6.372 1.848,3.113 4.474,1.715 L9.534,11.221 Z" id="Path"></path>
                        <path d="M0.921,9.706 C-0.864,6.352 0.412,2.171 3.766,0.386 C4.5,-0.005 5.412,0.274 5.803,1.008 L10.863,10.514 C11.254,11.248 10.975,12.16 10.241,12.551 C6.887,14.336 2.707,13.06 0.921,9.706 Z M3.995,4.022 C3.043,5.196 2.826,6.875 3.58,8.291 C4.334,9.708 5.847,10.465 7.353,10.331 L3.995,4.022 Z" id="Shape"></path>
                    </g>
                </g>
                <g id="XMLID_167_" transform="translate(1.000000, 0.000000)" fill="#472B29">
                    <g id="XMLID_175_" transform="translate(2.000000, 28.000000)">
                        <path d="M7.714,52.631 L1.115,40.234 C0.724,39.5 1.003,38.588 1.737,38.197 L72.2,0.69 C72.934,0.299 73.846,0.578 74.237,1.312 L80.836,13.709 C81.227,14.443 80.948,15.355 80.214,15.746 L9.751,53.252 C9.017,53.644 8.105,53.365 7.714,52.631 Z M4.482,40.148 L9.666,49.886 L77.47,13.795 L72.286,4.057 L4.482,40.148 Z" id="Shape"></path>
                    </g>
                    <g id="XMLID_172_" transform="translate(72.000000, 1.000000)">
                        <path d="M9.132,43.92 L0.64,27.966 C0.249,27.232 0.528,26.32 1.262,25.929 L48.791,0.63 C49.525,0.239 50.437,0.518 50.828,1.252 L59.32,17.206 C59.711,17.94 59.432,18.852 58.698,19.243 L11.169,44.542 C10.435,44.932 9.523,44.654 9.132,43.92 Z M4.007,27.88 L11.084,41.175 L55.954,17.291 L48.877,3.996 L4.007,27.88 Z" id="Shape"></path>
                    </g>
                    <g id="XMLID_171_" transform="translate(120.000000, 1.000000)">
                        <path d="M7.724,16.859 L1.107,4.428 C0.716,3.694 0.995,2.782 1.729,2.391 L2.493,1.984 C6.653,-0.23 11.839,1.352 14.054,5.513 C16.268,9.673 14.685,14.859 10.525,17.074 L9.761,17.481 C9.027,17.872 8.115,17.594 7.724,16.859 Z M4.492,4.375 L9.659,14.082 C11.938,12.508 12.729,9.432 11.396,6.929 C10.063,4.426 7.07,3.364 4.492,4.375 Z" id="Shape"></path>
                    </g>
                    <g id="XMLID_170_" transform="translate(80.000000, 0.000000)">
                        <path d="M0.585,18.809 C0.194,18.075 0.473,17.163 1.207,16.772 L30.888,0.973 C31.622,0.582 32.534,0.861 32.925,1.595 C33.316,2.329 33.037,3.241 32.303,3.632 L2.622,19.431 C1.888,19.821 0.975,19.543 0.585,18.809 Z" id="Path"></path>
                    </g>
                    <g id="XMLID_169_" transform="translate(105.000000, 3.000000)">
                        <path d="M2.939,7.177 L0.48,2.557 C0.089,1.823 0.368,0.911 1.102,0.52 C1.836,0.129 2.748,0.408 3.139,1.142 L5.598,5.762 C5.989,6.496 5.71,7.408 4.976,7.799 C4.242,8.19 3.329,7.912 2.939,7.177 Z" id="Path"></path>
                    </g>
                    <g id="XMLID_168_" transform="translate(0.000000, 67.000000)">
                        <path d="M1.653,9.946 C-0.132,6.592 1.144,2.411 4.498,0.626 C5.232,0.235 6.144,0.514 6.535,1.248 L11.595,10.754 C11.986,11.488 11.707,12.4 10.973,12.791 C7.619,14.576 3.438,13.299 1.653,9.946 Z M4.727,4.261 C3.775,5.435 3.558,7.114 4.312,8.53 C5.066,9.947 6.579,10.704 8.085,10.57 L4.727,4.261 Z" id="Shape"></path>
                    </g>
                </g>
            </g>
        </g>
    </g>
</svg>