<?xml version="1.0" encoding="UTF-8"?>
<svg width="24px" height="24px" viewBox="0 0 24 24" version="1.1" xmlns="http://www.w3.org/2000/svg" xmlns:xlink="http://www.w3.org/1999/xlink">
    <!-- Generator: Sketch 61.2 (89653) - https://sketch.com -->
    <title>Icons/phone-call-white</title>
    <desc>Created with Sketch.</desc>
    <g id="Icons/phone-call" stroke="none" stroke-width="1" fill="none" fill-rule="evenodd">
        <path d="M7.10025628,0.999804585 L4.11,0.999804585 C3.26682274,1.00084276 2.46389789,1.35553943 1.89620694,1.97743203 C1.32846629,2.59937908 1.04826809,3.43130894 1.12405827,4.27000044 C1.47042057,7.53278385 2.5753004,10.6530797 4.35072012,13.3936996 C5.96005755,15.9263996 8.11360039,18.0799425 10.6536785,19.6940138 C13.3741258,21.4582649 16.4793206,22.5628939 19.7119777,22.9141485 C20.5712877,22.9919732 21.4056534,22.7097981 22.0281086,22.1387383 C22.6505637,21.5676786 23.0034205,20.7606587 22.9999918,19.915941 L23,16.92 C23.0374773,15.4219939 21.9280363,14.1125955 20.4196923,13.899805 C19.5254626,13.7818242 18.6562181,13.5652864 17.8196048,13.2531028 L17.6251746,13.1875097 C16.5815435,12.8747921 15.4406638,13.1538676 14.6568609,13.9289477 L13.936,14.648 L13.8171707,14.573579 C12.063418,13.4323209 10.5676791,11.936582 9.42642099,10.1828293 L9.351,10.063 L10.0671068,9.34710678 C10.8945749,8.51034851 11.1581548,7.27445166 10.7460523,6.17813912 C10.4347136,5.34378194 10.2181758,4.47453743 10.1014144,3.58924251 C9.88941546,2.08904097 8.60602003,0.98527671 7.10025628,0.999804585 Z M4.11111685,2.99980601 L7.11974372,2.99980601 C7.62174195,2.99496265 8.04959097,3.36292753 8.11984165,3.85995157 C8.25507024,4.88559547 8.50818534,5.90167182 8.87310275,6.87960484 C9.0113152,7.2472984 8.92345523,7.65926402 8.64894769,7.93686088 L7.38289322,9.20289322 C7.06458021,9.52120622 6.99819261,10.0129707 7.22070549,10.4042945 C8.73323318,13.064312 10.935688,15.2667668 13.5957055,16.7792945 C13.9870293,17.0018074 14.4787938,16.9354198 14.7971068,16.6171068 L16.0671068,15.3471068 C16.340736,15.0765448 16.7527016,14.9886848 17.1181391,15.1260523 C18.0983282,15.4918147 19.1144045,15.7449298 20.1492425,15.8814144 C20.643089,15.9511251 21.0129027,16.3875913 21.0003077,16.895195 L21,19.92 C21.0011511,20.2056315 20.8835322,20.4746382 20.6760472,20.6649914 C20.4685621,20.8553447 20.1904402,20.949403 19.9100082,20.924059 C17.0063472,20.6083877 14.1998725,19.6100241 11.7341012,18.0109804 C9.43405585,16.5493853 7.49061475,14.6059441 6.03401379,12.3136785 C4.42465571,9.82932831 3.42606543,7.00920526 3.11440873,4.07440043 C3.09067833,3.81043572 3.18407773,3.53312577 3.37332462,3.32581008 C3.56258117,3.11848381 3.83030633,3.00021468 4.11111685,2.99980601 Z" id="icon" fill="#FFFFFF"></path>
    </g>
</svg>