<?xml version="1.0" encoding="UTF-8"?>
<svg width="35px" height="38px" viewBox="0 0 35 38" version="1.1" xmlns="http://www.w3.org/2000/svg" xmlns:xlink="http://www.w3.org/1999/xlink">
    <!-- Generator: Sketch 61.2 (89653) - https://sketch.com -->
    <title>Objects/pin</title>
    <desc>Created with Sketch.</desc>
    <g id="Objects/pin" stroke="none" stroke-width="1" fill="none" fill-rule="evenodd">
        <g id="Pin" fill-rule="nonzero">
            <g id="XMLID_16_" opacity="0.4" transform="translate(4.000000, 0.000000)">
                <g id="XMLID_23_" transform="translate(0.000000, 1.000000)" fill="#2B5621">
                    <path d="M13.148,6.308 C13.453,4.536 13.489,2.148 12.66,0.606 L0.829,9.515 C2.082,10.738 4.378,11.351 6.174,11.559 C6.767,11.62 11.315,19.397 10.918,20.242 C9.524,23.263 9.3,26.905 10.367,30.395 L30.093,15.54 C27.034,13.551 23.471,12.759 20.183,13.265 C19.261,13.414 13.053,6.907 13.148,6.308 Z" id="Path"></path>
                </g>
                <g id="XMLID_20_" fill="#2D2D2D">
                    <path d="M0.205,10.476 C0.219,10.293 0.313,10.126 0.453,10.017 L12.29,1.111 C12.43,1.003 12.615,0.961 12.793,0.999 C12.971,1.037 13.124,1.149 13.211,1.314 C14.282,3.305 13.956,6.214 13.79,7.265 C14.359,8.324 19.13,13.243 20.173,13.64 C23.649,13.128 27.288,13.968 30.435,16.017 C30.604,16.127 30.709,16.314 30.7211252,16.519 C30.725,16.724 30.633,16.915 30.471,17.041 L22.664,22.923 L29.699,35.519 C29.852,35.789 29.783,36.135 29.532,36.326 C29.281,36.509 28.939,36.487 28.712,36.264 L18.554,26.019 L10.746,31.893 C10.584,32.019 10.367,32.056 10.178,31.988 C9.982,31.928 9.833,31.776 9.774,31.577 C8.674,27.985 8.864,24.251 10.316,21.058 C10.224,19.952 6.816,14.007 5.96,13.166 C4.695,13.004 1.957,12.488 0.394,10.964 C0.263,10.834 0.199,10.658 0.205,10.476 Z" id="Path"></path>
                </g>
            </g>
            <path d="M13.365,8.245 C13.67,6.473 13.706,4.085 12.877,2.543 L1.046,11.452 C2.299,12.675 4.595,13.288 6.391,13.496 C6.984,13.557 11.532,21.334 11.135,22.179 C9.741,25.2 9.517,28.842 10.584,32.332 L30.31,17.477 C27.251,15.488 23.688,14.696 20.4,15.202 C19.478,15.351 13.26,8.831 13.365,8.245 Z" id="XMLID_22_" fill="#F42222"></path>
            <path d="M13.365,8.245 C13.67,6.473 13.706,4.085 12.877,2.543 L1.046,11.452 C2.299,12.675 4.595,13.288 6.391,13.496 C6.984,13.557 11.532,21.334 11.135,22.179 C9.741,25.2 9.517,28.842 10.584,32.332 L30.31,17.477 C27.251,15.488 23.688,14.696 20.4,15.202 C19.478,15.351 13.26,8.831 13.365,8.245 Z" id="XMLID_4_" fill="#EE3249"></path>
            <path d="M20.4,15.203 C19.468,15.339 13.26,8.832 13.365,8.245 C13.67,6.473 13.706,4.085 12.877,2.543 L11.918,3.265 C12.747,4.807 12.702,7.183 12.406,8.967 C12.301,9.553 18.518,16.073 19.441,15.925 C22.729,15.42 26.292,16.211 29.351,18.2 L30.31,17.478 C27.238,15.498 23.698,14.71 20.4,15.203 Z" id="XMLID_11_" fill="#F42222"></path>
            <path d="M5.692,7.954 C3.911,9.295 3.911,9.295 3.911,9.295 C3.911,9.295 4.917,11.797 7.894,11.604 L13.705,20.694 C13.705,20.694 12.011,24.975 14.716,29.241 L17.057,27.478 C17.057,27.478 13.978,23.493 14.707,20.056 L8.563,11.12 C8.541,11.116 6.447,10.176 5.692,7.954 Z" id="XMLID_32_" fill="#FF7676"></path>
            <polygon id="XMLID_21_" fill="#E8E8E8" points="22.075 23.699 18.838 26.137 29.375 36.761"></polygon>
            <g id="XMLID_5_" transform="translate(0.000000, 1.000000)" fill="#102D3B">
                <g id="XMLID_14_">
                    <path d="M30.685,16.976 L10.959,31.831 C10.797,31.953 10.585,31.989 10.391,31.926 C10.198,31.863 10.047,31.71 9.987,31.515 C8.888,27.921 9.083,24.189 10.533,20.994 C10.443,19.889 7.034,13.94 6.173,13.098 C4.91,12.938 2.174,12.426 0.61,10.898 C0.48,10.771 0.412,10.593 0.423,10.412 C0.434,10.231 0.525,10.063 0.67,9.954 L12.501,1.045 C12.646,0.936 12.832,0.895 13.01,0.934 C13.188,0.973 13.339,1.088 13.426,1.248 C14.499,3.243 14.172,6.149 14.004,7.204 C14.579,8.266 19.351,13.183 20.388,13.574 C23.862,13.063 27.501,13.908 30.65,15.955 C30.821,16.066 30.926,16.253 30.933,16.456 C30.94,16.66 30.848,16.854 30.685,16.976 Z M10.943,30.282 L29.201,16.533 C26.47,14.979 23.41,14.372 20.495,14.819 C20.184,14.869 19.529,14.974 16.04,11.423 C12.609,7.932 12.706,7.394 12.752,7.135 C12.993,5.735 13.057,3.895 12.615,2.522 L2.062,10.469 C3.089,11.157 4.67,11.668 6.465,11.877 C6.719,11.903 7.262,11.959 9.671,16.223 C12.119,20.556 11.837,21.157 11.701,21.445 C10.465,24.12 10.204,27.228 10.943,30.282 Z" id="Shape"></path>
                </g>
                <g id="XMLID_19_" transform="translate(18.000000, 22.000000)">
                    <path d="M11.75,14.259 C11.501,14.447 11.152,14.421 10.932,14.2 L0.395,3.576 C0.268,3.448 0.203,3.272 0.216,3.092 C0.229,2.912 0.319,2.747 0.463,2.639 L3.701,0.201 C3.845,0.093 4.029,0.052 4.205,0.089 C4.381,0.126 4.533,0.238 4.621,0.395 L11.92,13.457 C12.071,13.729 11.999,14.071 11.75,14.259 Z M1.784,3.205 L8.606,10.083 L3.88,1.627 L1.784,3.205 Z" id="Shape"></path>
                </g>
            </g>
        </g>
    </g>
</svg>