<?xml version="1.0" encoding="UTF-8"?>
<svg width="80px" height="80px" viewBox="0 0 80 80" version="1.1" xmlns="http://www.w3.org/2000/svg" xmlns:xlink="http://www.w3.org/1999/xlink">
    <!-- Generator: Sketch 61.2 (89653) - https://sketch.com -->
    <title>Icons (Decorative)/sent</title>
    <desc>Created with Sketch.</desc>
    <defs>
        <path d="M66,1 C65.4477153,1 65,1.44771525 65,2 C65,2.55228475 65.4477153,3 66,3 C66.5522847,3 67,2.55228475 67,2 C67,1.44771525 66.5522847,1 66,1 Z" id="path-1"></path>
        <path d="M72,0 C69.790861,0 68,1.790861 68,4 C68,6.209139 69.790861,8 72,8 C74.209139,8 76,6.209139 76,4 C76,1.790861 74.209139,0 72,0 Z" id="path-2"></path>
        <path d="M70,63 C68.8954305,63 68,63.8954305 68,65 C68,66.1045695 68.8954305,67 70,67 C71.1045695,67 72,66.1045695 72,65 C72,63.8954305 71.1045695,63 70,63 Z M4,48 C1.790861,48 0,49.790861 0,52 C0,54.209139 1.790861,56 4,56 C6.209139,56 8,54.209139 8,52 C8,49.790861 6.209139,48 4,48 Z" id="path-3"></path>
        <path d="M10,55 C9.44771525,55 9,55.4477153 9,56 C9,56.5522847 9.44771525,57 10,57 C10.5522847,57 11,56.5522847 11,56 C11,55.4477153 10.5522847,55 10,55 Z" id="path-4"></path>
        <polygon id="path-5" points="4.501 0.39 5.51 2.436 7.766 2.763 6.134 4.355 6.519 6.602 4.501 5.54 2.483 6.602 2.868 4.355 1.236 2.763 3.492 2.436"></polygon>
        <polygon id="path-6" points="4.501 0.39 5.51 2.436 7.766 2.763 6.134 4.355 6.519 6.602 4.501 5.54 2.483 6.602 2.868 4.355 1.236 2.763 3.492 2.436"></polygon>
        <polygon id="path-7" points="5.027 0.377 6.345 3.05 9.294 3.477 7.16 5.558 7.664 8.496 5.027 7.108 2.388 8.496 2.892 5.558 0.758 3.477 3.707 3.05"></polygon>
    </defs>
    <g id="Icons-(Decorative)/sent" stroke="none" stroke-width="1" fill="none" fill-rule="evenodd">
        <g id="icons8-sent" transform="translate(1.000000, 1.000000)">
            <path d="M2,16 C0.8954305,16 0,16.8954305 0,18 C0,19.1045695 0.8954305,20 2,20 C3.1045695,20 4,19.1045695 4,18 C4,16.8954305 3.1045695,16 2,16 Z" id="Path" fill="#EE3E54" fill-rule="nonzero"></path>
            <g id="Path">
                <use fill="#F5684F" xlink:href="#path-1"></use>
                <use fill="#FF7D54" xlink:href="#path-1"></use>
                <use fill="#FF6755" xlink:href="#path-1"></use>
                <use fill="#FFA949" xlink:href="#path-1"></use>
            </g>
            <path d="M39,2 C18.5654643,2 2,18.5654643 2,39 C2,59.4345357 18.5654643,76 39,76 C59.4345357,76 76,59.4345357 76,39 C76,18.5654643 59.4345357,2 39,2 Z" id="Path" fill="#FCE0A2" fill-rule="nonzero"></path>
            <g id="Path">
                <use fill="#F5684F" xlink:href="#path-2"></use>
                <use fill="#FF7D54" xlink:href="#path-2"></use>
                <use fill="#FF6755" xlink:href="#path-2"></use>
                <use fill="#FFA949" xlink:href="#path-2"></use>
            </g>
            <path d="M76,11 C74.8954305,11 74,11.8954305 74,13 C74,14.1045695 74.8954305,15 76,15 C77.1045695,15 78,14.1045695 78,13 C78,11.8954305 77.1045695,11 76,11 Z" id="Path" fill="#EE3E54" fill-rule="nonzero"></path>
            <g id="Shape">
                <use fill="#F5684F" xlink:href="#path-3"></use>
                <use fill="#FF7D54" xlink:href="#path-3"></use>
                <use fill="#FF6755" xlink:href="#path-3"></use>
                <use fill="#FFA949" xlink:href="#path-3"></use>
            </g>
            <path d="M14,74 C12.8954305,74 12,74.8954305 12,76 C12,77.1045695 12.8954305,78 14,78 C15.1045695,78 16,77.1045695 16,76 C16,74.8954305 15.1045695,74 14,74 Z" id="Path" fill="#EE3E54" fill-rule="nonzero"></path>
            <g id="Path">
                <use fill="#F5684F" xlink:href="#path-4"></use>
                <use fill="#FF7D54" xlink:href="#path-4"></use>
                <use fill="#FF6755" xlink:href="#path-4"></use>
                <use fill="#FFA949" xlink:href="#path-4"></use>
            </g>
            <path d="M69,22 C68.4477153,22 68,22.4477153 68,23 C68,23.5522847 68.4477153,24 69,24 C69.5522847,24 70,23.5522847 70,23 C70,22.4477153 69.5522847,22 69,22 Z" id="Path" fill="#FFFFFF" fill-rule="nonzero"></path>
            <g id="Group" transform="translate(51.000000, 55.000000)">
                <g id="Path">
                    <use fill="#F5684F" xlink:href="#path-5"></use>
                    <use fill="#FF7D54" xlink:href="#path-5"></use>
                    <use fill="#FF6755" xlink:href="#path-5"></use>
                    <use fill="#FFA949" xlink:href="#path-5"></use>
                </g>
                <path d="M6.52,6.999 C6.456,6.999 6.394,6.984 6.335,6.954 L4.502,5.99 L2.669,6.954 C2.535,7.025 2.374,7.013 2.25,6.925 C2.129,6.837 2.067,6.686 2.092,6.536 L2.443,4.494 L0.959,3.049 C0.85,2.942 0.812,2.786 0.858,2.642 C0.904,2.498 1.028,2.394 1.178,2.372 L3.229,2.074 L4.147,0.217 C4.28,-0.053 4.726,-0.053 4.858,0.217 L5.776,2.074 L7.826,2.372 C7.976,2.395 8.099,2.498 8.146,2.642 C8.193,2.786 8.154,2.944 8.045,3.049 L6.562,4.494 L6.913,6.536 C6.938,6.686 6.878,6.837 6.755,6.925 C6.683,6.973 6.601,6.999 6.52,6.999 Z M4.501,5.144 C4.565,5.144 4.628,5.159 4.686,5.189 L5.992,5.875 L5.742,4.421 C5.719,4.292 5.762,4.161 5.857,4.068 L6.913,3.038 L5.453,2.826 C5.325,2.807 5.213,2.725 5.155,2.609 L4.502,1.286 L3.849,2.609 C3.791,2.726 3.68,2.808 3.551,2.826 L2.09,3.038 L3.147,4.068 C3.241,4.16 3.283,4.29 3.262,4.421 L3.012,5.875 L4.318,5.189 C4.374,5.159 4.438,5.144 4.501,5.144 Z" id="Shape" fill="#472B29" fill-rule="nonzero"></path>
            </g>
            <g id="Group" transform="translate(39.000000, 10.000000)">
                <g id="Path">
                    <use fill="#F5684F" xlink:href="#path-6"></use>
                    <use fill="#FF7D54" xlink:href="#path-6"></use>
                    <use fill="#FF6755" xlink:href="#path-6"></use>
                    <use fill="#FFA949" xlink:href="#path-6"></use>
                </g>
                <path d="M6.52,6.999 C6.456,6.999 6.394,6.984 6.335,6.954 L4.502,5.99 L2.669,6.954 C2.535,7.025 2.374,7.013 2.25,6.925 C2.129,6.837 2.067,6.686 2.092,6.536 L2.443,4.494 L0.959,3.049 C0.85,2.942 0.812,2.786 0.858,2.642 C0.905,2.498 1.028,2.394 1.178,2.372 L3.229,2.074 L4.147,0.217 C4.28,-0.053 4.726,-0.053 4.858,0.217 L5.776,2.074 L7.826,2.372 C7.976,2.395 8.099,2.498 8.146,2.642 C8.193,2.786 8.154,2.944 8.045,3.049 L6.562,4.494 L6.913,6.536 C6.938,6.686 6.878,6.837 6.755,6.925 C6.683,6.973 6.601,6.999 6.52,6.999 Z M4.501,5.144 C4.565,5.144 4.628,5.159 4.686,5.189 L5.992,5.875 L5.742,4.421 C5.719,4.292 5.762,4.161 5.857,4.068 L6.913,3.038 L5.453,2.826 C5.325,2.807 5.213,2.725 5.155,2.609 L4.502,1.286 L3.849,2.609 C3.791,2.726 3.68,2.808 3.551,2.826 L2.09,3.038 L3.147,4.068 C3.241,4.16 3.283,4.29 3.262,4.421 L3.012,5.875 L4.318,5.189 C4.374,5.159 4.438,5.144 4.501,5.144 Z" id="Shape" fill="#472B29" fill-rule="nonzero"></path>
            </g>
            <g id="Group" transform="translate(10.000000, 22.000000)">
                <g id="Path">
                    <use fill="#F5684F" xlink:href="#path-7"></use>
                    <use fill="#FF7D54" xlink:href="#path-7"></use>
                    <use fill="#FF6755" xlink:href="#path-7"></use>
                    <use fill="#FFA949" xlink:href="#path-7"></use>
                </g>
                <path d="M7.664,8.892 C7.6,8.892 7.538,8.877 7.479,8.847 L5.025,7.558 L2.573,8.847 C2.438,8.918 2.277,8.906 2.154,8.818 C2.033,8.73 1.971,8.579 1.996,8.429 L2.464,5.699 L0.479,3.765 C0.37,3.658 0.332,3.502 0.378,3.358 C0.425,3.215 0.548,3.11 0.698,3.088 L3.442,2.689 L4.668,0.205 C4.801,-0.065 5.247,-0.065 5.379,0.205 L6.606,2.689 L9.349,3.088 C9.499,3.111 9.622,3.214 9.669,3.358 C9.716,3.502 9.677,3.66 9.568,3.765 L7.584,5.699 L8.052,8.429 C8.077,8.579 8.017,8.73 7.894,8.818 C7.828,8.866 7.747,8.892 7.664,8.892 Z M5.026,6.713 C5.09,6.713 5.152,6.728 5.211,6.758 L7.137,7.77 L6.769,5.626 C6.746,5.497 6.789,5.366 6.884,5.273 L8.441,3.754 L6.288,3.442 C6.16,3.423 6.048,3.341 5.99,3.225 L5.026,1.274 L4.063,3.225 C4.005,3.342 3.894,3.424 3.765,3.442 L1.611,3.754 L3.17,5.273 C3.264,5.365 3.306,5.495 3.285,5.626 L2.917,7.77 L4.842,6.758 C4.898,6.727 4.963,6.713 5.026,6.713 Z" id="Shape" fill="#472B29" fill-rule="nonzero"></path>
            </g>
            <g id="Group" transform="translate(26.000000, 27.000000)" fill-rule="nonzero">
                <path d="M13.153,19.734 C13.033,19.568 12.847,19.463 12.643,19.446 L4.165,18.747 L7.151,11.154 C7.228,10.959 7.213,10.74 7.11,10.556 L1.719,0.916 L45.557,3.781 L16.964,25.015 L13.153,19.734 Z" id="Path" fill="#88CDD7"></path>
                <path d="M2.959,1.699 L43.61,4.356 L17.117,24.03 L13.721,19.325 C13.481,18.993 13.109,18.783 12.701,18.749 L5.162,18.127 L7.803,11.411 C7.957,11.021 7.927,10.582 7.722,10.215 L2.959,1.699 M0.48,0.134 L6.5,10.899 L3.169,19.367 L12.585,20.144 L16.812,26 L47.505,3.208 L0.48,0.134 L0.48,0.134 Z" id="Shape" fill="#472B29"></path>
                <polygon id="Path" fill="#77CBD2" points="4.336 18.873 10.302 15.12 45.738 3.75 7.52 10.407"></polygon>
                <path d="M3.966,19.329 C3.769,19.169 3.698,18.903 3.787,18.667 L6.97,10.2 C7.043,10.004 7.214,9.863 7.419,9.827 L45.637,3.17 C45.946,3.116 46.237,3.309 46.31,3.609 C46.383,3.91 46.211,4.215 45.918,4.309 L10.551,15.656 L4.649,19.372 C4.521,19.452 4.371,19.479 4.229,19.452 C4.134,19.434 4.042,19.393 3.966,19.329 Z M7.951,10.928 L5.501,17.445 L9.987,14.621 C10.03,14.595 10.074,14.575 10.122,14.56 L37.455,5.79 L7.951,10.928 Z" id="Shape" fill="#472B29"></path>
                <path d="M4.229,19.452 C4.369,19.478 4.518,19.453 4.649,19.372 L10.551,15.656 L45.917,4.31 C46.211,4.216 46.382,3.911 46.309,3.611 C46.237,3.312 45.948,3.117 45.64,3.169 L7.005,9.632 C6.684,9.685 6.468,9.989 6.522,10.31 C6.574,10.631 6.875,10.848 7.2,10.793 L37.83,5.668 L10.12,14.559 C10.073,14.574 10.028,14.595 9.985,14.62 L4.02,18.374 C3.744947,18.548 3.662,18.911 3.836,19.186 C3.929,19.332 4.073,19.423 4.229,19.452 Z" id="Path" fill="#472B29"></path>
                <path d="M13.202,20.563 C13.341,20.589 13.489,20.564 13.619,20.484 C13.895,20.313 13.98,19.951 13.809,19.674 L10.801,14.808 C10.628,14.533 10.267,14.447 9.991,14.618 C9.715,14.789 9.63,15.151 9.801,15.428 L12.809,20.294 C12.901,20.44 13.045,20.534 13.202,20.563 Z M17.216,8.984 C16.649,10.505 16.084,12.028 15.517,13.549 C15.385,13.903 14.857,13.645 14.988,13.292 C15.555,11.771 16.12,10.248 16.687,8.727 C16.819,8.374 17.348,8.632 17.216,8.984 L17.216,8.984 Z M20.313,8.34 C19.829,9.756 19.346,11.17 18.863,12.586 C18.741,12.943 18.212,12.684 18.334,12.329 C18.818,10.913 19.301,9.499 19.784,8.083 C19.905,7.727 20.434,7.986 20.313,8.34 L20.313,8.34 Z M23.688,7.728 C23.191,8.991 22.693,10.253 22.196,11.517 C22.057,11.868 21.528,11.611 21.667,11.26 C22.164,9.997 22.662,8.735 23.159,7.471 C23.297,7.12 23.826,7.378 23.688,7.728 L23.688,7.728 Z M27.251,7.125 C26.823,8.159 26.428,9.206 26,10.239 C25.855,10.589 25.326,10.331 25.471,9.982 C25.899,8.948 26.294,7.901 26.722,6.868 C26.866,6.519 27.396,6.776 27.251,7.125 L27.251,7.125 Z M30.551,6.57 C30.215,7.384 29.88,8.197 29.544,9.01 C29.399,9.36 28.87,9.102 29.015,8.753 C29.351,7.939 29.686,7.126 30.022,6.313 C30.166,5.962 30.695,6.219 30.551,6.57 L30.551,6.57 Z M34.36,5.953 C34.146,6.554 33.934,7.154 33.72,7.755 C33.593,8.111 33.064,7.852 33.191,7.498 C33.405,6.897 33.617,6.297 33.831,5.696 C33.956,5.34 34.485,5.599 34.36,5.953 L34.36,5.953 Z M14.02,9.436 C13.409,11.035 12.799,12.635 12.188,14.234 C12.053,14.587 11.524,14.329 11.659,13.977 C12.27,12.378 12.88,10.778 13.491,9.179 C13.625,8.826 14.154,9.083 14.02,9.436 L14.02,9.436 Z" id="Shape" fill="#472B29"></path>
                <path d="M10.635,9.901 C9.838,12.044 9.041,14.185 8.243,16.328 C8.111,16.682 7.583,16.424 7.714,16.071 C8.511,13.928 9.308,11.787 10.106,9.644 C10.237,9.29 10.766,9.548 10.635,9.901 L10.635,9.901 Z" id="Path" fill="#472B29"></path>
            </g>
            <path d="M10.539,50.775 C10.418,50.775 10.298,50.732 10.202,50.644 C9.998,50.458 9.983,50.142 10.169,49.938 C12.398,47.494 15.1,47.285 17.445,47.403 C17.721,47.417 17.933,47.651 17.92,47.927 C17.906,48.201 17.658,48.437 17.396,48.401 C14.355,48.254 12.479,48.889 10.909,50.612 C10.81,50.721 10.675,50.775 10.539,50.775 Z M20.052,48.597 C19.716,48.597 19.383,48.578 19.055,48.542 C18.781,48.512 18.583,48.265 18.613,47.99 C18.643,47.715 18.885,47.53 19.165,47.548 C20.047,47.646 20.977,47.594 21.924,47.397 C22.193,47.337 22.459,47.513 22.516,47.784 C22.573,48.055 22.399,48.319 22.129,48.376 C21.427,48.522 20.732,48.597 20.052,48.597 Z M23.927,47.811 C23.728,47.811 23.54,47.692 23.462,47.496 C23.36,47.239 23.486,46.948 23.743,46.847 C25.038,46.334 25.878,45.738 25.886,45.732 C26.111,45.572 26.423,45.623 26.584,45.847 C26.745,46.071 26.694,46.383 26.47,46.544 C26.432,46.57 25.529,47.215 24.112,47.776 C24.051,47.8 23.989,47.811 23.927,47.811 Z M12.073,54.457 C11.95,54.457 11.827,54.412 11.731,54.321 C11.53,54.133 11.52,53.816 11.709,53.614 C13.982,51.193 16.904,51.355 19.724,51.512 C22.416,51.657 24.961,51.8 27.083,49.902 C27.289,49.717 27.605,49.734 27.789,49.94 C27.973,50.146 27.956,50.462 27.75,50.646 C25.319,52.823 22.445,52.664 19.669,52.51 C16.956,52.362 14.392,52.219 12.438,54.299 C12.339,54.404 12.207,54.457 12.073,54.457 Z M9.279,46.074 C9.156,46.074 9.033,46.029 8.937,45.938 C8.736,45.75 8.726,45.433 8.915,45.231 C11.188,42.812 14.107,42.974 16.93,43.129 C19.625,43.278 22.167,43.419 24.289,41.52 C24.494,41.335 24.811,41.354 24.995,41.558 C25.179,41.764 25.162,42.08 24.956,42.264 C22.525,44.44 19.652,44.279 16.874,44.128 C14.165,43.979 11.599,43.836 9.643,45.916 C9.545,46.021 9.413,46.074 9.279,46.074 Z" id="Shape" fill="#472B29" fill-rule="nonzero"></path>
        </g>
    </g>
</svg>