<?xml version="1.0" encoding="UTF-8"?>
<svg width="24px" height="24px" viewBox="0 0 24 24" version="1.1" xmlns="http://www.w3.org/2000/svg" xmlns:xlink="http://www.w3.org/1999/xlink">
    <!-- Generator: Sketch 61.2 (89653) - https://sketch.com -->
    <title>Icons/shopping-bag-white</title>
    <desc>Created with Sketch.</desc>
    <g id="Icons/shopping-bag" stroke="none" stroke-width="1" fill="none" fill-rule="evenodd">
        <path d="M18,1 C18.3147573,1 18.6111456,1.14819416 18.8,1.4 L18.8,1.4 L21.8,5.4 C21.8043274,5.40576987 21.8085885,5.41158134 21.812783,5.41743324 C21.831658,5.44361915 21.8489689,5.47034236 21.8650005,5.49790161 C21.8693469,5.5057093 21.8738559,5.51372543 21.878251,5.52179731 C21.8924302,5.54739109 21.9053477,5.57375044 21.9171096,5.60072935 C21.9223331,5.61336949 21.9274431,5.62579393 21.9322999,5.63831326 C21.9626188,5.71563895 21.9833398,5.79786363 21.9932723,5.88337887 L22,6 L22,20 C22,21.6568542 20.6568542,23 19,23 L19,23 L5,23 C3.34314575,23 2,21.6568542 2,20 L2,20 L2,6 L2,6 C2,5.87237117 2.02390966,5.75032674 2.06749414,5.63810154 C2.07255689,5.62579393 2.07766695,5.61336949 2.08302767,5.60104779 C2.0946523,5.57375044 2.10756976,5.54739109 2.12158028,5.52171383 C2.14475139,5.4795518 2.17087469,5.43883375 2.2,5.4 L2.13442774,5.4988857 C2.16065022,5.45368938 2.19031106,5.41073579 2.22305227,5.3703829 L5.2,1.4 C5.38885438,1.14819416 5.6852427,1 6,1 L6,1 Z M20,7 L4,7 L4,20 C4,20.4733869 4.32893365,20.8699473 4.77070917,20.9735893 L4.88337887,20.9932723 L5,21 L19,21 C19.5522847,21 20,20.5522847 20,20 L20,20 L20,7 Z M16,9 C16.5522847,9 17,9.44771525 17,10 C17,12.7614237 14.7614237,15 12,15 C9.23857625,15 7,12.7614237 7,10 C7,9.44771525 7.44771525,9 8,9 C8.55228475,9 9,9.44771525 9,10 C9,11.6568542 10.3431458,13 12,13 C13.5976809,13 14.9036609,11.75108 14.9949073,10.1762728 L15,10 C15,9.44771525 15.4477153,9 16,9 Z M17.5,3 L6.5,3 L5,5 L19,5 L17.5,3 Z" id="icon" fill="#FFFFFF"></path>
    </g>
</svg>