<?xml version="1.0" encoding="UTF-8"?>
<svg width="80px" height="80px" viewBox="0 0 80 80" version="1.1" xmlns="http://www.w3.org/2000/svg" xmlns:xlink="http://www.w3.org/1999/xlink">
    <!-- Generator: Sketch 61.2 (89653) - https://sketch.com -->
    <title>Icons (Decorative)/smartphone-tablet</title>
    <desc>Created with Sketch.</desc>
    <defs>
        <path d="M66,1 C65.4477153,1 65,1.44771525 65,2 C65,2.55228475 65.4477153,3 66,3 C66.5522847,3 67,2.55228475 67,2 C67,1.44771525 66.5522847,1 66,1 Z" id="path-1"></path>
        <path d="M72,0 C69.790861,0 68,1.790861 68,4 C68,6.209139 69.790861,8 72,8 C74.209139,8 76,6.209139 76,4 C76,1.790861 74.209139,0 72,0 Z" id="path-2"></path>
        <path d="M70,63 C68.8954305,63 68,63.8954305 68,65 C68,66.1045695 68.8954305,67 70,67 C71.1045695,67 72,66.1045695 72,65 C72,63.8954305 71.1045695,63 70,63 Z M4,48 C1.790861,48 0,49.790861 0,52 C0,54.209139 1.790861,56 4,56 C6.209139,56 8,54.209139 8,52 C8,49.790861 6.209139,48 4,48 Z" id="path-3"></path>
    </defs>
    <g id="Icons-(Decorative)/smartphone-tablet" stroke="none" stroke-width="1" fill="none" fill-rule="evenodd">
        <g id="icons8-smartphone_tablet" transform="translate(1.000000, 1.000000)">
            <g id="Path">
                <use fill="#F5684F" xlink:href="#path-1"></use>
                <use fill="#FF7D54" xlink:href="#path-1"></use>
                <use fill="#FF6755" xlink:href="#path-1"></use>
                <use fill="#FFA949" xlink:href="#path-1"></use>
            </g>
            <path d="M39,2 C18.5654643,2 2,18.5654643 2,39 C2,59.4345357 18.5654643,76 39,76 C59.4345357,76 76,59.4345357 76,39 C76,18.5654643 59.4345357,2 39,2 Z" id="Path" fill="#E6EDB7" fill-rule="nonzero"></path>
            <g id="Path">
                <use fill="#F5684F" xlink:href="#path-2"></use>
                <use fill="#FF7D54" xlink:href="#path-2"></use>
                <use fill="#FF6755" xlink:href="#path-2"></use>
                <use fill="#FFA949" xlink:href="#path-2"></use>
            </g>
            <path d="M76,11 C74.8954305,11 74,11.8954305 74,13 C74,14.1045695 74.8954305,15 76,15 C77.1045695,15 78,14.1045695 78,13 C78,11.8954305 77.1045695,11 76,11 Z" id="Path" fill="#88AE45" fill-rule="nonzero"></path>
            <g id="Shape">
                <use fill="#F5684F" xlink:href="#path-3"></use>
                <use fill="#FF7D54" xlink:href="#path-3"></use>
                <use fill="#FF6755" xlink:href="#path-3"></use>
                <use fill="#FFA949" xlink:href="#path-3"></use>
            </g>
            <path d="M14,74 C12.8954305,74 12,74.8954305 12,76 C12,77.1045695 12.8954305,78 14,78 C15.1045695,78 16,77.1045695 16,76 C16,74.8954305 15.1045695,74 14,74 Z" id="Path" fill="#88AE45" fill-rule="nonzero"></path>
            <path d="M7.5,38 C6.11928813,38 5,39.1192881 5,40.5 C5,41.8807119 6.11928813,43 7.5,43 C8.88071187,43 10,41.8807119 10,40.5 C10,39.1192881 8.88071187,38 7.5,38 Z M68.5,21 C67.6715729,21 67,21.6715729 67,22.5 C67,23.3284271 67.6715729,24 68.5,24 C69.3284271,24 70,23.3284271 70,22.5 C70,21.6715729 69.3284271,21 68.5,21 Z" id="Shape" fill="#FFFFFF" fill-rule="nonzero"></path>
            <path d="M60.75,44.5 L58.25,44.5 C57.836,44.5 57.5,44.164 57.5,43.75 L57.5,40.25 C57.5,39.836 57.836,39.5 58.25,39.5 L60.75,39.5 C61.164,39.5 61.5,39.836 61.5,40.25 L61.5,43.75 C61.5,44.164 61.164,44.5 60.75,44.5 Z" id="Path" fill="#E1E0D8" fill-rule="nonzero"></path>
            <path d="M60.75,44.75 L58.25,44.75 C57.698,44.75 57.25,44.302 57.25,43.75 L57.25,40.25 C57.25,39.698 57.698,39.25 58.25,39.25 L60.75,39.25 C61.302,39.25 61.75,39.698 61.75,40.25 L61.75,43.75 C61.75,44.302 61.302,44.75 60.75,44.75 Z M58.25,39.75 C57.975,39.75 57.75,39.975 57.75,40.25 L57.75,43.75 C57.75,44.025 57.975,44.25 58.25,44.25 L60.75,44.25 C61.025,44.25 61.25,44.025 61.25,43.75 L61.25,40.25 C61.25,39.975 61.025,39.75 60.75,39.75 L58.25,39.75 Z" id="Shape" fill="#472B29" fill-rule="nonzero"></path>
            <path d="M51.75,29.5 L49.25,29.5 C48.836,29.5 48.5,29.164 48.5,28.75 L48.5,24.25 C48.5,23.836 48.836,23.5 49.25,23.5 L51.75,23.5 C52.164,23.5 52.5,23.836 52.5,24.25 L52.5,28.75 C52.5,29.164 52.164,29.5 51.75,29.5 Z" id="Path" fill="#E1E0D8" fill-rule="nonzero"></path>
            <path d="M51.75,29.75 L49.25,29.75 C48.698,29.75 48.25,29.302 48.25,28.75 L48.25,24.25 C48.25,23.698 48.698,23.25 49.25,23.25 L51.75,23.25 C52.302,23.25 52.75,23.698 52.75,24.25 L52.75,28.75 C52.75,29.302 52.302,29.75 51.75,29.75 Z M49.25,23.75 C48.975,23.75 48.75,23.975 48.75,24.25 L48.75,28.75 C48.75,29.025 48.975,29.25 49.25,29.25 L51.75,29.25 C52.025,29.25 52.25,29.025 52.25,28.75 L52.25,24.25 C52.25,23.975 52.025,23.75 51.75,23.75 L49.25,23.75 Z" id="Shape" fill="#472B29" fill-rule="nonzero"></path>
            <path d="M22.119,60.3 C20.233,60.3 18.7,58.767 18.7,56.881 L18.7,19.119 C18.7,17.233 20.233,15.7 22.119,15.7 L47.881,15.7 C49.767,15.7 51.3,17.233 51.3,19.119 L51.3,56.881 C51.3,58.767 49.767,60.3 47.881,60.3 L22.119,60.3 Z" id="Path" fill="#E1E0D8" fill-rule="nonzero"></path>
            <path d="M47.881,16.4 C49.38,16.4 50.6,17.62 50.6,19.119 L50.6,56.882 C50.6,58.381 49.38,59.601 47.881,59.601 L22.119,59.601 C20.62,59.601 19.4,58.381 19.4,56.882 L19.4,19.119 C19.4,17.62 20.62,16.4 22.119,16.4 L47.881,16.4 M47.881,15 L22.119,15 C19.844,15 18,16.844 18,19.119 L18,56.882 C18,59.156 19.844,61 22.119,61 L47.881,61 C50.156,61 52,59.156 52,56.881 L52,19.119 C52,16.844 50.156,15 47.881,15 L47.881,15 Z" id="Shape" fill="#472B29" fill-rule="nonzero"></path>
            <polygon id="Path" fill="#C5DEF0" fill-rule="nonzero" points="22.5 20.5 47.5 20.5 47.5 53.5 22.5 53.5"></polygon>
            <path d="M47.5,54 L22.5,54 C22.224,54 22,53.776 22,53.5 L22,49.25 C22,48.974 22.224,48.75 22.5,48.75 C22.776,48.75 23,48.974 23,49.25 L23,53 L47,53 L47,21 L23,21 L23,40.958 C23,41.234 22.776,41.458 22.5,41.458 C22.224,41.458 22,41.234 22,40.958 L22,20.5 C22,20.224 22.224,20 22.5,20 L47.5,20 C47.776,20 48,20.224 48,20.5 L48,53.5 C48,53.776 47.776,54 47.5,54 Z" id="Path" fill="#472B29" fill-rule="nonzero"></path>
            <path d="M22.5,47.458 C22.224,47.458 22,47.234 22,46.958 L22,43.458 C22,43.182 22.224,42.958 22.5,42.958 C22.776,42.958 23,43.182 23,43.458 L23,46.958 C23,47.234 22.776,47.458 22.5,47.458 Z" id="Path" fill="#472B29" fill-rule="nonzero"></path>
            <g id="Group" transform="translate(42.000000, 31.000000)" fill-rule="nonzero">
                <path d="M2.608,32.3 C1.555,32.3 0.7,31.445 0.7,30.392 L0.7,2.608 C0.7,1.555 1.555,0.7 2.608,0.7 L16.391,0.7 C17.444,0.7 18.299,1.555 18.299,2.608 L18.299,30.391 C18.299,31.444 17.444,32.299 16.391,32.299 L2.608,32.299 L2.608,32.3 Z" id="Path" fill="#FEFDEF"></path>
                <path d="M16.392,1.4 C17.058,1.4 17.6,1.942 17.6,2.608 L17.6,30.392 C17.6,31.058 17.058,31.6 16.392,31.6 L2.608,31.6 C1.942,31.6 1.4,31.058 1.4,30.392 L1.4,2.608 C1.4,1.942 1.942,1.4 2.608,1.4 L16.392,1.4 M16.392,0 L2.608,0 C1.168,0 0,1.167 0,2.608 L0,30.392 C0,31.833 1.168,33 2.608,33 L16.392,33 C17.832,33 19,31.833 19,30.392 L19,2.608 C19,1.167 17.832,0 16.392,0 L16.392,0 Z" id="Shape" fill="#472B29"></path>
            </g>
            <polygon id="Path" fill="#C5DEF0" fill-rule="nonzero" points="45.5 36.5 57.5 36.5 57.5 58.5 45.5 58.5"></polygon>
            <path d="M53.5,35 L49.5,35 C49.224,35 49,34.776 49,34.5 C49,34.224 49.224,34 49.5,34 L53.5,34 C53.776,34 54,34.224 54,34.5 C54,34.776 53.776,35 53.5,35 Z" id="Path" fill="#472B29" fill-rule="nonzero"></path>
            <path d="M37,19 L33,19 C32.724,19 32.5,18.776 32.5,18.5 C32.5,18.224 32.724,18 33,18 L37,18 C37.276,18 37.5,18.224 37.5,18.5 C37.5,18.776 37.276,19 37,19 Z" id="Path" fill="#472B29" fill-rule="nonzero"></path>
            <path d="M57.5,59 L45.5,59 C45.224,59 45,58.776 45,58.5 L45,47.292 C45,47.016 45.224,46.792 45.5,46.792 C45.776,46.792 46,47.016 46,47.292 L46,58 L57,58 L57,56.094 C57,55.818 57.224,55.594 57.5,55.594 C57.776,55.594 58,55.818 58,56.094 L58,58.5 C58,58.776 57.776,59 57.5,59 Z" id="Path" fill="#472B29" fill-rule="nonzero"></path>
            <path d="M57.5,54.156 C57.224,54.156 57,53.932 57,53.656 L57,37 L46,37 L46,39.5 C46,39.776 45.776,40 45.5,40 C45.224,40 45,39.776 45,39.5 L45,36.5 C45,36.224 45.224,36 45.5,36 L57.5,36 C57.776,36 58,36.224 58,36.5 L58,53.656 C58,53.933 57.776,54.156 57.5,54.156 Z" id="Path" fill="#472B29" fill-rule="nonzero"></path>
            <path d="M45.5,45.375 C45.224,45.375 45,45.151 45,44.875 L45,41.708 C45,41.432 45.224,41.208 45.5,41.208 C45.776,41.208 46,41.432 46,41.708 L46,44.875 C46,45.151 45.776,45.375 45.5,45.375 Z" id="Path" fill="#472B29" fill-rule="nonzero"></path>
            <g id="Group" transform="translate(33.000000, 55.000000)" fill-rule="nonzero">
                <path d="M2,0.5 C1.17157288,0.5 0.5,1.17157288 0.5,2 C0.5,2.82842712 1.17157288,3.5 2,3.5 C2.82842712,3.5 3.5,2.82842712 3.5,2 C3.5,1.17157288 2.82842712,0.5 2,0.5 Z" id="Path" fill="#E1E0D8"></path>
                <path d="M2,3.75 C1.035,3.75 0.25,2.965 0.25,2 C0.25,1.035 1.035,0.25 2,0.25 C2.965,0.25 3.75,1.035 3.75,2 C3.75,2.965 2.965,3.75 2,3.75 Z M2,0.75 C1.311,0.75 0.75,1.311 0.75,2 C0.75,2.689 1.311,3.25 2,3.25 C2.689,3.25 3.25,2.689 3.25,2 C3.25,1.311 2.689,0.75 2,0.75 Z" id="Shape" fill="#472B29"></path>
            </g>
        </g>
    </g>
</svg>