<svg width="122" height="160" viewBox="0 0 122 160" fill="none" xmlns="http://www.w3.org/2000/svg">
<path d="M112.412 3H3V157H112.412C116.097 157 119.126 153.971 119.126 150.287V9.713C119.126 6.02911 116.097 3 112.412 3Z" stroke="#642EFF" stroke-width="5"/>
<path fill-rule="evenodd" clip-rule="evenodd" d="M60.3298 32.6431V50.0681C65.3871 49.9492 70.1756 49.3049 74.5127 48.2356L74.6534 48.2002C73.9516 46.3632 73.1626 44.6461 72.2981 43.0703C69.1073 37.2579 64.9189 33.4184 60.3298 32.6431ZM42.5663 48.1986C46.9431 49.2896 51.7812 49.9475 56.8888 50.0681V32.6431C52.3005 33.4184 48.1107 37.2579 44.9206 43.0703C44.0566 44.6461 43.2676 46.3624 42.5663 48.1986ZM38.8645 68.2063H56.8888V53.5108C51.4936 53.3878 46.3645 52.6896 41.7087 51.5265L41.4496 51.4614C39.9316 56.4485 39.0106 62.1371 38.8645 68.2063ZM41.4504 88.3939L41.7451 88.3191C46.3924 87.1608 51.5097 86.4657 56.8888 86.3429V71.6468H38.8645C39.0114 77.7171 39.9316 83.4068 41.4504 88.3939ZM56.8888 107.21C52.3005 106.435 48.1107 102.596 44.9206 96.7831C44.056 95.207 43.2671 93.4903 42.5652 91.6529C46.941 90.5627 51.7787 89.9062 56.8888 89.785V107.21ZM74.6542 91.6529L74.5813 91.6352C70.2249 90.5552 65.4123 89.9045 60.3298 89.785V107.21C64.9189 106.435 69.1073 102.596 72.2981 96.7831C73.1626 95.207 73.9516 93.4903 74.6542 91.6529ZM78.3549 71.6468H60.3298V86.3429C65.6808 86.4651 70.7718 87.1539 75.4014 88.3014L75.7691 88.3939C77.287 83.4068 78.2089 77.7171 78.3549 71.6468ZM75.7691 51.4596C75.6238 51.4968 75.4788 51.533 75.3331 51.5694C70.7217 52.706 65.6535 53.3888 60.3298 53.5108V68.2063H78.3549C78.2081 62.1369 77.287 56.4469 75.7691 51.4596ZM58.6096 29.0571C69.8947 29.0571 80.1127 33.6314 87.5087 41.028C94.9048 48.4235 99.4791 58.6407 99.4791 69.9263C99.4791 81.2125 94.9048 91.43 87.5087 98.8263C80.1127 106.222 69.8947 110.797 58.6096 110.797C47.3237 110.797 37.1059 106.222 29.7104 98.8263C22.3143 91.43 17.7395 81.2125 17.7395 69.9263C17.7395 58.6407 22.3143 48.4235 29.7104 41.028C37.1059 33.6314 47.3237 29.0571 58.6096 29.0571ZM70.0593 34.2821C75.79 36.1219 80.9199 39.3043 85.0762 43.4605C85.2688 43.6532 85.4591 43.8483 85.6475 44.0448C83.3696 45.285 80.7902 46.3685 77.9704 47.2636C77.1843 45.1671 76.2925 43.2094 75.3092 41.4174C73.772 38.6179 72.0057 36.2098 70.0593 34.2821ZM31.569 44.0485C31.7576 43.8505 31.9492 43.654 32.1433 43.4605C36.2996 39.3043 41.4281 36.1219 47.1596 34.2821C45.213 36.2098 43.4474 38.6179 41.9102 41.4174C40.927 43.2094 40.0346 45.1666 39.2488 47.2628C36.4231 46.3674 33.8426 45.285 31.569 44.0485ZM21.2206 68.2063H35.4216C35.5709 61.8222 36.5418 55.8128 38.1484 50.5178C34.872 49.4721 31.8828 48.1812 29.2664 46.6888C24.5376 52.6535 21.5868 60.0929 21.2206 68.2063ZM29.2629 93.1601C24.5351 87.1965 21.5868 79.7584 21.2206 71.6468H35.4216C35.5709 78.032 36.5418 84.042 38.1487 89.3369C34.8645 90.3832 31.8745 91.6728 29.2629 93.1601ZM47.1596 105.572C45.213 103.644 43.4474 101.236 41.9102 98.4361C40.927 96.6437 40.0346 94.6863 39.2483 92.5898C36.4303 93.4846 33.8509 94.5684 31.5722 95.8095C31.7608 96.0059 31.9503 96.2002 32.1433 96.3929C36.2996 100.549 41.4281 103.732 47.1596 105.572ZM85.6494 95.8068C85.4602 96.0046 85.2694 96.1997 85.0762 96.3929C80.9199 100.549 75.79 103.732 70.0593 105.572C72.0057 103.644 73.772 101.236 75.3092 98.4361C76.2933 96.6437 77.1843 94.686 77.9704 92.5896C80.7923 93.4838 83.3725 94.5681 85.6494 95.8068ZM95.9984 71.6468H81.797C81.6483 78.032 80.6771 84.0414 79.0702 89.3369C82.351 90.3824 85.3399 91.6733 87.9536 93.1631C92.6828 87.1989 95.6318 79.7603 95.9984 71.6468ZM87.9552 46.6922C85.3431 48.1804 82.3534 49.4708 79.0702 50.5168C80.6771 55.8123 81.6483 61.822 81.797 68.2063H95.9984C95.6318 60.0948 92.6828 52.6564 87.9552 46.6922Z" fill="#8559FF"/>
<path fill-rule="evenodd" clip-rule="evenodd" d="M58.6095 128.133C56.3892 128.133 54.5883 129.933 54.5883 132.153C54.5883 134.374 56.3892 136.174 58.6095 136.174C60.8301 136.174 62.6305 134.374 62.6305 132.153C62.6305 129.933 60.8301 128.133 58.6095 128.133ZM72.2147 133.14V138.375C72.2147 139.105 71.6176 139.702 70.8873 139.702H46.3312C45.6012 139.702 45.0039 139.105 45.0039 138.375V133.14H53.1966C53.6613 135.707 55.9079 137.654 58.6095 137.654C61.3106 137.654 63.5572 135.707 64.0219 133.14H72.2147ZM46.3312 124.604H70.8873C71.6178 124.604 72.2147 125.201 72.2147 125.931V131.167H64.0219C63.5572 128.6 61.3106 126.653 58.6095 126.653C55.9079 126.653 53.6613 128.6 53.1966 131.167H45.0039V125.931C45.0039 125.201 45.6012 124.604 46.3312 124.604Z" fill="#8559FF"/>
</svg>
