<?xml version="1.0" encoding="UTF-8"?>
<svg width="80px" height="80px" viewBox="0 0 80 80" version="1.1" xmlns="http://www.w3.org/2000/svg" xmlns:xlink="http://www.w3.org/1999/xlink">
    <!-- Generator: Sketch 61.2 (89653) - https://sketch.com -->
    <title>Icons (Decorative)/telephone</title>
    <desc>Created with Sketch.</desc>
    <defs>
        <path d="M66,1 C65.4477153,1 65,1.44771525 65,2 C65,2.55228475 65.4477153,3 66,3 C66.5522847,3 67,2.55228475 67,2 C67,1.44771525 66.5522847,1 66,1 Z" id="path-1"></path>
        <path d="M72,0 C69.790861,0 68,1.790861 68,4 C68,6.209139 69.790861,8 72,8 C74.209139,8 76,6.209139 76,4 C76,1.790861 74.209139,0 72,0 Z" id="path-2"></path>
        <path d="M70,63 C68.8954305,63 68,63.8954305 68,65 C68,66.1045695 68.8954305,67 70,67 C71.1045695,67 72,66.1045695 72,65 C72,63.8954305 71.1045695,63 70,63 Z M4,48 C1.790861,48 0,49.790861 0,52 C0,54.209139 1.790861,56 4,56 C6.209139,56 8,54.209139 8,52 C8,49.790861 6.209139,48 4,48 Z" id="path-3"></path>
        <path d="M10,55 C9.44771525,55 9,55.4477153 9,56 C9,56.5522847 9.44771525,57 10,57 C10.5522847,57 11,56.5522847 11,56 C11,55.4477153 10.5522847,55 10,55 Z" id="path-4"></path>
    </defs>
    <g id="Icons-(Decorative)/telephone" stroke="none" stroke-width="1" fill="none" fill-rule="evenodd">
        <g id="icons8-telephone" transform="translate(1.000000, 1.000000)">
            <path d="M2,16 C0.8954305,16 0,16.8954305 0,18 C0,19.1045695 0.8954305,20 2,20 C3.1045695,20 4,19.1045695 4,18 C4,16.8954305 3.1045695,16 2,16 Z" id="Path" fill="#EE3E54" fill-rule="nonzero"></path>
            <g id="Path">
                <use fill="#F5684F" xlink:href="#path-1"></use>
                <use fill="#FF7D54" xlink:href="#path-1"></use>
                <use fill="#FF6755" xlink:href="#path-1"></use>
                <use fill="#FFA949" xlink:href="#path-1"></use>
            </g>
            <path d="M39,2 C18.5654643,2 2,18.5654643 2,39 C2,59.4345357 18.5654643,76 39,76 C59.4345357,76 76,59.4345357 76,39 C76,18.5654643 59.4345357,2 39,2 Z" id="Path" fill="#FCE0A2" fill-rule="nonzero"></path>
            <g id="Path">
                <use fill="#F5684F" xlink:href="#path-2"></use>
                <use fill="#FF7D54" xlink:href="#path-2"></use>
                <use fill="#FF6755" xlink:href="#path-2"></use>
                <use fill="#FFA949" xlink:href="#path-2"></use>
            </g>
            <path d="M76,11 C74.8954305,11 74,11.8954305 74,13 C74,14.1045695 74.8954305,15 76,15 C77.1045695,15 78,14.1045695 78,13 C78,11.8954305 77.1045695,11 76,11 Z" id="Path" fill="#EE3E54" fill-rule="nonzero"></path>
            <g id="Shape">
                <use fill="#F5684F" xlink:href="#path-3"></use>
                <use fill="#FF7D54" xlink:href="#path-3"></use>
                <use fill="#FF6755" xlink:href="#path-3"></use>
                <use fill="#FFA949" xlink:href="#path-3"></use>
            </g>
            <path d="M14,74 C12.8954305,74 12,74.8954305 12,76 C12,77.1045695 12.8954305,78 14,78 C15.1045695,78 16,77.1045695 16,76 C16,74.8954305 15.1045695,74 14,74 Z" id="Path" fill="#EE3E54" fill-rule="nonzero"></path>
            <path d="M7.5,40 C6.11928813,40 5,41.1192881 5,42.5 C5,43.8807119 6.11928813,45 7.5,45 C8.88071187,45 10,43.8807119 10,42.5 C10,41.1192881 8.88071187,40 7.5,40 Z" id="Path" fill="#FFFFFF" fill-rule="nonzero"></path>
            <g id="Path">
                <use fill="#F5684F" xlink:href="#path-4"></use>
                <use fill="#FF7D54" xlink:href="#path-4"></use>
                <use fill="#FF6755" xlink:href="#path-4"></use>
                <use fill="#FFA949" xlink:href="#path-4"></use>
            </g>
            <path d="M69,22 C68.4477153,22 68,22.4477153 68,23 C68,23.5522847 68.4477153,24 69,24 C69.5522847,24 70,23.5522847 70,23 C70,22.4477153 69.5522847,22 69,22 Z" id="Path" fill="#FFFFFF" fill-rule="nonzero"></path>
            <path d="M25.705,59.3 C22.491,59.3 20.036,58.542 18.971,57.221 C18.351,56.453 18.176,55.495 18.437,54.294 L23.08,30.682 C24.392,25.393 26.013,25.393 30.347,25.393 L46.475,25.393 C50.713,25.393 52.325,25.831 53.756,30.744 L59.048,54.3 C59.298,55.093 59.156,55.821 58.643,56.524 C57.467,58.133 54.58,59.301 51.778,59.301 L25.705,59.301 L25.705,59.3 Z" id="Path" fill="#EF7D99" fill-rule="nonzero"></path>
            <path d="M46.473,26.092 C50.323,26.092 51.73,26.325 53.07,30.897 L58.363,54.453 L58.376,54.513 L58.395,54.572 C58.5,54.901 58.581,55.419 58.076,56.111 C57.038,57.531 54.33,58.602 51.776,58.602 L25.706,58.602 C22.749,58.602 20.435,57.922 19.516,56.783 C19.038,56.19 18.909,55.425 19.126,54.417 L23.759,30.852 C24.943,26.093 26.093,26.094 30.345,26.094 L46.473,26.094 M46.473,24.692 L30.346,24.692 C25.971,24.692 23.843,24.692 22.393,30.546 L17.753,54.145 C16.787,58.604 21.331,60 25.705,60 L51.775,60 C56.15,60 60.748,57.343 59.728,54.146 L54.425,30.547 C52.878,25.233 50.848,24.692 46.473,24.692 L46.473,24.692 Z" id="Shape" fill="#472B29" fill-rule="nonzero"></path>
            <path d="M60.282,39.3 C57.861,39.3 55.396,39.263 52.956,39.19 C51.339,39.14 50.341,38.038 50.352,36.312 C50.357,35.448 50.366,34.583 50.374,33.72 C50.384,32.708 50.394,31.698 50.398,30.686 C50.404,29.182 49.807,28.461 48.337,28.197 C44.94,27.587 41.493,27.277 38.092,27.277 C35.018,27.277 31.9,27.53 28.825,28.029 C27.352,28.268 26.743,28.979 26.722,30.481 C26.707,31.545 26.699,32.611 26.691,33.676 L26.669,36.107 C26.648,37.832 25.632,38.917 24.015,38.936 C23.211,38.947 22.407,38.951 21.603,38.951 C18.949,38.951 16.293,38.903 13.346,38.845 C13.049,38.84 12.711,38.731 12.354,38.616 C12.223,38.574 12.093,38.533 11.962,38.495 C11.53,38.046 10.845,37.226 10.738,35.816 C10.246,29.368 14.654,25.173 14.711,25.121 L14.711,25.121 C14.717,25.121 16.809,23.527 17.829,22.994 C22.071,20.775 27.053,19.449 33.06,18.938 C34.913,18.781 36.743,18.701 38.5,18.701 C44.805,18.701 50.481,19.684 55.857,21.708 C59.469,23.068 62.059,24.682 64.005,26.784 C65.634,28.544 66.381,30.383 66.289,32.404 C66.249,33.291 66.249,34.179 66.249,35.067 C66.249,35.547 66.249,36.028 66.242,36.508 C66.22,38.168 65.188,39.256 63.614,39.278 C62.506,39.292 61.395,39.3 60.282,39.3 Z" id="Path" fill="#EA5167" fill-rule="nonzero"></path>
            <path d="M38.505,19.4 L38.505,19.4 C44.723,19.4 50.319,20.369 55.613,22.361 C59.12,23.681 61.624,25.237 63.494,27.257 C65.01,28.896 65.678,30.521 65.594,32.371 C65.552,33.283 65.553,34.196 65.553,35.079 C65.553,35.552 65.553,36.025 65.547,36.498 C65.529,37.783 64.805,38.561 63.608,38.577 C62.5,38.592 61.392,38.6 60.285,38.6 C57.873,38.6 55.415,38.562 52.978,38.489 C51.291,38.438 51.047,37.106 51.052,36.316 C51.057,35.469 51.066,34.622 51.074,33.775 C51.084,32.746 51.095,31.717 51.099,30.688 C51.107,28.843 50.269,27.832 48.463,27.508 C45.025,26.889 41.536,26.576 38.092,26.576 C34.981,26.576 31.826,26.832 28.714,27.337 C26.904,27.631 26.049,28.627 26.024,30.471 C26.01,31.523 26.001,32.575 25.993,33.627 C25.986,34.451 25.98,35.274 25.97,36.098 C25.961,36.887 25.694,38.214 24.007,38.236 C23.211,38.246 22.415,38.25 21.619,38.25 C18.974,38.25 16.422,38.204 13.359,38.144 C13.167,38.141 12.878,38.047 12.571,37.949 C12.495,37.925 12.42,37.9 12.344,37.877 C11.977,37.472 11.516,36.82 11.436,35.761 C10.997,30.002 14.725,26.094 15.15,25.669 C15.781,25.19 17.372,24.022 18.154,23.612 C22.368,21.407 27.124,20.143 33.12,19.634 C34.955,19.479 36.766,19.4 38.505,19.4 M38.504,18 C36.679,18 34.844,18.083 33.002,18.24 C27.6,18.699 22.354,19.836 17.506,22.372 C16.411,22.944 14.235,24.606 14.235,24.606 C14.235,24.606 9.517,29 10.041,35.868 C10.18,37.7 11.168,38.686 11.595,39.118 C12.174,39.267 12.751,39.534 13.333,39.545 C16.095,39.599 18.857,39.651 21.62,39.651 C22.422,39.651 23.224,39.647 24.025,39.637 C26.083,39.611 27.346,38.18 27.37,36.116 C27.392,34.241 27.398,32.366 27.424,30.491 C27.44,29.326 27.784,28.908 28.939,28.72 C31.992,28.224 35.043,27.977 38.092,27.977 C41.469,27.977 44.844,28.281 48.215,28.887 C49.363,29.093 49.704,29.521 49.699,30.683 C49.691,32.558 49.663,34.433 49.652,36.308 C49.639,38.373 50.876,39.827 52.936,39.889 C55.384,39.962 57.834,40 60.285,40 C61.399,40 62.514,39.992 63.627,39.977 C65.641,39.949 66.918,38.511 66.946,36.517 C66.964,35.156 66.93,33.793 66.992,32.435 C67.102,30.01 66.124,28.038 64.521,26.307 C62.198,23.797 59.257,22.238 56.106,21.052 C50.385,18.897 44.497,18 38.504,18 L38.504,18 Z" id="Shape" fill="#472B29" fill-rule="nonzero"></path>
            <path d="M38.166,55.012 C32.735,55.012 28.332,50.609 28.332,45.178 C28.332,39.747 32.735,35.344 38.166,35.344 C43.597,35.344 48,39.747 48,45.178 C48,48.233 46.607,50.963 44.421,52.766" id="Path" fill="#FEFDEF" fill-rule="nonzero"></path>
            <path d="M38.166,55.513 C32.468,55.513 27.832,50.876 27.832,45.178 C27.832,39.48 32.468,34.844 38.166,34.844 C43.864,34.844 48.5,39.479 48.5,45.178 C48.5,48.275 47.129,51.181 44.739,53.153 C44.525,53.328 44.211,53.299 44.035,53.086 C43.859,52.873 43.889,52.558 44.102,52.382 C46.261,50.601 47.499,47.976 47.499,45.179 C47.499,40.033 43.311,35.845 38.165,35.845 C33.019,35.845 28.831,40.033 28.831,45.179 C28.831,50.326 33.019,54.514 38.165,54.514 C38.441,54.514 38.665,54.738 38.665,55.014 C38.665,55.29 38.442,55.513 38.166,55.513 Z" id="Path" fill="#472B29" fill-rule="nonzero"></path>
            <g id="Group" transform="translate(34.000000, 41.000000)" fill-rule="nonzero">
                <path d="M4.166,0.9 C2.35561059,0.9 0.888,2.36761059 0.888,4.178 C0.888,5.98838941 2.35561059,7.456 4.166,7.456 C5.97638941,7.456 7.444,5.98838941 7.444,4.178 C7.444,2.36761059 5.97638941,0.9 4.166,0.9 L4.166,0.9 Z" id="Path" fill="#FEF6AA"></path>
                <path d="M4.166,7.706 C2.221,7.706 0.638,6.123 0.638,4.178 C0.638,2.233 2.221,0.651 4.166,0.651 C6.111,0.651 7.694,2.233 7.694,4.178 C7.694,6.123 6.111,7.706 4.166,7.706 Z M4.166,1.15 C2.496,1.15 1.138,2.508 1.138,4.177 C1.138,5.847 2.496,7.205 4.166,7.205 C5.836,7.205 7.194,5.847 7.194,4.177 C7.194,2.509 5.836,1.15 4.166,1.15 Z" id="Shape" fill="#472B29"></path>
            </g>
            <g id="Group" transform="translate(36.000000, 37.000000)" fill-rule="nonzero">
                <path d="M2.166,0.527 C1.77550869,0.527 1.41467982,0.735324583 1.21943416,1.07349997 C1.02418849,1.41167536 1.02418849,1.82832464 1.21943416,2.16650003 C1.41467982,2.50467542 1.77550869,2.713 2.166,2.713 C2.76964723,2.713 3.259,2.22364723 3.259,1.62 C3.259,1.01635277 2.76964723,0.527 2.166,0.527 L2.166,0.527 Z" id="Path" fill="#F9E65C"></path>
                <path d="M2.165,2.963 C2.162,2.963 2.159,2.963 2.156,2.963 C1.798,2.961 1.461,2.818 1.209,2.563 C0.957,2.308 0.82,1.969 0.823,1.611 C0.825,1.253 0.968,0.917 1.222,0.665 C1.476,0.415 1.81,0.278 2.165,0.278 C2.168,0.278 2.171,0.278 2.174,0.278 C2.914,0.283 3.513,0.889 3.508,1.631 C3.503,2.367 2.901,2.963 2.165,2.963 Z M2.166,0.777 C1.942,0.777 1.733,0.863 1.574,1.02 C1.414,1.177 1.324,1.388 1.323,1.614 L1.323,1.614 C1.321,1.839 1.407,2.052 1.565,2.212 C1.723,2.372 1.934,2.462 2.16,2.463 C2.162,2.463 2.163,2.463 2.165,2.463 C2.627,2.463 3.005,2.089 3.009,1.626 C3.011,1.401 2.924,1.188 2.766,1.028 C2.608,0.868 2.397,0.778 2.171,0.777 C2.169,0.777 2.168,0.777 2.166,0.777 Z" id="Shape" fill="#472B29"></path>
            </g>
            <g id="Group" transform="translate(41.000000, 38.000000)" fill-rule="nonzero">
                <path d="M1.536,0.984 C0.932352768,0.984 0.443,1.47335277 0.443,2.077 C0.443,2.68064723 0.932352768,3.17 1.536,3.17 C2.13964723,3.17 2.629,2.68064723 2.629,2.077 C2.629,1.47335277 2.13964723,0.984 1.536,0.984 Z" id="Path" fill="#F9E65C"></path>
                <path d="M1.535,3.42 C1.532,3.42 1.529,3.42 1.526,3.42 C0.786,3.414 0.188,2.808 0.193,2.067 L0.193,2.067 C0.199,1.33 0.8,0.734 1.537,0.734 C1.54,0.734 1.543,0.734 1.546,0.734 C2.285,0.739 2.884,1.345 2.879,2.087 C2.874,2.823 2.272,3.42 1.535,3.42 Z M0.693,2.071 C0.69,2.535 1.066,2.916 1.53,2.92 C1.532,2.92 1.534,2.92 1.536,2.92 C1.759,2.92 1.969,2.834 2.128,2.677 C2.288,2.52 2.378,2.309 2.379,2.083 C2.381,1.858 2.294,1.645 2.136,1.485 C1.979,1.325 1.768,1.235 1.542,1.234 C1.54,1.234 1.539,1.234 1.537,1.234 C1.075,1.234 0.697,1.608 0.693,2.071 L0.693,2.071 Z" id="Shape" fill="#472B29"></path>
            </g>
            <g id="Group" transform="translate(32.000000, 38.000000)" fill-rule="nonzero">
                <path d="M1.795,0.984 C1.19135277,0.984 0.702,1.47335277 0.702,2.077 C0.702,2.68064723 1.19135277,3.17 1.795,3.17 C2.39864723,3.17 2.888,2.68064723 2.888,2.077 C2.888,1.47335277 2.39864723,0.984 1.795,0.984 Z" id="Path" fill="#F9E65C"></path>
                <path d="M1.794,3.42 C1.791,3.42 1.788,3.42 1.785,3.42 C1.046,3.415 0.447,2.809 0.452,2.067 L0.452,2.067 C0.458,1.33 1.059,0.734 1.796,0.734 C1.799,0.734 1.802,0.734 1.805,0.734 C2.544,0.739 3.143,1.345 3.138,2.087 C3.133,2.823 2.531,3.42 1.794,3.42 Z M0.951991376,2.071 C0.951,2.297 1.037,2.509 1.195,2.669 C1.352,2.829 1.563,2.919 1.789,2.92 C1.791,2.92 1.793,2.92 1.794,2.92 C2.018,2.92 2.228,2.834 2.387,2.677 C2.547,2.52 2.637,2.309 2.638,2.083 C2.64,1.858 2.553,1.645 2.395,1.485 C2.238,1.325 2.027,1.235 1.801,1.234 C1.799,1.234 1.798,1.234 1.796,1.234 C1.334,1.234 0.956,1.608 0.951991376,2.071 L0.951991376,2.071 Z" id="Shape" fill="#472B29"></path>
            </g>
            <g id="Group" transform="translate(43.000000, 43.000000)" fill-rule="nonzero">
                <path d="M1.722,1.083 C1.11835277,1.083 0.629,1.57235277 0.629,2.176 C0.629,2.77964723 1.11835277,3.269 1.722,3.269 C2.32564723,3.269 2.815,2.77964723 2.815,2.176 C2.815,1.57235277 2.32564723,1.083 1.722,1.083 Z" id="Path" fill="#F9E65C"></path>
                <path d="M1.721,3.519 C1.718,3.519 1.715,3.519 1.712,3.519 C0.973,3.514 0.374,2.908 0.379,2.166 C0.384,1.43 0.985,0.833 1.723,0.833 C1.726,0.833 1.729,0.833 1.732,0.833 C2.472,0.839 3.07,1.445 3.065,2.186 C3.06,2.922 2.458,3.519 1.721,3.519 Z M1.722,1.333 C1.499,1.333 1.289,1.419 1.13,1.576 C0.97,1.733 0.88,1.944 0.879,2.17 C0.877,2.395 0.964,2.608 1.122,2.768 C1.279,2.928 1.49,3.018 1.716,3.019 C1.718,3.019 1.72,3.019 1.721,3.019 C1.945,3.019 2.155,2.933 2.314,2.776 C2.474,2.619 2.564,2.408 2.565,2.182 C2.568,1.718 2.193,1.337 1.728,1.333 C1.726,1.333 1.724,1.333 1.722,1.333 Z" id="Shape" fill="#472B29"></path>
            </g>
            <g id="Group" transform="translate(30.000000, 43.000000)" fill-rule="nonzero">
                <path d="M1.61,1.083 C1.00635277,1.083 0.517,1.57235277 0.517,2.176 C0.517,2.77964723 1.00635277,3.269 1.61,3.269 C2.21364723,3.269 2.703,2.77964723 2.703,2.176 C2.703,1.57235277 2.21364723,1.083 1.61,1.083 Z" id="Path" fill="#F9E65C"></path>
                <path d="M1.611,3.519 C1.608,3.519 1.604,3.519 1.6,3.519 C1.242,3.517 0.905,3.374 0.653,3.119 C0.401,2.864 0.264,2.526 0.267,2.168 C0.269,1.809 0.412,1.473 0.667,1.221 C0.919,0.972 1.253,0.835 1.607,0.835 C1.61,0.835 1.614,0.835 1.618,0.835 C1.976,0.837 2.313,0.98 2.565,1.235 C2.817,1.49 2.954,1.828 2.951,2.186 C2.949,2.544 2.806,2.881 2.551,3.133 C2.3,3.382 1.966,3.519 1.611,3.519 Z M1.608,1.334 C1.385,1.334 1.176,1.42 1.018,1.576 C0.858,1.733 0.768,1.945 0.767,2.171 L0.767,2.171 C0.765,2.396 0.851,2.608 1.009,2.768 C1.166,2.928 1.378,3.018 1.604,3.019 C1.606,3.019 1.608,3.019 1.611,3.019 C1.834,3.019 2.043,2.933 2.201,2.777 C2.361,2.62 2.451,2.408 2.452,2.182 C2.454,1.957 2.368,1.745 2.21,1.585 C2.053,1.425 1.841,1.335 1.615,1.334 C1.613,1.334 1.611,1.334 1.608,1.334 Z" id="Shape" fill="#472B29"></path>
            </g>
            <g id="Group" transform="translate(41.000000, 48.000000)" fill-rule="nonzero">
                <path d="M1.537,1.182 C1.14650869,1.182 0.785679822,1.39032458 0.590434157,1.72849997 C0.395188492,2.06667536 0.395188492,2.48332464 0.590434157,2.82150003 C0.785679822,3.15967542 1.14650869,3.368 1.537,3.368 C2.14064723,3.368 2.63,2.87864723 2.63,2.275 C2.63,1.67135277 2.14064723,1.182 1.537,1.182 L1.537,1.182 Z" id="Path" fill="#F9E65C"></path>
                <path d="M1.536,3.618 C1.533,3.618 1.53,3.618 1.527,3.618 C0.786,3.612 0.188,3.006 0.194,2.265 C0.196,1.906 0.339,1.57 0.594,1.318 C0.846,1.069 1.18,0.932 1.534,0.932 C1.537,0.932 1.541,0.932 1.545,0.932 C1.903,0.934 2.24,1.077 2.492,1.332 C2.744,1.587 2.881,1.925 2.878,2.283 C2.874,3.021 2.272,3.618 1.536,3.618 Z M1.535,1.433 C1.312,1.433 1.103,1.519 0.945,1.675 C0.785,1.832 0.695,2.044 0.694,2.27 L0.694,2.27 C0.69,2.734 1.066,3.115 1.531,3.119 C1.533,3.119 1.535,3.119 1.537,3.119 C1.76,3.119 1.97,3.033 2.128,2.876 C2.288,2.718 2.378,2.507 2.379,2.281 C2.381,2.056 2.295,1.844 2.137,1.684 C1.979,1.524 1.768,1.434 1.542,1.433 C1.54,1.433 1.538,1.433 1.535,1.433 Z" id="Shape" fill="#472B29"></path>
            </g>
            <g id="Group" transform="translate(32.000000, 48.000000)" fill-rule="nonzero">
                <path d="M1.795,1.182 C1.40450869,1.182 1.04367982,1.39032458 0.848434157,1.72849997 C0.653188492,2.06667536 0.653188492,2.48332464 0.848434157,2.82150003 C1.04367982,3.15967542 1.40450869,3.368 1.795,3.368 C2.39864723,3.368 2.888,2.87864723 2.888,2.275 C2.888,1.67135277 2.39864723,1.182 1.795,1.182 Z" id="Path" fill="#F9E65C"></path>
                <path d="M1.795,3.618 C1.792,3.618 1.789,3.618 1.786,3.618 C1.045,3.612 0.447,3.006 0.453,2.265 C0.458,1.528 1.059,0.932 1.796,0.932 C1.799,0.932 1.802,0.932 1.805,0.932 C2.163,0.934 2.5,1.077 2.752,1.332 C3.004,1.587 3.141,1.926 3.138,2.284 C3.133,3.021 2.531,3.618 1.795,3.618 Z M1.796,1.433 C1.572,1.433 1.362,1.519 1.204,1.675 C1.044,1.833 0.954,2.044 0.953,2.27 L0.953,2.27 C0.949,2.734 1.325,3.115 1.79,3.119 C1.792,3.119 1.794,3.119 1.796,3.119 C2.019,3.119 2.229,3.033 2.387,2.877 C2.547,2.719 2.637,2.508 2.638,2.282 C2.64,2.057 2.554,1.844 2.396,1.684 C2.238,1.524 2.027,1.434 1.801,1.433 C1.799,1.433 1.797,1.433 1.796,1.433 Z" id="Shape" fill="#472B29"></path>
            </g>
            <g id="Group" transform="translate(36.000000, 50.000000)" fill-rule="nonzero">
                <path d="M2.166,0.639 C1.56235277,0.639 1.073,1.12835277 1.073,1.732 C1.073,2.33564723 1.56235277,2.825 2.166,2.825 C2.76964723,2.825 3.259,2.33564723 3.259,1.732 C3.259,1.12835277 2.76964723,0.639 2.166,0.639 Z" id="Path" fill="#F9E65C"></path>
                <path d="M2.165,3.075 C2.162,3.075 2.159,3.075 2.156,3.075 C1.416,3.069 0.818,2.463 0.823,1.722 C0.825,1.364 0.968,1.027 1.223,0.775 C1.476,0.526 1.81,0.389 2.164,0.389 C2.167,0.389 2.171,0.389 2.175,0.389 C2.914,0.394 3.513,1 3.508,1.741 C3.504,2.479 2.902,3.075 2.165,3.075 Z M2.165,0.89 C1.942,0.89 1.733,0.976 1.574,1.132 C1.414,1.29 1.324,1.501 1.323,1.727 C1.32,2.191 1.695,2.572 2.16,2.576 C2.162,2.576 2.164,2.576 2.166,2.576 C2.389,2.576 2.599,2.49 2.758,2.333 C2.918,2.175 3.008,1.964 3.009,1.738 C3.011,1.513 2.924,1.3 2.767,1.141 C2.609,0.981 2.398,0.891 2.172,0.89 C2.17,0.89 2.168,0.89 2.165,0.89 Z" id="Shape" fill="#472B29"></path>
            </g>
            <path d="M60.813,28.25 C60.704,28.25 60.593,28.214 60.5,28.141 C58.804,26.784 56.805,25.629 54.558,24.711 C54.303,24.607 54.18,24.315 54.285,24.059 C54.39,23.803 54.68,23.682 54.937,23.786 C57.272,24.741 59.354,25.943 61.125,27.36 C61.341,27.533 61.375,27.847 61.203,28.063 C61.104,28.186 60.959,28.25 60.813,28.25 Z" id="Path" fill="#472B29" fill-rule="nonzero"></path>
            <path d="M52.262,24.105 C52.211,24.105 52.16,24.097 52.11,24.082 C50.478,23.559 49.367,23.37 49.356,23.368 C49.084,23.322 48.9,23.065 48.945,22.793 C48.991,22.52 49.255,22.331 49.52,22.382 C49.568,22.39 50.708,22.582 52.415,23.129 C52.679,23.214 52.823,23.495 52.739,23.758 C52.67,23.971 52.474,24.105 52.262,24.105 Z" id="Path" fill="#472B29" fill-rule="nonzero"></path>
            <path d="M16.694,52.001 C14.771,52.001 13.555,51.266 12.838,49.71 C12.511,49.001 12.528,48.102 12.857,47.251 C12.282,46.764 11.866,46.123 11.757,45.455 C11.642,44.748 11.723,44.079 11.974,43.484 C11.243,42.944 10.847,42.297 10.797,41.558 C10.687,39.932 12.362,38.545 12.434,38.487 C12.649,38.313 12.964,38.345 13.137,38.558 C13.312,38.772 13.281,39.086 13.067,39.261 C12.692,39.57 11.731,40.572 11.796,41.492 C11.824,41.9 12.06,42.28 12.497,42.624 C13.085,41.912 13.978,41.383 15.101,41.136 C15.751,40.99 16.438,41.213 16.888,41.711 C17.289,42.157 17.425,42.734 17.251,43.254 C17.129,43.621 16.732,44.275 15.458,44.524 C14.687,44.679 13.807,44.503 12.845,44.011 C12.706,44.404 12.669,44.836 12.743,45.294 C12.804,45.664 13.027,46.033 13.342,46.344 C14.008,45.4 14.924,44.887 15.949,44.958 C16.694,45.006 17.265,45.328 17.515,45.842 C17.725,46.273 17.677,46.784 17.387,47.209 C16.933,47.873 15.995,48.211 14.875,48.122 C14.48,48.09 14.089,47.979 13.724,47.809 C13.561,48.345 13.56,48.888 13.745,49.289 C14.252,50.39 15.135,51.344 18.089,50.88 C18.362,50.843 18.617,51.023 18.66,51.297 C18.703,51.569 18.515,51.825 18.243,51.868 C17.683,51.957 17.167,52.001 16.694,52.001 Z M14.166,46.912 C14.421,47.028 14.69,47.104 14.958,47.127 C15.845,47.193 16.37,46.925 16.562,46.646 C16.613,46.572 16.688,46.425 16.618,46.282 C16.53,46.102 16.257,45.981 15.886,45.958 C15.248,45.914 14.627,46.264 14.166,46.912 Z M13.363,43.153 C14.089,43.511 14.739,43.646 15.266,43.543 C15.832,43.433 16.21,43.212 16.302,42.938 C16.36,42.764 16.301,42.556 16.144,42.381 C15.98,42.198 15.674,42.038 15.315,42.113 C14.479,42.297 13.813,42.662 13.363,43.153 Z" id="Shape" fill="#472B29" fill-rule="nonzero"></path>
        </g>
    </g>
</svg>