<svg width="64" height="64" viewBox="0 0 64 64" fill="none" xmlns="http://www.w3.org/2000/svg">
<rect x="0.805556" y="0.805556" width="62.3889" height="62.3889" rx="31.1944" fill="white"/>
<path d="M25.8655 29.7285H27.9855V36.3951C27.9855 37.1285 28.5855 37.7285 29.3189 37.7285H34.6522C35.3855 37.7285 35.9855 37.1285 35.9855 36.3951V29.7285H38.1055C39.2922 29.7285 39.8922 28.2885 39.0522 27.4485L32.9322 21.3285C32.4122 20.8085 31.5722 20.8085 31.0522 21.3285L24.9322 27.4485C24.0922 28.2885 24.6789 29.7285 25.8655 29.7285ZM22.6655 41.7285C22.6655 42.4618 23.2655 43.0618 23.9989 43.0618H39.9989C40.7322 43.0618 41.3322 42.4618 41.3322 41.7285C41.3322 40.9951 40.7322 40.3951 39.9989 40.3951H23.9989C23.2655 40.3951 22.6655 40.9951 22.6655 41.7285Z" fill="#95A1B2"/>
<rect x="0.805556" y="0.805556" width="62.3889" height="62.3889" rx="31.1944" stroke="#F3F4F6" stroke-width="1.61111"/>
</svg>
