<svg width="47" height="15" viewBox="0 0 47 15" fill="none" xmlns="http://www.w3.org/2000/svg">
<path fill-rule="evenodd" clip-rule="evenodd" d="M22.8101 0.265346L19.7318 14.7731H16.0088L19.0881 0.265346H22.8101ZM38.4716 9.63288L40.4312 4.18554L41.5592 9.63288H38.4716ZM42.6254 14.7731H46.0684L43.0631 0.265346H39.8859C39.1712 0.265346 38.5686 0.684007 38.3012 1.32931L32.7156 14.7731H36.6235L37.4001 12.6059H42.1756L42.6254 14.7731ZM32.9091 10.0363C32.9257 6.20768 27.6575 5.99609 27.694 4.28553C27.7053 3.76538 28.1969 3.21232 29.2729 3.07062C29.8054 3.00052 31.2764 2.94612 32.9428 3.71936L33.5969 0.643367C32.7005 0.315232 31.5486 0 30.114 0C26.435 0 23.8449 1.97225 23.8242 4.79558C23.7997 6.88502 25.6725 8.0494 27.0835 8.74416C28.5332 9.45505 29.0195 9.91134 29.0142 10.547C29.0033 11.5208 27.8573 11.95 26.786 11.967C24.9145 11.9963 23.8283 11.457 22.9628 11.0503L22.2888 14.2296C23.1577 14.6319 24.7633 14.9828 26.4284 15C30.3393 15 32.8969 13.0531 32.9091 10.0363ZM17.4907 0.265346L11.4595 14.7731H7.52472L4.55651 3.19491C4.37628 2.48208 4.22016 2.22039 3.67225 1.92064C2.77733 1.43059 1.29973 0.971286 0 0.686157L0.087658 0.265346H6.42206C7.22911 0.265346 7.95533 0.806574 8.13875 1.74432L9.70635 10.1399L13.5806 0.265346H17.4907Z" fill="#FFFDFD"/>
</svg>
