<svg width="72" height="43" viewBox="0 0 72 43" fill="none" xmlns="http://www.w3.org/2000/svg">
<path d="M72 21.5C72 33.3307 62.4444 43 50.5 43C38.6693 43 29 33.3307 29 21.5C29 9.66931 38.5556 0 50.3862 0C62.4444 0 72 9.66931 72 21.5Z" fill="#FFB600"/>
<path d="M50.5 0C62.3307 0 72 9.66931 72 21.5C72 33.3307 62.4444 43 50.5 43C38.6693 43 29 33.3307 29 21.5" fill="#F7981D"/>
<path d="M50 0C62.1058 0 72 9.66931 72 21.5C72 33.3307 62.2222 43 50 43" fill="#FF8500"/>
<path d="M21.3289 0C9.5809 0.113757 0 9.66931 0 21.5C0 33.3307 9.5809 43 21.557 43C27.1459 43 32.1645 40.8386 36.0424 37.4259C36.8408 36.7434 37.5252 35.9471 38.2095 35.1508H33.7613C33.191 34.4683 32.6207 33.672 32.1645 32.9894H39.8064C40.2626 32.3069 40.7188 31.5106 41.061 30.7143H30.9098C30.5676 30.0317 30.2255 29.2354 29.9973 28.4391H41.8594C42.5438 26.2778 43 24.0026 43 21.6138C43 20.0212 42.7719 18.5423 42.5438 17.0635H29.313C29.4271 16.2672 29.6552 15.5847 29.8833 14.7884H41.7454C41.5172 13.9921 41.1751 13.1958 40.8329 12.5132H30.7958C31.1379 11.7169 31.5942 11.0344 32.0504 10.2381H39.6923C39.2361 9.4418 38.6658 8.6455 37.9814 7.96296H33.7613C34.4456 7.16667 35.13 6.48413 35.9284 5.80159C32.1645 2.27513 27.0318 0.227513 21.443 0.227513C21.443 -2.20364e-07 21.443 0 21.3289 0Z" fill="#FF5050"/>
<path d="M0 21.3856C0 33.2793 9.5809 43 21.557 43C27.1459 43 32.1645 40.8271 36.0424 37.3963C36.8408 36.7101 37.5252 35.9096 38.2095 35.109H33.7613C33.191 34.4229 32.6207 33.6223 32.1645 32.9362H39.8064C40.2626 32.25 40.7188 31.4495 41.061 30.6489H30.9098C30.5676 29.9628 30.2255 29.1622 29.9973 28.3617H41.8594C42.5438 26.1888 43 23.9016 43 21.5C43 19.8989 42.7719 18.4122 42.5438 16.9255H29.313C29.4271 16.125 29.6552 15.4388 29.8833 14.6383H41.7454C41.5172 13.8378 41.1751 13.0372 40.8329 12.3511H30.7958C31.1379 11.5505 31.5942 10.8644 32.0504 10.0638H39.6923C39.2361 9.2633 38.6658 8.46277 37.9814 7.7766H33.7613C34.4456 6.97606 35.13 6.28989 35.9284 5.60372C32.1645 2.05851 27.0318 0 21.443 0H21.3289" fill="#E52836"/>
<path d="M21.2316 43C26.9053 43 32 40.8271 35.9368 37.3963C36.7474 36.7101 37.4421 35.9096 38.1368 35.109H33.6211C33.0421 34.4229 32.4632 33.6223 32 32.9362H39.7579C40.2211 32.25 40.6842 31.4495 41.0316 30.6489H30.7263C30.3789 29.9628 30.0316 29.1622 29.8 28.3617H41.8421C42.5368 26.1888 43 23.9016 43 21.5C43 19.8989 42.7684 18.4122 42.5368 16.9255H29.1053C29.2211 16.125 29.4526 15.4388 29.6842 14.6383H41.7263C41.4947 13.8378 41.1474 13.0372 40.8 12.3511H30.6105C30.9579 11.5505 31.4211 10.8644 31.8842 10.0638H39.6421C39.1789 9.2633 38.6 8.46277 37.9053 7.7766H33.6211C34.3158 6.97606 35.0105 6.28989 35.8211 5.60372C32 2.05851 26.7895 0 21.1158 0H21" fill="#CB2026"/>
<path d="M29.2576 27.0854L29.6005 25.1426C29.4862 25.1426 29.2576 25.2569 29.0291 25.2569C28.2291 25.2569 28.1148 24.7997 28.2291 24.5712L28.9148 20.5712H30.1719L30.5148 18.3997H29.3719L29.6005 17.0283H27.3148C27.3148 17.0283 25.9434 24.5712 25.9434 25.4855C25.9434 26.8569 26.7434 27.4283 27.7719 27.4283C28.4576 27.4283 29.0291 27.1997 29.2576 27.0854Z" fill="white"/>
<path d="M30.0586 23.4288C30.0586 26.6288 32.23 27.4288 34.0586 27.4288C35.7729 27.4288 36.4586 27.0859 36.4586 27.0859L36.9157 24.9145C36.9157 24.9145 35.6586 25.4859 34.5157 25.4859C32.0014 25.4859 32.4586 23.6574 32.4586 23.6574H37.1443C37.1443 23.6574 37.4872 22.1717 37.4872 21.6002C37.4872 20.1145 36.6872 18.2859 34.1729 18.2859C31.7729 18.0574 30.0586 20.5717 30.0586 23.4288ZM34.0586 20.1145C35.3157 20.1145 35.0872 21.6002 35.0872 21.7145H32.5729C32.5729 21.6002 32.8014 20.1145 34.0586 20.1145Z" fill="white"/>
<path d="M48.5728 27.0857L49.03 24.5714C49.03 24.5714 47.8871 25.1428 47.0871 25.1428C45.4871 25.1428 44.8014 23.8857 44.8014 22.5143C44.8014 19.7714 46.1728 18.2857 47.7728 18.2857C48.9157 18.2857 49.83 18.9714 49.83 18.9714L50.1728 16.5714C50.1728 16.5714 48.8014 16 47.5442 16C44.9157 16 42.2871 18.2857 42.2871 22.6286C42.2871 25.4857 43.6585 27.4286 46.4014 27.4286C47.3157 27.4286 48.5728 27.0857 48.5728 27.0857Z" fill="white"/>
<path d="M16.6866 18.0576C15.0866 18.0576 13.9437 18.5148 13.9437 18.5148L13.6009 20.4576C13.6009 20.4576 14.6295 20.0005 16.1152 20.0005C16.9152 20.0005 17.6009 20.1148 17.6009 20.8005C17.6009 21.2576 17.4866 21.3719 17.4866 21.3719C17.4866 21.3719 16.8009 21.3719 16.458 21.3719C14.5152 21.3719 12.3438 22.1719 12.3438 24.8005C12.3438 26.8576 13.7152 27.3147 14.5152 27.3147C16.1152 27.3147 16.8009 26.2862 16.9152 26.2862L16.8009 27.2005H18.858L19.7723 20.9148C19.7723 18.1719 17.4866 18.0576 16.6866 18.0576ZM17.1437 23.2005C17.1437 23.5433 16.9152 25.3719 15.5437 25.3719C14.858 25.3719 14.6295 24.8005 14.6295 24.4576C14.6295 23.8862 14.9723 23.0862 16.6866 23.0862C17.0295 23.2005 17.1437 23.2005 17.1437 23.2005Z" fill="white"/>
<path d="M21.945 27.3138C22.5164 27.3138 25.3735 27.4281 25.3735 24.3424C25.3735 21.4852 22.6307 22.0567 22.6307 20.9138C22.6307 20.3424 23.0878 20.1138 23.8878 20.1138C24.2307 20.1138 25.4878 20.2281 25.4878 20.2281L25.8307 18.171C25.8307 18.171 25.0307 17.9424 23.6593 17.9424C21.945 17.9424 20.2307 18.6281 20.2307 20.9138C20.2307 23.5424 23.0878 23.3138 23.0878 24.3424C23.0878 25.0281 22.2878 25.1424 21.7164 25.1424C20.6878 25.1424 19.6593 24.7995 19.6593 24.7995L19.3164 26.8567C19.4307 27.0852 20.0021 27.3138 21.945 27.3138Z" fill="white"/>
<path d="M67.5455 16.2285L67.0884 19.3142C67.0884 19.3142 66.1741 18.1714 64.917 18.1714C62.8598 18.1714 61.0312 20.6857 61.0312 23.6571C61.0312 25.4856 61.9455 27.4285 63.8884 27.4285C65.2598 27.4285 66.0598 26.5142 66.0598 26.5142L65.9455 27.3142H68.2312L69.9455 16.3428L67.5455 16.2285ZM66.517 22.2856C66.517 23.5428 65.9455 25.1428 64.6884 25.1428C63.8884 25.1428 63.4312 24.4571 63.4312 23.3142C63.4312 21.4857 64.2312 20.3428 65.2598 20.3428C66.0598 20.3428 66.517 20.9142 66.517 22.2856Z" fill="white"/>
<path d="M4.23002 27.1999L5.60145 18.9714L5.83002 27.1999H7.43001L10.4014 18.9714L9.1443 27.1999H11.5443L13.3729 16.2285H9.60144L7.31573 22.9714L7.20144 16.2285H3.88716L2.05859 27.1999H4.23002Z" fill="white"/>
<path d="M39.6588 27.2004C40.3445 23.429 40.4588 20.3433 42.0588 20.9147C42.2874 19.429 42.6302 18.8576 42.8588 18.2861C42.8588 18.2861 42.7445 18.2861 42.4017 18.2861C41.3731 18.2861 40.5731 19.6576 40.5731 19.6576L40.8017 18.4004H38.6302L37.1445 27.3147H39.6588V27.2004Z" fill="white"/>
<path d="M53.8292 18.0576C52.2292 18.0576 51.0863 18.5148 51.0863 18.5148L50.7435 20.4576C50.7435 20.4576 51.772 20.0005 53.2577 20.0005C54.0577 20.0005 54.7435 20.1148 54.7435 20.8005C54.7435 21.2576 54.6292 21.3719 54.6292 21.3719C54.6292 21.3719 53.9435 21.3719 53.6006 21.3719C51.6578 21.3719 49.4863 22.1719 49.4863 24.8005C49.4863 26.8576 50.8578 27.3147 51.6578 27.3147C53.2578 27.3147 53.9435 26.2862 54.0577 26.2862L53.9435 27.2005H56.0006L56.9149 20.9148C57.0292 18.1719 54.6292 18.0576 53.8292 18.0576ZM54.4006 23.2005C54.4006 23.5433 54.172 25.3719 52.8006 25.3719C52.1149 25.3719 51.8863 24.8005 51.8863 24.4576C51.8863 23.8862 52.2292 23.0862 53.9435 23.0862C54.2863 23.2005 54.2863 23.2005 54.4006 23.2005Z" fill="white"/>
<path d="M58.86 27.2004C59.5457 23.429 59.66 20.3433 61.26 20.9147C61.4886 19.429 61.8314 18.8576 62.06 18.2861C62.06 18.2861 61.9457 18.2861 61.6028 18.2861C60.5743 18.2861 59.7743 19.6576 59.7743 19.6576L60.0028 18.4004H57.8314L56.3457 27.3147H58.86V27.2004Z" fill="white"/>
<path d="M25.7148 25.4855C25.7148 26.8569 26.5148 27.4283 27.5434 27.4283C28.3434 27.4283 29.0291 27.1997 29.2577 27.0854L29.6006 25.1426C29.4863 25.1426 29.2577 25.2569 29.0291 25.2569C28.2291 25.2569 28.1148 24.7997 28.2291 24.5712L28.9148 20.5712H30.172L30.5148 18.3997H29.372L29.6006 17.0283" fill="#DCE5E5"/>
<path d="M31.2012 23.4288C31.2012 26.6288 32.2297 27.4288 34.0583 27.4288C35.7726 27.4288 36.4583 27.0859 36.4583 27.0859L36.9154 24.9145C36.9154 24.9145 35.6583 25.4859 34.5155 25.4859C32.0012 25.4859 32.4583 23.6574 32.4583 23.6574H37.144C37.144 23.6574 37.4869 22.1717 37.4869 21.6002C37.4869 20.1145 36.6869 18.2859 34.1726 18.2859C31.7726 18.0574 31.2012 20.5717 31.2012 23.4288ZM34.0583 20.1145C35.3155 20.1145 35.544 21.6002 35.544 21.7145H32.5726C32.5726 21.6002 32.8012 20.1145 34.0583 20.1145Z" fill="#DCE5E5"/>
<path d="M48.5745 27.0857L49.0316 24.5714C49.0316 24.5714 47.8888 25.1428 47.0888 25.1428C45.4888 25.1428 44.8031 23.8857 44.8031 22.5143C44.8031 19.7714 46.1745 18.2857 47.7745 18.2857C48.9173 18.2857 49.8316 18.9714 49.8316 18.9714L50.1745 16.5714C50.1745 16.5714 48.8031 16 47.5459 16C44.9174 16 43.4316 18.2857 43.4316 22.6286C43.4316 25.4857 43.6602 27.4286 46.4031 27.4286C47.3173 27.4286 48.5745 27.0857 48.5745 27.0857Z" fill="#DCE5E5"/>
<path d="M13.6009 20.5718C13.6009 20.5718 14.6295 20.1147 16.1152 20.1147C16.9152 20.1147 17.6009 20.229 17.6009 20.9147C17.6009 21.3718 17.4866 21.4861 17.4866 21.4861C17.4866 21.4861 16.8009 21.4861 16.458 21.4861C14.5152 21.4861 12.3438 22.2861 12.3438 24.9147C12.3438 26.9718 13.7152 27.429 14.5152 27.429C16.1152 27.429 16.8009 26.4004 16.9152 26.4004L16.8009 27.3147H18.858L19.7723 21.029C19.7723 18.4004 17.4866 18.2861 16.5723 18.2861L13.6009 20.5718ZM18.2866 23.2004C18.2866 23.5433 16.9152 25.3718 15.5437 25.3718C14.858 25.3718 14.6295 24.8004 14.6295 24.4576C14.6295 23.8861 14.9723 23.0861 16.6866 23.0861C17.0295 23.2004 18.2866 23.2004 18.2866 23.2004Z" fill="#DCE5E5"/>
<path d="M19.4297 27.0852C19.4297 27.0852 20.1154 27.3138 22.0583 27.3138C22.6297 27.3138 25.4868 27.4281 25.4868 24.3424C25.4868 21.4852 22.744 22.0567 22.744 20.9138C22.744 20.3424 23.2011 20.1138 24.0011 20.1138C24.344 20.1138 25.6011 20.2281 25.6011 20.2281L25.944 18.171C25.944 18.171 25.144 17.9424 23.7725 17.9424C22.0583 17.9424 21.4868 18.6281 21.4868 20.9138C21.4868 23.5424 23.2011 23.3138 23.2011 24.3424C23.2011 25.0281 22.4011 25.1424 21.8297 25.1424" fill="#DCE5E5"/>
<path d="M67.0866 19.3142C67.0866 19.3142 66.1723 18.1713 64.9152 18.1713C62.8581 18.1713 62.1724 20.6856 62.1724 23.657C62.1724 25.4856 61.9438 27.4285 63.8866 27.4285C65.2581 27.4285 66.0581 26.5142 66.0581 26.5142L65.9438 27.3142H68.2295L69.9438 16.3428L67.0866 19.3142ZM66.9723 22.2856C66.9723 23.5428 65.9438 25.1428 64.6866 25.1428C63.8866 25.1428 63.4295 24.457 63.4295 23.3142C63.4295 21.4856 64.2295 20.3428 65.2581 20.3428C66.0581 20.3428 66.9723 20.9142 66.9723 22.2856Z" fill="#DCE5E5"/>
<path d="M4.23002 27.1999L5.60145 18.9714L5.83002 27.1999H7.43001L10.4014 18.9714L9.1443 27.1999H11.5443L13.3729 16.2285H10.5157L7.31573 22.9714L7.20144 16.2285H5.9443L2.05859 27.1999H4.23002Z" fill="#DCE5E5"/>
<path d="M37.2598 27.2004H39.6598C40.3455 23.429 40.4598 20.3433 42.0598 20.9147C42.2883 19.429 42.6312 18.8576 42.8598 18.2861C42.8598 18.2861 42.7455 18.2861 42.4026 18.2861C41.374 18.2861 40.574 19.6576 40.574 19.6576L40.8026 18.4004" fill="#DCE5E5"/>
<path d="M50.7435 20.5718C50.7435 20.5718 51.772 20.1147 53.2578 20.1147C54.0577 20.1147 54.7435 20.229 54.7435 20.9147C54.7435 21.3718 54.6292 21.4861 54.6292 21.4861C54.6292 21.4861 53.9435 21.4861 53.6006 21.4861C51.6578 21.4861 49.4863 22.2861 49.4863 24.9147C49.4863 26.9718 50.8578 27.429 51.6578 27.429C53.2578 27.429 53.9435 26.4004 54.0577 26.4004L53.9435 27.3147H56.0006L56.9149 21.029C56.9149 18.4004 54.6292 18.2861 53.7149 18.2861L50.7435 20.5718ZM55.4292 23.2004C55.4292 23.5433 54.0577 25.3718 52.6863 25.3718C52.0006 25.3718 51.772 24.8004 51.772 24.4576C51.772 23.8861 52.1149 23.0861 53.8292 23.0861C54.2863 23.2004 55.4292 23.2004 55.4292 23.2004Z" fill="#DCE5E5"/>
<path d="M56.459 27.2004H58.859C59.5447 23.429 59.659 20.3433 61.259 20.9147C61.4875 19.429 61.8304 18.8576 62.059 18.2861C62.059 18.2861 61.9447 18.2861 61.6018 18.2861C60.5733 18.2861 59.7733 19.6576 59.7733 19.6576L60.0018 18.4004" fill="#DCE5E5"/>
</svg>
