<svg width="59" height="59" viewBox="0 0 59 59" fill="none" xmlns="http://www.w3.org/2000/svg">
<path fill-rule="evenodd" clip-rule="evenodd" d="M6.97917 51.7727C7.27604 50.1633 8.42188 46.4238 8.96354 44.4602C9.32812 43.1477 9.5625 43.1842 8.9375 42.1686C-3.52083 22.0644 16.375 -1.9304 38.4948 6.73106C41.7656 8.0071 44.1302 9.90293 46.1406 11.7831C49.9688 15.3613 53.6458 21.7727 53.474 29.6321C53.0729 48.0123 32.9323 59.4133 16.9635 49.9186C15.651 49.1425 14.8021 49.7363 12.0417 50.4758C10.5052 50.8821 8.5 51.5383 6.97396 51.7779L6.97917 51.7727ZM0.00520833 58.6686C1.73958 58.429 4.36979 57.58 6.14063 57.1165C8.24479 56.5592 10.2604 56.0331 12.3281 55.4811C16.0781 54.4758 14.8177 54.5644 18.0781 55.9654C29.4792 60.8769 40.8021 57.5175 48.8333 50.6477C49.8698 49.7571 50.8333 48.804 51.7135 47.6686C55.5156 42.7988 57.9323 37.6269 58.3438 30.8821C58.7396 24.4498 56.8281 17.5279 53.2865 12.6165L50.7031 9.34043C50.3542 8.96543 50.0208 8.79356 49.6823 8.40814C48.6354 7.21543 46.9583 5.90814 45.5156 4.92897C29.5937 -5.85749 7.08854 1.7623 1.375 20.9394C0.078124 25.2883 -0.182292 30.1581 0.723958 34.7258C1.17187 36.9602 1.77083 38.7623 2.58854 40.6946C3.97396 43.9654 4.36979 42.5436 3.33854 46.3508C2.79167 48.3665 2.21354 50.4758 1.66146 52.4811C1.13021 54.4029 0.333333 56.7883 0 58.679L0.00520833 58.6686Z" fill="white"/>
<path fill-rule="evenodd" clip-rule="evenodd" d="M18.5625 15.7362C17.5365 15.9654 16.9167 16.6269 16.2813 17.4446C14.1354 20.179 14.0833 23.429 15.4063 26.5748C17.0417 30.4758 20.8021 34.7987 24.0729 37.6008C27.224 40.3092 34.0208 43.481 38.2552 43.0019C41.4688 42.6425 43.9792 40.33 44.0573 36.9446C44.0938 35.5592 43.2969 35.5435 42.1511 34.9862C41.2708 34.5592 37.4011 32.4342 36.5052 32.7571C36.1042 32.8977 34.4531 35.1581 33.7604 35.9029C33.4323 36.2571 33.1875 36.5592 32.4688 36.3821C29.3646 35.6269 25.4427 32.1477 23.4896 29.5592C21.2136 26.5175 21.8802 27.179 23.6354 24.8092C24.3333 23.8612 24.6511 23.205 24.1094 21.9446C23.6875 20.9706 23.3229 20.0383 22.9219 19.0644C22.0104 16.8612 21.7865 15.0279 18.5625 15.7519V15.7362Z" fill="white"/>
</svg>
