<?xml version="1.0" encoding="UTF-8"?>
<svg width="80px" height="80px" viewBox="0 0 80 80" version="1.1" xmlns="http://www.w3.org/2000/svg" xmlns:xlink="http://www.w3.org/1999/xlink">
    <!-- Generator: Sketch 61.2 (89653) - https://sketch.com -->
    <title>Icons (Decorative)/workflow</title>
    <desc>Created with Sketch.</desc>
    <defs>
        <circle id="path-1" cx="66" cy="2" r="1"></circle>
        <circle id="path-2" cx="72" cy="4" r="4"></circle>
        <circle id="path-3" cx="70" cy="65" r="2"></circle>
        <circle id="path-4" cx="4" cy="52" r="4"></circle>
    </defs>
    <g id="Icons-(Decorative)/workflow" stroke="none" stroke-width="1" fill="none" fill-rule="evenodd">
        <g id="icons8-workflow" transform="translate(1.000000, 1.000000)">
            <g id="Group">
                <g id="Oval">
                    <use fill="#F5684F" xlink:href="#path-1"></use>
                    <use fill="#FF7D54" xlink:href="#path-1"></use>
                    <use fill="#FF6755" xlink:href="#path-1"></use>
                    <use fill="#FFA949" xlink:href="#path-1"></use>
                </g>
                <circle id="Oval" fill="#E4E4F9" fill-rule="nonzero" cx="39" cy="39" r="37"></circle>
                <g id="Oval">
                    <use fill="#F5684F" xlink:href="#path-2"></use>
                    <use fill="#FF7D54" xlink:href="#path-2"></use>
                    <use fill="#FF6755" xlink:href="#path-2"></use>
                    <use fill="#FFA949" xlink:href="#path-2"></use>
                </g>
                <circle id="Oval" fill="#8889B9" fill-rule="nonzero" cx="76" cy="13" r="2"></circle>
                <g id="Oval">
                    <use fill="#F5684F" xlink:href="#path-3"></use>
                    <use fill="#FF7D54" xlink:href="#path-3"></use>
                    <use fill="#FF6755" xlink:href="#path-3"></use>
                    <use fill="#FFA949" xlink:href="#path-3"></use>
                </g>
                <g id="Oval">
                    <use fill="#F5684F" xlink:href="#path-4"></use>
                    <use fill="#FF7D54" xlink:href="#path-4"></use>
                    <use fill="#FF6755" xlink:href="#path-4"></use>
                    <use fill="#FFA949" xlink:href="#path-4"></use>
                </g>
                <circle id="Oval" fill="#8889B9" fill-rule="nonzero" cx="14" cy="76" r="2"></circle>
                <circle id="Oval" fill="#FFFFFF" fill-rule="nonzero" cx="7.5" cy="40.5" r="2.5"></circle>
                <circle id="Oval" fill="#FFFFFF" fill-rule="nonzero" cx="68.5" cy="22.5" r="1.5"></circle>
            </g>
            <g id="Group" transform="translate(16.000000, 17.000000)" fill-rule="nonzero">
                <circle id="Oval" fill="#F9E65C" cx="8" cy="8" r="7.3"></circle>
                <path d="M8,1.4 C11.639,1.4 14.6,4.361 14.6,8 C14.6,11.639 11.639,14.6 8,14.6 C4.361,14.6 1.4,11.639 1.4,8 C1.4,4.361 4.361,1.4 8,1.4 M8,0 C3.582,0 0,3.582 0,8 C0,12.418 3.582,16 8,16 C12.418,16 16,12.418 16,8 C16,3.582 12.418,0 8,0 L8,0 Z" id="Shape" fill="#472B29"></path>
            </g>
            <path d="M28.5,25.25 C28.362,25.25 28.25,25.138 28.25,25 C28.25,23.441 27.398,22.01 26.027,21.264 C25.906,21.198 25.861,21.046 25.927,20.925 C25.993,20.803 26.145,20.76 26.266,20.824 C27.798,21.658 28.75,23.258 28.75,25 C28.75,25.138 28.638,25.25 28.5,25.25 Z" id="Path" fill="#472B29" fill-rule="nonzero"></path>
            <path d="M24,29.75 C21.381,29.75 19.25,27.619 19.25,25 C19.25,22.381 21.381,20.25 24,20.25 C24.138,20.25 24.25,20.362 24.25,20.5 C24.25,20.638 24.138,20.75 24,20.75 C21.657,20.75 19.75,22.656 19.75,25 C19.75,27.344 21.657,29.25 24,29.25 C25.467,29.25 26.812,28.509 27.596,27.267 C27.671,27.15 27.827,27.118 27.941,27.19 C28.058,27.263 28.093,27.418 28.019,27.535 C27.142,28.922 25.64,29.75 24,29.75 Z" id="Path" fill="#472B29" fill-rule="nonzero"></path>
            <g id="Group" transform="translate(46.000000, 45.000000)" fill-rule="nonzero">
                <circle id="Oval" fill="#60BE92" cx="8" cy="8" r="7.3"></circle>
                <path d="M8,1.4 C11.639,1.4 14.6,4.361 14.6,8 C14.6,11.639 11.639,14.6 8,14.6 C4.361,14.6 1.4,11.639 1.4,8 C1.4,4.361 4.361,1.4 8,1.4 M8,0 C3.582,0 0,3.582 0,8 C0,12.418 3.582,16 8,16 C12.418,16 16,12.418 16,8 C16,3.582 12.418,0 8,0 L8,0 Z" id="Shape" fill="#472B29"></path>
            </g>
            <g id="Group" transform="translate(17.000000, 46.000000)" fill-rule="nonzero">
                <path d="M2.167,13.3 C1.358,13.3 0.701,12.642 0.701,11.833 L0.701,2.167 C0.701,1.358 1.359,0.7 2.167,0.7 L11.834,0.7 C12.643,0.7 13.3,1.358 13.3,2.167 L13.3,11.833 C13.3,12.642 12.642,13.3 11.834,13.3 L2.167,13.3 Z" id="Path" fill="#39C2D8"></path>
                <path d="M11.833,1.4 C12.256,1.4 12.6,1.744 12.6,2.167 L12.6,11.834 C12.6,12.257 12.256,12.601 11.833,12.601 L2.166,12.601 C1.743,12.601 1.399,12.257 1.399,11.834 L1.399,2.167 C1.399,1.744 1.743,1.4 2.166,1.4 L11.833,1.4 M11.833,0 L2.166,0 C0.97,0 0,0.97 0,2.167 L0,11.834 C0,13.03 0.97,14 2.167,14 L11.834,14 C13.03,14 14,13.03 14,11.833 L14,2.166 C14,0.97 13.03,0 11.833,0 L11.833,0 Z" id="Shape" fill="#472B29"></path>
            </g>
            <g id="Group" transform="translate(20.000000, 49.000000)" fill-rule="nonzero">
                <path d="M0.5,1.167 C0.5,0.799 0.798,0.5 1.167,0.5 L6.834,0.5 C7.202,0.5 7.501,0.798 7.501,1.167 L7.501,6.834 C7.501,7.202 7.203,7.501 6.834,7.501 L1.167,7.501 C0.799,7.501 0.5,7.203 0.5,6.834 L0.5,3.709" id="Path" fill="#39C2D8"></path>
                <path d="M6.833,7.75 L1.166,7.75 C0.661,7.75 0.249,7.339 0.249,6.833 L0.249,3.708 C0.249,3.57 0.361,3.458 0.499,3.458 C0.637,3.458 0.749,3.57 0.749,3.708 L0.749,6.833 C0.749,7.062 0.936,7.25 1.166,7.25 L6.833,7.25 C7.062,7.25 7.25,7.062 7.25,6.833 L7.25,1.167 C7.25,0.938 7.063,0.75 6.833,0.75 L1.166,0.75 C0.937,0.75 0.749,0.938 0.749,1.167 C0.749,1.305 0.637,1.417 0.499,1.417 C0.361,1.417 0.249,1.305 0.249,1.167 C0.249,0.661 0.66,0.25 1.166,0.25 L6.833,0.25 C7.338,0.25 7.75,0.661 7.75,1.167 L7.75,6.833 C7.75,7.339 7.339,7.75 6.833,7.75 Z" id="Path" fill="#472B29"></path>
            </g>
            <g id="Group" transform="translate(44.000000, 15.000000)" fill-rule="nonzero">
                <path d="M9.5,17.674 C9.215,17.674 8.946,17.564 8.745,17.361 L1.441,10.058 C1.239,9.857 1.128,9.588 1.128,9.303 C1.128,9.018 1.238,8.749 1.441,8.548 L8.745,1.244 C8.946,1.042 9.215,0.931 9.5,0.931 C9.785,0.931 10.054,1.041 10.255,1.244 L17.559,8.548 C17.761,8.749 17.872,9.018 17.872,9.303 C17.872,9.588 17.762,9.857 17.559,10.058 L10.255,17.361 C10.054,17.563 9.785,17.674 9.5,17.674 Z" id="Path" fill="#EF5390"></path>
                <path d="M9.5,1.632 C9.569,1.632 9.671,1.651 9.76,1.739 L17.063,9.042 C17.206,9.186 17.206,9.419 17.063,9.563 L9.76,16.866 C9.671,16.955 9.569,16.973 9.5,16.973 C9.431,16.973 9.329,16.954 9.24,16.866 L1.937,9.563 C1.794,9.419 1.794,9.186 1.937,9.042 L9.24,1.739 C9.329,1.651 9.431,1.632 9.5,1.632 M9.5,0.232 C9.048,0.232 8.595,0.404 8.25,0.75 L0.947,8.053 C0.257,8.743 0.257,9.863 0.947,10.553 L8.25,17.856 C8.595,18.201 9.048,18.374 9.5,18.374 C9.952,18.374 10.405,18.202 10.75,17.856 L18.053,10.553 C18.743,9.863 18.743,8.743 18.053,8.053 L10.75,0.75 C10.405,0.405 9.952,0.232 9.5,0.232 L9.5,0.232 Z" id="Shape" fill="#472B29"></path>
            </g>
            <path d="M41.5,25 L35.5,25 C35.224,25 35,24.776 35,24.5 C35,24.224 35.224,24 35.5,24 L41.5,24 C41.776,24 42,24.224 42,24.5 C42,24.776 41.776,25 41.5,25 Z" id="Path" fill="#472B29" fill-rule="nonzero"></path>
            <path d="M38.5,28 C38.372,28 38.244,27.951 38.146,27.854 C37.951,27.659 37.951,27.342 38.146,27.147 L40.792,24.501 L38.146,21.855 C37.951,21.66 37.951,21.343 38.146,21.148 C38.341,20.953 38.658,20.953 38.853,21.148 L41.853,24.148 C42.048,24.343 42.048,24.66 41.853,24.855 L38.853,27.855 C38.756,27.951 38.628,28 38.5,28 Z" id="Path" fill="#472B29" fill-rule="nonzero"></path>
            <path d="M23.5,43 C23.224,43 23,42.776 23,42.5 L23,36.5 C23,36.224 23.224,36 23.5,36 C23.776,36 24,36.224 24,36.5 L24,42.5 C24,42.776 23.776,43 23.5,43 Z" id="Path" fill="#472B29" fill-rule="nonzero"></path>
            <path d="M26.5,40 C26.372,40 26.244,39.951 26.146,39.854 L23.5,37.207 L20.854,39.853 C20.659,40.048 20.342,40.048 20.147,39.853 C19.952,39.658 19.952,39.341 20.147,39.146 L23.147,36.146 C23.342,35.951 23.659,35.951 23.854,36.146 L26.854,39.146 C27.049,39.341 27.049,39.658 26.854,39.853 C26.756,39.951 26.628,40 26.5,40 Z" id="Path" fill="#472B29" fill-rule="nonzero"></path>
            <path d="M53.5,43 C53.224,43 53,42.776 53,42.5 L53,36.5 C53,36.224 53.224,36 53.5,36 C53.776,36 54,36.224 54,36.5 L54,42.5 C54,42.776 53.776,43 53.5,43 Z" id="Path" fill="#472B29" fill-rule="nonzero"></path>
            <path d="M53.5,43 C53.372,43 53.244,42.951 53.146,42.854 L50.146,39.854 C49.951,39.659 49.951,39.342 50.146,39.147 C50.341,38.952 50.658,38.952 50.853,39.147 L53.499,41.793 L56.145,39.147 C56.34,38.952 56.657,38.952 56.852,39.147 C57.047,39.342 57.047,39.659 56.852,39.854 L53.852,42.854 C53.756,42.951 53.628,43 53.5,43 Z" id="Path" fill="#472B29" fill-rule="nonzero"></path>
            <path d="M58.5,53.25 C58.362,53.25 58.25,53.138 58.25,53 C58.25,51.441 57.398,50.01 56.027,49.264 C55.905,49.198 55.861,49.046 55.926,48.925 C55.993,48.803 56.145,48.76 56.265,48.824 C57.797,49.657 58.7490066,51.258 58.7490066,53 C58.75,53.138 58.638,53.25 58.5,53.25 Z" id="Path" fill="#472B29" fill-rule="nonzero"></path>
            <path d="M54,57.75 C51.381,57.75 49.25,55.619 49.25,53 C49.25,50.381 51.381,48.25 54,48.25 C54.138,48.25 54.25,48.362 54.25,48.5 C54.25,48.638 54.138,48.75 54,48.75 C51.656,48.75 49.75,50.656 49.75,53 C49.75,55.344 51.656,57.25 54,57.25 C55.467,57.25 56.812,56.509 57.597,55.267 C57.67,55.152 57.825,55.118 57.942,55.19 C58.058,55.263 58.093,55.418 58.019,55.535 C57.142,56.922 55.639,57.75 54,57.75 Z" id="Path" fill="#472B29" fill-rule="nonzero"></path>
            <path d="M53.525,29.419 C53.272,29.419 53.019,29.322 52.827,29.13 L48.394,24.698 C48.01,24.313 48.01,23.686 48.394,23.302 L52.827,18.87 C53.212,18.485 53.839,18.485 54.223,18.87 L58.655,23.302 C59.04,23.687 59.04,24.314 58.655,24.698 L56.211,27.142 C56.113,27.24 55.955,27.24 55.857,27.142 C55.759,27.044 55.759,26.886 55.857,26.788 L58.301,24.344 C58.491,24.154 58.491,23.845 58.301,23.655 L53.869,19.223 C53.68,19.034 53.369,19.034 53.18,19.223 L48.747,23.655 C48.558,23.845 48.558,24.154 48.747,24.344 L53.18,28.776 C53.369,28.965 53.68,28.965 53.869,28.776 C53.967,28.678 54.125,28.678 54.223,28.776 C54.321,28.874 54.321,29.032 54.223,29.13 C54.031,29.322 53.778,29.419 53.525,29.419 Z" id="Path" fill="#472B29" fill-rule="nonzero"></path>
        </g>
    </g>
</svg>