<?xml version="1.0" encoding="UTF-8"?>
<svg width="24px" height="24px" viewBox="0 0 24 24" version="1.1" xmlns="http://www.w3.org/2000/svg" xmlns:xlink="http://www.w3.org/1999/xlink">
    <!-- Generator: Sketch 61.2 (89653) - https://sketch.com -->
    <title>Icons/youtube-white</title>
    <desc>Created with Sketch.</desc>
    <g id="Icons/youtube" stroke="none" stroke-width="1" fill="none" fill-rule="evenodd">
        <path d="M12,3 C15.1866154,3 18.0026154,3.3519 19.7211538,3.6192 C21.1426923,3.8406 22.2892308,4.9791 22.5506923,6.4875 C22.7749231,7.7745 23,9.6555 23,12 C23,14.3445 22.7715385,16.2255 22.5506923,17.5125 C22.2892308,19.0209 21.1426923,20.163 19.7211538,20.3808 C17.9958462,20.6481 15.1696923,21 12,21 C8.83030769,21 6.00415385,20.6481 4.27884615,20.3808 C2.85730769,20.163 1.71076923,19.0209 1.44930769,17.5125 C1.22846154,16.2291 1,14.3517 1,12 C1,9.6483 1.22846154,7.7709 1.44930769,6.4875 C1.71076923,4.9791 2.85730769,3.8406 4.27884615,3.6192 C5.99738462,3.3519 8.81338462,3 12,3 Z M9.46153846,7.17375 L9.46153846,16.8245625 L10.7307692,16.1124375 L16.6538462,12.7374375 L17.9230769,11.9991563 L16.6538462,11.260875 L10.7307692,7.885875 L9.46153846,7.17375 Z" id="Icon" fill="#FFFFFF"></path>
    </g>
</svg>